<?xml version="1.0" encoding="utf-8"?>
<!-- Generator: Adobe Illustrator 19.1.0, SVG Export Plug-In . SVG Version: 6.00 Build 0)  -->
<svg version="1.1" id="Layer_1" xmlns="http://www.w3.org/2000/svg" xmlns:xlink="http://www.w3.org/1999/xlink" x="0px" y="0px"
	 viewBox="-404 271 150 20" style="enable-background:new -404 271 150 20;" xml:space="preserve">
<style type="text/css">
	.st0{fill:#01A2A6;}
	.st1{fill:#FFFFFF;}
	.st2{fill:#2F2933;}
	.st3{opacity:0.6;fill:#FFFFFF;enable-background:new    ;}
</style>
<rect x="-404" y="271" class="st0" width="150" height="20"/>
<path class="st1" d="M-295.1,285.5h-37c-0.6,0-1-0.4-1-1v-7c0-0.6,0.4-1,1-1h37c0.6,0,1,0.4,1,1v7
	C-294.1,285.1-294.5,285.5-295.1,285.5z"/>
<path class="st2" d="M-263,285.5h-26c-0.6,0-1-0.4-1-1v-7c0-0.6,0.4-1,1-1h26c0.6,0,1,0.4,1,1v7C-262,285.1-262.4,285.5-263,285.5z"
	/>
<g id="Layer_2">
</g>
<path class="st3" d="M-339.4,282.5h-55.3c-0.7,0-1.3-0.6-1.3-1.5l0,0c0-0.9,0.6-1.5,1.3-1.5h55.3c0.7,0,1.3,0.6,1.3,1.5l0,0
	C-338.1,281.9-338.7,282.5-339.4,282.5z"/>
</svg>
