<?xml version="1.0" encoding="utf-8"?>
<!-- Generator: Adobe Illustrator 19.1.0, SVG Export Plug-In . SVG Version: 6.00 Build 0)  -->
<svg version="1.1" id="Layer_1" xmlns="http://www.w3.org/2000/svg" xmlns:xlink="http://www.w3.org/1999/xlink" x="0px" y="0px"
	 viewBox="-404 275 150 12" style="enable-background:new -404 275 150 12;" xml:space="preserve">
<style type="text/css">
	.st0{fill:#E85A34;}
	.st1{fill:#A33112;}
	.st2{opacity:0.6;fill:#FFFFFF;enable-background:new    ;}
</style>
<rect x="-404" y="275" class="st0" width="150" height="12"/>
<path class="st1" d="M-277,285h-30c-0.6,0-1-0.4-1-0.9v-6.2c0-0.5,0.4-0.9,1-0.9h30c0.6,0,1,0.4,1,0.9v6.2
	C-276,284.6-276.4,285-277,285z"/>
<g id="Layer_2">
</g>
<path class="st2" d="M-314.4,282.5h-67.3c-0.7,0-1.3-0.6-1.3-1.5l0,0c0-0.9,0.6-1.5,1.3-1.5h67.3c0.7,0,1.3,0.6,1.3,1.5l0,0
	C-313.1,281.9-313.7,282.5-314.4,282.5z"/>
</svg>
