<?xml version="1.0" encoding="utf-8"?>
<!-- Generator: Adobe Illustrator 17.1.0, SVG Export Plug-In . SVG Version: 6.00 Build 0)  -->
<!DOCTYPE svg PUBLIC "-//W3C//DTD SVG 1.1//EN" "http://www.w3.org/Graphics/SVG/1.1/DTD/svg11.dtd">
<svg version="1.1" id="Layer_1" xmlns="http://www.w3.org/2000/svg" xmlns:xlink="http://www.w3.org/1999/xlink" x="0px" y="0px"
	 width="50px" height="50px" viewBox="0 0 50 50" enable-background="new 0 0 50 50" xml:space="preserve">
<g>
	<path fill="#E5E9F2" d="M0,0v50h50V0H0z M4,15h2v8H4V15z M4,27h2v8H4V27z M11,46H4v-6h2v4h5V46z M11,6H6v4H4V4h7V6z M23,46h-8v-2h8
		V46z M23,6h-8V4h8V6z M35,46h-8v-2h8V46z M35,6h-8V4h8V6z M46,46h-7v-2h5v-4h2V46z M46,35h-2v-8h2V35z M46,23h-2v-8h2V23z M46,10
		h-2V6h-5V4h7V10z"/>
	<polygon fill="#01ADFF" points="44,44 39,44 39,46 46,46 46,40 44,40 	"/>
	<polygon fill="#01ADFF" points="6,40 4,40 4,46 11,46 11,44 6,44 	"/>
	<polygon fill="#01ADFF" points="4,10 6,10 6,6 11,6 11,4 4,4 	"/>
	<polygon fill="#01ADFF" points="39,6 44,6 44,10 46,10 46,4 39,4 	"/>
	<rect x="27" y="44" fill="#01ADFF" width="8" height="2"/>
	<rect x="15" y="44" fill="#01ADFF" width="8" height="2"/>
	<rect x="27" y="4" fill="#01ADFF" width="8" height="2"/>
	<rect x="15" y="4" fill="#01ADFF" width="8" height="2"/>
	<rect x="4" y="27" fill="#01ADFF" width="2" height="8"/>
	<rect x="4" y="15" fill="#01ADFF" width="2" height="8"/>
	<rect x="44" y="27" fill="#01ADFF" width="2" height="8"/>
	<rect x="44" y="15" fill="#01ADFF" width="2" height="8"/>
</g>
</svg>
