<?xml version="1.0" encoding="utf-8"?>
<!-- Generator: Adobe Illustrator 17.1.0, SVG Export Plug-In . SVG Version: 6.00 Build 0)  -->
<!DOCTYPE svg PUBLIC "-//W3C//DTD SVG 1.1//EN" "http://www.w3.org/Graphics/SVG/1.1/DTD/svg11.dtd">
<svg version="1.1" id="Layer_1" xmlns="http://www.w3.org/2000/svg" xmlns:xlink="http://www.w3.org/1999/xlink" x="0px" y="0px"
	 width="50px" height="50px" viewBox="0 0 50 50" enable-background="new 0 0 50 50" xml:space="preserve">
<g>
	<polygon fill="#E5E9F2" points="0,0 0,26.847 4,23.988 7,26.988 10,23.988 13,26.988 16,23.988 19,26.988 22,23.988 25,26.988 
		28,23.988 31,26.988 34,23.988 37,26.988 40,23.988 43,26.988 46,23.988 50,26.847 50,0 	"/>
	<polygon fill="#F35A4A" points="43,26.988 40,23.988 37,26.988 34,23.988 31,26.988 28,23.988 25,26.988 22,23.988 19,26.988 
		16,23.988 13,26.988 10,23.988 7,26.988 4,23.988 0,26.847 0,50 50,50 50,26.847 46,23.988 	"/>
</g>
</svg>
