<?xml version="1.0" encoding="utf-8"?>
<!-- Generator: Adobe Illustrator 19.1.0, SVG Export Plug-In . SVG Version: 6.00 Build 0)  -->
<svg version="1.1" id="Layer_1" xmlns="http://www.w3.org/2000/svg" xmlns:xlink="http://www.w3.org/1999/xlink" x="0px" y="0px"
	 viewBox="-124 108 150 86" style="enable-background:new -124 108 150 86;" xml:space="preserve">
<style type="text/css">
	.st0{fill:#293948;}
	.st1{fill:#14283A;}
	.st2{fill:#AFB7B9;}
	.st3{display:none;}
</style>
<rect x="-124" y="171" class="st0" width="150" height="23"/>
<rect x="-124" y="108" class="st1" width="150" height="63"/>
<path class="st2" d="M16,120h-73c-0.6,0-1-0.4-1-1l0,0c0-0.6,0.4-1,1-1h73c0.6,0,1,0.4,1,1l0,0C17,119.6,16.6,120,16,120z"/>
<path class="st2" d="M16,129h-73c-0.6,0-1-0.4-1-1l0,0c0-0.6,0.4-1,1-1h73c0.6,0,1,0.4,1,1l0,0C17,128.6,16.6,129,16,129z"/>
<path class="st2" d="M16,138h-73c-0.6,0-1-0.4-1-1l0,0c0-0.6,0.4-1,1-1h73c0.6,0,1,0.4,1,1l0,0C17,137.6,16.6,138,16,138z"/>
<path class="st2" d="M16,147h-73c-0.6,0-1-0.4-1-1l0,0c0-0.6,0.4-1,1-1h73c0.6,0,1,0.4,1,1l0,0C17,146.6,16.6,147,16,147z"/>
<path class="st2" d="M16,156h-73c-0.6,0-1-0.4-1-1l0,0c0-0.6,0.4-1,1-1h73c0.6,0,1,0.4,1,1l0,0C17,155.6,16.6,156,16,156z"/>
<path class="st2" d="M-23,187h-90c-1.1,0-2-0.9-2-2v-5c0-1.1,0.9-2,2-2h90c1.1,0,2,0.9,2,2v5C-21,186.1-21.9,187-23,187z"/>
<path class="st2" d="M15,187h-28c-1.1,0-2-0.9-2-2v-5c0-1.1,0.9-2,2-2h28c1.1,0,2,0.9,2,2v5C17,186.1,16.1,187,15,187z"/>
<g id="Layer_2" class="st3">
</g>
<g>
	<path class="st2" d="M-74.1,162.5h-35c-1.1,0-2-0.9-2-2v-41.2c0-1.1,0.9-2,2-2h35c1.1,0,2,0.9,2,2v41.2
		C-72.1,161.6-73,162.5-74.1,162.5z"/>
	<g>
		<circle class="st0" cx="-98.1" cy="135.4" r="2.7"/>
		<path class="st0" d="M-105.6,145.4l4.6-4.6c0.3-0.3,0.8-0.3,1.2,0l2.9,2.9c0.3,0.3,0.8,0.3,1.2,0l8.3-8.3c0.3-0.3,0.8-0.3,1.2,0
			l8.6,8.6c0.2,0.2,0.2,0.4,0.2,0.6v1.6c0,0.5-0.4,0.8-0.8,0.8H-105c-0.5,0-0.8-0.4-0.8-0.8V146
			C-105.9,145.8-105.8,145.7-105.6,145.4z"/>
	</g>
</g>
</svg>
