<?xml version="1.0" encoding="utf-8"?>
<!-- Generator: Adobe Illustrator 19.1.0, SVG Export Plug-In . SVG Version: 6.00 Build 0)  -->
<svg version="1.1" id="Layer_1" xmlns="http://www.w3.org/2000/svg" xmlns:xlink="http://www.w3.org/1999/xlink" x="0px" y="0px"
	 viewBox="-124 108 150 86" style="enable-background:new -124 108 150 86;" xml:space="preserve">
<style type="text/css">
	.st0{fill:#14283A;}
	.st1{fill:#293948;}
	.st2{fill:#AFB7B9;}
</style>
<g id="Layer_1_1_">
	<rect x="-124" y="108" class="st0" width="150" height="86"/>
	<rect x="-24" y="108" class="st1" width="50" height="86"/>
	<path class="st2" d="M15,171h-28c-1.1,0-2-0.9-2-2v-5c0-1.1,0.9-2,2-2h28c1.1,0,2,0.9,2,2v5C17,170.1,16.1,171,15,171z"/>
	<path class="st2" d="M15,156h-28c-1.1,0-2-0.9-2-2v-5c0-1.1,0.9-2,2-2h28c1.1,0,2,0.9,2,2v5C17,155.1,16.1,156,15,156z"/>
	<path class="st2" d="M-43,155.1h-62c-1.1,0-2-0.9-2-2v-32.2c0-1.1,0.9-2,2-2h62c1.1,0,2,0.9,2,2v32.2
		C-41,154.2-41.9,155.1-43,155.1z"/>
	<path class="st2" d="M15,141h-28c-1.1,0-2-0.9-2-2v-5c0-1.1,0.9-2,2-2h28c1.1,0,2,0.9,2,2v5C17,140.1,16.1,141,15,141z"/>
	<path class="st2" d="M-34,167h-80c-0.6,0-1-0.4-1-1l0,0c0-0.6,0.4-1,1-1h80c0.6,0,1,0.4,1,1l0,0C-33,166.6-33.4,167-34,167z"/>
	<path class="st2" d="M-34,176h-80c-0.6,0-1-0.4-1-1l0,0c0-0.6,0.4-1,1-1h80c0.6,0,1,0.4,1,1l0,0C-33,175.6-33.4,176-34,176z"/>
	<path class="st2" d="M-34,185h-80c-0.6,0-1-0.4-1-1l0,0c0-0.6,0.4-1,1-1h80c0.6,0,1,0.4,1,1l0,0C-33,184.6-33.4,185-34,185z"/>
</g>
<g id="Layer_2">
</g>
<circle class="st1" cx="-82.5" cy="131.1" r="3.5"/>
<path class="st1" d="M-92.4,144.2l6-6c0.4-0.4,1.1-0.4,1.6,0l3.8,3.8c0.4,0.4,1.1,0.4,1.6,0l10.9-10.9c0.4-0.4,1.1-0.4,1.6,0
	l11.3,11.3c0.2,0.2,0.3,0.5,0.3,0.8v2.1c0,0.6-0.5,1.1-1.1,1.1h-35.1c-0.6,0-1.1-0.5-1.1-1.1V145C-92.7,144.7-92.6,144.5-92.4,144.2
	z"/>
</svg>
