<?xml version="1.0" encoding="utf-8"?>
<!-- Generator: Adobe Illustrator 18.1.0, SVG Export Plug-In . SVG Version: 6.00 Build 0)  -->
<!DOCTYPE svg PUBLIC "-//W3C//DTD SVG 1.1//EN" "http://www.w3.org/Graphics/SVG/1.1/DTD/svg11.dtd">
<svg version="1.1" id="Layer_1" xmlns="http://www.w3.org/2000/svg"
  width="182.732px" height="40px" viewBox="0 0 1730.000000 664.000000"
 preserveAspectRatio="xMidYMid meet">
<g transform="translate(0.000000,664.000000) scale(0.100000,-0.100000)"
fill="#000000" stroke="none">
<path d="M14983 6106 c-137 -51 -262 -145 -454 -336 -208 -206 -455 -514 -681
-845 -371 -544 -714 -1338 -833 -1929 l-26 -130 -127 -121 c-193 -184 -220
-208 -316 -279 -128 -95 -204 -130 -286 -131 -273 -1 -205 239 263 940 78 116
169 253 204 305 73 109 162 280 188 359 44 135 -19 255 -159 301 -59 19 -215
8 -301 -23 -225 -78 -417 -217 -707 -509 l-157 -157 100 152 c136 206 219 373
226 453 5 54 3 64 -16 83 -25 25 -78 27 -195 6 -159 -28 -241 -90 -349 -263
-53 -85 -573 -962 -696 -1173 -50 -87 -81 -125 -165 -207 -109 -106 -236 -197
-326 -232 -119 -47 -247 -34 -271 27 -24 62 28 200 145 385 167 265 689 1202
701 1259 13 60 -61 171 -139 208 -54 27 -97 26 -166 -2 -173 -71 -550 -408
-550 -491 0 -12 19 -44 41 -71 73 -88 73 -88 50 -134 -12 -22 -72 -124 -134
-228 -128 -211 -242 -413 -310 -548 -39 -79 -59 -104 -154 -195 -167 -163
-323 -255 -399 -236 -78 20 -83 167 -13 396 94 309 362 858 544 1114 31 42 35
56 35 108 0 54 -3 63 -33 93 -49 49 -150 67 -256 44 -43 -9 -59 -20 -107 -72
-35 -38 -58 -57 -61 -49 -20 54 -132 123 -232 142 -223 42 -508 -41 -791 -227
-152 -101 -247 -179 -403 -332 -146 -143 -243 -258 -322 -379 -90 -141 -193
-381 -212 -494 -4 -31 -17 -49 -60 -86 -88 -76 -223 -169 -303 -209 -63 -31
-87 -37 -155 -41 -77 -4 -81 -3 -105 23 -23 25 -25 33 -23 119 2 129 40 236
189 536 240 480 832 1510 868 1510 7 0 174 16 373 35 401 39 448 49 502 111
23 26 31 44 31 74 0 35 -9 49 -81 129 -45 49 -95 95 -111 102 -22 9 -80 10
-219 6 -104 -3 -189 -4 -189 0 0 3 52 88 115 189 64 101 124 203 135 225 30
69 8 100 -91 124 -57 14 -83 15 -155 7 -83 -10 -88 -12 -131 -53 -61 -60 -150
-175 -273 -354 -56 -82 -106 -153 -111 -156 -5 -3 -145 -11 -310 -18 -192 -8
-318 -18 -348 -27 -60 -18 -189 -93 -230 -136 -40 -40 -93 -117 -122 -178 -19
-39 -20 -47 -8 -70 8 -14 36 -36 64 -50 71 -35 184 -38 434 -10 112 12 204 20
206 18 3 -2 -46 -85 -107 -183 -223 -363 -491 -832 -605 -1060 -53 -106 -158
-337 -177 -389 -6 -17 -8 -18 -24 -2 -38 34 -72 18 -215 -98 -323 -261 -541
-398 -709 -447 -90 -25 -269 -36 -353 -20 -74 14 -163 57 -188 92 -10 14 -23
45 -28 68 -12 56 7 96 76 159 117 107 443 308 593 366 150 57 252 140 252 203
0 34 -47 118 -88 157 -29 27 -34 28 -99 24 -37 -3 -122 -22 -188 -42 -127 -39
-221 -53 -244 -38 -22 15 -5 58 42 109 84 91 359 285 502 353 129 62 123 63
121 -21 -1 -66 1 -72 27 -95 46 -39 163 -28 275 27 226 111 352 409 214 507
-176 126 -577 59 -1022 -169 -267 -136 -455 -316 -538 -513 -23 -53 -26 -75
-27 -171 0 -61 6 -134 14 -164 15 -59 63 -121 114 -148 l29 -15 -76 -33 c-124
-54 -216 -114 -291 -189 -81 -82 -120 -154 -142 -263 -20 -96 -6 -197 37 -283
27 -54 29 -60 12 -60 -37 0 -141 62 -233 139 -157 131 -378 380 -742 836 -132
165 -275 341 -317 391 l-78 90 117 28 c266 64 615 193 872 322 506 253 811
522 964 848 72 154 94 318 60 450 -37 143 -148 301 -288 412 -174 137 -400
221 -717 266 -148 21 -654 18 -800 -5 -497 -76 -1064 -252 -1400 -434 -323
-175 -541 -368 -622 -550 -30 -69 -29 -188 2 -261 27 -63 101 -133 167 -158
86 -33 280 7 415 87 89 52 178 134 178 164 0 46 -25 51 -94 16 -76 -39 -139
-41 -144 -4 -10 68 330 304 598 416 221 92 625 214 890 266 218 44 318 55 500
54 420 -2 755 -105 832 -256 41 -81 6 -204 -97 -336 -59 -78 -223 -237 -325
-317 -337 -265 -816 -499 -1175 -575 -88 -18 -165 -25 -165 -13 0 3 141 207
313 452 482 687 496 710 497 789 0 48 -24 81 -112 155 -47 39 -53 41 -112 41
-98 -1 -189 -59 -282 -178 -251 -323 -1480 -2110 -1764 -2565 -101 -163 -151
-260 -185 -360 -52 -150 -42 -249 27 -287 41 -22 279 -31 346 -14 65 18 96 52
168 189 125 236 525 891 749 1225 l33 48 246 -333 c467 -632 667 -880 886
-1098 153 -154 257 -232 357 -270 48 -18 73 -21 143 -18 117 6 159 30 289 162
l103 105 32 -24 c58 -44 183 -96 282 -117 143 -30 380 -30 521 0 259 56 522
186 796 395 l87 67 0 -43 c0 -58 25 -150 57 -209 74 -136 257 -228 452 -228
165 0 309 64 546 243 l60 45 28 -51 c77 -143 209 -217 382 -218 96 0 159 18
278 77 218 109 496 337 664 544 26 33 48 58 49 57 1 -1 -7 -36 -18 -77 -15
-58 -18 -100 -16 -190 3 -108 5 -119 39 -191 47 -98 96 -151 173 -189 192 -94
418 -43 673 152 l52 40 78 -79 c121 -122 237 -173 398 -173 127 0 292 48 440
128 l52 28 54 -18 c81 -28 139 -37 168 -26 38 14 94 71 179 183 132 174 335
425 453 560 150 172 758 781 881 882 96 79 194 140 205 129 11 -10 -56 -125
-196 -341 -197 -301 -221 -343 -305 -515 -125 -259 -172 -426 -164 -589 3 -69
10 -99 31 -142 50 -103 182 -212 296 -246 74 -21 250 -13 341 16 126 40 322
170 522 344 l86 76 16 -70 c35 -157 130 -287 250 -343 196 -92 488 -61 794 84
l102 49 20 -39 c24 -46 90 -94 168 -122 111 -39 266 -7 425 89 113 68 246 181
440 372 92 91 167 165 167 164 0 -1 -88 -168 -196 -370 l-196 -368 -197 -200
c-108 -110 -227 -238 -264 -285 -219 -272 -337 -523 -339 -720 -2 -139 30
-207 119 -247 49 -23 65 -25 151 -21 123 5 168 28 281 142 105 105 151 168
262 356 51 85 107 180 126 211 20 35 121 147 257 286 352 360 697 675 1065
971 107 87 212 173 234 193 l40 36 -1 101 c-2 120 -16 182 -48 213 -19 18 -29
20 -53 13 -16 -5 -172 -138 -353 -300 -481 -434 -848 -753 -848 -738 0 11 156
308 283 539 155 281 338 601 635 1104 140 239 264 456 275 482 l20 48 -28 42
c-16 23 -39 47 -50 54 -20 13 -157 45 -193 45 -59 0 -143 -94 -321 -356 -172
-255 -432 -556 -747 -864 -367 -360 -664 -572 -664 -475 0 50 127 311 360 740
182 336 308 584 339 671 20 53 21 67 11 103 -15 55 -69 114 -135 147 -103 50
-120 33 -310 -321 -59 -110 -132 -240 -163 -290 -30 -49 -84 -142 -120 -205
-35 -63 -128 -220 -204 -348 -77 -129 -154 -263 -170 -298 -23 -49 -45 -77
-95 -119 -121 -103 -231 -169 -332 -199 -144 -42 -294 5 -363 113 -25 40 -28
54 -28 127 0 100 33 270 59 299 204 226 560 650 782 930 569 717 885 1181
1089 1597 122 249 157 398 121 521 -18 63 -78 129 -149 164 -47 23 -71 28
-152 30 -80 3 -105 -1 -157 -21z m15 -425 c12 -123 -202 -490 -663 -1141 -325
-457 -775 -1052 -783 -1031 -3 9 64 197 129 359 143 359 316 652 676 1147 417
574 629 794 641 666z m-6028 -1887 c0 -8 -187 -263 -376 -514 -146 -194 -307
-360 -566 -581 -239 -205 -385 -309 -434 -309 -53 0 -69 83 -35 181 10 30 40
97 66 149 271 539 750 973 1175 1064 68 15 170 21 170 10z"/>
<path d="M11077 5179 c-138 -33 -301 -192 -343 -335 -20 -71 -20 -174 1 -214
24 -46 92 -74 164 -67 188 20 406 250 418 444 6 88 -14 129 -77 161 -46 23
-97 27 -163 11z"/>
</g>
</svg>