<?xml version="1.0" encoding="utf-8"?>
<!-- Generator: Adobe Illustrator 19.1.0, SVG Export Plug-In . SVG Version: 6.00 Build 0)  -->
<svg version="1.1" id="Layer_1" xmlns="http://www.w3.org/2000/svg" xmlns:xlink="http://www.w3.org/1999/xlink" x="0px" y="0px"
	 viewBox="-320 264 150 86" style="enable-background:new -320 264 150 86;" xml:space="preserve">
<style type="text/css">
	.st0{fill:#F0F0F0;}
	.st1{opacity:0.25;enable-background:new    ;}
	.st2{opacity:0.1;enable-background:new    ;}
	.st3{fill:#DD4242;}
	.st4{opacity:0.2;enable-background:new    ;}
	.st5{fill:#FFFFFF;}
	.st6{fill:#911616;}
	.st7{display:none;}
	.st8{display:inline;fill:#F0F0F0;}
	.st9{display:inline;}
	.st10{fill:#E6A746;}
	.st11{fill:#DEA144;}
	.st12{opacity:0.2;}
	.st13{fill:#231F20;}
	.st14{fill:#E0DBD7;}
	.st15{opacity:6.000000e-02;enable-background:new    ;}
	.st16{fill:#C7C2BF;}
	.st17{opacity:5.000000e-02;enable-background:new    ;}
	.st18{fill:#F5F0EB;}
	.st19{fill:#F1632D;}
	.st20{fill:#B7B3AE;}
	.st21{fill:#F2B04A;}
	.st22{opacity:4.000000e-02;enable-background:new    ;}
	.st23{fill:#FFC669;}
	.st24{fill:#FCB84D;}
	.st25{display:inline;opacity:0.25;enable-background:new    ;}
	.st26{display:inline;opacity:0.1;enable-background:new    ;}
	.st27{display:inline;fill:#92C927;}
	.st28{display:inline;opacity:0.2;enable-background:new    ;}
	.st29{display:inline;fill:#FFFFFF;}
	.st30{fill:#719C28;}
	.st31{opacity:0.2;fill:#333333;}
	.st32{fill:#FFF5CC;stroke:#1B293C;stroke-width:1.2475;stroke-linecap:round;stroke-linejoin:round;stroke-miterlimit:10;}
	.st33{fill:#D2F3E4;}
	.st34{fill:#D2F3E4;stroke:#16925B;stroke-width:1.2475;stroke-linecap:round;stroke-linejoin:round;stroke-miterlimit:10;}
	.st35{fill:#D2F3E4;stroke:#1EC279;stroke-width:1.2475;stroke-linecap:round;stroke-linejoin:round;stroke-miterlimit:10;}
	.st36{fill:none;stroke:#1EC279;stroke-width:0.6238;stroke-linecap:round;stroke-linejoin:round;stroke-miterlimit:10;}
	.st37{fill:#FFFFFF;stroke:#1EC279;stroke-width:0.6238;stroke-linecap:round;stroke-linejoin:round;stroke-miterlimit:10;}
	.st38{fill:none;stroke:#1B293C;stroke-width:1.2475;stroke-linecap:round;stroke-linejoin:round;stroke-miterlimit:10;}
	.st39{opacity:0.35;fill:#293342;}
</style>
<g id="Layer_1_1_">
	<rect x="-320" y="264" class="st0" width="150" height="63"/>
	<path class="st1" d="M-183.3,278h-71.4c-0.7,0-1.3-0.4-1.3-1l0,0c0-0.6,0.6-1,1.3-1h71.4c0.7,0,1.3,0.4,1.3,1l0,0
		C-182,277.6-182.6,278-183.3,278z"/>
	<path class="st2" d="M-183.3,287h-71.4c-0.7,0-1.3-0.4-1.3-1l0,0c0-0.6,0.6-1,1.3-1h71.4c0.7,0,1.3,0.4,1.3,1l0,0
		C-182,286.6-182.6,287-183.3,287z"/>
	<path class="st2" d="M-183.3,296h-71.4c-0.7,0-1.3-0.4-1.3-1l0,0c0-0.6,0.6-1,1.3-1h71.4c0.7,0,1.3,0.4,1.3,1l0,0
		C-182,295.6-182.6,296-183.3,296z"/>
	<path class="st2" d="M-183.3,305h-71.4c-0.7,0-1.3-0.4-1.3-1l0,0c0-0.6,0.6-1,1.3-1h71.4c0.7,0,1.3,0.4,1.3,1l0,0
		C-182,304.6-182.6,305-183.3,305z"/>
	<path class="st2" d="M-183.3,314h-71.4c-0.7,0-1.3-0.4-1.3-1l0,0c0-0.6,0.6-1,1.3-1h71.4c0.7,0,1.3,0.4,1.3,1l0,0
		C-182,313.6-182.6,314-183.3,314z"/>
	<rect x="-320" y="325" class="st3" width="150" height="25"/>
	<path class="st4" d="M-218,341h-89c-1.1,0-2-0.9-2-2v-5c0-1.1,0.9-2,2-2h89c1.1,0,2,0.9,2,2v5C-216,340.1-216.9,341-218,341z"/>
	<path class="st5" d="M-183,341h-25c-1.1,0-2-0.9-2-2v-5c0-1.1,0.9-2,2-2h25c1.1,0,2,0.9,2,2v5C-181,340.1-181.9,341-183,341z"/>
	<g>
		<path class="st6" d="M-173,267v80h-144v-80H-173 M-170,264h-150v86h150V264L-170,264z"/>
	</g>
</g>
<g id="Layer_2" class="st7">
	<rect x="-320" y="264" class="st8" width="150" height="63"/>
	<g class="st9">
		<g>
			<g>
				<path class="st10" d="M-289.9,278.6l-15.7,12.6c-0.4,0.3-0.6,0.7-0.6,1.2v21.4c0,0.7,0.6,1.3,1.3,1.3h17v-37.1
					C-288.6,277.9-289.4,278.1-289.9,278.6z"/>
			</g>
			<g>
				<path class="st11" d="M-270.2,291.1l-15.7-12.6c-0.6-0.5-1.3-0.7-2-0.7V315h17c0.7,0,1.3-0.6,1.3-1.3v-21.4
					C-269.6,291.9-269.9,291.4-270.2,291.1z"/>
			</g>
		</g>
		<g class="st12">
			<polygon class="st13" points="-302.8,289.9 -287.8,277.6 -271.8,289.9 -271.8,312.7 -302.8,312.7 			"/>
		</g>
		<g>
			<polygon class="st14" points="-304.4,276.8 -275,275 -272.9,310.2 -302.4,312 			"/>
			<polygon class="st15" points="-301.4,279.4 -271.9,280.5 -273.2,314.4 -302.6,313.2 			"/>
			<polygon class="st16" points="-301.7,275.5 -272.2,276.6 -273.5,311.9 -303,310.8 			"/>
			<rect x="-302.6" y="278" class="st17" width="29.5" height="35.3"/>
			<rect x="-302.8" y="277.4" class="st18" width="29.5" height="35.3"/>
			<rect x="-299.7" y="280.5" class="st19" width="23.2" height="2.9"/>
			<rect x="-299.7" y="288.2" class="st2" width="23.2" height="0.8"/>
			<rect x="-299.7" y="290.5" class="st2" width="23.2" height="0.8"/>
			<rect x="-299.7" y="292.9" class="st2" width="23.2" height="0.8"/>
			<rect x="-299.7" y="295.3" class="st2" width="23.2" height="0.8"/>
			<rect x="-299.7" y="297.6" class="st2" width="23.2" height="0.8"/>
			<rect x="-299.7" y="300" class="st2" width="23.2" height="0.8"/>
			<rect x="-299.7" y="284.5" class="st20" width="23.2" height="0.8"/>
		</g>
		<path class="st2" d="M-270.3,291.5l-1.4,0.4c-0.4,0.1-0.7,0.3-1,0.5l-15,9.3l-15.5-9.3c-0.3-0.2-0.6-0.4-1-0.5l-1.4-0.4
			c-0.3-0.1-0.7,0.2-0.7,0.5v20.9c0,0.7,0.1,1.6,0.9,1.6h34.9c0.7,0,0.9-0.9,0.9-1.6V292C-269.6,291.7-270,291.4-270.3,291.5z"/>
		<path class="st21" d="M-270.3,291.5l-1.4,0.4c-0.4,0.1-0.7,0.3-1,0.5l-14.9,10.2l17.1,12.4c0.7,0,0.9-0.9,0.9-1.6V292
			C-269.6,291.7-270,291.4-270.3,291.5z"/>
		<path class="st22" d="M-286.9,302.2l-1.5,1L-271,315l0.3,0c0.7,0,1-0.5,1-1.3v-0.4L-286.9,302.2z"/>
		<path class="st23" d="M-305.6,291.5l1.4,0.4c0.4,0.1,0.7,0.3,1,0.5l15.7,10.2l-17.9,12.4c-0.7,0-0.9-0.9-0.9-1.6V292
			C-306.3,291.7-305.9,291.4-305.6,291.5z"/>
		<path class="st24" d="M-305.9,314.3l18.3-11.6l17.5,11.6c0.2,0.4-0.1,0.8-0.5,0.8h-34.9C-305.8,315-306.1,314.6-305.9,314.3z"/>
	</g>
	<path class="st25" d="M-183.3,278h-71.4c-0.7,0-1.3-0.4-1.3-1l0,0c0-0.6,0.6-1,1.3-1h71.4c0.7,0,1.3,0.4,1.3,1l0,0
		C-182,277.6-182.6,278-183.3,278z"/>
	<path class="st26" d="M-183.3,287h-71.4c-0.7,0-1.3-0.4-1.3-1l0,0c0-0.6,0.6-1,1.3-1h71.4c0.7,0,1.3,0.4,1.3,1l0,0
		C-182,286.6-182.6,287-183.3,287z"/>
	<path class="st26" d="M-183.3,296h-71.4c-0.7,0-1.3-0.4-1.3-1l0,0c0-0.6,0.6-1,1.3-1h71.4c0.7,0,1.3,0.4,1.3,1l0,0
		C-182,295.6-182.6,296-183.3,296z"/>
	<path class="st26" d="M-183.3,305h-71.4c-0.7,0-1.3-0.4-1.3-1l0,0c0-0.6,0.6-1,1.3-1h71.4c0.7,0,1.3,0.4,1.3,1l0,0
		C-182,304.6-182.6,305-183.3,305z"/>
	<path class="st26" d="M-183.3,314h-71.4c-0.7,0-1.3-0.4-1.3-1l0,0c0-0.6,0.6-1,1.3-1h71.4c0.7,0,1.3,0.4,1.3,1l0,0
		C-182,313.6-182.6,314-183.3,314z"/>
	<rect x="-320" y="325" class="st27" width="150" height="25"/>
	<path class="st28" d="M-217,341h-91c-0.6,0-1-0.4-1-1v-7c0-0.6,0.4-1,1-1h91c0.6,0,1,0.4,1,1v7C-216,340.6-216.4,341-217,341z"/>
	<path class="st29" d="M-182,341h-27c-0.6,0-1-0.4-1-1v-7c0-0.6,0.4-1,1-1h27c0.6,0,1,0.4,1,1v7C-181,340.6-181.4,341-182,341z"/>
	<g class="st9">
		<path class="st30" d="M-173,267v80h-144v-80H-173 M-170,264h-150v86h150V264L-170,264z"/>
	</g>
</g>
<ellipse class="st31" cx="-290.7" cy="316.4" rx="12.5" ry="1.7"/>
<path class="st32" d="M-276.5,285.3c0-0.6-0.3-1.1-0.7-1.5l-8.3-6.5c-2.9-2.2-7.6-2.2-10.5,0l-8.5,6.5c-0.5,0.4-0.7,0.9-0.7,1.5
	v17.5c0,1,0.8,1.9,1.9,1.9h25c1,0,1.9-0.8,1.9-1.9V285.3z"/>
<polygon class="st33" points="-299.6,279.7 -278.4,278.8 -279.7,287.3 -287.6,294.6 -290.7,292.6 -293.4,294.2 -302,286.3 "/>
<polyline class="st34" points="-282.8,277.4 -277.7,278.6 -280.1,287.3 "/>
<polyline class="st34" points="-298.7,277.2 -303.5,278.6 -301,287.3 "/>
<polyline class="st35" points="-283.1,289.5 -283.1,273.9 -298.7,273.9 -298.7,289.5 "/>
<path class="st36" d="M-293.1,274.2c0,2.9-2.4,4.4-5.3,4.4"/>
<path class="st36" d="M-288,274.2c0,2.9,1.5,4.4,4.4,4.4"/>
<path class="st37" d="M-291.7,293.1c-1.9-0.5-3.2-2.2-3.2-4.2c0-2.4,1.9-4.3,4.3-4.3c2.4,0,4.3,1.9,4.3,4.3c0,2-1.4,3.7-3.2,4.2"/>
<line class="st38" x1="-293.6" y1="294.9" x2="-304.9" y2="284.4"/>
<line class="st38" x1="-287.6" y1="294.9" x2="-277" y2="285.2"/>
<path class="st39" d="M-304.1,284.3c0,0,7.1,8.2,13.3,8.2c5.7,0,13.5-7.8,13.5-7.8l-10.3,9.4l-5.9,0.1L-304.1,284.3z"/>
<path class="st32" d="M-277,303.6l-12.3-10.1c-0.7-0.6-1.7-0.6-2.4,0l-12.4,10.2"/>
</svg>
