<?xml version="1.0" encoding="utf-8"?>
<!-- Generator: Adobe Illustrator 19.1.0, SVG Export Plug-In . SVG Version: 6.00 Build 0)  -->
<svg version="1.1" id="Layer_1" xmlns="http://www.w3.org/2000/svg" xmlns:xlink="http://www.w3.org/1999/xlink" x="0px" y="0px"
	 viewBox="-320 264 150 86" style="enable-background:new -320 264 150 86;" xml:space="preserve">
<style type="text/css">
	.st0{fill:#424242;}
	.st1{fill:#363636;}
	.st2{fill:#FFFFFF;}
	.st3{fill:#E57C58;}
	.st4{fill:#D3CFC9;}
	.st5{fill:#B7B3AE;}
	.st6{opacity:0.1;enable-background:new    ;}
	.st7{opacity:0.6;fill:#FFFFFF;enable-background:new    ;}
	.st8{opacity:0.45;fill:#FFFFFF;enable-background:new    ;}
	.st9{fill:#B2B2B2;}
	.st10{display:none;}
	.st11{opacity:0.96;enable-background:new    ;}
	.st12{fill:#F9DEDB;stroke:#000000;stroke-width:1.2058;stroke-linecap:round;stroke-linejoin:round;stroke-miterlimit:10;}
	.st13{fill:#FFFFFF;stroke:#000000;stroke-width:1.2058;stroke-linecap:round;stroke-linejoin:round;stroke-miterlimit:10;}
	.st14{fill:none;stroke:#999999;stroke-width:0.7482;stroke-linecap:round;stroke-linejoin:round;stroke-miterlimit:10;}
	.st15{fill:#E05B49;stroke:#000000;stroke-width:0.7482;stroke-linecap:round;stroke-linejoin:round;stroke-miterlimit:10;}
	.st16{opacity:0.35;fill:#293342;enable-background:new    ;}
</style>
<rect x="-320" y="325" class="st0" width="150" height="25"/>
<rect x="-320" y="264" class="st1" width="150" height="61"/>
<path class="st2" d="M-219,341h-90c-1.1,0-2-0.9-2-2v-5c0-1.1,0.9-2,2-2h90c1.1,0,2,0.9,2,2v5C-217,340.1-217.9,341-219,341z"/>
<path class="st3" d="M-181,341h-28c-1.1,0-2-0.9-2-2v-5c0-1.1,0.9-2,2-2h28c1.1,0,2,0.9,2,2v5C-179,340.1-179.9,341-181,341z"/>
<rect x="-282.5" y="288.9" class="st4" width="6.3" height="1.2"/>
<rect x="-290.6" y="285.3" class="st5" width="14.4" height="2.1"/>
<polygon class="st2" points="-279.5,288 -273.8,288 -279.5,282 "/>
<polygon class="st6" points="-273.8,288 -279.5,288 -273.8,293.1 "/>
<path class="st7" d="M-183.3,278h-71.4c-0.7,0-1.3-0.4-1.3-1l0,0c0-0.6,0.6-1,1.3-1h71.4c0.7,0,1.3,0.4,1.3,1l0,0
	C-182,277.6-182.6,278-183.3,278z"/>
<path class="st8" d="M-183.3,287h-71.4c-0.7,0-1.3-0.4-1.3-1l0,0c0-0.6,0.6-1,1.3-1h71.4c0.7,0,1.3,0.4,1.3,1l0,0
	C-182,286.6-182.6,287-183.3,287z"/>
<path class="st8" d="M-183.3,296h-71.4c-0.7,0-1.3-0.4-1.3-1l0,0c0-0.6,0.6-1,1.3-1h71.4c0.7,0,1.3,0.4,1.3,1l0,0
	C-182,295.6-182.6,296-183.3,296z"/>
<path class="st8" d="M-183.3,305h-71.4c-0.7,0-1.3-0.4-1.3-1l0,0c0-0.6,0.6-1,1.3-1h71.4c0.7,0,1.3,0.4,1.3,1l0,0
	C-182,304.6-182.6,305-183.3,305z"/>
<path class="st8" d="M-183.3,314h-71.4c-0.7,0-1.3-0.4-1.3-1l0,0c0-0.6,0.6-1,1.3-1h71.4c0.7,0,1.3,0.4,1.3,1l0,0
	C-182,313.6-182.6,314-183.3,314z"/>
<path class="st9" d="M-173,267v80h-144v-80H-173 M-170,264h-150v86h150V264L-170,264z"/>
<g id="Layer_2" class="st10">
</g>
<ellipse class="st11" cx="-289.4" cy="318.9" rx="12.1" ry="1.6"/>
<path class="st12" d="M-306.1,304.8c0,3,3.6,5.2,6.8,2.5c0.5-0.4,0.7-1,0.7-1.6V279h-6.4c-0.6,0-1,0.5-1,1v24.8H-306.1z"/>
<path class="st13" d="M-302.3,308.9h29.6c0.6,0,1.1-0.5,1.1-1.1v-32.3c0-0.6-0.5-1.1-1.1-1.1h-24.8c-0.6,0-1.1,0.5-1.1,1.1v29.6
	C-298.6,305.2-299,308.9-302.3,308.9z"/>
<line class="st14" x1="-294.9" y1="285" x2="-287.4" y2="285"/>
<line class="st14" x1="-295.1" y1="280.5" x2="-275.4" y2="280.5"/>
<line class="st14" x1="-294.9" y1="289.4" x2="-290.4" y2="289.4"/>
<line class="st14" x1="-294.9" y1="293.9" x2="-287.4" y2="293.9"/>
<rect x="-283.6" y="285" class="st15" width="9" height="9"/>
<line class="st14" x1="-295.1" y1="298.4" x2="-275.4" y2="298.4"/>
<line class="st14" x1="-295.1" y1="302.9" x2="-280.1" y2="302.9"/>
<path class="st16" d="M-299.4,279.7h-0.9c-0.3,10-0.9,27.9-3.2,27.9c0,0,3.6,1.2,4.4-2.2C-298.2,301.4-299.4,279.7-299.4,279.7z"/>
</svg>
