<?xml version="1.0" encoding="utf-8"?>
<!-- Generator: Adobe Illustrator 19.1.0, SVG Export Plug-In . SVG Version: 6.00 Build 0)  -->
<svg version="1.1" id="Layer_1" xmlns="http://www.w3.org/2000/svg" xmlns:xlink="http://www.w3.org/1999/xlink" x="0px" y="0px"
	 viewBox="40 -8 150 86" style="enable-background:new 40 -8 150 86;" xml:space="preserve">
<style type="text/css">
	.st0{fill:#FFFFA6;}
	.st1{fill:#01A2A6;}
	.st2{fill:#FFFFFF;}
	.st3{fill:#2F2933;}
	.st4{opacity:0.25;enable-background:new    ;}
	.st5{opacity:0.1;enable-background:new    ;}
	.st6{fill:#FAFAFA;stroke:#1B293C;stroke-width:0.9859;stroke-linecap:round;stroke-linejoin:round;stroke-miterlimit:10;}
	.st7{fill:#D2ECFB;}
	.st8{fill:#1B293C;}
	.st9{fill:#FAFAFA;stroke:#000000;stroke-width:0.9859;stroke-linecap:round;stroke-linejoin:round;stroke-miterlimit:10;}
	.st10{fill:#F9DEDB;stroke:#000000;stroke-width:0.6859;stroke-linecap:round;stroke-linejoin:round;stroke-miterlimit:10;}
	.st11{fill:#FFFFFF;stroke:#000000;stroke-width:0.6859;stroke-linecap:round;stroke-linejoin:round;stroke-miterlimit:10;}
	.st12{fill:none;stroke:#999999;stroke-width:0.3429;stroke-linecap:round;stroke-linejoin:round;stroke-miterlimit:10;}
	.st13{fill:#E05B49;stroke:#000000;stroke-width:0.3429;stroke-linecap:round;stroke-linejoin:round;stroke-miterlimit:10;}
	.st14{opacity:0.35;fill:#293342;enable-background:new    ;}
	.st15{opacity:0.75;}
	.st16{fill:#FFF5CC;stroke:#1B293C;stroke-width:0.3828;stroke-linecap:round;stroke-linejoin:round;stroke-miterlimit:10;}
	.st17{fill:none;stroke:#1B293C;stroke-width:0.3828;stroke-linecap:round;stroke-linejoin:round;stroke-miterlimit:10;}
	.st18{opacity:0.5;}
	.st19{fill:#FFF5CC;stroke:#1B293C;stroke-width:0.3;stroke-linecap:round;stroke-linejoin:round;stroke-miterlimit:10;}
	.st20{fill:none;stroke:#1B293C;stroke-width:0.3;stroke-linecap:round;stroke-linejoin:round;stroke-miterlimit:10;}
	.st21{opacity:0.2;}
	.st22{fill:#FFF5CC;stroke:#1B293C;stroke-width:0.2488;stroke-linecap:round;stroke-linejoin:round;stroke-miterlimit:10;}
	.st23{fill:none;stroke:#1B293C;stroke-width:0.2488;stroke-linecap:round;stroke-linejoin:round;stroke-miterlimit:10;}
</style>
<rect x="40" y="-8" class="st0" width="150" height="63"/>
<polygon class="st1" points="190,78 40,78 40,50 115,55 190,50 "/>
<path class="st2" d="M142,71H50c-0.6,0-1-0.4-1-1v-7c0-0.6,0.4-1,1-1h92c0.6,0,1,0.4,1,1v7C143,70.6,142.6,71,142,71z"/>
<path class="st3" d="M180,71h-30c-0.6,0-1-0.4-1-1v-7c0-0.6,0.4-1,1-1h30c0.6,0,1,0.4,1,1v7C181,70.6,180.6,71,180,71z"/>
<path class="st1" d="M188-6v82H42V-6H188 M190-8H40v86h150V-8L190-8z"/>
<g id="Layer_2">
</g>
<path class="st4" d="M180,38H50c-0.6,0-1-0.4-1-1l0,0c0-0.6,0.4-1,1-1h130c0.6,0,1,0.4,1,1l0,0C181,37.6,180.6,38,180,38z"/>
<path class="st5" d="M180,47H50c-0.6,0-1-0.4-1-1l0,0c0-0.6,0.4-1,1-1h130c0.6,0,1,0.4,1,1l0,0C181,46.6,180.6,47,180,47z"/>
<path class="st6" d="M133.2,24.4c0,0.8-0.7,1.5-1.5,1.5H98.3c-0.8,0-1.5-0.7-1.5-1.5V1.8c0-0.8,0.7-1.5,1.5-1.5h33.4
	c0.8,0,1.5,0.7,1.5,1.5L133.2,24.4L133.2,24.4z"/>
<g>
	<path class="st7" d="M97.4,23.5c-0.1,0-0.2-0.1-0.2-0.2V3.1c0-0.1,0.1-0.2,0.2-0.2h35.4c0.1,0,0.2,0.1,0.2,0.2v20.2
		c0,0.1-0.1,0.2-0.2,0.2H97.4z"/>
	<path class="st8" d="M132.8,3.1v20.2H97.4V3.1H132.8 M132.8,2.6H97.4c-0.3,0-0.5,0.2-0.5,0.5v20.2c0,0.3,0.2,0.5,0.5,0.5h35.4
		c0.3,0,0.5-0.2,0.5-0.5V3.1C133.3,2.8,133,2.6,132.8,2.6L132.8,2.6z"/>
</g>
<path class="st6" d="M110.7,31.2c0-2.7,2-5.4,4.6-5.4s4.6,2.7,4.6,5.4H110.7z"/>
<path class="st9" d="M115.3,30.3"/>
<path class="st10" d="M107.2,18.9c0,1.4,1.7,2.4,3.1,1.1c0.2-0.2,0.3-0.5,0.3-0.7V7h-3c-0.3,0-0.5,0.2-0.5,0.5L107.2,18.9
	L107.2,18.9z"/>
<path class="st11" d="M109,20.8h13.6c0.3,0,0.5-0.2,0.5-0.5V5.5c0-0.3-0.2-0.5-0.5-0.5h-11.4c-0.3,0-0.5,0.2-0.5,0.5v13.6
	C110.7,19.1,110.5,20.8,109,20.8z"/>
<line class="st12" x1="112.4" y1="9.8" x2="115.8" y2="9.8"/>
<line class="st12" x1="112.3" y1="7.8" x2="121.3" y2="7.8"/>
<line class="st12" x1="112.4" y1="11.9" x2="114.4" y2="11.9"/>
<line class="st12" x1="112.4" y1="13.9" x2="115.8" y2="13.9"/>
<rect x="117.5" y="9.8" class="st13" width="4.1" height="4.1"/>
<line class="st12" x1="112.3" y1="16" x2="121.3" y2="16"/>
<line class="st12" x1="112.3" y1="18.1" x2="119.1" y2="18.1"/>
<path class="st14" d="M110.3,7.4h-0.4c-0.1,4.6-0.4,12.8-1.5,12.8c0,0,1.7,0.6,2-1C110.9,17.4,110.3,7.4,110.3,7.4z"/>
<g class="st15">
	<path class="st16" d="M147.1,11.3l1.6-5.1c0.1-0.3-0.1-0.6-0.4-0.7L141,3.2c-0.3-0.1-0.6,0.1-0.7,0.4l-1.6,5.1
		c-0.1,0.3,0.1,0.6,0.4,0.7l7.3,2.3C146.7,11.7,147,11.6,147.1,11.3z"/>
	<path class="st14" d="M140.5,3.7l2.1,4.7c0.2,0.5,1.2,0.8,1.7,0.5l4.3-2.6l0.1-0.4l-8-2.5L140.5,3.7z"/>
	<path class="st16" d="M140.8,3.4l2,4.2c0.3,0.6,1.1,0.9,1.7,0.5l4.1-2.3"/>
	<line class="st17" x1="142.6" y1="7.2" x2="140.1" y2="8.4"/>
	<line class="st17" x1="144.9" y1="7.9" x2="146.2" y2="10.4"/>
</g>
<g class="st18">
	<path class="st19" d="M147.3,19.8l-1-4.1c-0.1-0.2-0.3-0.4-0.5-0.3l-5.8,1.4c-0.2,0.1-0.4,0.3-0.3,0.5l1,4.1
		c0.1,0.2,0.3,0.4,0.5,0.3l5.8-1.4C147.2,20.2,147.3,20,147.3,19.8z"/>
	<path class="st14" d="M139.7,17.3l3.3,2.3c0.3,0.2,1.1,0,1.3-0.3l1.8-3.4l-0.1-0.3l-6.4,1.5L139.7,17.3z"/>
	<path class="st19" d="M139.8,17l3,2c0.5,0.3,1.1,0.2,1.3-0.3l1.8-3.2"/>
	<line class="st20" x1="142.6" y1="18.8" x2="141.4" y2="20.7"/>
	<line class="st20" x1="144.4" y1="18.4" x2="146.3" y2="19.5"/>
</g>
<g class="st18">
	<path class="st19" d="M162.2,7.1l0.7-4.2c0-0.2-0.1-0.5-0.4-0.5l-5.9-1c-0.2,0-0.5,0.1-0.5,0.4l-0.7,4.1c0,0.2,0.1,0.5,0.4,0.5
		l5.9,1C161.9,7.5,162.1,7.3,162.2,7.1z"/>
	<path class="st14" d="M156.2,1.9l2.1,3.4c0.2,0.3,1,0.5,1.3,0.2l3-2.5V2.7l-6.5-1.1L156.2,1.9z"/>
	<path class="st19" d="M156.4,1.6l2,3.1c0.3,0.5,0.9,0.6,1.4,0.2l2.9-2.2"/>
	<line class="st20" x1="158.3" y1="4.4" x2="156.4" y2="5.6"/>
	<line class="st20" x1="160.1" y1="4.7" x2="161.4" y2="6.4"/>
</g>
<g class="st21">
	<path class="st22" d="M157.3,15.9l0.5-3.5c0-0.2-0.1-0.4-0.3-0.4l-4.9-0.7c-0.2,0-0.4,0.1-0.4,0.3l-0.5,3.4c0,0.2,0.1,0.4,0.3,0.4
		l4.9,0.7C157.1,16.2,157.2,16.1,157.3,15.9z"/>
	<path class="st14" d="M152.2,11.7l1.8,2.8c0.2,0.3,0.9,0.4,1.1,0.2l2.5-2.1v-0.2l-5.4-0.8L152.2,11.7z"/>
	<path class="st22" d="M152.4,11.5l1.7,2.5c0.3,0.4,0.8,0.5,1.1,0.2l2.4-1.9"/>
	<line class="st23" x1="154" y1="13.7" x2="152.5" y2="14.8"/>
	<line class="st23" x1="155.5" y1="13.9" x2="156.6" y2="15.4"/>
</g>
<g class="st21">
	<path class="st22" d="M167.5,17.7l-0.9-3.4c-0.1-0.2-0.3-0.3-0.5-0.3l-4.8,1.2c-0.2,0.1-0.3,0.3-0.3,0.5l0.9,3.4
		c0.1,0.2,0.3,0.3,0.5,0.3l4.8-1.2C167.4,18.1,167.6,17.9,167.5,17.7z"/>
	<path class="st14" d="M161.2,15.7l2.8,1.9c0.3,0.2,0.9,0,1.1-0.3l1.5-2.9l-0.1-0.2l-5.3,1.4V15.7z"/>
	<path class="st22" d="M161.3,15.5l2.6,1.6c0.4,0.3,0.9,0.1,1.1-0.3l1.5-2.7"/>
	<line class="st23" x1="163.6" y1="17" x2="162.6" y2="18.5"/>
	<line class="st23" x1="165.1" y1="16.6" x2="166.7" y2="17.5"/>
</g>
<g class="st15">
	<path class="st16" d="M82,11.3l-1.6-5.1c-0.1-0.3,0.1-0.6,0.4-0.7l7.3-2.3c0.3-0.1,0.6,0.1,0.7,0.4l1.6,5.1C90.5,9,90.3,9.3,90,9.4
		l-7.3,2.3C82.4,11.7,82,11.6,82,11.3z"/>
	<path class="st14" d="M88.6,3.7l-2.1,4.7c-0.2,0.5-1.2,0.8-1.7,0.5l-4.3-2.6l-0.1-0.4l8-2.5L88.6,3.7z"/>
	<path class="st16" d="M88.3,3.4l-2,4.2c-0.3,0.6-1.1,0.9-1.7,0.5l-4.1-2.3"/>
	<line class="st17" x1="86.4" y1="7.2" x2="89" y2="8.4"/>
	<line class="st17" x1="84.2" y1="7.9" x2="82.8" y2="10.4"/>
</g>
<g class="st18">
	<path class="st19" d="M81.8,19.8l1-4.1c0.1-0.2,0.3-0.4,0.5-0.3l5.8,1.4c0.2,0.1,0.4,0.3,0.3,0.5l-1,4.1c-0.1,0.2-0.3,0.4-0.5,0.3
		l-5.8-1.4C81.9,20.2,81.7,20,81.8,19.8z"/>
	<path class="st14" d="M89.3,17.3L86,19.6c-0.3,0.2-1.1,0-1.3-0.3l-1.8-3.4l0.1-0.3l6.4,1.5L89.3,17.3z"/>
	<path class="st19" d="M89.2,17l-3,2c-0.5,0.3-1.1,0.2-1.3-0.3l-1.8-3.2"/>
	<line class="st20" x1="86.5" y1="18.8" x2="87.7" y2="20.7"/>
	<line class="st20" x1="84.7" y1="18.4" x2="82.8" y2="19.5"/>
</g>
<g class="st18">
	<path class="st19" d="M66.9,7.1l-0.7-4.2c0-0.2,0.1-0.5,0.4-0.5l5.9-1c0.2,0,0.5,0.1,0.5,0.4l0.7,4.1c0,0.2-0.1,0.5-0.4,0.5l-5.9,1
		C67.1,7.5,66.9,7.3,66.9,7.1z"/>
	<path class="st14" d="M72.8,1.9l-2.1,3.4c-0.2,0.3-1,0.5-1.3,0.2l-3-2.5V2.7l6.5-1.1L72.8,1.9z"/>
	<path class="st19" d="M72.6,1.6l-2,3.1c-0.3,0.5-0.9,0.6-1.4,0.2l-2.9-2.2"/>
	<line class="st20" x1="70.8" y1="4.4" x2="72.6" y2="5.6"/>
	<line class="st20" x1="69" y1="4.7" x2="67.7" y2="6.4"/>
</g>
<g class="st21">
	<path class="st22" d="M71.8,15.9l-0.5-3.5c0-0.2,0.1-0.4,0.3-0.4l4.9-0.7c0.2,0,0.4,0.1,0.4,0.3l0.5,3.4c0,0.2-0.1,0.4-0.3,0.4
		l-4.9,0.7C72,16.2,71.8,16.1,71.8,15.9z"/>
	<path class="st14" d="M76.8,11.7L75,14.5c-0.2,0.3-0.9,0.4-1.1,0.2l-2.5-2.1v-0.2l5.4-0.8L76.8,11.7L76.8,11.7z"/>
	<path class="st22" d="M76.7,11.5L75,14c-0.3,0.4-0.8,0.5-1.1,0.2l-2.4-1.9"/>
	<line class="st23" x1="75.1" y1="13.7" x2="76.6" y2="14.8"/>
	<line class="st23" x1="73.6" y1="13.9" x2="72.4" y2="15.4"/>
</g>
<g class="st21">
	<path class="st22" d="M61.6,17.7l0.9-3.4c0.1-0.2,0.3-0.3,0.5-0.3l4.8,1.2c0.2,0.1,0.3,0.3,0.3,0.5l-0.9,3.4
		c-0.1,0.2-0.3,0.3-0.5,0.3l-4.8-1.2C61.6,18.1,61.5,17.9,61.6,17.7z"/>
	<path class="st14" d="M67.8,15.7L65,17.6c-0.3,0.2-0.9,0-1.1-0.3l-1.5-2.9l0.1-0.2l5.3,1.4V15.7z"/>
	<path class="st22" d="M67.7,15.5l-2.6,1.6c-0.4,0.3-0.9,0.1-1.1-0.3l-1.5-2.7"/>
	<line class="st23" x1="65.4" y1="17" x2="66.4" y2="18.5"/>
	<line class="st23" x1="64" y1="16.6" x2="62.3" y2="17.5"/>
</g>
</svg>
