<?xml version="1.0" encoding="utf-8"?>
<!-- Generator: Adobe Illustrator 19.1.0, SVG Export Plug-In . SVG Version: 6.00 Build 0)  -->
<svg version="1.1" id="Layer_1" xmlns="http://www.w3.org/2000/svg" xmlns:xlink="http://www.w3.org/1999/xlink" x="0px" y="0px"
	 viewBox="-320 264 150 86" style="enable-background:new -320 264 150 86;" xml:space="preserve">
<style type="text/css">
	.st0{display:none;}
	.st1{display:inline;fill:#F0F0F0;}
	.st2{display:inline;opacity:0.25;enable-background:new    ;}
	.st3{display:inline;opacity:0.1;enable-background:new    ;}
	.st4{display:inline;}
	.st5{fill:#ADADAD;}
	.st6{fill:#31343B;}
	.st7{fill:#4F535E;}
	.st8{opacity:0.7;}
	.st9{fill:#D9D3CD;}
	.st10{fill:#EDE7DF;}
	.st11{fill:#EBE4DC;}
	.st12{opacity:0.6;}
	.st13{fill:#BB69FF;}
	.st14{opacity:5.000000e-02;}
	.st15{fill:#DBD7D2;}
	.st16{fill:#D3CFC9;}
	.st17{fill:#E57C58;}
	.st18{fill:#C2BEB9;}
	.st19{fill:#B7B3AE;}
	.st20{fill:#FFFFFF;}
	.st21{opacity:5.000000e-02;enable-background:new    ;}
	.st22{fill:#639DC7;}
	.st23{opacity:0.1;}
	.st24{fill:#F5F0EB;}
	.st25{fill:#F59C36;}
	.st26{fill:#74C7A5;}
	.st27{opacity:0.15;enable-background:new    ;}
	.st28{display:inline;fill:#F56D3B;}
	.st29{display:inline;fill:#FFFFFF;}
	.st30{display:inline;opacity:0.2;enable-background:new    ;}
	.st31{fill:#F0F0F0;}
	.st32{opacity:0.1;enable-background:new    ;}
	.st33{fill:#2C94F2;}
	.st34{opacity:0.2;enable-background:new    ;}
	.st35{opacity:0.2;fill:#333333;enable-background:new    ;}
	.st36{fill:#FAFAFA;stroke:#1B293C;stroke-width:1.0269;stroke-linecap:round;stroke-linejoin:round;stroke-miterlimit:10;}
	.st37{fill:none;stroke:#1B293C;stroke-width:0.5134;stroke-linecap:round;stroke-linejoin:round;stroke-miterlimit:10;}
	.st38{fill:#D2ECFB;}
	.st39{fill:#1B293C;}
	.st40{fill:#FFF5CC;stroke:#1B293C;stroke-width:0.6071;stroke-linecap:round;stroke-linejoin:round;stroke-miterlimit:10;}
	.st41{opacity:0.35;fill:#293342;enable-background:new    ;}
	.st42{fill:none;stroke:#1B293C;stroke-width:0.6071;stroke-linecap:round;stroke-linejoin:round;stroke-miterlimit:10;}
	.st43{opacity:0.75;}
	.st44{fill:#FFF5CC;stroke:#1B293C;stroke-width:0.3987;stroke-linecap:round;stroke-linejoin:round;stroke-miterlimit:10;}
	.st45{fill:none;stroke:#1B293C;stroke-width:0.3987;stroke-linecap:round;stroke-linejoin:round;stroke-miterlimit:10;}
	.st46{opacity:0.5;}
	.st47{fill:#FFF5CC;stroke:#1B293C;stroke-width:0.3125;stroke-linecap:round;stroke-linejoin:round;stroke-miterlimit:10;}
	.st48{fill:none;stroke:#1B293C;stroke-width:0.3125;stroke-linecap:round;stroke-linejoin:round;stroke-miterlimit:10;}
	.st49{opacity:0.2;}
	.st50{fill:#FFF5CC;stroke:#1B293C;stroke-width:0.2591;stroke-linecap:round;stroke-linejoin:round;stroke-miterlimit:10;}
	.st51{fill:none;stroke:#1B293C;stroke-width:0.2591;stroke-linecap:round;stroke-linejoin:round;stroke-miterlimit:10;}
</style>
<g id="Layer_1_1_" class="st0">
	<rect x="-320" y="264" class="st1" width="150" height="86"/>
	<path class="st2" d="M-230,314h-80c-0.6,0-1-0.4-1-1l0,0c0-0.6,0.4-1,1-1h80c0.6,0,1,0.4,1,1l0,0C-229,313.6-229.4,314-230,314z"/>
	<path class="st3" d="M-230,323h-80c-0.6,0-1-0.4-1-1l0,0c0-0.6,0.4-1,1-1h80c0.6,0,1,0.4,1,1l0,0C-229,322.6-229.4,323-230,323z"/>
	<path class="st3" d="M-230,332h-80c-0.6,0-1-0.4-1-1l0,0c0-0.6,0.4-1,1-1h80c0.6,0,1,0.4,1,1l0,0C-229,331.6-229.4,332-230,332z"/>
	<path class="st3" d="M-230,341h-80c-0.6,0-1-0.4-1-1l0,0c0-0.6,0.4-1,1-1h80c0.6,0,1,0.4,1,1l0,0C-229,340.6-229.4,341-230,341z"/>
	<g class="st4">
		<g>
			<path class="st5" d="M-301.8,296.1l-0.2-0.1l0.5-0.9l0.2,0.1L-301.8,296.1z M-235.5,295.6l-1-0.2l0-0.2l1,0.2L-235.5,295.6z
				 M-237.4,295.2l-1-0.2l0-0.2l1,0.2L-237.4,295.2z M-239.4,294.9l-1-0.2l0-0.2l1,0.2L-239.4,294.9z M-241.4,294.5l-1-0.2l0-0.2
				l1,0.2L-241.4,294.5z M-300.9,294.3l-0.2-0.1l0.5-0.9l0.2,0.1L-300.9,294.3z M-243.3,294.1l-1-0.2l0-0.2l1,0.2L-243.3,294.1z
				 M-245.3,293.7l-1-0.2l0-0.2l1,0.2L-245.3,293.7z M-247.3,293.4l-1-0.2l0-0.2l1,0.2L-247.3,293.4z M-249.2,293l-1-0.2l0-0.2
				l1,0.2L-249.2,293z M-251.2,292.6l-1-0.2l0-0.2l1,0.2L-251.2,292.6z M-300,292.5l-0.2-0.1l0.5-0.9l0.2,0.1L-300,292.5z
				 M-253.1,292.2l-1-0.2l0-0.2l1,0.2L-253.1,292.2z M-255.1,291.9l-1-0.2l0-0.2l1,0.2L-255.1,291.9z M-257.1,291.5l-1-0.2l0-0.2
				l1,0.2L-257.1,291.5z M-259,291.1l-1-0.2l0-0.2l1,0.2L-259,291.1z M-299.1,290.8l-0.2-0.1l0.5-0.9l0.2,0.1L-299.1,290.8z
				 M-261,290.7l-1-0.2l0-0.2l1,0.2L-261,290.7z M-263,290.4l-1-0.2l0-0.2l1,0.2L-263,290.4z M-264.9,290l-1-0.2l0-0.2l1,0.2
				L-264.9,290z M-266.9,289.6l-1-0.2l0-0.2l1,0.2L-266.9,289.6z M-268.9,289.2l-1-0.2l0-0.2l1,0.2L-268.9,289.2z M-298.2,289
				l-0.2-0.1l0.5-0.9l0.2,0.1L-298.2,289z M-270.8,288.9l-1-0.2l0-0.2l1,0.2L-270.8,288.9z M-272.8,288.5l-1-0.2l0-0.2l1,0.2
				L-272.8,288.5z M-274.8,288.1l-1-0.2l0-0.2l1,0.2L-274.8,288.1z M-276.7,287.7l-1-0.2l0-0.2l1,0.2L-276.7,287.7z M-278.7,287.4
				l-1-0.2l0-0.2l1,0.2L-278.7,287.4z M-297.3,287.2l-0.2-0.1l0.5-0.9l0.2,0.1L-297.3,287.2z M-280.7,287l-1-0.2l0-0.2l1,0.2
				L-280.7,287z M-282.6,286.6l-1-0.2l0-0.2l1,0.2L-282.6,286.6z M-284.6,286.2l-1-0.2l0-0.2l1,0.2L-284.6,286.2z M-286.5,285.9
				l-1-0.2l0-0.2l1,0.2L-286.5,285.9z M-288.5,285.5l-1-0.2l0-0.2l1,0.2L-288.5,285.5z M-296.4,285.4l-0.2-0.1l0.5-0.9l0.2,0.1
				L-296.4,285.4z M-290.5,285.1l-1-0.2l0-0.2l1,0.2L-290.5,285.1z M-292.4,284.7l-1-0.2l0-0.2l1,0.2L-292.4,284.7z M-294.4,284.4
				l-1-0.2l0-0.2l1,0.2L-294.4,284.4z"/>
		</g>
		<g>
			<path class="st5" d="M-269,282.3l-1-0.1l0-0.2l1,0.1L-269,282.3z M-268,282.2l0-0.2l1-0.2l0,0.2L-268,282.2z M-271,282l-1-0.1
				l0-0.2l1,0.1L-271,282z M-266.1,281.9l0-0.2l1-0.2l0,0.2L-266.1,281.9z M-273,281.7l-1-0.1l0-0.2l1,0.1L-273,281.7z
				 M-264.1,281.5l0-0.2l1-0.2l0,0.2L-264.1,281.5z M-275,281.4l-1-0.1l0-0.2l1,0.1L-275,281.4z M-262.1,281.2l0-0.2l1-0.2l0,0.2
				L-262.1,281.2z M-277,281.1l-1-0.1l0-0.2l1,0.1L-277,281.1z M-260.1,280.8l0-0.2l1-0.2l0,0.2L-260.1,280.8z M-278.9,280.8l-1-0.1
				l0-0.2l1,0.1L-278.9,280.8z M-280.9,280.5l-1-0.1l0-0.2l1,0.1L-280.9,280.5z M-258.2,280.5l0-0.2l1-0.2l0,0.2L-258.2,280.5z
				 M-282.9,280.2l-1-0.1l0-0.2l1,0.1L-282.9,280.2z M-256.2,280.1l0-0.2l1-0.2l0,0.2L-256.2,280.1z M-284.9,279.9l-1-0.1l0-0.2
				l1,0.1L-284.9,279.9z M-254.2,279.8l0-0.2l1-0.2l0,0.2L-254.2,279.8z M-286.9,279.6l-1-0.1l0-0.2l1,0.1L-286.9,279.6z
				 M-252.3,279.4l0-0.2l1-0.2l0,0.2L-252.3,279.4z M-288.8,279.3l-1-0.1l0-0.2l1,0.1L-288.8,279.3z M-250.3,279.1l0-0.2l1-0.2
				l0,0.2L-250.3,279.1z M-290.8,279l-1-0.1l0-0.2l1,0.1L-290.8,279z M-292.8,278.7l-1-0.1l0-0.2l1,0.1L-292.8,278.7z M-248.3,278.7
				l0-0.2l1-0.2l0,0.2L-248.3,278.7z M-294.8,278.4l-1-0.1l0-0.2l1,0.1L-294.8,278.4z M-246.4,278.4l0-0.2l1-0.2l0,0.2L-246.4,278.4
				z M-296.7,278.1l-1-0.1l0-0.2l1,0.1L-296.7,278.1z M-244.4,278l0-0.2l1-0.2l0,0.2L-244.4,278z M-298.7,277.9l-1-0.1l0-0.2l1,0.1
				L-298.7,277.9z M-242.4,277.7l0-0.2l1-0.2l0,0.2L-242.4,277.7z M-300.7,277.6l-1-0.1l0-0.2l1,0.1L-300.7,277.6z M-240.5,277.3
				l0-0.2l1-0.2l0,0.2L-240.5,277.3z M-302.7,277.3l-1-0.1l0-0.2l1,0.1L-302.7,277.3z M-238.5,277l0-0.2l1-0.2l0,0.2L-238.5,277z
				 M-304.7,277l-1-0.1l0-0.2l1,0.1L-304.7,277z M-236.5,276.6l0-0.2l1-0.2l0,0.2L-236.5,276.6z"/>
		</g>
		<g>
			<path class="st5" d="M-264.3,289.9l-0.1-0.2l0.9-0.4l0.1,0.2L-264.3,289.9z M-262.5,289l-0.1-0.2l0.9-0.4l0.1,0.2L-262.5,289z
				 M-260.6,288.2l-0.1-0.2l0.9-0.4l0.1,0.2L-260.6,288.2z M-258.8,287.4l-0.1-0.2l0.9-0.4l0.1,0.2L-258.8,287.4z M-257,286.6
				l-0.1-0.2l0.9-0.4l0.1,0.2L-257,286.6z M-255.2,285.7l-0.1-0.2l0.9-0.4l0.1,0.2L-255.2,285.7z M-253.3,284.9l-0.1-0.2l0.9-0.4
				l0.1,0.2L-253.3,284.9z M-251.5,284.1l-0.1-0.2l0.9-0.4l0.1,0.2L-251.5,284.1z M-249.7,283.3l-0.1-0.2l0.9-0.4l0.1,0.2
				L-249.7,283.3z M-247.9,282.4l-0.1-0.2l0.9-0.4l0.1,0.2L-247.9,282.4z M-246.1,281.6l-0.1-0.2l0.9-0.4l0.1,0.2L-246.1,281.6z
				 M-244.2,280.8l-0.1-0.2l0.9-0.4l0.1,0.2L-244.2,280.8z M-242.4,279.9l-0.1-0.2l0.9-0.4l0.1,0.2L-242.4,279.9z M-240.6,279.1
				l-0.1-0.2l0.9-0.4l0.1,0.2L-240.6,279.1z M-238.8,278.3l-0.1-0.2l0.9-0.4l0.1,0.2L-238.8,278.3z M-237,277.5l-0.1-0.2l0.9-0.4
				l0.1,0.2L-237,277.5z M-235.1,276.6l-0.1-0.2l0.9-0.4l0.1,0.2L-235.1,276.6z"/>
		</g>
		<g>
			<path class="st5" d="M-301.9,296.2l-0.1-0.2l0.9-0.4l0.1,0.2L-301.9,296.2z M-300.1,295.3l-0.1-0.2l0.9-0.4l0.1,0.2L-300.1,295.3
				z M-298.2,294.5l-0.1-0.2l0.9-0.4l0.1,0.2L-298.2,294.5z M-296.4,293.6l-0.1-0.2l0.9-0.4l0.1,0.2L-296.4,293.6z M-294.6,292.8
				l-0.1-0.2l0.9-0.4l0.1,0.2L-294.6,292.8z M-292.8,291.9l-0.1-0.2l0.9-0.4l0.1,0.2L-292.8,291.9z M-291,291.1l-0.1-0.2l0.9-0.4
				l0.1,0.2L-291,291.1z M-289.2,290.3l-0.1-0.2l0.9-0.4l0.1,0.2L-289.2,290.3z M-287.4,289.4l-0.1-0.2l0.9-0.4l0.1,0.2
				L-287.4,289.4z M-285.6,288.6l-0.1-0.2l0.9-0.4l0.1,0.2L-285.6,288.6z M-283.7,287.7l-0.1-0.2l0.9-0.4l0.1,0.2L-283.7,287.7z
				 M-281.9,286.9l-0.1-0.2l0.9-0.4l0.1,0.2L-281.9,286.9z M-280.1,286l-0.1-0.2l0.9-0.4l0.1,0.2L-280.1,286z M-278.3,285.2
				l-0.1-0.2l0.9-0.4l0.1,0.2L-278.3,285.2z M-276.5,284.4l-0.1-0.2l0.9-0.4l0.1,0.2L-276.5,284.4z M-274.7,283.5l-0.1-0.2l0.9-0.4
				l0.1,0.2L-274.7,283.5z M-272.9,282.7l-0.1-0.2l0.9-0.4l0.1,0.2L-272.9,282.7z M-271,281.8l-0.1-0.2l0.9-0.4l0.1,0.2L-271,281.8z
				 M-269.2,281l-0.1-0.2l0.9-0.4l0.1,0.2L-269.2,281z"/>
		</g>
		<g>
			<polygon class="st6" points="-263.3,304.7 -273.8,304.7 -272.8,299.1 -264.2,299.1 			"/>
			<path class="st7" d="M-260.5,304.7h-16v0c0-1,0.8-1.7,1.7-1.7h12.5C-261.3,303-260.5,303.7-260.5,304.7L-260.5,304.7
				L-260.5,304.7z"/>
		</g>
		<g class="st8">
			<path class="st9" d="M-295.9,293.3l-0.5,0.1c-0.1,0-0.2,0.1-0.3,0.1l-5.4,2.3l4.9,5c0.2,0,0.3,0,0.3-0.3l1.2-7
				C-295.7,293.4-295.8,293.2-295.9,293.3z"/>
			<path class="st9" d="M-307.2,291.2l0.4,0.3c0.1,0.1,0.2,0.1,0.3,0.2l4.5,4.1l-6.4,2.9c-0.2,0-0.3-0.1-0.2-0.4l1.2-7
				C-307.4,291.2-307.3,291.1-307.2,291.2z"/>
			<path class="st10" d="M-308.7,298.4l6.5-2.6l5.2,4.7c0,0.1-0.1,0.3-0.2,0.2l-11.4-2.1C-308.7,298.7-308.7,298.5-308.7,298.4z"/>
			<path class="st11" d="M-295.8,293.5l-6.2,3.1c-0.2,0.1-0.5,0.1-0.6-0.1l-4.8-5.1c0-0.1,0.1-0.3,0.2-0.2l11.3,2.1
				C-295.8,293.3-295.7,293.4-295.8,293.5z"/>
		</g>
		<g class="st8">
			<path class="st9" d="M-229.2,273.9l-0.4,0.1c-0.1,0-0.2,0-0.3,0.1l-4.5,1.8l3.9,4.2c0.2,0,0.2,0,0.3-0.2l1.2-5.7
				C-229,274-229.1,273.9-229.2,273.9z"/>
			<path class="st9" d="M-238.3,272l0.3,0.2c0.1,0,0.2,0.1,0.2,0.2l3.5,3.5l-5.3,2.2c-0.2,0-0.2-0.1-0.2-0.3l1.2-5.7
				C-238.5,272-238.4,272-238.3,272z"/>
			<path class="st10" d="M-239.7,277.9l5.4-2l4.1,4c0,0.1-0.1,0.2-0.2,0.2l-9.2-2C-239.7,278.1-239.8,278-239.7,277.9z"/>
			<path class="st11" d="M-229.1,274.2l-5.1,2.4c-0.2,0.1-0.4,0-0.5-0.1l-3.8-4.3c0-0.1,0.1-0.2,0.2-0.2l9.2,2
				C-229,274-229,274.1-229.1,274.2z"/>
		</g>
		<g class="st8">
			<path class="st9" d="M-243.1,283.9l-0.3,0.2c-0.1,0-0.2,0.1-0.2,0.2l-3.4,3.5l5.2,2.2c0.2,0,0.2-0.1,0.2-0.3l-1.3-5.7
				C-242.9,283.9-243,283.9-243.1,283.9z"/>
			<path class="st9" d="M-252.2,285.9l0.4,0.1c0.1,0,0.2,0,0.3,0.1l4.7,1.7l-3.9,4.2c-0.2,0-0.2,0-0.3-0.2l-1.3-5.7
				C-252.4,286-252.3,285.9-252.2,285.9z"/>
			<path class="st10" d="M-251,291.8l4.1-4l5.4,1.9c0.1,0.1,0,0.2-0.1,0.2l-9.2,2C-251,292.1-251.1,291.9-251,291.8z"/>
			<path class="st11" d="M-242.9,284.1l-3.7,4.3c-0.1,0.1-0.3,0.2-0.5,0.1l-5.2-2.3c-0.1-0.1,0-0.2,0.1-0.2l9.2-2
				C-243,283.9-242.9,284-242.9,284.1z"/>
		</g>
		<g class="st12">
			<path class="st9" d="M-303.1,272.3l-0.2,0.3c-0.1,0.1-0.1,0.1-0.1,0.2l-2.2,3.6l4.9,0.9c0.2-0.1,0.2-0.1,0.1-0.3l-2.2-4.6
				C-302.9,272.3-303,272.3-303.1,272.3z"/>
			<path class="st9" d="M-310.6,275.8l0.4,0c0.1,0,0.2,0,0.3,0l4.3,0.6l-2.5,4.4c-0.2,0.1-0.2,0-0.3-0.1l-2.2-4.6
				C-310.7,275.9-310.6,275.8-310.6,275.8z"/>
			<path class="st10" d="M-308.4,280.7l2.7-4.2l5,0.6c0.1,0.1,0.1,0.2,0,0.2l-7.5,3.5C-308.3,280.8-308.4,280.8-308.4,280.7z"/>
			<path class="st11" d="M-302.9,272.4l-2.4,4.4c-0.1,0.1-0.2,0.2-0.4,0.2l-5-1c-0.1-0.1-0.1-0.2,0-0.2l7.5-3.5
				C-303,272.3-302.9,272.3-302.9,272.4z"/>
		</g>
		<g class="st12">
			<path class="st9" d="M-293.2,281.4l-0.2,0.2c-0.1,0-0.1,0.1-0.1,0.1l-2.2,2.3l3.4,1.5c0.1,0,0.1-0.1,0.1-0.2l-0.8-3.7
				C-293.1,281.4-293.2,281.4-293.2,281.4z"/>
			<path class="st9" d="M-299.2,282.7l0.3,0.1c0.1,0,0.1,0,0.2,0.1l3.1,1.1l-2.6,2.8c-0.1,0-0.2,0-0.2-0.1l-0.8-3.7
				C-299.4,282.8-299.3,282.7-299.2,282.7z"/>
			<path class="st10" d="M-298.5,286.6l2.7-2.6l3.5,1.3c0,0.1,0,0.1,0,0.2l-6.1,1.3C-298.4,286.7-298.5,286.6-298.5,286.6z"/>
			<path class="st11" d="M-293.1,281.5l-2.4,2.8c-0.1,0.1-0.2,0.1-0.3,0.1l-3.4-1.5c0-0.1,0-0.1,0-0.2l6-1.3
				C-293.2,281.4-293.1,281.4-293.1,281.5z"/>
		</g>
		<g class="st12">
			<path class="st9" d="M-232.6,293.5l-0.2,0.1c0,0-0.1,0.1-0.1,0.1l-1.7,1.8l2.7,1.1c0.1,0,0.1-0.1,0.1-0.2l-0.7-2.9
				C-232.5,293.5-232.6,293.5-232.6,293.5z"/>
			<path class="st9" d="M-237.3,294.5l0.2,0c0.1,0,0.1,0,0.1,0l2.4,0.9l-2,2.1c-0.1,0-0.1,0-0.1-0.1L-237.3,294.5
				C-237.4,294.5-237.3,294.5-237.3,294.5z"/>
			<path class="st10" d="M-236.7,297.5l2.1-2l2.7,1c0,0,0,0.1,0,0.1L-236.7,297.5C-236.7,297.6-236.7,297.6-236.7,297.5z"/>
			<path class="st11" d="M-232.5,293.6l-1.9,2.2c-0.1,0.1-0.2,0.1-0.3,0.1l-2.7-1.2c0,0,0-0.1,0-0.1L-232.5,293.6
				C-232.6,293.5-232.5,293.5-232.5,293.6z"/>
		</g>
		<g>
			<path class="st13" d="M-286.3,298.1c-0.6,0-1.1-0.5-1.1-1.1v-22c0-0.6,0.5-1.1,1.1-1.1h35.6c0.6,0,1.1,0.5,1.1,1.1v22
				c0,0.6-0.5,1.1-1.1,1.1L-286.3,298.1L-286.3,298.1z"/>
			<path class="st7" d="M-250.7,275c0.1,0,0.1,0.1,0.1,0.1v22c0,0,0,0.1-0.1,0.1h-35.6c-0.1,0-0.1-0.1-0.1-0.1v-22
				c0,0,0-0.1,0.1-0.1H-250.7 M-250.7,273h-35.6c-1.2,0-2.1,0.9-2.1,2.1v22c0,1.2,0.9,2.1,2.1,2.1h35.6c1.2,0,2.1-0.9,2.1-2.1v-22
				C-248.6,273.9-249.5,273-250.7,273L-250.7,273z"/>
		</g>
		<g>
			<g class="st14">
				<rect x="-282.9" y="284.1" width="1.1" height="13.1"/>
			</g>
			<path class="st15" d="M-281.7,282.8v12.9c0,0.9-0.7,1.6-1.6,1.6h12.5c0.9,0,1.6-0.7,1.6-1.6v-9l-3.7-3.9H-281.7z"/>
			<rect x="-274.9" y="287.2" class="st16" width="4.1" height="0.8"/>
			<rect x="-280.2" y="287.2" class="st17" width="4.3" height="4.3"/>
			<rect x="-274.9" y="289" class="st16" width="4.1" height="0.8"/>
			<rect x="-274.9" y="290.8" class="st16" width="4.1" height="0.8"/>
			<rect x="-280.2" y="292.5" class="st18" width="9.4" height="0.8"/>
			<rect x="-280.2" y="294.3" class="st18" width="9.4" height="0.8"/>
			<rect x="-280.2" y="284.9" class="st19" width="9.4" height="1.4"/>
			<polygon class="st20" points="-273,286.7 -269.3,286.7 -273,282.8 			"/>
			<polygon class="st21" points="-269.3,286.7 -273,286.7 -269.3,290 			"/>
		</g>
		<g>
			<g class="st14">
				<rect x="-267.7" y="284.1" width="1.1" height="13.1"/>
			</g>
			<path class="st15" d="M-266.5,282.8v12.9c0,0.9-0.7,1.6-1.6,1.6h12.5c0.9,0,1.6-0.7,1.6-1.6v-9l-3.7-3.9H-266.5z"/>
			<rect x="-265" y="287.2" class="st18" width="4.3" height="0.8"/>
			<rect x="-265" y="289" class="st18" width="4.3" height="0.8"/>
			<rect x="-265" y="290.8" class="st18" width="4.3" height="0.8"/>
			<rect x="-265" y="292.5" class="st18" width="9.4" height="0.8"/>
			<rect x="-265" y="294.3" class="st18" width="9.4" height="0.8"/>
			<rect x="-265" y="284.9" class="st19" width="9.4" height="1.4"/>
			<polygon class="st20" points="-257.8,286.7 -254.1,286.7 -257.8,282.8 			"/>
			<polygon class="st21" points="-254.1,286.7 -257.8,286.7 -254.1,290 			"/>
			<rect x="-259.9" y="287.2" class="st22" width="4.3" height="4.3"/>
		</g>
		<g>
			<g class="st23">
				<rect x="-276.7" y="282.8" width="1.1" height="14.4"/>
			</g>
			<g class="st23">
				<rect x="-262.4" y="282.8" width="2.7" height="14.4"/>
			</g>
			<path class="st24" d="M-275.5,276.7v18.9c0,0.9-0.7,1.6-1.6,1.6h14.8c0.9,0,1.6-0.7,1.6-1.6v-15l-3.7-3.9H-275.5z"/>
			<rect x="-267.3" y="281.2" class="st16" width="5.1" height="0.8"/>
			<rect x="-274" y="281.2" class="st25" width="5.7" height="6"/>
			<rect x="-267.3" y="283" class="st16" width="5.1" height="0.8"/>
			<rect x="-267.3" y="284.7" class="st16" width="5.1" height="0.8"/>
			<rect x="-267.3" y="286.5" class="st16" width="5.1" height="0.8"/>
			<rect x="-274" y="288.2" class="st16" width="11.7" height="0.8"/>
			<rect x="-274" y="290" class="st16" width="11.7" height="0.8"/>
			<rect x="-274" y="291.7" class="st16" width="5.7" height="0.8"/>
			<rect x="-274" y="293.5" class="st16" width="5.7" height="0.8"/>
			<rect x="-274" y="295.2" class="st16" width="5.7" height="0.8"/>
			<rect x="-274" y="278.9" class="st19" width="11.7" height="1.4"/>
			<polygon class="st20" points="-264.4,280.6 -260.7,280.6 -264.4,276.7 			"/>
			<polygon class="st21" points="-260.7,280.6 -264.4,280.6 -260.7,283.9 			"/>
			<rect x="-267.3" y="291.7" class="st26" width="5.1" height="4.3"/>
		</g>
		<polygon class="st27" points="-272.8,299 -264.2,299 -263.8,301.1 		"/>
	</g>
	<rect x="-220" y="264" class="st28" width="50" height="86"/>
	<path class="st29" d="M-180,327h-30c-0.6,0-1-0.4-1-1v-7c0-0.6,0.4-1,1-1h30c0.6,0,1,0.4,1,1v7C-179,326.6-179.4,327-180,327z"/>
	<path class="st30" d="M-180,312h-30c-0.6,0-1-0.4-1-1v-7c0-0.6,0.4-1,1-1h30c0.6,0,1,0.4,1,1v7C-179,311.6-179.4,312-180,312z"/>
	<path class="st30" d="M-180,297h-30c-0.6,0-1-0.4-1-1v-7c0-0.6,0.4-1,1-1h30c0.6,0,1,0.4,1,1v7C-179,296.6-179.4,297-180,297z"/>
</g>
<g id="Layer_2">
	<rect x="-320" y="264" class="st31" width="150" height="86"/>
	<path class="st32" d="M-230,323h-80c-0.6,0-1-0.4-1-1l0,0c0-0.6,0.4-1,1-1h80c0.6,0,1,0.4,1,1l0,0C-229,322.6-229.4,323-230,323z"
		/>
	<path class="st32" d="M-230,332h-80c-0.6,0-1-0.4-1-1l0,0c0-0.6,0.4-1,1-1h80c0.6,0,1,0.4,1,1l0,0C-229,331.6-229.4,332-230,332z"
		/>
	<path class="st32" d="M-230,341h-80c-0.6,0-1-0.4-1-1l0,0c0-0.6,0.4-1,1-1h80c0.6,0,1,0.4,1,1l0,0C-229,340.6-229.4,341-230,341z"
		/>
	<rect x="-220" y="264" class="st33" width="50" height="86"/>
	<path class="st20" d="M-181,327h-28c-1.1,0-2-0.9-2-2v-5c0-1.1,0.9-2,2-2h28c1.1,0,2,0.9,2,2v5C-179,326.1-179.9,327-181,327z"/>
	<path class="st34" d="M-181,312h-28c-1.1,0-2-0.9-2-2v-5c0-1.1,0.9-2,2-2h28c1.1,0,2,0.9,2,2v5C-179,311.1-179.9,312-181,312z"/>
	<path class="st34" d="M-181,297h-28c-1.1,0-2-0.9-2-2v-5c0-1.1,0.9-2,2-2h28c1.1,0,2,0.9,2,2v5C-179,296.1-179.9,297-181,297z"/>
</g>
<ellipse class="st35" cx="-270.9" cy="311.4" rx="8.6" ry="1.4"/>
<path class="st36" d="M-280.6,273.2c0-1.2,1-2.1,2.1-2.1h14.2c1.2,0,2.1,1,2.1,2.1v28.4c0,1.2-1,2.1-2.1,2.1h-14.2
	c-1.2,0-2.1-1-2.1-2.1V273.2z"/>
<line class="st37" x1="-270" y1="274" x2="-272.9" y2="274"/>
<g>
	<path class="st38" d="M-280.2,298.6c-0.1,0-0.3-0.1-0.3-0.3v-21c0-0.1,0.1-0.3,0.3-0.3h17.6c0.1,0,0.3,0.1,0.3,0.3v21
		c0,0.1-0.1,0.3-0.3,0.3H-280.2z"/>
	<g>
		<path class="st39" d="M-262.6,277.4v21h-17.6v-21H-262.6 M-262.6,276.9h-17.6c-0.3,0-0.5,0.2-0.5,0.5v21c0,0.3,0.2,0.5,0.5,0.5
			h17.6c0.3,0,0.5-0.2,0.5-0.5v-21C-262.1,277-262.4,276.9-262.6,276.9L-262.6,276.9z"/>
	</g>
</g>
<circle class="st37" cx="-271.5" cy="301.1" r="1.5"/>
<g>
	<path class="st40" d="M-264.2,291.4v-8.5c0-0.5-0.4-0.9-0.9-0.9h-12.1c-0.5,0-0.9,0.4-0.9,0.9v8.5c0,0.5,0.4,0.9,0.9,0.9h12.1
		C-264.6,292.2-264.2,291.9-264.2,291.4z"/>
	<path class="st41" d="M-277.9,283l5.4,6.2c0.6,0.6,2.2,0.5,2.7,0l5.2-5.9v-0.6h-13.3L-277.9,283z"/>
	<path class="st40" d="M-277.5,282.5l5.1,5.4c0.8,0.8,2,0.8,2.8,0l5.1-5.4"/>
	<line class="st42" x1="-273" y1="287.4" x2="-276.2" y2="290.4"/>
	<line class="st42" x1="-269.2" y1="287.4" x2="-266" y2="290.5"/>
</g>
<g class="st43">
	<path class="st44" d="M-250.4,285.5l1.7-5.3c0.1-0.3-0.1-0.7-0.4-0.8l-7.6-2.4c-0.3-0.1-0.7,0.1-0.8,0.4l-1.7,5.3
		c-0.1,0.3,0.1,0.7,0.4,0.8l7.6,2.4C-250.9,286-250.6,285.9-250.4,285.5z"/>
	<path class="st41" d="M-257.4,277.6l2.2,4.9c0.2,0.5,1.3,0.8,1.7,0.5l4.4-2.7l0.1-0.4l-8.4-2.6V277.6z"/>
	<path class="st44" d="M-257,277.4l2.1,4.4c0.3,0.7,1.1,0.9,1.8,0.6l4.2-2.4"/>
	<line class="st45" x1="-255.1" y1="281.4" x2="-257.9" y2="282.5"/>
	<line class="st45" x1="-252.9" y1="282" x2="-251.4" y2="284.6"/>
</g>
<g class="st46">
	<path class="st47" d="M-250.4,294.5l-1-4.3c-0.1-0.3-0.3-0.4-0.6-0.3l-6.1,1.5c-0.3,0.1-0.4,0.3-0.3,0.6l1,4.3
		c0.1,0.3,0.3,0.4,0.6,0.3l6.1-1.4C-250.4,295-250.2,294.6-250.4,294.5z"/>
	<path class="st41" d="M-258.1,291.9l3.5,2.4c0.4,0.2,1.2,0,1.4-0.3l1.9-3.6l-0.1-0.3l-6.7,1.6L-258.1,291.9z"/>
	<path class="st47" d="M-258,291.5l3.2,2.1c0.5,0.3,1.1,0.2,1.4-0.3l1.9-3.3"/>
	<line class="st48" x1="-255.1" y1="293.5" x2="-256.5" y2="295.4"/>
	<line class="st48" x1="-253.4" y1="293" x2="-251.4" y2="294.1"/>
</g>
<g class="st49">
	<path class="st50" d="M-241.6,291l1.1-3.5c0.1-0.2,0-0.4-0.2-0.5l-4.9-1.6c-0.2-0.1-0.4,0-0.5,0.2l-1.1,3.4c-0.1,0.2,0,0.4,0.2,0.5
		l4.9,1.6C-241.9,291.4-241.6,291.2-241.6,291z"/>
	<path class="st41" d="M-246.1,285.9l1.4,3.2c0.1,0.3,0.8,0.5,1.1,0.4l2.9-1.7l0.1-0.2l-5.4-1.8L-246.1,285.9z"/>
	<path class="st50" d="M-245.9,285.6l1.3,2.9c0.2,0.4,0.7,0.6,1.1,0.4l2.8-1.5"/>
	<line class="st51" x1="-244.6" y1="288.2" x2="-246.4" y2="289"/>
	<line class="st51" x1="-243.1" y1="288.8" x2="-242.1" y2="290.5"/>
</g>
<g class="st43">
	<path class="st44" d="M-292.4,285.5l-1.7-5.3c-0.1-0.3,0.1-0.7,0.4-0.8l7.6-2.4c0.3-0.1,0.7,0.1,0.8,0.4l1.7,5.3
		c0.1,0.3-0.1,0.7-0.4,0.8l-7.6,2.4C-292,286-292.2,285.9-292.4,285.5z"/>
	<path class="st41" d="M-285.5,277.6l-2.2,4.9c-0.2,0.5-1.3,0.8-1.7,0.5l-4.4-2.7l-0.1-0.4l8.4-2.6L-285.5,277.6z"/>
	<path class="st44" d="M-285.8,277.4l-2.1,4.4c-0.3,0.7-1.1,0.9-1.8,0.6l-4.2-2.4"/>
	<line class="st45" x1="-287.6" y1="281.4" x2="-285" y2="282.5"/>
	<line class="st45" x1="-290" y1="282" x2="-291.5" y2="284.6"/>
</g>
<g class="st46">
	<path class="st47" d="M-292.5,294.5l1-4.3c0.1-0.3,0.3-0.4,0.6-0.3l6.1,1.5c0.3,0.1,0.4,0.3,0.3,0.6l-1,4.3
		c-0.1,0.3-0.3,0.4-0.6,0.3l-6.1-1.4C-292.4,295-292.5,294.6-292.5,294.5z"/>
	<path class="st41" d="M-284.6,291.9l-3.5,2.4c-0.4,0.2-1.2,0-1.4-0.3l-1.9-3.6l0.1-0.3l6.7,1.6L-284.6,291.9z"/>
	<path class="st47" d="M-284.8,291.5l-3.2,2.1c-0.5,0.3-1.1,0.2-1.4-0.3l-1.9-3.3"/>
	<line class="st48" x1="-287.6" y1="293.5" x2="-286.4" y2="295.4"/>
	<line class="st48" x1="-289.5" y1="293" x2="-291.5" y2="294.1"/>
</g>
<g class="st49">
	<path class="st50" d="M-301.2,291l-1.1-3.5c-0.1-0.2,0-0.4,0.2-0.5l4.9-1.6c0.2-0.1,0.4,0,0.5,0.2l1.1,3.4c0.1,0.2,0,0.4-0.2,0.5
		l-4.9,1.6C-301,291.4-301.1,291.2-301.2,291z"/>
	<path class="st41" d="M-296.8,285.9l-1.4,3.2c-0.1,0.3-0.8,0.5-1.1,0.4l-2.9-1.7l-0.1-0.2l5.4-1.8L-296.8,285.9z"/>
	<path class="st50" d="M-297,285.6l-1.3,2.9c-0.2,0.4-0.7,0.6-1.1,0.4l-2.8-1.5"/>
	<line class="st51" x1="-298.2" y1="288.2" x2="-296.5" y2="289"/>
	<line class="st51" x1="-299.8" y1="288.8" x2="-300.6" y2="290.5"/>
</g>
</svg>
