<?xml version="1.0" encoding="utf-8"?>
<!-- Generator: Adobe Illustrator 19.1.0, SVG Export Plug-In . SVG Version: 6.00 Build 0)  -->
<svg version="1.1" id="Layer_1" xmlns="http://www.w3.org/2000/svg" xmlns:xlink="http://www.w3.org/1999/xlink" x="0px" y="0px"
	 viewBox="-320 264 150 86" style="enable-background:new -320 264 150 86;" xml:space="preserve">
<style type="text/css">
	.st0{fill:#FFFFFF;}
	.st1{fill:none;}
	.st2{fill:#4251DB;}
	.st3{fill:#E85A34;}
	.st4{opacity:0.25;enable-background:new    ;}
	.st5{opacity:0.1;enable-background:new    ;}
	.st6{opacity:0.15;fill:#222229;enable-background:new    ;}
	.st7{display:none;}
	.st8{opacity:0.2;fill:#333333;}
	.st9{fill:#FFF5CC;stroke:#1B293C;stroke-width:1.216;stroke-linecap:round;stroke-linejoin:round;stroke-miterlimit:10;}
	.st10{opacity:0.35;fill:#293342;}
	.st11{fill:none;stroke:#1B293C;stroke-width:1.216;stroke-linecap:round;stroke-linejoin:round;stroke-miterlimit:10;}
	.st12{fill:#6B96F4;stroke:#1B293C;stroke-width:0.608;stroke-linecap:round;stroke-linejoin:round;stroke-miterlimit:10;}
	.st13{fill:#FFFFFF;stroke:#1B293C;stroke-width:0.608;stroke-linecap:round;stroke-linejoin:round;stroke-miterlimit:10;}
	.st14{opacity:0.5;fill:none;stroke:#1B293C;stroke-width:0.608;stroke-linecap:round;stroke-linejoin:round;stroke-miterlimit:10;}
</style>
<g id="Layer_1_1_">
	<rect x="-320" y="264" class="st0" width="150" height="86"/>
	<g>
		<polygon class="st1" points="-219.4,264 -305.4,350 -300.9,350 -214.9,264 		"/>
		<polygon class="st1" points="-212.1,264 -298.1,350 -293.7,350 -207.7,264 		"/>
		<polygon class="st1" points="-226.7,264 -312.7,350 -308.2,350 -222.2,264 		"/>
		<polygon class="st1" points="-234,264 -320,350 -315.5,350 -229.5,264 		"/>
		<polygon class="st1" points="-190.3,264 -276.3,350 -271.9,350 -185.9,264 		"/>
		<polygon class="st1" points="-183.1,264 -269.1,350 -264.6,350 -178.6,264 		"/>
		<polygon class="st1" points="-204.9,264 -290.9,350 -286.4,350 -200.4,264 		"/>
		<polygon class="st1" points="-175.8,264 -261.8,350 -257.3,350 -171.3,264 		"/>
		<polygon class="st1" points="-241.2,264 -320,342.8 -320,347.3 -236.7,264 		"/>
		<polygon class="st1" points="-197.6,264 -283.6,350 -279.1,350 -193.1,264 		"/>
		<polygon class="st1" points="-248.5,264 -320,335.5 -320,340 -244,264 		"/>
		<polygon class="st1" points="-298.4,264 -320,285.6 -320,289.1 -294.9,264 		"/>
		<polygon class="st1" points="-305.7,264 -320,278.3 -320,282.8 -301.2,264 		"/>
		<polygon class="st1" points="-313,264 -320,271 -320,275.5 -308.5,264 		"/>
		<polygon class="st1" points="-320,264 -320,268.2 -315.8,264 		"/>
		<polygon class="st1" points="-292.1,264 -320,291.9 -320,296.4 -287.6,264 		"/>
		<polygon class="st1" points="-263,264 -320,321 -320,325.4 -258.6,264 		"/>
		<polygon class="st1" points="-170,265.5 -254.5,350 -250,350 -170,270 		"/>
		<polygon class="st1" points="-284.9,264 -320,299.1 -320,303.6 -280.4,264 		"/>
		<polygon class="st1" points="-255.8,264 -320,328.2 -320,332.7 -251.3,264 		"/>
		<polygon class="st1" points="-270.3,264 -320,313.7 -320,318.2 -265.8,264 		"/>
		<polygon class="st1" points="-277.6,264 -320,306.4 -320,310.9 -273.1,264 		"/>
		<polygon class="st1" points="-170,294.6 -225.4,350 -221,350 -170,299 		"/>
		<polygon class="st1" points="-170,323.6 -196.4,350 -191.9,350 -170,328.1 		"/>
		<polygon class="st1" points="-170,287.3 -232.7,350 -228.2,350 -170,291.8 		"/>
		<polygon class="st1" points="-170,309.1 -210.9,350 -206.4,350 -170,313.6 		"/>
		<polygon class="st1" points="-170,301.8 -218.2,350 -213.7,350 -170,306.3 		"/>
		<polygon class="st1" points="-170,316.4 -203.6,350 -199.1,350 -170,320.9 		"/>
		<polygon class="st1" points="-170,280 -240,350 -235.5,350 -170,284.5 		"/>
		<polygon class="st1" points="-170,330.9 -189.1,350 -184.6,350 -170,335.4 		"/>
		<polygon class="st1" points="-170,272.8 -247.2,350 -242.8,350 -170,277.2 		"/>
		<polygon class="st1" points="-170,338.2 -181.8,350 -177.3,350 -170,342.7 		"/>
		<polygon class="st1" points="-174.5,350 -170,350 -170,345.5 		"/>
		<polygon class="st2" points="-170,335.4 -184.6,350 -181.8,350 -170,338.2 		"/>
		<polygon class="st3" points="-170,328.1 -191.9,350 -189.1,350 -170,330.9 		"/>
		<polygon class="st2" points="-170,320.9 -199.1,350 -196.4,350 -170,323.6 		"/>
		<polygon class="st3" points="-170,313.6 -206.4,350 -203.6,350 -170,316.4 		"/>
		<polygon class="st2" points="-170,306.3 -213.7,350 -210.9,350 -170,309.1 		"/>
		<polygon class="st3" points="-170,299 -221,350 -218.2,350 -170,301.8 		"/>
		<polygon class="st2" points="-170,291.8 -228.2,350 -225.4,350 -170,294.6 		"/>
		<polygon class="st3" points="-170,284.5 -235.5,350 -232.7,350 -170,287.3 		"/>
		<polygon class="st2" points="-170,277.2 -242.8,350 -240,350 -170,280 		"/>
		<polygon class="st3" points="-170,270 -250,350 -247.2,350 -170,272.8 		"/>
		<polygon class="st2" points="-170,264 -171.3,264 -257.3,350 -254.5,350 -170,265.5 		"/>
		<polygon class="st3" points="-178.6,264 -264.6,350 -261.8,350 -175.8,264 		"/>
		<polygon class="st2" points="-185.9,264 -271.9,350 -269.1,350 -183.1,264 		"/>
		<polygon class="st3" points="-193.1,264 -279.1,350 -276.3,350 -190.3,264 		"/>
		<polygon class="st2" points="-200.4,264 -286.4,350 -283.6,350 -197.6,264 		"/>
		<polygon class="st3" points="-207.7,264 -293.7,350 -290.9,350 -204.9,264 		"/>
		<polygon class="st3" points="-222.2,264 -308.2,350 -305.4,350 -219.4,264 		"/>
		<polygon class="st3" points="-236.7,264 -320,347.3 -320,350 -320,350 -234,264 		"/>
		<polygon class="st3" points="-250.8,263.2 -319.5,332 -320,335.5 -248.5,264 		"/>
		<polygon class="st2" points="-273.1,264 -320,310.9 -320,313.7 -270.3,264 		"/>
		<polygon class="st2" points="-214.9,264 -300.9,350 -298.1,350 -212.1,264 		"/>
		<polygon class="st2" points="-229.5,264 -315.5,350 -312.7,350 -226.7,264 		"/>
		<polygon class="st2" points="-244,264 -320,340 -320,342.8 -241.2,264 		"/>
		<polygon class="st2" points="-258.6,264 -320,325.4 -320,328.2 -255.8,264 		"/>
		<polygon class="st2" points="-287.6,264 -320,296.4 -320,299.1 -284.9,264 		"/>
		<polygon class="st3" points="-280.4,264 -320,303.6 -320,306.4 -277.6,264 		"/>
		<polygon class="st3" points="-265.8,264 -320,318.2 -320,321 -263,264 		"/>
		<polygon class="st3" points="-294.9,264 -320,289.1 -320,291.9 -292.1,264 		"/>
		<polygon class="st2" points="-315.8,264 -320,268.2 -320,271 -313,264 		"/>
		<polygon class="st2" points="-301.2,264 -320,282.8 -320,285.6 -298.4,264 		"/>
		<polygon class="st3" points="-308.5,264 -320,275.5 -320,278.3 -305.7,264 		"/>
		<polygon class="st3" points="-170,342.7 -177.3,350 -174.5,350 -170,345.5 		"/>
	</g>
	<rect x="-318" y="266" class="st0" width="146" height="61"/>
	<rect x="-318" y="324" class="st0" width="146" height="24"/>
	<path class="st4" d="M-180,278h-80.8c-0.6,0-1-0.4-1-1l0,0c0-0.6,0.4-1,1-1h80.8c0.6,0,1,0.4,1,1l0,0C-179,277.6-179.4,278-180,278
		z"/>
	<path class="st5" d="M-180,287h-80.8c-0.6,0-1-0.4-1-1l0,0c0-0.6,0.4-1,1-1h80.8c0.6,0,1,0.4,1,1l0,0C-179,286.6-179.4,287-180,287
		z"/>
	<path class="st5" d="M-180,296h-80.8c-0.6,0-1-0.4-1-1l0,0c0-0.6,0.4-1,1-1h80.8c0.6,0,1,0.4,1,1l0,0C-179,295.6-179.4,296-180,296
		z"/>
	<path class="st5" d="M-180,305h-80.8c-0.6,0-1-0.4-1-1l0,0c0-0.6,0.4-1,1-1h80.8c0.6,0,1,0.4,1,1l0,0C-179,304.6-179.4,305-180,305
		z"/>
	<path class="st5" d="M-180,314h-80.8c-0.6,0-1-0.4-1-1l0,0c0-0.6,0.4-1,1-1h80.8c0.6,0,1,0.4,1,1l0,0C-179,313.6-179.4,314-180,314
		z"/>
	<path class="st6" d="M-219,340h-90c-1.1,0-2-0.9-2-2v-5c0-1.1,0.9-2,2-2h90c1.1,0,2,0.9,2,2v5C-217,339.1-217.9,340-219,340z"/>
	<path class="st2" d="M-181,340h-28c-1.1,0-2-0.9-2-2v-5c0-1.1,0.9-2,2-2h28c1.1,0,2,0.9,2,2v5C-179,339.1-179.9,340-181,340z"/>
	<g>
		<polygon class="st1" points="-281,287.8 -301,287.8 -291,295.2 		"/>
	</g>
</g>
<g id="Layer_2" class="st7">
</g>
<ellipse class="st8" cx="-293.8" cy="309" rx="12.2" ry="1.6"/>
<path class="st9" d="M-289.5,298.3h-17.2c-1,0-1.8-0.8-1.8-1.8v-17c0-1,0.8-1.8,1.8-1.8h24.3c1,0,1.8,0.8,1.8,1.8v15.6"/>
<path class="st10" d="M-307.9,279.9l10.9,12.3c1.1,1.2,4.5,1.1,5.5,0l10.4-11.9v-1.2h-26.7L-307.9,279.9z"/>
<path class="st9" d="M-307.2,278.6l10.1,10.8c1.5,1.7,4.1,1.7,5.6,0l10.1-10.8"/>
<line class="st11" x1="-298" y1="288.5" x2="-304.6" y2="294.6"/>
<line class="st11" x1="-290.6" y1="288.5" x2="-286.5" y2="292.2"/>
<circle class="st12" cx="-282.8" cy="294.6" r="8.1"/>
<circle class="st13" cx="-282.8" cy="294.6" r="6.5"/>
<path class="st14" d="M-268.6,299.8l-2.9-0.9c-0.4-0.1-1.1-0.1-1.6,0l-2.1,0.7c-0.4,0.1-1.1,0.1-1.6,0l-2.1-0.7
	c-0.4-0.1-1.1-0.1-1.6,0l-2.9,0.9"/>
<path class="st14" d="M-268.6,297.5l-2.9-0.9c-0.4-0.1-1.1-0.1-1.6,0l-2.1,0.7c-0.4,0.1-1.1,0.1-1.6,0l-2.1-0.7
	c-0.4-0.1-1.1-0.1-1.6,0l-2.9,0.9"/>
<path class="st14" d="M-268.6,295.2l-2.9-0.9c-0.4-0.1-1.1-0.1-1.6,0l-2.1,0.7c-0.4,0.1-1.1,0.1-1.6,0l-2.1-0.7
	c-0.4-0.1-1.1-0.1-1.6,0l-2.9,0.9"/>
<path class="st14" d="M-268.6,292.9l-2.9-0.9c-0.4-0.1-1.1-0.1-1.6,0l-2.1,0.7c-0.4,0.1-1.1,0.1-1.6,0l-2.1-0.7
	c-0.4-0.1-1.1-0.1-1.6,0l-2.9,0.9"/>
<path class="st14" d="M-268.6,290.6l-2.9-0.9c-0.4-0.1-1.1-0.1-1.6,0l-2.1,0.7c-0.4,0.1-1.1,0.1-1.6,0l-2.1-0.7
	c-0.4-0.1-1.1-0.1-1.6,0l-2.9,0.9"/>
</svg>
