<?xml version="1.0" encoding="utf-8"?>
<!-- Generator: Adobe Illustrator 19.1.0, SVG Export Plug-In . SVG Version: 6.00 Build 0)  -->
<svg version="1.1" id="Layer_1" xmlns="http://www.w3.org/2000/svg" xmlns:xlink="http://www.w3.org/1999/xlink" x="0px" y="0px"
	 viewBox="-644 408 150 86" style="enable-background:new -644 408 150 86;" xml:space="preserve">
<style type="text/css">
	.st0{fill:#F0F0F0;}
	.st1{fill:#1B70D1;}
	.st2{opacity:0.5;fill:#FFFFFF;enable-background:new    ;}
	.st3{opacity:0.3;fill:#FFFFFF;enable-background:new    ;}
	.st4{opacity:0.2;enable-background:new    ;}
	.st5{fill:#F5795D;}
	.st6{display:none;}
	.st7{opacity:0.2;fill:#333333;}
	.st8{fill:#FFF5CC;stroke:#1B293C;stroke-width:1.2477;stroke-linecap:round;stroke-linejoin:round;stroke-miterlimit:10;}
	.st9{opacity:0.35;fill:#293342;}
	.st10{fill:none;stroke:#1B293C;stroke-width:1.2477;stroke-linecap:round;stroke-linejoin:round;stroke-miterlimit:10;}
	.st11{fill:#6B96F4;stroke:#1B293C;stroke-width:0.6239;stroke-linecap:round;stroke-linejoin:round;stroke-miterlimit:10;}
	.st12{fill:#FFFFFF;stroke:#1B293C;stroke-width:0.6239;stroke-linecap:round;stroke-linejoin:round;stroke-miterlimit:10;}
	
		.st13{opacity:0.5;fill:none;stroke:#1B293C;stroke-width:0.6239;stroke-linecap:round;stroke-linejoin:round;stroke-miterlimit:10;}
</style>
<rect x="-644" y="471" class="st0" width="150" height="23"/>
<rect x="-644" y="408" class="st1" width="150" height="63"/>
<path class="st2" d="M-560.6,421h-73c-0.6,0-1-0.4-1-1l0,0c0-0.6,0.4-1,1-1h73c0.6,0,1,0.4,1,1l0,0
	C-559.6,420.6-560.1,421-560.6,421z"/>
<path class="st3" d="M-560.6,430h-73c-0.6,0-1-0.4-1-1l0,0c0-0.6,0.4-1,1-1h73c0.6,0,1,0.4,1,1l0,0
	C-559.6,429.6-560.1,430-560.6,430z"/>
<path class="st3" d="M-560.6,439h-73c-0.6,0-1-0.4-1-1l0,0c0-0.6,0.4-1,1-1h73c0.6,0,1,0.4,1,1l0,0
	C-559.6,438.6-560.1,439-560.6,439z"/>
<path class="st3" d="M-560.6,448h-73c-0.6,0-1-0.4-1-1l0,0c0-0.6,0.4-1,1-1h73c0.6,0,1,0.4,1,1l0,0
	C-559.6,447.6-560.1,448-560.6,448z"/>
<path class="st3" d="M-560.6,457h-73c-0.6,0-1-0.4-1-1l0,0c0-0.6,0.4-1,1-1h73c0.6,0,1,0.4,1,1l0,0
	C-559.6,456.6-560.1,457-560.6,457z"/>
<path class="st4" d="M-544,487h-88c-1.7,0-3-1.3-3-3v-3c0-1.7,1.3-3,3-3h88c1.7,0,3,1.3,3,3v3C-541,485.7-542.3,487-544,487z"/>
<path class="st5" d="M-506,487h-26c-1.7,0-3-1.3-3-3v-3c0-1.7,1.3-3,3-3h26c1.7,0,3,1.3,3,3v3C-503,485.7-504.3,487-506,487z"/>
<g id="Layer_2" class="st6">
</g>
<ellipse class="st7" cx="-526.6" cy="455.1" rx="12.5" ry="1.7"/>
<path class="st8" d="M-522.2,444.1h-17.7c-1,0-1.9-0.8-1.9-1.9v-17.5c0-1,0.8-1.9,1.9-1.9h25c1,0,1.9,0.8,1.9,1.9v16"/>
<path class="st9" d="M-541.1,425.2l11.1,12.7c1.2,1.3,4.6,1.1,5.6,0l10.7-12.2v-1.2H-541L-541.1,425.2z"/>
<path class="st8" d="M-540.4,423.9L-530,435c1.6,1.7,4.2,1.7,5.7,0l10.4-11.1"/>
<line class="st10" x1="-530.9" y1="434.1" x2="-537.7" y2="440.3"/>
<line class="st10" x1="-523.3" y1="434.1" x2="-519.1" y2="437.9"/>
<circle class="st11" cx="-515.3" cy="440.3" r="8.3"/>
<circle class="st12" cx="-515.3" cy="440.3" r="6.7"/>
<path class="st13" d="M-500.7,445.6l-2.9-0.9c-0.4-0.1-1.2-0.1-1.6,0l-2.1,0.7c-0.4,0.1-1.2,0.1-1.6,0l-2.2-0.7
	c-0.4-0.1-1.2-0.1-1.6,0l-2.9,0.9"/>
<path class="st13" d="M-500.7,443.3l-2.9-0.9c-0.4-0.1-1.2-0.1-1.6,0l-2.1,0.7c-0.4,0.1-1.2,0.1-1.6,0l-2.2-0.7
	c-0.4-0.1-1.2-0.1-1.6,0l-2.9,0.9"/>
<path class="st13" d="M-500.7,440.9l-2.9-0.9c-0.4-0.1-1.2-0.1-1.6,0l-2.1,0.7c-0.4,0.1-1.2,0.1-1.6,0l-2.2-0.7
	c-0.4-0.1-1.2-0.1-1.6,0l-2.9,0.9"/>
<path class="st13" d="M-500.7,438.5l-2.9-0.9c-0.4-0.1-1.2-0.1-1.6,0l-2.1,0.7c-0.4,0.1-1.2,0.1-1.6,0l-2.2-0.7
	c-0.4-0.1-1.2-0.1-1.6,0l-2.9,0.9"/>
<path class="st13" d="M-500.7,436.2l-2.9-0.9c-0.4-0.1-1.2-0.1-1.6,0l-2.1,0.7c-0.4,0.1-1.2,0.1-1.6,0l-2.2-0.7
	c-0.4-0.1-1.2-0.1-1.6,0l-2.9,0.9"/>
</svg>
