<?xml version="1.0" encoding="utf-8"?>
<!-- Generator: Adobe Illustrator 19.1.0, SVG Export Plug-In . SVG Version: 6.00 Build 0)  -->
<svg version="1.1" id="Layer_1" xmlns="http://www.w3.org/2000/svg" xmlns:xlink="http://www.w3.org/1999/xlink" x="0px" y="0px"
	 viewBox="-320 264 150 86" style="enable-background:new -320 264 150 86;" xml:space="preserve">
<style type="text/css">
	.st0{fill:#F0F0F0;}
	.st1{fill:#DD4242;}
	.st2{opacity:0.25;enable-background:new    ;}
	.st3{opacity:0.1;enable-background:new    ;}
	.st4{opacity:0.2;enable-background:new    ;}
	.st5{fill:#FFFFFF;}
	.st6{display:none;}
	.st7{display:inline;fill:#F0F0F0;}
	.st8{display:inline;fill:#92C927;}
	.st9{display:inline;opacity:0.25;enable-background:new    ;}
	.st10{display:inline;opacity:0.1;enable-background:new    ;}
	.st11{display:inline;opacity:0.2;enable-background:new    ;}
	.st12{display:inline;fill:#FFFFFF;}
	.st13{display:inline;}
	.st14{fill:#31343B;}
	.st15{fill:#4F535E;}
	.st16{opacity:0.7;}
	.st17{fill:#D9D3CD;}
	.st18{fill:#EDE7DF;}
	.st19{fill:#EBE4DC;}
	.st20{opacity:0.6;}
	.st21{opacity:0.4;}
	.st22{fill:#FFC15E;}
	.st23{opacity:5.000000e-02;}
	.st24{fill:#DBD7D2;}
	.st25{fill:#D3CFC9;}
	.st26{fill:#E57C58;}
	.st27{fill:#C2BEB9;}
	.st28{fill:#B7B3AE;}
	.st29{opacity:5.000000e-02;enable-background:new    ;}
	.st30{fill:#639DC7;}
	.st31{opacity:0.1;}
	.st32{fill:#F5F0EB;}
	.st33{fill:#F59C36;}
	.st34{fill:#74C7A5;}
	.st35{opacity:0.15;enable-background:new    ;}
	.st36{fill:#FAFAFA;stroke:#1B293C;stroke-width:0.9859;stroke-linecap:round;stroke-linejoin:round;stroke-miterlimit:10;}
	.st37{fill:#D2ECFB;}
	.st38{fill:#1B293C;}
	.st39{fill:#FAFAFA;stroke:#000000;stroke-width:0.9859;stroke-linecap:round;stroke-linejoin:round;stroke-miterlimit:10;}
	.st40{fill:#F9DEDB;stroke:#000000;stroke-width:0.6859;stroke-linecap:round;stroke-linejoin:round;stroke-miterlimit:10;}
	.st41{fill:#FFFFFF;stroke:#000000;stroke-width:0.6859;stroke-linecap:round;stroke-linejoin:round;stroke-miterlimit:10;}
	.st42{fill:none;stroke:#999999;stroke-width:0.3429;stroke-linecap:round;stroke-linejoin:round;stroke-miterlimit:10;}
	.st43{fill:#E05B49;stroke:#000000;stroke-width:0.3429;stroke-linecap:round;stroke-linejoin:round;stroke-miterlimit:10;}
	.st44{opacity:0.35;fill:#293342;enable-background:new    ;}
	.st45{opacity:0.75;}
	.st46{fill:#FFF5CC;stroke:#1B293C;stroke-width:0.3828;stroke-linecap:round;stroke-linejoin:round;stroke-miterlimit:10;}
	.st47{fill:none;stroke:#1B293C;stroke-width:0.3828;stroke-linecap:round;stroke-linejoin:round;stroke-miterlimit:10;}
	.st48{opacity:0.5;}
	.st49{fill:#FFF5CC;stroke:#1B293C;stroke-width:0.3;stroke-linecap:round;stroke-linejoin:round;stroke-miterlimit:10;}
	.st50{fill:none;stroke:#1B293C;stroke-width:0.3;stroke-linecap:round;stroke-linejoin:round;stroke-miterlimit:10;}
	.st51{opacity:0.2;}
	.st52{fill:#FFF5CC;stroke:#1B293C;stroke-width:0.2488;stroke-linecap:round;stroke-linejoin:round;stroke-miterlimit:10;}
	.st53{fill:none;stroke:#1B293C;stroke-width:0.2488;stroke-linecap:round;stroke-linejoin:round;stroke-miterlimit:10;}
</style>
<g id="Layer_1_1_">
	<rect x="-320" y="264" class="st0" width="150" height="63"/>
	<rect x="-320" y="327" class="st1" width="150" height="23"/>
	<path class="st2" d="M-180,310h-130c-0.6,0-1-0.4-1-1l0,0c0-0.6,0.4-1,1-1h130c0.6,0,1,0.4,1,1l0,0C-179,309.6-179.4,310-180,310z"
		/>
	<path class="st3" d="M-180,319h-130c-0.6,0-1-0.4-1-1l0,0c0-0.6,0.4-1,1-1h130c0.6,0,1,0.4,1,1l0,0C-179,318.6-179.4,319-180,319z"
		/>
	<path class="st4" d="M-219,343h-90c-1.1,0-2-0.9-2-2v-5c0-1.1,0.9-2,2-2h90c1.1,0,2,0.9,2,2v5C-217,342.1-217.9,343-219,343z"/>
	<path class="st5" d="M-181,343h-28c-1.1,0-2-0.9-2-2v-5c0-1.1,0.9-2,2-2h28c1.1,0,2,0.9,2,2v5C-179,342.1-179.9,343-181,343z"/>
</g>
<g id="Layer_2" class="st6">
	<rect x="-320" y="264" class="st7" width="150" height="63"/>
	<rect x="-320" y="327" class="st8" width="150" height="23"/>
	<path class="st9" d="M-180,310h-130c-0.6,0-1-0.4-1-1l0,0c0-0.6,0.4-1,1-1h130c0.6,0,1,0.4,1,1l0,0C-179,309.6-179.4,310-180,310z"
		/>
	<path class="st10" d="M-180,319h-130c-0.6,0-1-0.4-1-1l0,0c0-0.6,0.4-1,1-1h130c0.6,0,1,0.4,1,1l0,0C-179,318.6-179.4,319-180,319z
		"/>
	<path class="st11" d="M-218,343h-92c-0.6,0-1-0.4-1-1v-7c0-0.6,0.4-1,1-1h92c0.6,0,1,0.4,1,1v7C-217,342.6-217.4,343-218,343z"/>
	<path class="st12" d="M-180,343h-30c-0.6,0-1-0.4-1-1v-7c0-0.6,0.4-1,1-1h30c0.6,0,1,0.4,1,1v7C-179,342.6-179.4,343-180,343z"/>
	<g class="st13">
		<g>
			<polygon class="st14" points="-241,302.8 -252,302.8 -251,297 -242,297 			"/>
			<path class="st15" d="M-238.2,302.8h-16.7v0c0-1,0.8-1.8,1.8-1.8h13.1C-239,301-238.2,301.8-238.2,302.8L-238.2,302.8
				L-238.2,302.8z"/>
		</g>
		<g class="st16">
			<path class="st17" d="M-209.1,271.8l-0.4,0.3c-0.1,0.1-0.2,0.2-0.3,0.3l-3.8,4.8l6.9,2.2c0.2-0.1,0.3-0.2,0.2-0.4l-2.3-7.1
				C-208.9,271.8-209,271.8-209.1,271.8z"/>
			<path class="st17" d="M-220.5,275.5l0.5,0c0.1,0,0.3,0,0.4,0.1l6.1,1.6l-4.4,5.8c-0.2,0.1-0.3,0-0.4-0.2l-2.3-7.1
				C-220.7,275.6-220.6,275.5-220.5,275.5z"/>
			<path class="st18" d="M-218.3,282.9l4.7-5.6l7.1,1.8c0.1,0.1,0.1,0.3-0.1,0.3l-11.5,3.7C-218.2,283.1-218.3,283-218.3,282.9z"/>
			<path class="st19" d="M-208.8,272l-4.2,5.9c-0.1,0.2-0.4,0.3-0.6,0.2l-7-2.3c-0.1-0.1-0.1-0.3,0.1-0.3l11.5-3.7
				C-209,271.8-208.8,271.9-208.8,272z"/>
		</g>
		<g class="st16">
			<path class="st17" d="M-271.5,282.6l-0.5,0.1c-0.1,0-0.2,0.1-0.4,0.1l-5.7,2.4l5.1,5.2c0.2,0,0.3,0,0.3-0.3l1.3-7.3
				C-271.3,282.6-271.4,282.5-271.5,282.6z"/>
			<path class="st17" d="M-283.3,280.4l0.4,0.3c0.1,0.1,0.2,0.1,0.3,0.2l4.6,4.3l-6.7,3c-0.2,0-0.3-0.1-0.2-0.4l1.3-7.3
				C-283.5,280.4-283.4,280.3-283.3,280.4z"/>
			<path class="st18" d="M-284.8,287.9l6.8-2.7l5.4,5c0,0.1-0.1,0.3-0.2,0.3l-11.9-2.2C-284.8,288.2-284.9,288.1-284.8,287.9z"/>
			<path class="st19" d="M-271.4,282.8l-6.5,3.2c-0.2,0.1-0.5,0.1-0.6-0.1l-5-5.3c0-0.1,0.1-0.3,0.2-0.3l11.8,2.2
				C-271.4,282.6-271.3,282.7-271.4,282.8z"/>
		</g>
		<g class="st20">
			<path class="st17" d="M-198.9,286.8l-0.4,0c-0.1,0-0.2,0-0.3,0l-4.4,0.5l2.4,4.6c0.2,0.1,0.2,0,0.3-0.1l2.4-4.8
				C-198.8,286.9-198.8,286.8-198.9,286.8z"/>
			<path class="st17" d="M-206.5,282.9l0.2,0.3c0.1,0.1,0.1,0.1,0.1,0.2l2.3,3.9l-5.2,0.7c-0.2-0.1-0.2-0.1-0.1-0.3l2.4-4.8
				C-206.7,282.9-206.6,282.8-206.5,282.9z"/>
			<path class="st18" d="M-209.2,287.8l5.2-0.5l2.7,4.5c0,0.1-0.1,0.2-0.2,0.1l-7.7-4C-209.2,288-209.2,287.8-209.2,287.8z"/>
			<path class="st19" d="M-198.9,287.1l-5.1,0.9c-0.2,0-0.3-0.1-0.4-0.2l-2.4-4.7c0-0.1,0.1-0.2,0.2-0.1l7.7,3.9
				C-198.8,286.9-198.8,287-198.9,287.1z"/>
		</g>
		<g class="st20">
			<path class="st17" d="M-284.9,273.2l-0.2,0.3c-0.1,0.1-0.1,0.1-0.2,0.2l-2.3,3.8l5.1,0.9c0.2-0.1,0.2-0.1,0.1-0.3l-2.3-4.8
				C-284.7,273.1-284.8,273.1-284.9,273.2z"/>
			<path class="st17" d="M-292.7,276.8l0.4,0c0.1,0,0.2,0,0.3,0l4.5,0.6l-2.7,4.6c-0.2,0.1-0.2,0-0.3-0.1l-2.3-4.8
				C-292.8,276.9-292.8,276.8-292.7,276.8z"/>
			<path class="st18" d="M-290.5,281.8l2.8-4.4l5.2,0.7c0.1,0.1,0.1,0.2,0,0.2l-7.9,3.7C-290.4,282-290.5,282-290.5,281.8z"/>
			<path class="st19" d="M-284.7,273.3l-2.5,4.6c-0.1,0.2-0.3,0.2-0.4,0.2l-5.2-1c-0.1-0.1-0.1-0.2,0-0.2l7.8-3.6
				C-284.8,273.1-284.7,273.2-284.7,273.3z"/>
		</g>
		<g class="st20">
			<path class="st17" d="M-222.5,285.8l-0.2,0.3c-0.1,0.1-0.1,0.1-0.1,0.2l-2,3.9l5.2,0.5c0.2-0.1,0.2-0.1,0.1-0.3l-2.7-4.6
				C-222.3,285.7-222.4,285.7-222.5,285.8z"/>
			<path class="st17" d="M-229.9,290l0.4,0c0.1,0,0.2,0,0.3,0l4.5,0.2l-2.3,4.8c-0.2,0.1-0.2,0.1-0.3-0.1l-2.7-4.6
				C-230.1,290.1-230,290-229.9,290z"/>
			<path class="st18" d="M-227.3,294.9l2.5-4.6l5.3,0.3c0.1,0.1,0.1,0.2,0,0.2l-7.5,4.3C-227.2,295-227.3,295-227.3,294.9z"/>
			<path class="st19" d="M-222.2,285.9l-2.1,4.8c-0.1,0.2-0.2,0.3-0.4,0.2l-5.2-0.6c-0.1-0.1-0.1-0.2,0-0.2l7.5-4.3
				C-222.4,285.7-222.2,285.8-222.2,285.9z"/>
		</g>
		<g class="st20">
			<path class="st17" d="M-195,276.9l-0.2,0.1c0,0-0.1,0.1-0.1,0.1l-1.7,1.9l2.9,1c0.1,0,0.1-0.1,0.1-0.2l-0.9-3
				C-194.9,276.9-195,276.9-195,276.9z"/>
			<path class="st17" d="M-199.8,278.3l0.2,0c0.1,0,0.1,0,0.2,0l2.5,0.7l-1.9,2.4c-0.1,0-0.1,0-0.2-0.1l-0.9-3
				C-199.9,278.3-199.9,278.3-199.8,278.3z"/>
			<path class="st18" d="M-199,281.4l2-2.3l2.9,0.9c0,0,0,0.1,0,0.1L-199,281.4C-199,281.5-199,281.4-199,281.4z"/>
			<path class="st19" d="M-194.9,277l-1.8,2.4c-0.1,0.1-0.2,0.1-0.3,0.1l-2.9-1.1c0,0,0-0.1,0-0.1L-194.9,277
				C-195,276.9-194.9,276.9-194.9,277z"/>
		</g>
		<g class="st21">
			<path class="st17" d="M-184.5,286.3l-0.1,0c0,0-0.1,0-0.1,0l-1.6,0.4l1.2,1.6c0.1,0,0.1,0,0.1-0.1L-184.5,286.3
				C-184.5,286.3-184.5,286.3-184.5,286.3z"/>
			<path class="st17" d="M-187.7,285.2l0.1,0.1c0,0,0.1,0,0.1,0.1l1.1,1.4l-2,0.6c-0.1,0-0.1,0,0-0.1L-187.7,285.2
				C-187.7,285.2-187.7,285.2-187.7,285.2z"/>
			<path class="st18" d="M-188.4,287.2l2-0.5l1.3,1.6c0,0,0,0.1-0.1,0.1L-188.4,287.2C-188.4,287.3-188.4,287.3-188.4,287.2z"/>
			<path class="st19" d="M-184.5,286.4l-1.9,0.6c-0.1,0-0.1,0-0.2-0.1l-1.2-1.7c0,0,0-0.1,0.1-0.1L-184.5,286.4
				C-184.5,286.3-184.5,286.3-184.5,286.4z"/>
		</g>
		<g class="st21">
			<path class="st17" d="M-307.1,279.2l-0.1,0.1c0,0,0,0.1-0.1,0.1l-0.8,1.5l2,0.3c0.1,0,0.1-0.1,0-0.1L-307.1,279.2
				C-307,279.2-307,279.2-307.1,279.2z"/>
			<path class="st17" d="M-310,280.7l0.1,0c0,0,0.1,0,0.1,0l1.7,0.2l-1,1.8c-0.1,0-0.1,0-0.1,0L-310,280.7
				C-310.1,280.7-310.1,280.7-310,280.7z"/>
			<path class="st18" d="M-309.1,282.6l1-1.7l2,0.2c0,0,0,0.1,0,0.1L-309.1,282.6C-309,282.7-309.1,282.7-309.1,282.6z"/>
			<path class="st19" d="M-307,279.2l-0.9,1.8c0,0.1-0.1,0.1-0.2,0.1l-2-0.3c0,0,0-0.1,0-0.1L-307,279.2
				C-307,279.2-307,279.2-307,279.2z"/>
		</g>
		<g class="st20">
			<path class="st17" d="M-295.2,283.5l-0.2,0c-0.1,0-0.1,0-0.2,0l-2.5,0.4l1.5,2.6c0.1,0,0.1,0,0.2-0.1l1.3-2.8
				C-295.1,283.6-295.2,283.5-295.2,283.5z"/>
			<path class="st17" d="M-299.7,281.4l0.1,0.2c0,0,0.1,0.1,0.1,0.1l1.4,2.2l-3,0.5c-0.1,0-0.1-0.1-0.1-0.2l1.3-2.8
				C-299.8,281.4-299.8,281.4-299.7,281.4z"/>
			<path class="st18" d="M-301.1,284.3l3-0.4l1.7,2.5c0,0.1-0.1,0.1-0.1,0.1l-4.6-2.1C-301.2,284.4-301.2,284.4-301.1,284.3z"/>
			<path class="st19" d="M-295.2,283.6l-2.9,0.6c-0.1,0-0.2,0-0.2-0.1l-1.5-2.7c0-0.1,0.1-0.1,0.1-0.1l4.6,2.1
				C-295.1,283.5-295.1,283.6-295.2,283.6z"/>
		</g>
		<g class="st20">
			<path class="st17" d="M-265.6,288.4l-0.2,0.1c0,0-0.1,0.1-0.1,0.1l-1.8,1.8l2.8,1.2c0.1,0,0.1-0.1,0.1-0.2l-0.7-3
				C-265.5,288.4-265.5,288.3-265.6,288.4z"/>
			<path class="st17" d="M-270.5,289.4l0.2,0c0.1,0,0.1,0,0.2,0l2.5,0.9l-2.1,2.2c-0.1,0-0.1,0-0.1-0.1L-270.5,289.4
				C-270.5,289.5-270.5,289.4-270.5,289.4z"/>
			<path class="st18" d="M-269.8,292.6l2.2-2.1l2.9,1c0,0,0,0.1,0,0.1l-4.9,1.1C-269.8,292.7-269.8,292.6-269.8,292.6z"/>
			<path class="st19" d="M-265.5,288.4l-2,2.3c-0.1,0.1-0.2,0.1-0.3,0.1l-2.8-1.2c0,0,0-0.1,0-0.1l4.9-1.1
				C-265.5,288.3-265.5,288.4-265.5,288.4z"/>
		</g>
		<g>
			<path class="st17" d="M-212.2,280.8l-0.7,0.1c-0.2,0-0.3,0-0.5,0.1l-8.1,2.3l6,8c0.3,0.1,0.4,0,0.5-0.3l3.1-9.7
				C-211.9,280.9-212,280.8-212.2,280.8z"/>
			<path class="st17" d="M-227.8,275.7l0.5,0.5c0.1,0.1,0.3,0.2,0.4,0.4l5.5,6.7l-9.6,2.9c-0.3-0.1-0.3-0.2-0.2-0.6l3.1-9.7
				C-228.1,275.7-227.9,275.6-227.8,275.7z"/>
			<path class="st18" d="M-231.2,285.7l9.7-2.5l6.4,7.7c0,0.2-0.2,0.4-0.3,0.3l-15.7-5.1C-231.3,286.1-231.3,285.8-231.2,285.7z"/>
			<path class="st19" d="M-212,281.2l-9.4,3.2c-0.3,0.1-0.7,0-0.9-0.3l-5.9-8.1c0-0.2,0.2-0.4,0.3-0.3l15.7,5.1
				C-211.9,280.8-211.9,281-212,281.2z"/>
		</g>
		<g>
			<path class="st17" d="M-258.5,282.4l-0.7-0.1c-0.2,0-0.3-0.1-0.5,0l-8.4,0l3.6,9.3c0.3,0.2,0.4,0.1,0.6-0.2l5.6-8.6
				C-258.3,282.6-258.3,282.4-258.5,282.4z"/>
			<path class="st17" d="M-272.2,273.3l0.4,0.6c0.1,0.1,0.2,0.3,0.2,0.5l3.5,7.9l-10.1,0.2c-0.3-0.2-0.3-0.3-0.1-0.6l5.6-8.6
				C-272.5,273.2-272.3,273.2-272.2,273.3z"/>
			<path class="st18" d="M-278.2,282l10,0.2l4.1,9.2c0,0.2-0.2,0.3-0.4,0.2l-13.8-9.1C-278.3,282.4-278.3,282.1-278.2,282z"/>
			<path class="st19" d="M-258.5,282.8l-9.9,0.6c-0.3,0-0.6-0.2-0.8-0.5l-3.5-9.4c0-0.2,0.2-0.3,0.4-0.2l13.8,9.1
				C-258.3,282.5-258.3,282.7-258.5,282.8z"/>
		</g>
		<g>
			<path class="st22" d="M-265.1,296c-0.7,0-1.2-0.5-1.2-1.2v-22.9c0-0.7,0.5-1.2,1.2-1.2h37.2c0.7,0,1.2,0.5,1.2,1.2v22.9
				c0,0.7-0.5,1.2-1.2,1.2L-265.1,296L-265.1,296z"/>
			<path class="st15" d="M-227.9,271.7c0.1,0,0.2,0.1,0.2,0.2v22.9c0,0.1-0.1,0.2-0.2,0.2h-37.2c-0.1,0-0.2-0.1-0.2-0.2v-22.9
				c0-0.1,0.1-0.2,0.2-0.2L-227.9,271.7 M-227.9,269.7h-37.2c-1.2,0-2.2,1-2.2,2.2v22.9c0,1.2,1,2.2,2.2,2.2h37.2
				c1.2,0,2.2-1,2.2-2.2v-22.9C-225.7,270.7-226.7,269.7-227.9,269.7L-227.9,269.7z"/>
		</g>
		<g>
			<g class="st23">
				<rect x="-261.5" y="281.3" width="1.2" height="13.6"/>
			</g>
			<path class="st24" d="M-260.3,279.9v13.4c0,0.9-0.7,1.6-1.6,1.6h13c0.9,0,1.6-0.7,1.6-1.6V284l-3.9-4.1L-260.3,279.9z"/>
			<rect x="-253.2" y="284.6" class="st25" width="4.3" height="0.8"/>
			<rect x="-258.7" y="284.6" class="st26" width="4.5" height="4.5"/>
			<rect x="-253.2" y="286.4" class="st25" width="4.3" height="0.8"/>
			<rect x="-253.2" y="288.2" class="st25" width="4.3" height="0.8"/>
			<rect x="-258.7" y="290.1" class="st27" width="9.8" height="0.8"/>
			<rect x="-258.7" y="291.9" class="st27" width="9.8" height="0.8"/>
			<rect x="-258.7" y="282.1" class="st28" width="9.8" height="1.4"/>
			<polygon class="st5" points="-251.2,284 -247.3,284 -251.2,279.9 			"/>
			<polygon class="st29" points="-247.3,284 -251.2,284 -247.3,287.4 			"/>
		</g>
		<g>
			<g class="st23">
				<rect x="-245.7" y="281.3" width="1.2" height="13.6"/>
			</g>
			<path class="st24" d="M-244.5,279.9v13.4c0,0.9-0.7,1.6-1.6,1.6h13c0.9,0,1.6-0.7,1.6-1.6V284l-3.9-4.1L-244.5,279.9z"/>
			<rect x="-242.8" y="284.6" class="st27" width="4.5" height="0.8"/>
			<rect x="-242.8" y="286.4" class="st27" width="4.5" height="0.8"/>
			<rect x="-242.8" y="288.2" class="st27" width="4.5" height="0.8"/>
			<rect x="-242.8" y="290.1" class="st27" width="9.8" height="0.8"/>
			<rect x="-242.8" y="291.9" class="st27" width="9.8" height="0.8"/>
			<rect x="-242.8" y="282.1" class="st28" width="9.8" height="1.4"/>
			<polygon class="st5" points="-235.3,284 -231.4,284 -235.3,279.9 			"/>
			<polygon class="st29" points="-231.4,284 -235.3,284 -231.4,287.4 			"/>
			<rect x="-237.5" y="284.6" class="st30" width="4.5" height="4.5"/>
		</g>
		<g>
			<g class="st31">
				<rect x="-255" y="279.9" width="1.2" height="15.1"/>
			</g>
			<g class="st31">
				<rect x="-240.2" y="279.9" width="2.8" height="15.1"/>
			</g>
			<path class="st32" d="M-253.8,273.6v19.7c0,0.9-0.7,1.6-1.6,1.6h15.5c0.9,0,1.6-0.7,1.6-1.6v-15.7l-3.9-4.1H-253.8z"/>
			<rect x="-245.3" y="278.3" class="st25" width="5.3" height="0.8"/>
			<rect x="-252.2" y="278.3" class="st33" width="5.9" height="6.3"/>
			<rect x="-245.3" y="280.1" class="st25" width="5.3" height="0.8"/>
			<rect x="-245.3" y="281.9" class="st25" width="5.3" height="0.8"/>
			<rect x="-245.3" y="283.8" class="st25" width="5.3" height="0.8"/>
			<rect x="-252.2" y="285.6" class="st25" width="12.2" height="0.8"/>
			<rect x="-252.2" y="287.4" class="st25" width="12.2" height="0.8"/>
			<rect x="-252.2" y="289.3" class="st25" width="5.9" height="0.8"/>
			<rect x="-252.2" y="291.1" class="st25" width="5.9" height="0.8"/>
			<rect x="-252.2" y="292.9" class="st25" width="5.9" height="0.8"/>
			<rect x="-252.2" y="275.8" class="st28" width="12.2" height="1.4"/>
			<polygon class="st5" points="-242.2,277.7 -238.4,277.7 -242.2,273.6 			"/>
			<polygon class="st29" points="-238.4,277.7 -242.2,277.7 -238.4,281.1 			"/>
			<rect x="-245.3" y="289.3" class="st34" width="5.3" height="4.5"/>
		</g>
		<polygon class="st35" points="-251,297 -242,297 -241.6,299.2 		"/>
	</g>
</g>
<path class="st36" d="M-226.8,296.4c0,0.8-0.7,1.5-1.5,1.5h-33.4c-0.8,0-1.5-0.7-1.5-1.5v-22.6c0-0.8,0.7-1.5,1.5-1.5h33.4
	c0.8,0,1.5,0.7,1.5,1.5L-226.8,296.4L-226.8,296.4z"/>
<g>
	<path class="st37" d="M-262.6,295.5c-0.1,0-0.2-0.1-0.2-0.2v-20.2c0-0.1,0.1-0.2,0.2-0.2h35.4c0.1,0,0.2,0.1,0.2,0.2v20.2
		c0,0.1-0.1,0.2-0.2,0.2H-262.6z"/>
	<path class="st38" d="M-227.2,275.1v20.2h-35.4v-20.2H-227.2 M-227.2,274.6h-35.4c-0.3,0-0.5,0.2-0.5,0.5v20.2
		c0,0.3,0.2,0.5,0.5,0.5h35.4c0.3,0,0.5-0.2,0.5-0.5v-20.2C-226.7,274.8-227,274.6-227.2,274.6L-227.2,274.6z"/>
</g>
<path class="st36" d="M-249.3,303.2c0-2.7,2-5.4,4.6-5.4s4.6,2.7,4.6,5.4H-249.3z"/>
<path class="st39" d="M-244.7,302.3"/>
<path class="st40" d="M-252.8,290.9c0,1.4,1.7,2.4,3.1,1.1c0.2-0.2,0.3-0.5,0.3-0.7V279h-3c-0.3,0-0.5,0.2-0.5,0.5L-252.8,290.9
	L-252.8,290.9z"/>
<path class="st41" d="M-251,292.8h13.6c0.3,0,0.5-0.2,0.5-0.5v-14.8c0-0.3-0.2-0.5-0.5-0.5h-11.4c-0.3,0-0.5,0.2-0.5,0.5v13.6
	C-249.3,291.1-249.5,292.8-251,292.8z"/>
<line class="st42" x1="-247.6" y1="281.8" x2="-244.2" y2="281.8"/>
<line class="st42" x1="-247.7" y1="279.8" x2="-238.7" y2="279.8"/>
<line class="st42" x1="-247.6" y1="283.9" x2="-245.6" y2="283.9"/>
<line class="st42" x1="-247.6" y1="285.9" x2="-244.2" y2="285.9"/>
<rect x="-242.5" y="281.8" class="st43" width="4.1" height="4.1"/>
<line class="st42" x1="-247.7" y1="288" x2="-238.7" y2="288"/>
<line class="st42" x1="-247.7" y1="290.1" x2="-240.9" y2="290.1"/>
<path class="st44" d="M-249.7,279.4h-0.4c-0.1,4.6-0.4,12.8-1.5,12.8c0,0,1.7,0.6,2-1C-249.1,289.4-249.7,279.4-249.7,279.4z"/>
<g class="st45">
	<path class="st46" d="M-212.9,283.3l1.6-5.1c0.1-0.3-0.1-0.6-0.4-0.7l-7.3-2.3c-0.3-0.1-0.6,0.1-0.7,0.4l-1.6,5.1
		c-0.1,0.3,0.1,0.6,0.4,0.7l7.3,2.3C-213.3,283.7-213,283.6-212.9,283.3z"/>
	<path class="st44" d="M-219.5,275.7l2.1,4.7c0.2,0.5,1.2,0.8,1.7,0.5l4.3-2.6l0.1-0.4l-8-2.5L-219.5,275.7z"/>
	<path class="st46" d="M-219.2,275.4l2,4.2c0.3,0.6,1.1,0.9,1.7,0.5l4.1-2.3"/>
	<line class="st47" x1="-217.4" y1="279.2" x2="-219.9" y2="280.4"/>
	<line class="st47" x1="-215.1" y1="279.9" x2="-213.8" y2="282.4"/>
</g>
<g class="st48">
	<path class="st49" d="M-212.7,291.8l-1-4.1c-0.1-0.2-0.3-0.4-0.5-0.3l-5.8,1.4c-0.2,0.1-0.4,0.3-0.3,0.5l1,4.1
		c0.1,0.2,0.3,0.4,0.5,0.3l5.8-1.4C-212.8,292.2-212.7,292-212.7,291.8z"/>
	<path class="st44" d="M-220.3,289.3l3.3,2.3c0.3,0.2,1.1,0,1.3-0.3l1.8-3.4l-0.1-0.3l-6.4,1.5L-220.3,289.3z"/>
	<path class="st49" d="M-220.2,289l3,2c0.5,0.3,1.1,0.2,1.3-0.3l1.8-3.2"/>
	<line class="st50" x1="-217.4" y1="290.8" x2="-218.6" y2="292.7"/>
	<line class="st50" x1="-215.6" y1="290.4" x2="-213.7" y2="291.5"/>
</g>
<g class="st48">
	<path class="st49" d="M-197.8,279.1l0.7-4.2c0-0.2-0.1-0.5-0.4-0.5l-5.9-1c-0.2,0-0.5,0.1-0.5,0.4l-0.7,4.1c0,0.2,0.1,0.5,0.4,0.5
		l5.9,1C-198.1,279.5-197.9,279.3-197.8,279.1z"/>
	<path class="st44" d="M-203.8,273.9l2.1,3.4c0.2,0.3,1,0.5,1.3,0.2l3-2.5v-0.3l-6.5-1.1L-203.8,273.9z"/>
	<path class="st49" d="M-203.6,273.6l2,3.1c0.3,0.5,0.9,0.6,1.4,0.2l2.9-2.2"/>
	<line class="st50" x1="-201.7" y1="276.4" x2="-203.6" y2="277.6"/>
	<line class="st50" x1="-199.9" y1="276.7" x2="-198.6" y2="278.4"/>
</g>
<g class="st51">
	<path class="st52" d="M-202.7,287.9l0.5-3.5c0-0.2-0.1-0.4-0.3-0.4l-4.9-0.7c-0.2,0-0.4,0.1-0.4,0.3l-0.5,3.4
		c0,0.2,0.1,0.4,0.3,0.4l4.9,0.7C-202.9,288.2-202.8,288.1-202.7,287.9z"/>
	<path class="st44" d="M-207.8,283.7l1.8,2.8c0.2,0.3,0.9,0.4,1.1,0.2l2.5-2.1v-0.2l-5.4-0.8L-207.8,283.7z"/>
	<path class="st52" d="M-207.6,283.5l1.7,2.5c0.3,0.4,0.8,0.5,1.1,0.2l2.4-1.9"/>
	<line class="st53" x1="-206" y1="285.7" x2="-207.5" y2="286.8"/>
	<line class="st53" x1="-204.5" y1="285.9" x2="-203.4" y2="287.4"/>
</g>
<g class="st51">
	<path class="st52" d="M-192.5,289.7l-0.9-3.4c-0.1-0.2-0.3-0.3-0.5-0.3l-4.8,1.2c-0.2,0.1-0.3,0.3-0.3,0.5l0.9,3.4
		c0.1,0.2,0.3,0.3,0.5,0.3l4.8-1.2C-192.6,290.1-192.4,289.9-192.5,289.7z"/>
	<path class="st44" d="M-198.8,287.7l2.8,1.9c0.3,0.2,0.9,0,1.1-0.3l1.5-2.9l-0.1-0.2l-5.3,1.4V287.7z"/>
	<path class="st52" d="M-198.7,287.5l2.6,1.6c0.4,0.3,0.9,0.1,1.1-0.3l1.5-2.7"/>
	<line class="st53" x1="-196.4" y1="289" x2="-197.4" y2="290.5"/>
	<line class="st53" x1="-194.9" y1="288.6" x2="-193.3" y2="289.5"/>
</g>
<g class="st45">
	<path class="st46" d="M-278,283.3l-1.6-5.1c-0.1-0.3,0.1-0.6,0.4-0.7l7.3-2.3c0.3-0.1,0.6,0.1,0.7,0.4l1.6,5.1
		c0.1,0.3-0.1,0.6-0.4,0.7l-7.3,2.3C-277.6,283.7-278,283.6-278,283.3z"/>
	<path class="st44" d="M-271.4,275.7l-2.1,4.7c-0.2,0.5-1.2,0.8-1.7,0.5l-4.3-2.6l-0.1-0.4l8-2.5L-271.4,275.7z"/>
	<path class="st46" d="M-271.7,275.4l-2,4.2c-0.3,0.6-1.1,0.9-1.7,0.5l-4.1-2.3"/>
	<line class="st47" x1="-273.6" y1="279.2" x2="-271" y2="280.4"/>
	<line class="st47" x1="-275.8" y1="279.9" x2="-277.2" y2="282.4"/>
</g>
<g class="st48">
	<path class="st49" d="M-278.2,291.8l1-4.1c0.1-0.2,0.3-0.4,0.5-0.3l5.8,1.4c0.2,0.1,0.4,0.3,0.3,0.5l-1,4.1
		c-0.1,0.2-0.3,0.4-0.5,0.3l-5.8-1.4C-278.1,292.2-278.3,292-278.2,291.8z"/>
	<path class="st44" d="M-270.7,289.3l-3.3,2.3c-0.3,0.2-1.1,0-1.3-0.3l-1.8-3.4l0.1-0.3l6.4,1.5L-270.7,289.3z"/>
	<path class="st49" d="M-270.8,289l-3,2c-0.5,0.3-1.1,0.2-1.3-0.3l-1.8-3.2"/>
	<line class="st50" x1="-273.5" y1="290.8" x2="-272.3" y2="292.7"/>
	<line class="st50" x1="-275.3" y1="290.4" x2="-277.2" y2="291.5"/>
</g>
<g class="st48">
	<path class="st49" d="M-293.1,279.1l-0.7-4.2c0-0.2,0.1-0.5,0.4-0.5l5.9-1c0.2,0,0.5,0.1,0.5,0.4l0.7,4.1c0,0.2-0.1,0.5-0.4,0.5
		l-5.9,1C-292.9,279.5-293.1,279.3-293.1,279.1z"/>
	<path class="st44" d="M-287.2,273.9l-2.1,3.4c-0.2,0.3-1,0.5-1.3,0.2l-3-2.5v-0.3l6.5-1.1L-287.2,273.9z"/>
	<path class="st49" d="M-287.4,273.6l-2,3.1c-0.3,0.5-0.9,0.6-1.4,0.2l-2.9-2.2"/>
	<line class="st50" x1="-289.2" y1="276.4" x2="-287.4" y2="277.6"/>
	<line class="st50" x1="-291" y1="276.7" x2="-292.3" y2="278.4"/>
</g>
<g class="st51">
	<path class="st52" d="M-288.2,287.9l-0.5-3.5c0-0.2,0.1-0.4,0.3-0.4l4.9-0.7c0.2,0,0.4,0.1,0.4,0.3l0.5,3.4c0,0.2-0.1,0.4-0.3,0.4
		l-4.9,0.7C-288,288.2-288.2,288.1-288.2,287.9z"/>
	<path class="st44" d="M-283.2,283.7l-1.8,2.8c-0.2,0.3-0.9,0.4-1.1,0.2l-2.5-2.1v-0.2l5.4-0.8V283.7z"/>
	<path class="st52" d="M-283.3,283.5l-1.7,2.5c-0.3,0.4-0.8,0.5-1.1,0.2l-2.4-1.9"/>
	<line class="st53" x1="-284.9" y1="285.7" x2="-283.4" y2="286.8"/>
	<line class="st53" x1="-286.4" y1="285.9" x2="-287.6" y2="287.4"/>
</g>
<g class="st51">
	<path class="st52" d="M-298.4,289.7l0.9-3.4c0.1-0.2,0.3-0.3,0.5-0.3l4.8,1.2c0.2,0.1,0.3,0.3,0.3,0.5l-0.9,3.4
		c-0.1,0.2-0.3,0.3-0.5,0.3l-4.8-1.2C-298.4,290.1-298.5,289.9-298.4,289.7z"/>
	<path class="st44" d="M-292.2,287.7l-2.8,1.9c-0.3,0.2-0.9,0-1.1-0.3l-1.5-2.9l0.1-0.2l5.3,1.4V287.7z"/>
	<path class="st52" d="M-292.3,287.5l-2.6,1.6c-0.4,0.3-0.9,0.1-1.1-0.3l-1.5-2.7"/>
	<line class="st53" x1="-294.6" y1="289" x2="-293.6" y2="290.5"/>
	<line class="st53" x1="-296" y1="288.6" x2="-297.7" y2="289.5"/>
</g>
</svg>
