<?xml version="1.0" encoding="utf-8"?>
<!-- Generator: Adobe Illustrator 19.1.0, SVG Export Plug-In . SVG Version: 6.00 Build 0)  -->
<svg version="1.1" id="Layer_1" xmlns="http://www.w3.org/2000/svg" xmlns:xlink="http://www.w3.org/1999/xlink" x="0px" y="0px"
	 viewBox="-320 264 150 86" style="enable-background:new -320 264 150 86;" xml:space="preserve">
<style type="text/css">
	.st0{fill:#404B5C;}
	.st1{opacity:0.5;fill:#FFFFFF;enable-background:new    ;}
	.st2{fill:#C9C6B9;}
	.st3{fill:#7D7A73;}
	.st4{fill:#FFFFFF;}
	.st5{opacity:0.55;}
	.st6{fill:#D3CEC5;}
	.st7{display:none;}
	.st8{fill:#A84437;stroke:#000000;stroke-width:0.5;stroke-miterlimit:10;}
	.st9{fill:#702E25;stroke:#000000;stroke-width:0.5;stroke-miterlimit:10;}
	.st10{fill:#E05B49;stroke:#000000;stroke-width:0.5;stroke-miterlimit:10;}
	.st11{fill:#FDF4EE;}
	.st12{font-family:'OpenSans-Light';}
	.st13{font-size:10px;}
	.st14{letter-spacing:2;}
</style>
<rect x="-320" y="264" class="st0" width="150" height="63"/>
<path class="st1" d="M-180,304h-129.6c-0.6,0-1-0.4-1-1l0,0c0-0.6,0.4-1,1-1H-180c0.6,0,1,0.4,1,1l0,0C-179,303.6-179.4,304-180,304
	z"/>
<rect x="-320" y="312" class="st2" width="150" height="38"/>
<path class="st3" d="M-180.2,342h-129.4c-0.8,0-1.4-0.4-1.4-1v-7c0-0.6,0.6-1,1.4-1h129.4c0.8,0,1.4,0.4,1.4,1v7
	C-178.8,341.6-179.5,342-180.2,342z"/>
<path class="st4" d="M-180.2,329h-129.4c-0.8,0-1.4-0.4-1.4-1v-7c0-0.6,0.6-1,1.4-1h129.4c0.8,0,1.4,0.4,1.4,1v7
	C-178.8,328.6-179.5,329-180.2,329z"/>
<g class="st5">
	<path class="st6" d="M-172,267.5h-3v-1h3V267.5z M-178,267.5h-3v-1h3V267.5z M-184,267.5h-3v-1h3V267.5z M-190,267.5h-3v-1h3V267.5
		z M-196,267.5h-3v-1h3V267.5z M-202,267.5h-3v-1h3V267.5z M-208,267.5h-3v-1h3V267.5z M-214,267.5h-3v-1h3V267.5z M-220,267.5h-3
		v-1h3V267.5z M-226,267.5h-3v-1h3V267.5z M-232,267.5h-3v-1h3V267.5z M-238,267.5h-3v-1h3V267.5z M-244,267.5h-3v-1h3V267.5z
		 M-250,267.5h-3v-1h3V267.5z M-256,267.5h-3v-1h3V267.5z M-262,267.5h-3v-1h3V267.5z M-268,267.5h-3v-1h3V267.5z M-274,267.5h-3v-1
		h3V267.5z M-280,267.5h-3v-1h3V267.5z M-286,267.5h-3v-1h3V267.5z M-292,267.5h-3v-1h3V267.5z M-298,267.5h-3v-1h3V267.5z
		 M-304,267.5h-3v-1h3V267.5z M-310,267.5h-3v-1h3V267.5z M-316,267.5h-3v-1h3V267.5z"/>
</g>
<g id="Layer_2" class="st7">
</g>
<polygon class="st8" points="-308,292.6 -288.8,292.6 -288.8,274.8 -308,274.8 -302.3,283.7 "/>
<polygon class="st9" points="-293,279.7 -288.8,275.1 -288.8,279.7 "/>
<polygon class="st8" points="-186.6,283.7 -180.9,274.8 -200.2,274.8 -200.2,292.6 -180.9,292.6 "/>
<polygon class="st9" points="-200.2,279.7 -200.2,275.1 -195.9,279.7 "/>
<path class="st10" d="M-288.2,278.2h87.4c4.3,0,7.8,3.5,7.8,7.8v0c0,4.3-3.5,7.8-7.8,7.8h-87.4c-4.3,0-7.8-3.5-7.8-7.8v0
	C-296,281.7-292.5,278.2-288.2,278.2z"/>
<text transform="matrix(1 0 0 1 -280.1507 289.529)" class="st11 st12 st13 st14">SUBSCRIBE!</text>
</svg>
