<?xml version="1.0" encoding="utf-8"?>
<!-- Generator: Adobe Illustrator 19.1.0, SVG Export Plug-In . SVG Version: 6.00 Build 0)  -->
<svg version="1.1" id="Layer_1" xmlns="http://www.w3.org/2000/svg" xmlns:xlink="http://www.w3.org/1999/xlink" x="0px" y="0px"
	 viewBox="-320 264 150 86" style="enable-background:new -320 264 150 86;" xml:space="preserve">
<style type="text/css">
	.st0{display:none;}
	.st1{display:inline;fill:#F0F0F0;}
	.st2{display:inline;fill:#DD4242;}
	.st3{display:inline;fill:#FFFFFF;}
	.st4{display:inline;opacity:0.2;enable-background:new    ;}
	.st5{display:inline;opacity:0.25;enable-background:new    ;}
	.st6{display:inline;opacity:0.1;enable-background:new    ;}
	.st7{display:inline;}
	.st8{fill:#31343B;}
	.st9{fill:#4F535E;}
	.st10{opacity:0.7;}
	.st11{fill:#D9D3CD;}
	.st12{fill:#EDE7DF;}
	.st13{fill:#EBE4DC;}
	.st14{opacity:0.5;}
	.st15{opacity:0.6;}
	.st16{opacity:0.9;}
	.st17{fill:#78D688;}
	.st18{opacity:5.000000e-02;}
	.st19{fill:#DBD7D2;}
	.st20{fill:#D3CFC9;}
	.st21{fill:#E57C58;}
	.st22{fill:#C2BEB9;}
	.st23{fill:#B7B3AE;}
	.st24{fill:#FFFFFF;}
	.st25{opacity:5.000000e-02;enable-background:new    ;}
	.st26{fill:#639DC7;}
	.st27{opacity:0.1;}
	.st28{fill:#F5F0EB;}
	.st29{fill:#F59C36;}
	.st30{fill:#74C7A5;}
	.st31{opacity:0.15;enable-background:new    ;}
	.st32{fill:#F0F0F0;}
	.st33{opacity:0.25;enable-background:new    ;}
	.st34{opacity:0.1;enable-background:new    ;}
	.st35{fill:#92C927;}
	.st36{opacity:0.2;enable-background:new    ;}
	.st37{opacity:0.75;}
	.st38{fill:#FFF5CC;stroke:#1B293C;stroke-width:0.4543;stroke-linecap:round;stroke-linejoin:round;stroke-miterlimit:10;}
	.st39{opacity:0.35;fill:#293342;enable-background:new    ;}
	.st40{fill:none;stroke:#1B293C;stroke-width:0.4543;stroke-linecap:round;stroke-linejoin:round;stroke-miterlimit:10;}
	.st41{fill:#FFF5CC;stroke:#1B293C;stroke-width:0.356;stroke-linecap:round;stroke-linejoin:round;stroke-miterlimit:10;}
	.st42{fill:none;stroke:#1B293C;stroke-width:0.356;stroke-linecap:round;stroke-linejoin:round;stroke-miterlimit:10;}
	.st43{opacity:0.2;}
	.st44{fill:#FFF5CC;stroke:#1B293C;stroke-width:0.2953;stroke-linecap:round;stroke-linejoin:round;stroke-miterlimit:10;}
	.st45{fill:none;stroke:#1B293C;stroke-width:0.2953;stroke-linecap:round;stroke-linejoin:round;stroke-miterlimit:10;}
	.st46{fill:#E05B49;stroke:#000000;stroke-width:1.1699;stroke-linecap:round;stroke-linejoin:round;stroke-miterlimit:10;}
	.st47{fill:none;stroke:#000000;stroke-width:0.585;stroke-linejoin:round;stroke-miterlimit:10;}
	.st48{fill:none;stroke:#FFCC01;stroke-width:0.585;stroke-linecap:round;stroke-linejoin:round;stroke-miterlimit:10;}
	.st49{fill:none;stroke:#EC9D92;stroke-width:0.9888;stroke-linecap:round;stroke-linejoin:round;stroke-miterlimit:10;}
</style>
<g id="Layer_1_1_" class="st0">
	<rect x="-320" y="264" class="st1" width="150" height="86"/>
	<rect x="-220" y="264" class="st2" width="50" height="86"/>
	<path class="st3" d="M-180,327h-30c-0.6,0-1-0.4-1-1v-7c0-0.6,0.4-1,1-1h30c0.6,0,1,0.4,1,1v7C-179,326.6-179.4,327-180,327z"/>
	<path class="st4" d="M-180,312h-30c-0.6,0-1-0.4-1-1v-7c0-0.6,0.4-1,1-1h30c0.6,0,1,0.4,1,1v7C-179,311.6-179.4,312-180,312z"/>
	<path class="st4" d="M-180,297h-30c-0.6,0-1-0.4-1-1v-7c0-0.6,0.4-1,1-1h30c0.6,0,1,0.4,1,1v7C-179,296.6-179.4,297-180,297z"/>
	<path class="st5" d="M-230,321.5h-80c-0.6,0-1-0.4-1-1l0,0c0-0.6,0.4-1,1-1h80c0.6,0,1,0.4,1,1l0,0
		C-229,321.1-229.4,321.5-230,321.5z"/>
	<path class="st6" d="M-230,330.5h-80c-0.6,0-1-0.4-1-1l0,0c0-0.6,0.4-1,1-1h80c0.6,0,1,0.4,1,1l0,0
		C-229,330.1-229.4,330.5-230,330.5z"/>
	<path class="st6" d="M-230,339.5h-80c-0.6,0-1-0.4-1-1l0,0c0-0.6,0.4-1,1-1h80c0.6,0,1,0.4,1,1l0,0
		C-229,339.1-229.4,339.5-230,339.5z"/>
	
		<rect x="-222.8" y="304.2" transform="matrix(-0.7071 -0.7071 0.7071 -0.7071 -592.6458 368.5175)" class="st1" width="5.7" height="5.7"/>
	<g class="st7">
		<g>
			<polygon class="st8" points="-262.9,310.8 -275.1,310.8 -274,304.3 -264,304.3 			"/>
			<path class="st9" d="M-259.7,310.8h-18.6v0c0-1.1,0.9-2,2-2h14.6C-260.6,308.8-259.7,309.7-259.7,310.8L-259.7,310.8
				L-259.7,310.8z"/>
		</g>
		<g class="st10">
			<path class="st11" d="M-239.2,292.3l-0.4,0.1c-0.1,0-0.2,0.1-0.3,0.1l-4.9,2.4l4.8,4.4c0.2,0,0.3,0,0.3-0.3l0.8-6.6
				C-239,292.4-239.1,292.3-239.2,292.3z"/>
			<path class="st11" d="M-249.8,291l0.4,0.2c0.1,0,0.2,0.1,0.3,0.2l4.3,3.6l-5.8,3c-0.2,0-0.2-0.1-0.2-0.3l0.8-6.6
				C-250,291-249.9,290.9-249.8,291z"/>
			<path class="st12" d="M-250.8,297.7l5.9-2.7l5,4.2c0,0.1-0.1,0.3-0.2,0.2l-10.7-1.4C-250.8,298-250.9,297.8-250.8,297.7z"/>
			<path class="st13" d="M-239.1,292.6l-5.6,3.2c-0.2,0.1-0.4,0.1-0.6-0.1l-4.7-4.5c0-0.1,0.1-0.3,0.2-0.2l10.6,1.4
				C-239.1,292.3-239,292.5-239.1,292.6z"/>
		</g>
		<g class="st14">
			<path class="st11" d="M-295.9,284.8l-0.3-0.3c-0.1-0.1-0.1-0.1-0.2-0.2l-4-2.6l-1.2,5.5c0.1,0.2,0.1,0.2,0.3,0.1l5.3-2.3
				C-295.9,285-295.9,284.9-295.9,284.8z"/>
			<path class="st11" d="M-299.6,276.3v0.4c0,0.1,0,0.2,0,0.3l-0.8,4.9l-4.9-3c-0.1-0.2,0-0.2,0.2-0.3l5.3-2.3
				C-299.8,276.2-299.6,276.2-299.6,276.3z"/>
			<path class="st12" d="M-305.2,278.6l4.7,3.2l-0.9,5.6c-0.1,0.1-0.2,0.1-0.3,0l-3.7-8.6C-305.4,278.7-305.3,278.6-305.2,278.6z"/>
			<path class="st13" d="M-296.1,285.1l-4.9-2.8c-0.2-0.1-0.2-0.3-0.2-0.5l1.3-5.6c0.1-0.1,0.2-0.1,0.3,0l3.7,8.6
				C-295.9,285-296,285.1-296.1,285.1z"/>
		</g>
		<g class="st15">
			<path class="st11" d="M-229,296l-0.2,0c-0.1,0-0.1,0-0.2,0l-2.6,0.3l1.4,2.7c0.1,0,0.1,0,0.2-0.1l1.4-2.8
				C-228.9,296-229,296-229,296z"/>
			<path class="st11" d="M-233.5,293.7l0.1,0.2c0,0,0.1,0.1,0.1,0.1l1.4,2.3l-3.1,0.4c-0.1,0-0.1-0.1,0-0.2l1.4-2.8
				C-233.6,293.6-233.6,293.6-233.5,293.7z"/>
			<path class="st12" d="M-235.1,296.5l3.1-0.3l1.6,2.7c0,0.1-0.1,0.1-0.1,0.1l-4.5-2.3C-235.1,296.7-235.1,296.6-235.1,296.5z"/>
			<path class="st13" d="M-229,296.1l-3,0.5c-0.1,0-0.2,0-0.2-0.1l-1.4-2.8c0-0.1,0.1-0.1,0.1-0.1l4.5,2.3
				C-229,296-229,296.1-229,296.1z"/>
		</g>
		<g class="st15">
			<path class="st11" d="M-296.5,298l-0.1,0.1c0,0-0.1,0.1-0.1,0.1l-1.1,1.6l2.2,0.5c0.1,0,0.1-0.1,0-0.1L-296.5,298
				C-296.5,298-296.5,298-296.5,298z"/>
			<path class="st11" d="M-300,299.5l0.2,0c0,0,0.1,0,0.1,0l1.9,0.3l-1.2,1.9c-0.1,0-0.1,0-0.1-0.1L-300,299.5
				C-300,299.5-300,299.5-300,299.5z"/>
			<path class="st12" d="M-299.1,301.7l1.3-1.8l2.2,0.4c0,0,0,0.1,0,0.1L-299.1,301.7C-299,301.7-299.1,301.7-299.1,301.7z"/>
			<path class="st13" d="M-296.5,298.1l-1.1,1.9c0,0.1-0.1,0.1-0.2,0.1l-2.2-0.5c0,0,0-0.1,0-0.1L-296.5,298.1
				C-296.5,298-296.5,298-296.5,298.1z"/>
		</g>
		<g class="st15">
			<path class="st11" d="M-303.4,289.5l-0.3,0c-0.1,0-0.1,0-0.2,0l-3.1,0.6l2,3.2c0.1,0,0.2,0,0.2-0.1l1.5-3.6
				C-303.3,289.6-303.3,289.5-303.4,289.5z"/>
			<path class="st11" d="M-309.1,287.1l0.2,0.2c0,0,0.1,0.1,0.1,0.2l1.9,2.7l-3.7,0.8c-0.1-0.1-0.1-0.1-0.1-0.2l1.5-3.6
				C-309.2,287-309.1,287-309.1,287.1z"/>
			<path class="st12" d="M-310.7,290.7l3.7-0.6l2.2,3.1c0,0.1-0.1,0.1-0.1,0.1l-5.7-2.5C-310.8,290.8-310.8,290.7-310.7,290.7z"/>
			<path class="st13" d="M-303.3,289.7l-3.6,0.9c-0.1,0-0.2,0-0.3-0.1l-1.9-3.3c0-0.1,0.1-0.1,0.1-0.1l5.7,2.5
				C-303.3,289.5-303.3,289.6-303.3,289.7z"/>
		</g>
		<g>
			<path class="st11" d="M-239.8,275.3l-0.5,0.6c-0.1,0.1-0.2,0.3-0.3,0.5l-4.3,8.1l10.8,1.3c0.3-0.2,0.3-0.3,0.1-0.7l-5.4-9.7
				C-239.4,275.3-239.7,275.2-239.8,275.3z"/>
			<path class="st11" d="M-255.5,283.9l0.8-0.1c0.2,0,0.4,0,0.6,0l9.5,0.6l-4.9,9.8c-0.3,0.2-0.4,0.1-0.6-0.2l-5.4-9.7
				C-255.8,284.2-255.7,284-255.5,283.9z"/>
			<path class="st12" d="M-250.2,294.1l5.3-9.6l10.9,0.7c0.2,0.1,0.2,0.4,0,0.5l-15.8,8.6C-249.9,294.5-250.1,294.3-250.2,294.1z"/>
			<path class="st13" d="M-239.3,275.6l-4.5,9.8c-0.2,0.3-0.5,0.5-0.9,0.5l-10.9-1.4c-0.2-0.1-0.2-0.4,0-0.5l15.8-8.6
				C-239.6,275.2-239.3,275.3-239.3,275.6z"/>
		</g>
		<g class="st16">
			<path class="st11" d="M-277,290.1l-0.8-0.1c-0.2-0.1-0.4-0.1-0.6,0l-9.8,0l4.2,10.8c0.3,0.2,0.4,0.2,0.7-0.2l6.5-10
				C-276.7,290.4-276.8,290.2-277,290.1z"/>
			<path class="st11" d="M-292.9,279.6l0.4,0.7c0.1,0.2,0.2,0.3,0.3,0.5l4.1,9.2l-11.7,0.3c-0.3-0.2-0.3-0.4-0.1-0.7l6.5-10
				C-293.2,279.5-293,279.4-292.9,279.6z"/>
			<path class="st12" d="M-299.8,289.7l11.7,0.2l4.8,10.7c0,0.2-0.3,0.4-0.5,0.2l-16.1-10.6C-300.1,290.1-300,289.8-299.8,289.7z"/>
			<path class="st13" d="M-276.9,290.6l-11.5,0.7c-0.4,0-0.7-0.2-0.9-0.6l-4.1-11c0-0.2,0.3-0.4,0.5-0.2l16,10.6
				C-276.7,290.2-276.7,290.5-276.9,290.6z"/>
		</g>
		<g>
			<path class="st17" d="M-289.7,303.3c-0.8,0-1.4-0.6-1.4-1.4v-25.5c0-0.8,0.6-1.4,1.4-1.4h41.4c0.8,0,1.4,0.6,1.4,1.4v25.5
				c0,0.8-0.6,1.4-1.4,1.4L-289.7,303.3L-289.7,303.3z"/>
			<path class="st9" d="M-248.3,275.9c0.2,0,0.4,0.2,0.4,0.4v25.5c0,0.2-0.2,0.4-0.4,0.4h-41.4c-0.2,0-0.4-0.2-0.4-0.4v-25.5
				c0-0.2,0.2-0.4,0.4-0.4H-248.3 M-248.3,273.9h-41.4c-1.3,0-2.4,1.1-2.4,2.4v25.5c0,1.3,1.1,2.4,2.4,2.4h41.4
				c1.3,0,2.4-1.1,2.4-2.4v-25.5C-245.8,275-246.9,273.9-248.3,273.9L-248.3,273.9z"/>
		</g>
		<g>
			<g class="st18">
				<rect x="-285.7" y="286.9" width="1.3" height="15.2"/>
			</g>
			<path class="st19" d="M-284.4,285.3v14.9c0,1-0.8,1.8-1.8,1.8h14.5c1,0,1.8-0.8,1.8-1.8v-10.4l-4.3-4.5L-284.4,285.3z"/>
			<rect x="-276.4" y="290.5" class="st20" width="4.8" height="0.9"/>
			<rect x="-282.6" y="290.5" class="st21" width="5" height="5"/>
			<rect x="-276.4" y="292.6" class="st20" width="4.8" height="0.9"/>
			<rect x="-276.4" y="294.6" class="st20" width="4.8" height="0.9"/>
			<rect x="-282.6" y="296.6" class="st22" width="10.9" height="0.9"/>
			<rect x="-282.6" y="298.7" class="st22" width="10.9" height="0.9"/>
			<rect x="-282.6" y="287.8" class="st23" width="10.9" height="1.6"/>
			<polygon class="st24" points="-274.2,289.8 -269.9,289.8 -274.2,285.3 			"/>
			<polygon class="st25" points="-269.9,289.8 -274.2,289.8 -269.9,293.7 			"/>
		</g>
		<g>
			<g class="st18">
				<rect x="-268" y="286.9" width="1.3" height="15.2"/>
			</g>
			<path class="st19" d="M-266.7,285.3v14.9c0,1-0.8,1.8-1.8,1.8h14.5c1,0,1.8-0.8,1.8-1.8v-10.4l-4.3-4.5L-266.7,285.3z"/>
			<rect x="-264.9" y="290.5" class="st22" width="5" height="0.9"/>
			<rect x="-264.9" y="292.6" class="st22" width="5" height="0.9"/>
			<rect x="-264.9" y="294.6" class="st22" width="5" height="0.9"/>
			<rect x="-264.9" y="296.6" class="st22" width="10.9" height="0.9"/>
			<rect x="-264.9" y="298.7" class="st22" width="10.9" height="0.9"/>
			<rect x="-264.9" y="287.8" class="st23" width="10.9" height="1.6"/>
			<polygon class="st24" points="-256.5,289.8 -252.2,289.8 -256.5,285.3 			"/>
			<polygon class="st25" points="-252.2,289.8 -256.5,289.8 -252.2,293.7 			"/>
			<rect x="-259" y="290.5" class="st26" width="5" height="5"/>
		</g>
		<g>
			<g class="st27">
				<rect x="-278.4" y="285.3" width="1.3" height="16.8"/>
			</g>
			<g class="st27">
				<rect x="-261.9" y="285.3" width="3.1" height="16.8"/>
			</g>
			<path class="st28" d="M-277.1,278.3v22c0,1-0.8,1.8-1.8,1.8h17.2c1,0,1.8-0.8,1.8-1.8v-17.4l-4.3-4.5H-277.1z"/>
			<rect x="-267.6" y="283.5" class="st20" width="5.9" height="0.9"/>
			<rect x="-275.3" y="283.5" class="st29" width="6.6" height="7"/>
			<rect x="-267.6" y="285.5" class="st20" width="5.9" height="0.9"/>
			<rect x="-267.6" y="287.6" class="st20" width="5.9" height="0.9"/>
			<rect x="-267.6" y="289.6" class="st20" width="5.9" height="0.9"/>
			<rect x="-275.3" y="291.6" class="st20" width="13.6" height="0.9"/>
			<rect x="-275.3" y="293.7" class="st20" width="13.6" height="0.9"/>
			<rect x="-275.3" y="295.7" class="st20" width="6.6" height="0.9"/>
			<rect x="-275.3" y="297.8" class="st20" width="6.6" height="0.9"/>
			<rect x="-275.3" y="299.8" class="st20" width="6.6" height="0.9"/>
			<rect x="-275.3" y="280.8" class="st23" width="13.6" height="1.6"/>
			<polygon class="st24" points="-264.2,282.8 -259.9,282.8 -264.2,278.3 			"/>
			<polygon class="st25" points="-259.9,282.8 -264.2,282.8 -259.9,286.7 			"/>
			<rect x="-267.6" y="295.7" class="st30" width="5.9" height="5"/>
		</g>
		<polygon class="st31" points="-274,305 -264,305 -263.6,307.4 		"/>
	</g>
</g>
<g id="Layer_2">
	<rect x="-320" y="264" class="st32" width="150" height="86"/>
	<path class="st33" d="M-230,321.5h-80c-0.6,0-1-0.4-1-1l0,0c0-0.6,0.4-1,1-1h80c0.6,0,1,0.4,1,1l0,0
		C-229,321.1-229.4,321.5-230,321.5z"/>
	<path class="st34" d="M-230,330.5h-80c-0.6,0-1-0.4-1-1l0,0c0-0.6,0.4-1,1-1h80c0.6,0,1,0.4,1,1l0,0
		C-229,330.1-229.4,330.5-230,330.5z"/>
	<path class="st34" d="M-230,339.5h-80c-0.6,0-1-0.4-1-1l0,0c0-0.6,0.4-1,1-1h80c0.6,0,1,0.4,1,1l0,0
		C-229,339.1-229.4,339.5-230,339.5z"/>
	<rect x="-220" y="264" class="st35" width="50" height="86"/>
	<path class="st24" d="M-181,327h-28c-1.1,0-2-0.9-2-2v-5c0-1.1,0.9-2,2-2h28c1.1,0,2,0.9,2,2v5C-179,326.1-179.9,327-181,327z"/>
	<path class="st36" d="M-181,312h-28c-1.1,0-2-0.9-2-2v-5c0-1.1,0.9-2,2-2h28c1.1,0,2,0.9,2,2v5C-179,311.1-179.9,312-181,312z"/>
	<path class="st36" d="M-181,297h-28c-1.1,0-2-0.9-2-2v-5c0-1.1,0.9-2,2-2h28c1.1,0,2,0.9,2,2v5C-179,296.1-179.9,297-181,297z"/>
	
		<rect x="-222.8" y="304.2" transform="matrix(-0.7071 -0.7071 0.7071 -0.7071 -592.6458 368.5175)" class="st32" width="5.7" height="5.7"/>
</g>
<g class="st37">
	<path class="st38" d="M-279.9,289.5l-1.9-6.1c-0.1-0.4,0.1-0.7,0.4-0.9l8.7-2.7c0.4-0.1,0.7,0.1,0.9,0.4l1.9,6.1
		c0.1,0.4-0.1,0.7-0.4,0.9l-8.7,2.8C-279.4,290.1-279.8,289.9-279.9,289.5z"/>
	<path class="st39" d="M-272,280.5l-2.5,5.6c-0.3,0.6-1.5,0.9-2,0.6l-5-3.1l-0.1-0.4l9.5-3L-272,280.5z"/>
	<path class="st38" d="M-272.4,280.2l-2.4,5c-0.4,0.8-1.3,1.1-2,0.6l-4.8-2.7"/>
	<line class="st40" x1="-274.6" y1="284.7" x2="-271.5" y2="286.1"/>
	<line class="st40" x1="-277.2" y1="285.6" x2="-278.9" y2="288.5"/>
</g>
<g class="st37">
	<path class="st38" d="M-306.6,301.1l1-6.3c0.1-0.4,0.4-0.6,0.8-0.6l9,1.5c0.4,0.1,0.6,0.4,0.6,0.8l-1,6.3c-0.1,0.4-0.4,0.6-0.8,0.6
		l-9-1.4C-306.4,301.9-306.6,301.5-306.6,301.1z"/>
	<path class="st39" d="M-295.5,296.6l-4.7,3.9c-0.5,0.4-1.7,0.1-2-0.3l-3.1-5l0.1-0.4l9.9,1.6L-295.5,296.6z"/>
	<path class="st38" d="M-295.7,296.1l-4.4,3.4c-0.7,0.5-1.6,0.4-2.1-0.3l-3.1-4.6"/>
	<line class="st40" x1="-299.7" y1="299.2" x2="-297.6" y2="301.8"/>
	<line class="st40" x1="-302.4" y1="298.8" x2="-305.2" y2="300.6"/>
</g>
<g class="st14">
	<path class="st41" d="M-280.1,299.6l1.2-4.9c0.1-0.3,0.4-0.5,0.6-0.4l6.9,1.7c0.3,0.1,0.5,0.4,0.4,0.6l-1.2,4.8
		c-0.1,0.3-0.4,0.5-0.6,0.4l-6.9-1.6C-280,300.2-280.1,299.9-280.1,299.6z"/>
	<path class="st39" d="M-271.1,296.8l-3.9,2.8c-0.4,0.3-1.4,0-1.6-0.4l-2.2-4.1l0.1-0.3l7.6,1.8V296.8z"/>
	<path class="st41" d="M-271.3,296.3l-3.6,2.4c-0.6,0.4-1.3,0.2-1.6-0.4l-2.1-3.8"/>
	<line class="st42" x1="-274.6" y1="298.5" x2="-273.1" y2="300.7"/>
	<line class="st42" x1="-276.7" y1="298" x2="-278.9" y2="299.3"/>
</g>
<path class="st41" d="M-290.6,278.3l0.8,4.9c0,0.3-0.1,0.6-0.4,0.6l-7,1.2c-0.3,0-0.5-0.2-0.6-0.4l-0.8-4.9c0-0.3,0.1-0.6,0.4-0.6
	l7-1.2"/>
<path class="st39" d="M-290.7,278.4l-2.5,4.1c-0.3,0.4-1.2,0.5-1.6,0.3l-3.6-2.9l-0.1-0.3l7.7-1.3"/>
<path class="st41" d="M-291,278.1l-2.4,3.6c-0.4,0.6-1.1,0.7-1.6,0.3l-3.5-2.6"/>
<line class="st42" x1="-293.1" y1="281.4" x2="-290.9" y2="282.8"/>
<line class="st42" x1="-295.3" y1="281.7" x2="-296.9" y2="283.8"/>
<g class="st43">
	<path class="st44" d="M-293,292.2l0.4-4.1c0-0.2,0.2-0.4,0.5-0.4l5.9,0.6c0.2,0,0.4,0.2,0.4,0.5l-0.4,4.1c0,0.2-0.2,0.4-0.5,0.4
		l-5.9-0.5C-292.9,292.6-293.1,292.4-293,292.2z"/>
	<path class="st39" d="M-286,288.8l-2.9,2.7c-0.3,0.3-1.1,0.2-1.3-0.1l-2.2-3.1V288l6.5,0.6L-286,288.8z"/>
	<path class="st44" d="M-286.2,288.5l-2.7,2.4c-0.4,0.4-1,0.3-1.4-0.1l-2.2-2.8"/>
	<line class="st45" x1="-288.6" y1="290.6" x2="-287.2" y2="292.2"/>
	<line class="st45" x1="-290.4" y1="290.5" x2="-292.1" y2="291.8"/>
</g>
<g class="st43">
	<path class="st44" d="M-310.3,291.6l-1.5-3.9c-0.1-0.2,0-0.5,0.2-0.6l5.5-2.2c0.2-0.1,0.5,0,0.6,0.2l1.5,3.8c0.1,0.2,0,0.5-0.2,0.6
		l-5.5,2.2C-309.9,291.9-310.2,291.8-310.3,291.6z"/>
	<path class="st39" d="M-305.6,285.3l-1.3,3.8c-0.1,0.4-0.9,0.7-1.2,0.5l-3.4-1.7l-0.1-0.3l6-2.4V285.3z"/>
	<path class="st44" d="M-305.9,285.1l-1.3,3.3c-0.2,0.5-0.8,0.7-1.3,0.5l-3.3-1.5"/>
	<line class="st45" x1="-307.1" y1="288.2" x2="-305" y2="288.9"/>
	<line class="st45" x1="-308.8" y1="288.8" x2="-309.7" y2="290.8"/>
</g>
<path class="st46" d="M-249.4,300.8h8.9c5,0,9.4-3.9,9.6-8.9c0.3-5.4-4-9.8-9.3-9.8h-9.2c-0.3,0-0.6,0.3-0.6,0.6v3.5
	c0,0.3,0.3,0.6,0.6,0.6h9c2.6,0,4.9,2.1,4.9,4.8c0,2.5-2.1,4.6-4.6,4.6h-9.2c-0.3,0-0.6,0.3-0.6,0.6v3.5
	C-249.9,300.5-249.7,300.8-249.4,300.8z"/>
<line class="st47" x1="-246.4" y1="300.2" x2="-246.4" y2="296.7"/>
<line class="st47" x1="-246.4" y1="286.2" x2="-246.4" y2="282.6"/>
<line class="st48" x1="-252.3" y1="298.4" x2="-253.4" y2="298.4"/>
<line class="st48" x1="-255.8" y1="298.4" x2="-257" y2="298.4"/>
<line class="st48" x1="-252.3" y1="284.4" x2="-253.4" y2="284.4"/>
<line class="st48" x1="-255.8" y1="284.4" x2="-257" y2="284.4"/>
<line class="st48" x1="-259.2" y1="298.4" x2="-260.3" y2="298.4"/>
<line class="st48" x1="-262.7" y1="298.4" x2="-263.8" y2="298.4"/>
<line class="st48" x1="-259.2" y1="284.4" x2="-260.3" y2="284.4"/>
<line class="st48" x1="-262.7" y1="284.4" x2="-263.8" y2="284.4"/>
<rect x="-249.4" y="282.7" class="st24" width="2.7" height="3.5"/>
<rect x="-249.4" y="296.7" class="st24" width="2.7" height="3.5"/>
<path class="st49" d="M-245.5,299.3h5.2c4.2,0,7.9-3.3,8.1-7.6c0.2-4.6-3.4-8.3-7.9-8.3h-5.4"/>
</svg>
