<?xml version="1.0" encoding="utf-8"?>
<!-- Generator: Adobe Illustrator 19.1.0, SVG Export Plug-In . SVG Version: 6.00 Build 0)  -->
<svg version="1.1" id="Layer_1" xmlns="http://www.w3.org/2000/svg" xmlns:xlink="http://www.w3.org/1999/xlink" x="0px" y="0px"
	 viewBox="-1674 2708 150 86" enable-background="new -1674 2708 150 86" xml:space="preserve">
<g id="Layer_1_1_" display="none">
	<rect x="-1994" y="2972" display="inline" fill="#F0F0F0" width="150" height="86"/>
	<path display="inline" opacity="0.25" enable-background="new    " d="M-1904,3029.5h-80c-0.6,0-1-0.4-1-1l0,0c0-0.6,0.4-1,1-1h80
		c0.6,0,1,0.4,1,1l0,0C-1903,3029.1-1903.4,3029.5-1904,3029.5z"/>
	<path display="inline" opacity="0.1" enable-background="new    " d="M-1904,3038.5h-80c-0.6,0-1-0.4-1-1l0,0c0-0.6,0.4-1,1-1h80
		c0.6,0,1,0.4,1,1l0,0C-1903,3038.1-1903.4,3038.5-1904,3038.5z"/>
	<path display="inline" opacity="0.1" enable-background="new    " d="M-1904,3047.5h-80c-0.6,0-1-0.4-1-1l0,0c0-0.6,0.4-1,1-1h80
		c0.6,0,1,0.4,1,1l0,0C-1903,3047.1-1903.4,3047.5-1904,3047.5z"/>
	<g display="inline">
		<g>
			<polygon fill="#31343B" points="-1936.9,3018.8 -1949.1,3018.8 -1948,3012.3 -1938,3012.3 			"/>
			<path fill="#4F535E" d="M-1933.7,3018.8h-18.6l0,0c0-1.1,0.9-2,2-2h14.6C-1934.6,3016.8-1933.7,3017.7-1933.7,3018.8
				L-1933.7,3018.8L-1933.7,3018.8z"/>
		</g>
		<g opacity="0.7">
			<path fill="#D9D3CD" d="M-1913.2,3000.3l-0.4,0.1c-0.1,0-0.2,0.1-0.3,0.1l-4.9,2.4l4.8,4.4c0.2,0,0.3,0,0.3-0.3l0.8-6.6
				C-1913,3000.4-1913.1,3000.3-1913.2,3000.3z"/>
			<path fill="#D9D3CD" d="M-1923.8,2999l0.4,0.2c0.1,0,0.2,0.1,0.3,0.2l4.3,3.6l-5.8,3c-0.2,0-0.2-0.1-0.2-0.3l0.8-6.6
				C-1924,2999-1923.9,2998.9-1923.8,2999z"/>
			<path fill="#EDE7DF" d="M-1924.8,3005.7l5.9-2.7l5,4.2c0,0.1-0.1,0.3-0.2,0.2l-10.7-1.4
				C-1924.8,3006-1924.9,3005.8-1924.8,3005.7z"/>
			<path fill="#EBE4DC" d="M-1913.1,3000.6l-5.6,3.2c-0.2,0.1-0.4,0.1-0.6-0.1l-4.7-4.5c0-0.1,0.1-0.3,0.2-0.2l10.6,1.4
				C-1913.1,3000.3-1913,3000.5-1913.1,3000.6z"/>
		</g>
		<g opacity="0.5">
			<path fill="#D9D3CD" d="M-1969.9,2992.8l-0.3-0.3c-0.1-0.1-0.1-0.1-0.2-0.2l-4-2.6l-1.2,5.5c0.1,0.2,0.1,0.2,0.3,0.1l5.3-2.3
				C-1969.9,2993-1969.9,2992.9-1969.9,2992.8z"/>
			<path fill="#D9D3CD" d="M-1973.6,2984.3v0.4c0,0.1,0,0.2,0,0.3l-0.8,4.9l-4.9-3c-0.1-0.2,0-0.2,0.2-0.3l5.3-2.3
				C-1973.8,2984.2-1973.6,2984.2-1973.6,2984.3z"/>
			<path fill="#EDE7DF" d="M-1979.2,2986.6l4.7,3.2l-0.9,5.6c-0.1,0.1-0.2,0.1-0.3,0l-3.7-8.6
				C-1979.4,2986.7-1979.3,2986.6-1979.2,2986.6z"/>
			<path fill="#EBE4DC" d="M-1970.1,2993.1l-4.9-2.8c-0.2-0.1-0.2-0.3-0.2-0.5l1.3-5.6c0.1-0.1,0.2-0.1,0.3,0l3.7,8.6
				C-1969.9,2993-1970,2993.1-1970.1,2993.1z"/>
		</g>
		<g opacity="0.6">
			<path fill="#D9D3CD" d="M-1903,3004h-0.2c-0.1,0-0.1,0-0.2,0l-2.6,0.3l1.4,2.7c0.1,0,0.1,0,0.2-0.1l1.4-2.8
				C-1902.9,3004-1903,3004-1903,3004z"/>
			<path fill="#D9D3CD" d="M-1907.5,3001.7l0.1,0.2l0.1,0.1l1.4,2.3l-3.1,0.4c-0.1,0-0.1-0.1,0-0.2L-1907.5,3001.7
				C-1907.6,3001.6-1907.6,3001.6-1907.5,3001.7z"/>
			<path fill="#EDE7DF" d="M-1909.1,3004.5l3.1-0.3l1.6,2.7c0,0.1-0.1,0.1-0.1,0.1l-4.5-2.3
				C-1909.1,3004.7-1909.1,3004.6-1909.1,3004.5z"/>
			<path fill="#EBE4DC" d="M-1903,3004.1l-3,0.5c-0.1,0-0.2,0-0.2-0.1l-1.4-2.8c0-0.1,0.1-0.1,0.1-0.1l4.5,2.3
				C-1903,3004-1903,3004.1-1903,3004.1z"/>
		</g>
		<g opacity="0.6">
			<path fill="#D9D3CD" d="M-1970.5,3006l-0.1,0.1l-0.1,0.1l-1.1,1.6l2.2,0.5c0.1,0,0.1-0.1,0-0.1L-1970.5,3006L-1970.5,3006z"/>
			<path fill="#D9D3CD" d="M-1974,3007.5h0.2h0.1l1.9,0.3l-1.2,1.9c-0.1,0-0.1,0-0.1-0.1L-1974,3007.5L-1974,3007.5z"/>
			<path fill="#EDE7DF" d="M-1973.1,3009.7l1.3-1.8l2.2,0.4v0.1L-1973.1,3009.7C-1973,3009.7-1973.1,3009.7-1973.1,3009.7z"/>
			<path fill="#EBE4DC" d="M-1970.5,3006.1l-1.1,1.9c0,0.1-0.1,0.1-0.2,0.1l-2.2-0.5v-0.1L-1970.5,3006.1
				C-1970.5,3006-1970.5,3006-1970.5,3006.1z"/>
		</g>
		<g opacity="0.6">
			<path fill="#D9D3CD" d="M-1977.4,2997.5h-0.3c-0.1,0-0.1,0-0.2,0l-3.1,0.6l2,3.2c0.1,0,0.2,0,0.2-0.1l1.5-3.6
				C-1977.3,2997.6-1977.3,2997.5-1977.4,2997.5z"/>
			<path fill="#D9D3CD" d="M-1983.1,2995.1l0.2,0.2c0,0,0.1,0.1,0.1,0.2l1.9,2.7l-3.7,0.8c-0.1-0.1-0.1-0.1-0.1-0.2L-1983.1,2995.1
				C-1983.2,2995-1983.1,2995-1983.1,2995.1z"/>
			<path fill="#EDE7DF" d="M-1984.7,2998.7l3.7-0.6l2.2,3.1c0,0.1-0.1,0.1-0.1,0.1l-5.7-2.5
				C-1984.8,2998.8-1984.8,2998.7-1984.7,2998.7z"/>
			<path fill="#EBE4DC" d="M-1977.3,2997.7l-3.6,0.9c-0.1,0-0.2,0-0.3-0.1l-1.9-3.3c0-0.1,0.1-0.1,0.1-0.1L-1977.3,2997.7
				C-1977.3,2997.5-1977.3,2997.6-1977.3,2997.7z"/>
		</g>
		<g>
			<path fill="#D9D3CD" d="M-1913.8,2983.3l-0.5,0.6c-0.1,0.1-0.2,0.3-0.3,0.5l-4.3,8.1l10.8,1.3c0.3-0.2,0.3-0.3,0.1-0.7l-5.4-9.7
				C-1913.4,2983.3-1913.7,2983.2-1913.8,2983.3z"/>
			<path fill="#D9D3CD" d="M-1929.5,2991.9l0.8-0.1c0.2,0,0.4,0,0.6,0l9.5,0.6l-4.9,9.8c-0.3,0.2-0.4,0.1-0.6-0.2l-5.4-9.7
				C-1929.8,2992.2-1929.7,2992-1929.5,2991.9z"/>
			<path fill="#EDE7DF" d="M-1924.2,3002.1l5.3-9.6l10.9,0.7c0.2,0.1,0.2,0.4,0,0.5l-15.8,8.6
				C-1923.9,3002.5-1924.1,3002.3-1924.2,3002.1z"/>
			<path fill="#EBE4DC" d="M-1913.3,2983.6l-4.5,9.8c-0.2,0.3-0.5,0.5-0.9,0.5l-10.9-1.4c-0.2-0.1-0.2-0.4,0-0.5l15.8-8.6
				C-1913.6,2983.2-1913.3,2983.3-1913.3,2983.6z"/>
		</g>
		<g opacity="0.9">
			<path fill="#D9D3CD" d="M-1951,2998.1l-0.8-0.1c-0.2-0.1-0.4-0.1-0.6,0h-9.8l4.2,10.8c0.3,0.2,0.4,0.2,0.7-0.2l6.5-10
				C-1950.7,2998.4-1950.8,2998.2-1951,2998.1z"/>
			<path fill="#D9D3CD" d="M-1966.9,2987.6l0.4,0.7c0.1,0.2,0.2,0.3,0.3,0.5l4.1,9.2l-11.7,0.3c-0.3-0.2-0.3-0.4-0.1-0.7l6.5-10
				C-1967.2,2987.5-1967,2987.4-1966.9,2987.6z"/>
			<path fill="#EDE7DF" d="M-1973.8,2997.7l11.7,0.2l4.8,10.7c0,0.2-0.3,0.4-0.5,0.2l-16.1-10.6
				C-1974.1,2998.1-1974,2997.8-1973.8,2997.7z"/>
			<path fill="#EBE4DC" d="M-1950.9,2998.6l-11.5,0.7c-0.4,0-0.7-0.2-0.9-0.6l-4.1-11c0-0.2,0.3-0.4,0.5-0.2l16,10.6
				C-1950.7,2998.2-1950.7,2998.5-1950.9,2998.6z"/>
		</g>
		<g>
			<path fill="#78D688" d="M-1963.7,3011.3c-0.8,0-1.4-0.6-1.4-1.4v-25.5c0-0.8,0.6-1.4,1.4-1.4h41.4c0.8,0,1.4,0.6,1.4,1.4v25.5
				c0,0.8-0.6,1.4-1.4,1.4H-1963.7L-1963.7,3011.3z"/>
			<path fill="#4F535E" d="M-1922.3,2983.9c0.2,0,0.4,0.2,0.4,0.4v25.5c0,0.2-0.2,0.4-0.4,0.4h-41.4c-0.2,0-0.4-0.2-0.4-0.4v-25.5
				c0-0.2,0.2-0.4,0.4-0.4H-1922.3 M-1922.3,2981.9h-41.4c-1.3,0-2.4,1.1-2.4,2.4v25.5c0,1.3,1.1,2.4,2.4,2.4h41.4
				c1.3,0,2.4-1.1,2.4-2.4v-25.5C-1919.8,2983-1920.9,2981.9-1922.3,2981.9L-1922.3,2981.9z"/>
		</g>
		<g>
			<g opacity="5.000000e-02">
				<rect x="-1959.7" y="2994.9" width="1.3" height="15.2"/>
			</g>
			<path fill="#DBD7D2" d="M-1958.4,2993.3v14.9c0,1-0.8,1.8-1.8,1.8h14.5c1,0,1.8-0.8,1.8-1.8v-10.4l-4.3-4.5H-1958.4z"/>
			<rect x="-1950.4" y="2998.5" fill="#D3CFC9" width="4.8" height="0.9"/>
			<rect x="-1956.6" y="2998.5" fill="#E57C58" width="5" height="5"/>
			<rect x="-1950.4" y="3000.6" fill="#D3CFC9" width="4.8" height="0.9"/>
			<rect x="-1950.4" y="3002.6" fill="#D3CFC9" width="4.8" height="0.9"/>
			<rect x="-1956.6" y="3004.6" fill="#C2BEB9" width="10.9" height="0.9"/>
			<rect x="-1956.6" y="3006.7" fill="#C2BEB9" width="10.9" height="0.9"/>
			<rect x="-1956.6" y="2995.8" fill="#B7B3AE" width="10.9" height="1.6"/>
			<polygon fill="#FFFFFF" points="-1948.2,2997.8 -1943.9,2997.8 -1948.2,2993.3 			"/>
			<polygon opacity="5.000000e-02" enable-background="new    " points="-1943.9,2997.8 -1948.2,2997.8 -1943.9,3001.7 			"/>
		</g>
		<g>
			<g opacity="5.000000e-02">
				<rect x="-1942" y="2994.9" width="1.3" height="15.2"/>
			</g>
			<path fill="#DBD7D2" d="M-1940.7,2993.3v14.9c0,1-0.8,1.8-1.8,1.8h14.5c1,0,1.8-0.8,1.8-1.8v-10.4l-4.3-4.5H-1940.7z"/>
			<rect x="-1938.9" y="2998.5" fill="#C2BEB9" width="5" height="0.9"/>
			<rect x="-1938.9" y="3000.6" fill="#C2BEB9" width="5" height="0.9"/>
			<rect x="-1938.9" y="3002.6" fill="#C2BEB9" width="5" height="0.9"/>
			<rect x="-1938.9" y="3004.6" fill="#C2BEB9" width="10.9" height="0.9"/>
			<rect x="-1938.9" y="3006.7" fill="#C2BEB9" width="10.9" height="0.9"/>
			<rect x="-1938.9" y="2995.8" fill="#B7B3AE" width="10.9" height="1.6"/>
			<polygon fill="#FFFFFF" points="-1930.5,2997.8 -1926.2,2997.8 -1930.5,2993.3 			"/>
			<polygon opacity="5.000000e-02" enable-background="new    " points="-1926.2,2997.8 -1930.5,2997.8 -1926.2,3001.7 			"/>
			<rect x="-1933" y="2998.5" fill="#639DC7" width="5" height="5"/>
		</g>
		<g>
			<g opacity="0.1">
				<rect x="-1952.4" y="2993.3" width="1.3" height="16.8"/>
			</g>
			<g opacity="0.1">
				<rect x="-1935.9" y="2993.3" width="3.1" height="16.8"/>
			</g>
			<path fill="#F5F0EB" d="M-1951.1,2986.3v22c0,1-0.8,1.8-1.8,1.8h17.2c1,0,1.8-0.8,1.8-1.8v-17.4l-4.3-4.5L-1951.1,2986.3
				L-1951.1,2986.3z"/>
			<rect x="-1941.6" y="2991.5" fill="#D3CFC9" width="5.9" height="0.9"/>
			<rect x="-1949.3" y="2991.5" fill="#F59C36" width="6.6" height="7"/>
			<rect x="-1941.6" y="2993.5" fill="#D3CFC9" width="5.9" height="0.9"/>
			<rect x="-1941.6" y="2995.6" fill="#D3CFC9" width="5.9" height="0.9"/>
			<rect x="-1941.6" y="2997.6" fill="#D3CFC9" width="5.9" height="0.9"/>
			<rect x="-1949.3" y="2999.6" fill="#D3CFC9" width="13.6" height="0.9"/>
			<rect x="-1949.3" y="3001.7" fill="#D3CFC9" width="13.6" height="0.9"/>
			<rect x="-1949.3" y="3003.7" fill="#D3CFC9" width="6.6" height="0.9"/>
			<rect x="-1949.3" y="3005.8" fill="#D3CFC9" width="6.6" height="0.9"/>
			<rect x="-1949.3" y="3007.8" fill="#D3CFC9" width="6.6" height="0.9"/>
			<rect x="-1949.3" y="2988.8" fill="#B7B3AE" width="13.6" height="1.6"/>
			<polygon fill="#FFFFFF" points="-1938.2,2990.8 -1933.9,2990.8 -1938.2,2986.3 			"/>
			<polygon opacity="5.000000e-02" enable-background="new    " points="-1933.9,2990.8 -1938.2,2990.8 -1933.9,2994.7 			"/>
			<rect x="-1941.6" y="3003.7" fill="#74C7A5" width="5.9" height="5"/>
		</g>
		<polygon opacity="0.15" enable-background="new    " points="-1948,3013 -1938,3013 -1937.6,3015.4 		"/>
	</g>
	<rect x="-1894" y="2972" display="inline" fill="#FFB040" width="50" height="86"/>
	<path display="inline" fill="#FFFFFF" d="M-1854,3035h-30c-0.6,0-1-0.4-1-1v-7c0-0.6,0.4-1,1-1h30c0.6,0,1,0.4,1,1v7
		C-1853,3034.6-1853.4,3035-1854,3035z"/>
	<path display="inline" opacity="0.2" enable-background="new    " d="M-1854,3020h-30c-0.6,0-1-0.4-1-1v-7c0-0.6,0.4-1,1-1h30
		c0.6,0,1,0.4,1,1v7C-1853,3019.6-1853.4,3020-1854,3020z"/>
	<path display="inline" opacity="0.2" enable-background="new    " d="M-1854,3005h-30c-0.6,0-1-0.4-1-1v-7c0-0.6,0.4-1,1-1h30
		c0.6,0,1,0.4,1,1v7C-1853,3004.6-1853.4,3005-1854,3005z"/>
	
		<rect x="-1896.9" y="3012.1" transform="matrix(0.7071 0.7071 -0.7071 0.7071 1577.1359 2222.3154)" display="inline" fill="#F0F0F0" width="5.7" height="5.7"/>
</g>
<g id="Layer_2">
	<rect x="-1674" y="2708" fill="#F0F0F0" width="150" height="86"/>
	<path opacity="0.25" enable-background="new    " d="M-1584,2765.5h-80c-0.6,0-1-0.4-1-1l0,0c0-0.6,0.4-1,1-1h80c0.6,0,1,0.4,1,1
		l0,0C-1583,2765.1-1583.4,2765.5-1584,2765.5z"/>
	<path opacity="0.1" enable-background="new    " d="M-1584,2774.5h-80c-0.6,0-1-0.4-1-1l0,0c0-0.6,0.4-1,1-1h80c0.6,0,1,0.4,1,1
		l0,0C-1583,2774.1-1583.4,2774.5-1584,2774.5z"/>
	<path opacity="0.1" enable-background="new    " d="M-1584,2783.5h-80c-0.6,0-1-0.4-1-1l0,0c0-0.6,0.4-1,1-1h80c0.6,0,1,0.4,1,1
		l0,0C-1583,2783.1-1583.4,2783.5-1584,2783.5z"/>
	<rect x="-1574" y="2708" fill="#1695A3" width="50" height="86"/>
	<path fill="#EB7F00" d="M-1535,2771h-28c-1.1,0-2-0.9-2-2v-5c0-1.1,0.9-2,2-2h28c1.1,0,2,0.9,2,2v5
		C-1533,2770.1-1533.9,2771-1535,2771z"/>
	<path opacity="0.2" enable-background="new    " d="M-1535,2756h-28c-1.1,0-2-0.9-2-2v-5c0-1.1,0.9-2,2-2h28c1.1,0,2,0.9,2,2v5
		C-1533,2755.1-1533.9,2756-1535,2756z"/>
	<path opacity="0.2" enable-background="new    " d="M-1535,2741h-28c-1.1,0-2-0.9-2-2v-5c0-1.1,0.9-2,2-2h28c1.1,0,2,0.9,2,2v5
		C-1533,2740.1-1533.9,2741-1535,2741z"/>
	
		<rect x="-1576.9" y="2748.1" transform="matrix(0.7071 0.7071 -0.7071 0.7071 1484.1854 1918.7174)" fill="#F0F0F0" width="5.7" height="5.7"/>
</g>
<g>
	<ellipse opacity="0.2" fill="#333333" cx="-1624.4" cy="2754" rx="19.6" ry="1.5"/>
	
		<path fill="#FAFAFA" stroke="#1B293C" stroke-width="1.146" stroke-linecap="round" stroke-linejoin="round" stroke-miterlimit="10" d="
		M-1602.9,2745.7c0,0.9-0.8,1.7-1.7,1.7h-38.8c-0.9,0-1.7-0.8-1.7-1.7v-26.3c0-0.9,0.8-1.7,1.7-1.7h38.8c0.9,0,1.7,0.8,1.7,1.7
		V2745.7z"/>
	<g>
		<path fill="#F9DEDB" d="M-1644.6,2744.7c-0.2,0-0.3-0.1-0.3-0.3v-23.5c0-0.2,0.1-0.3,0.3-0.3h41.2c0.2,0,0.3,0.1,0.3,0.3v23.5
			c0,0.2-0.1,0.3-0.3,0.3H-1644.6z"/>
		<path fill="#1B293C" d="M-1603.4,2720.9v23.5h-41.2v-23.5H-1603.4 M-1603.4,2720.4h-41.2c-0.3,0-0.6,0.3-0.6,0.6v23.5
			c0,0.3,0.3,0.6,0.6,0.6h41.2c0.3,0,0.6-0.3,0.6-0.6v-23.5C-1602.9,2720.6-1603.1,2720.4-1603.4,2720.4L-1603.4,2720.4z"/>
	</g>
	
		<path fill="#FFFFFF" stroke="#1B293C" stroke-width="1.146" stroke-linecap="round" stroke-linejoin="round" stroke-miterlimit="10" d="
		M-1629.1,2753.7c0-3.1,2.3-6.3,5.3-6.3c3,0,5.3,3.1,5.3,6.3H-1629.1z"/>
	
		<path fill="#FAFAFA" stroke="#000000" stroke-width="1.146" stroke-linecap="round" stroke-linejoin="round" stroke-miterlimit="10" d="
		M-1623.8,2752.6"/>
	
		<path fill="#FFF5CC" stroke="#1B293C" stroke-width="0.6644" stroke-linecap="round" stroke-linejoin="round" stroke-miterlimit="10" d="
		M-1616.7,2730.2c0-0.3-0.1-0.6-0.4-0.8l-4.4-3.5c-1.5-1.2-4.1-1.2-5.6,0l-4.5,3.5c-0.2,0.2-0.4,0.5-0.4,0.8v9.3c0,0.5,0.4,1,1,1
		h13.3c0.6,0,1-0.4,1-1V2730.2z"/>
	<polygon fill="#D2F3E4" points="-1629.1,2727.2 -1617.7,2726.7 -1618.4,2731.3 -1622.7,2735.2 -1624.3,2734.1 -1625.7,2734.9 
		-1630.3,2730.7 	"/>
	
		<polyline fill="#D2F3E4" stroke="#16925B" stroke-width="0.6644" stroke-linecap="round" stroke-linejoin="round" stroke-miterlimit="10" points="
		-1620.1,2726 -1617.4,2726.6 -1618.6,2731.3 	"/>
	
		<polyline fill="#D2F3E4" stroke="#16925B" stroke-width="0.6644" stroke-linecap="round" stroke-linejoin="round" stroke-miterlimit="10" points="
		-1628.6,2725.9 -1631.1,2726.6 -1629.8,2731.3 	"/>
	
		<polyline fill="#D2F3E4" stroke="#1EC279" stroke-width="0.6644" stroke-linecap="round" stroke-linejoin="round" stroke-miterlimit="10" points="
		-1620.3,2732.4 -1620.3,2724.1 -1628.6,2724.1 -1628.6,2732.4 	"/>
	
		<path fill="none" stroke="#1EC279" stroke-width="0.3322" stroke-linecap="round" stroke-linejoin="round" stroke-miterlimit="10" d="
		M-1625.6,2724.3c0,1.5-1.3,2.3-2.8,2.3"/>
	
		<path fill="none" stroke="#1EC279" stroke-width="0.3322" stroke-linecap="round" stroke-linejoin="round" stroke-miterlimit="10" d="
		M-1622.9,2724.3c0,1.5,0.8,2.3,2.3,2.3"/>
	
		<path fill="#FFFFFF" stroke="#1EC279" stroke-width="0.3322" stroke-linecap="round" stroke-linejoin="round" stroke-miterlimit="10" d="
		M-1624.8,2734.4c-1-0.3-1.7-1.2-1.7-2.2c0-1.3,1-2.3,2.3-2.3s2.3,1,2.3,2.3c0,1.1-0.7,2-1.7,2.2"/>
	
		<line fill="none" stroke="#1B293C" stroke-width="0.6644" stroke-linecap="round" stroke-linejoin="round" stroke-miterlimit="10" x1="-1625.8" y1="2735.3" x2="-1631.9" y2="2729.8"/>
	
		<line fill="none" stroke="#1B293C" stroke-width="0.6644" stroke-linecap="round" stroke-linejoin="round" stroke-miterlimit="10" x1="-1622.6" y1="2735.3" x2="-1617" y2="2730.2"/>
	<path opacity="0.35" fill="#293342" d="M-1631.4,2729.7c0,0,3.8,4.4,7.1,4.4c3,0,7.2-4.2,7.2-4.2l-5.5,5l-3.1,0L-1631.4,2729.7z"/>
	
		<path fill="#FFF5CC" stroke="#1B293C" stroke-width="0.6644" stroke-linecap="round" stroke-linejoin="round" stroke-miterlimit="10" d="
		M-1617,2739.9l-6.6-5.4c-0.4-0.3-0.9-0.3-1.3,0l-6.6,5.4"/>
</g>
</svg>
