<?xml version="1.0" encoding="utf-8"?>
<!-- Generator: Adobe Illustrator 19.1.0, SVG Export Plug-In . SVG Version: 6.00 Build 0)  -->
<svg version="1.1" id="Layer_1" xmlns="http://www.w3.org/2000/svg" xmlns:xlink="http://www.w3.org/1999/xlink" x="0px" y="0px"
	 viewBox="-1674 2708 150 86" enable-background="new -1674 2708 150 86" xml:space="preserve">
<rect x="-1674" y="2708" fill="#F0F0F0" width="150" height="63"/>
<rect x="-1674" y="2771" fill="#3B3B3B" width="150" height="23"/>
<path opacity="0.25" enable-background="new    " d="M-1534,2753h-130c-0.6,0-1-0.4-1-1l0,0c0-0.6,0.4-1,1-1h130c0.6,0,1,0.4,1,1
	l0,0C-1533,2752.6-1533.4,2753-1534,2753z"/>
<path opacity="0.1" enable-background="new    " d="M-1534,2762h-130c-0.6,0-1-0.4-1-1l0,0c0-0.6,0.4-1,1-1h130c0.6,0,1,0.4,1,1l0,0
	C-1533,2761.6-1533.4,2762-1534,2762z"/>
<path fill="#FFFFFF" d="M-1573,2787h-90c-1.1,0-2-0.9-2-2v-5c0-1.1,0.9-2,2-2h90c1.1,0,2,0.9,2,2v5
	C-1571,2786.1-1571.9,2787-1573,2787z"/>
<path fill="#E7B303" d="M-1535,2787h-28c-1.1,0-2-0.9-2-2v-5c0-1.1,0.9-2,2-2h28c1.1,0,2,0.9,2,2v5
	C-1533,2786.1-1533.9,2787-1535,2787z"/>
<g id="Layer_2" display="none">
</g>
<g>
	
		<path fill="#E05B49" stroke="#000000" stroke-width="1.5446" stroke-linecap="round" stroke-linejoin="round" stroke-miterlimit="10" d="
		M-1573.5,2742.5h11.8c6.7,0,12.4-5.1,12.7-11.8c0.3-7.1-5.3-13-12.3-13h-12.1c-0.4,0-0.8,0.3-0.8,0.8v4.6c0,0.4,0.3,0.8,0.8,0.8
		h11.8c3.5,0,6.5,2.8,6.4,6.3c-0.1,3.4-2.8,6.1-6.1,6.1h-12.1c-0.4,0-0.8,0.3-0.8,0.8v4.6
		C-1574.3,2742.2-1573.9,2742.5-1573.5,2742.5z"/>
	
		<line fill="none" stroke="#000000" stroke-width="0.7723" stroke-linejoin="round" stroke-miterlimit="10" x1="-1569.6" y1="2741.7" x2="-1569.6" y2="2737.1"/>
	
		<line fill="none" stroke="#000000" stroke-width="0.7723" stroke-linejoin="round" stroke-miterlimit="10" x1="-1569.6" y1="2723.2" x2="-1569.6" y2="2718.6"/>
	
		<line fill="none" stroke="#FFCC01" stroke-width="0.7723" stroke-linecap="round" stroke-linejoin="round" stroke-miterlimit="10" x1="-1577.3" y1="2739.4" x2="-1578.9" y2="2739.4"/>
	
		<line fill="none" stroke="#FFCC01" stroke-width="0.7723" stroke-linecap="round" stroke-linejoin="round" stroke-miterlimit="10" x1="-1582" y1="2739.4" x2="-1583.5" y2="2739.4"/>
	
		<line fill="none" stroke="#FFCC01" stroke-width="0.7723" stroke-linecap="round" stroke-linejoin="round" stroke-miterlimit="10" x1="-1577.3" y1="2720.9" x2="-1578.9" y2="2720.9"/>
	
		<line fill="none" stroke="#FFCC01" stroke-width="0.7723" stroke-linecap="round" stroke-linejoin="round" stroke-miterlimit="10" x1="-1582" y1="2720.9" x2="-1583.5" y2="2720.9"/>
	
		<line fill="none" stroke="#FFCC01" stroke-width="0.7723" stroke-linecap="round" stroke-linejoin="round" stroke-miterlimit="10" x1="-1586.4" y1="2739.4" x2="-1588" y2="2739.4"/>
	
		<line fill="none" stroke="#FFCC01" stroke-width="0.7723" stroke-linecap="round" stroke-linejoin="round" stroke-miterlimit="10" x1="-1591.1" y1="2739.4" x2="-1592.6" y2="2739.4"/>
	
		<line fill="none" stroke="#FFCC01" stroke-width="0.7723" stroke-linecap="round" stroke-linejoin="round" stroke-miterlimit="10" x1="-1586.4" y1="2720.9" x2="-1588" y2="2720.9"/>
	
		<line fill="none" stroke="#FFCC01" stroke-width="0.7723" stroke-linecap="round" stroke-linejoin="round" stroke-miterlimit="10" x1="-1591.1" y1="2720.9" x2="-1592.6" y2="2720.9"/>
	<rect x="-1573.5" y="2718.6" fill="#FFFFFF" width="3.5" height="4.6"/>
	<rect x="-1573.5" y="2737.1" fill="#FFFFFF" width="3.5" height="4.6"/>
	
		<path fill="none" stroke="#EC9D92" stroke-width="1.3054" stroke-linecap="round" stroke-linejoin="round" stroke-miterlimit="10" d="
		M-1568.3,2740.6h6.8c5.6,0,10.4-4.3,10.7-10c0.3-6-4.5-11-10.4-11h-7.1"/>
	<g>
		
			<line fill="none" stroke="#293342" stroke-width="0.7723" stroke-linecap="round" stroke-linejoin="round" stroke-miterlimit="10" x1="-1623.9" y1="2720.3" x2="-1629.3" y2="2720.3"/>
		
			<line fill="none" stroke="#293342" stroke-width="0.7723" stroke-linecap="round" stroke-linejoin="round" stroke-miterlimit="10" x1="-1623.9" y1="2726.9" x2="-1629.3" y2="2726.9"/>
		
			<line fill="none" stroke="#293342" stroke-width="0.7723" stroke-linecap="round" stroke-linejoin="round" stroke-miterlimit="10" x1="-1623.9" y1="2723.6" x2="-1626.2" y2="2723.6"/>
		<g>
			<g>
				
					<path fill="#D2F3E4" stroke="#1EC279" stroke-width="0.77" stroke-linecap="round" stroke-linejoin="round" stroke-miterlimit="10" d="
					M-1601.6,2728c-6.9-0.9-10.8,1-17.7,0.1c0-3.2,0-5.1,0-9.2c6.9,0.9,10.8-1,17.7-0.1C-1601.6,2722-1601.6,2723.8-1601.6,2728z"/>
				
					<path fill="#D2F3E4" stroke="#1EC279" stroke-width="0.385" stroke-linecap="round" stroke-linejoin="round" stroke-miterlimit="10" d="
					M-1616.3,2726.8c-0.8,0-0.6,0-1.4-0.1"/>
				
					<path fill="#D2F3E4" stroke="#1EC279" stroke-width="0.385" stroke-linecap="round" stroke-linejoin="round" stroke-miterlimit="10" d="
					M-1604.3,2720.1c0.8,0,0.4,0,1.2,0.1"/>
			</g>
			<path opacity="0.2" fill="#1EC279" d="M-1619,2723.7c0,0,4.9,1.8,9.4,0.8c4.5-1,7.6-0.4,7.6-0.4l-0.1,3.6c0,0-3.7-0.7-9-0.1
				c-5.3,0.6-7.8,0.1-7.8,0.1L-1619,2723.7z"/>
			
				<path fill="#FFFFFF" stroke="#1EC279" stroke-width="0.4581" stroke-linecap="round" stroke-linejoin="round" stroke-miterlimit="10" d="
				M-1610.6,2726.8L-1610.6,2726.8c-1.5,0-2.8-1.3-2.8-2.8v-1.1c0-1.5,1.3-2.8,2.8-2.8h0c1.5,0,2.8,1.3,2.8,2.8v1.1
				C-1607.8,2725.6-1609,2726.8-1610.6,2726.8z"/>
			<text transform="matrix(1 0 0 1 -1612.0767 2725.3457)" fill="#1B293C" font-family="'Roboto-Regular'" font-size="5.1013px">$</text>
		</g>
	</g>
	<g opacity="0.25">
		
			<line fill="none" stroke="#293342" stroke-width="0.4652" stroke-linecap="round" stroke-linejoin="round" stroke-miterlimit="10" x1="-1610.6" y1="2734.3" x2="-1613.9" y2="2734.3"/>
		
			<line fill="none" stroke="#293342" stroke-width="0.4652" stroke-linecap="round" stroke-linejoin="round" stroke-miterlimit="10" x1="-1610.6" y1="2738.2" x2="-1613.9" y2="2738.2"/>
		
			<line fill="none" stroke="#293342" stroke-width="0.4652" stroke-linecap="round" stroke-linejoin="round" stroke-miterlimit="10" x1="-1610.6" y1="2736.3" x2="-1612" y2="2736.3"/>
		<g>
			<g>
				
					<path fill="#D2F3E4" stroke="#1EC279" stroke-width="0.4638" stroke-linecap="round" stroke-linejoin="round" stroke-miterlimit="10" d="
					M-1597.2,2738.9c-4.2-0.5-6.5,0.6-10.7,0.1c0-1.9,0-3,0-5.6c4.2,0.5,6.5-0.6,10.7-0.1
					C-1597.2,2735.3-1597.2,2736.4-1597.2,2738.9z"/>
				
					<path fill="#D2F3E4" stroke="#1EC279" stroke-width="0.2319" stroke-linecap="round" stroke-linejoin="round" stroke-miterlimit="10" d="
					M-1606,2738.2c-0.5,0-0.4,0-0.8-0.1"/>
				
					<path fill="#D2F3E4" stroke="#1EC279" stroke-width="0.2319" stroke-linecap="round" stroke-linejoin="round" stroke-miterlimit="10" d="
					M-1598.8,2734.1c0.5,0,0.2,0,0.7,0.1"/>
			</g>
			<path opacity="0.2" fill="#1EC279" d="M-1607.7,2736.4c0,0,2.9,1.1,5.6,0.5s4.6-0.3,4.6-0.3l0,2.2c0,0-2.2-0.4-5.4,0
				c-3.2,0.4-4.7,0.1-4.7,0.1L-1607.7,2736.4z"/>
			
				<path fill="#FFFFFF" stroke="#1EC279" stroke-width="0.2759" stroke-linecap="round" stroke-linejoin="round" stroke-miterlimit="10" d="
				M-1602.6,2738.2L-1602.6,2738.2c-0.9,0-1.7-0.8-1.7-1.7v-0.6c0-0.9,0.8-1.7,1.7-1.7l0,0c0.9,0,1.7,0.8,1.7,1.7v0.6
				C-1600.9,2737.5-1601.7,2738.2-1602.6,2738.2z"/>
			<text transform="matrix(1 0 0 1 -1603.48 2737.332)" fill="#1B293C" font-family="'Roboto-Regular'" font-size="3.0726px">$</text>
		</g>
	</g>
	<g opacity="0.65">
		
			<line fill="none" stroke="#293342" stroke-width="0.4652" stroke-linecap="round" stroke-linejoin="round" stroke-miterlimit="10" x1="-1646.7" y1="2725.6" x2="-1649.9" y2="2725.6"/>
		
			<line fill="none" stroke="#293342" stroke-width="0.4652" stroke-linecap="round" stroke-linejoin="round" stroke-miterlimit="10" x1="-1646.7" y1="2729.5" x2="-1649.9" y2="2729.5"/>
		
			<line fill="none" stroke="#293342" stroke-width="0.4652" stroke-linecap="round" stroke-linejoin="round" stroke-miterlimit="10" x1="-1646.7" y1="2727.6" x2="-1648.1" y2="2727.6"/>
		<g>
			<g>
				
					<path fill="#D2F3E4" stroke="#1EC279" stroke-width="0.4638" stroke-linecap="round" stroke-linejoin="round" stroke-miterlimit="10" d="
					M-1633.3,2730.2c-4.2-0.5-6.5,0.6-10.7,0.1c0-1.9,0-3,0-5.6c4.2,0.5,6.5-0.6,10.7-0.1
					C-1633.3,2726.6-1633.3,2727.7-1633.3,2730.2z"/>
				
					<path fill="#D2F3E4" stroke="#1EC279" stroke-width="0.2319" stroke-linecap="round" stroke-linejoin="round" stroke-miterlimit="10" d="
					M-1642.1,2729.5c-0.5,0-0.4,0-0.8-0.1"/>
				
					<path fill="#D2F3E4" stroke="#1EC279" stroke-width="0.2319" stroke-linecap="round" stroke-linejoin="round" stroke-miterlimit="10" d="
					M-1634.8,2725.5c0.5,0,0.2,0,0.7,0.1"/>
			</g>
			<path opacity="0.2" fill="#1EC279" d="M-1643.7,2727.7c0,0,2.9,1.1,5.6,0.5s4.6-0.3,4.6-0.3l0,2.2c0,0-2.2-0.4-5.4,0
				c-3.2,0.4-4.7,0.1-4.7,0.1L-1643.7,2727.7z"/>
			
				<path fill="#FFFFFF" stroke="#1EC279" stroke-width="0.2759" stroke-linecap="round" stroke-linejoin="round" stroke-miterlimit="10" d="
				M-1638.7,2729.5L-1638.7,2729.5c-0.9,0-1.7-0.8-1.7-1.7v-0.6c0-0.9,0.8-1.7,1.7-1.7l0,0c0.9,0,1.7,0.8,1.7,1.7v0.6
				C-1637,2728.8-1637.7,2729.5-1638.7,2729.5z"/>
			<text transform="matrix(1 0 0 1 -1639.5591 2728.6426)" fill="#1B293C" font-family="'Roboto-Regular'" font-size="3.0726px">$</text>
		</g>
	</g>
	<g opacity="0.5">
		
			<line fill="none" stroke="#293342" stroke-width="0.6053" stroke-linecap="round" stroke-linejoin="round" stroke-miterlimit="10" x1="-1639.3" y1="2737.2" x2="-1643.6" y2="2737.2"/>
		
			<line fill="none" stroke="#293342" stroke-width="0.6053" stroke-linecap="round" stroke-linejoin="round" stroke-miterlimit="10" x1="-1639.3" y1="2742.3" x2="-1643.6" y2="2742.3"/>
		
			<line fill="none" stroke="#293342" stroke-width="0.6053" stroke-linecap="round" stroke-linejoin="round" stroke-miterlimit="10" x1="-1639.3" y1="2739.8" x2="-1641.1" y2="2739.8"/>
		<g>
			<g>
				
					<path fill="#D2F3E4" stroke="#1EC279" stroke-width="0.6035" stroke-linecap="round" stroke-linejoin="round" stroke-miterlimit="10" d="
					M-1621.9,2743.2c-5.4-0.7-8.4,0.8-13.9,0.1c0-2.5,0-4,0-7.2c5.4,0.7,8.4-0.8,13.9-0.1C-1621.9,2738.5-1621.9,2740-1621.9,2743.2
					z"/>
				
					<path fill="#D2F3E4" stroke="#1EC279" stroke-width="0.3017" stroke-linecap="round" stroke-linejoin="round" stroke-miterlimit="10" d="
					M-1633.4,2742.3c-0.6,0-0.5,0-1.1-0.1"/>
				
					<path fill="#D2F3E4" stroke="#1EC279" stroke-width="0.3017" stroke-linecap="round" stroke-linejoin="round" stroke-miterlimit="10" d="
					M-1623.9,2737c0.6,0,0.3,0,0.9,0.1"/>
			</g>
			<path opacity="0.2" fill="#1EC279" d="M-1635.5,2739.9c0,0,3.8,1.4,7.3,0.6c3.5-0.8,6-0.3,6-0.3l-0.1,2.8c0,0-2.9-0.5-7.1-0.1
				c-4.2,0.5-6.1,0.1-6.1,0.1L-1635.5,2739.9z"/>
			
				<path fill="#FFFFFF" stroke="#1EC279" stroke-width="0.359" stroke-linecap="round" stroke-linejoin="round" stroke-miterlimit="10" d="
				M-1628.9,2742.3L-1628.9,2742.3c-1.2,0-2.2-1-2.2-2.2v-0.8c0-1.2,1-2.2,2.2-2.2l0,0c1.2,0,2.2,1,2.2,2.2v0.8
				C-1626.7,2741.3-1627.7,2742.3-1628.9,2742.3z"/>
			<text transform="matrix(1 0 0 1 -1630.063 2741.1523)" fill="#1B293C" font-family="'Roboto-Regular'" font-size="3.998px">$</text>
		</g>
	</g>
</g>
</svg>
