<?xml version="1.0" encoding="utf-8"?>
<!-- Generator: Adobe Illustrator 19.1.0, SVG Export Plug-In . SVG Version: 6.00 Build 0)  -->
<svg version="1.1" id="Layer_1" xmlns="http://www.w3.org/2000/svg" xmlns:xlink="http://www.w3.org/1999/xlink" x="0px" y="0px"
	 viewBox="-644 408 150 86" style="enable-background:new -644 408 150 86;" xml:space="preserve">
<style type="text/css">
	.st0{fill:#5A748C;}
	.st1{fill:#445E72;}
	.st2{fill:#FFFFFF;}
	.st3{fill:#FCB84D;}
	.st4{fill:#D3CEC5;}
	.st5{opacity:0.5;fill:#FFFFFF;enable-background:new    ;}
	.st6{opacity:0.3;fill:#FFFFFF;enable-background:new    ;}
	.st7{display:none;}
	.st8{opacity:0.2;fill:#333333;}
	.st9{fill:#FFF5CC;stroke:#1B293C;stroke-width:1.2698;stroke-linecap:round;stroke-linejoin:round;stroke-miterlimit:10;}
	.st10{opacity:0.35;fill:#293342;}
	.st11{fill:none;stroke:#1B293C;stroke-width:1.2698;stroke-linecap:round;stroke-linejoin:round;stroke-miterlimit:10;}
	.st12{fill:#6B96F4;stroke:#1B293C;stroke-width:0.6349;stroke-linecap:round;stroke-linejoin:round;stroke-miterlimit:10;}
	.st13{fill:#FFFFFF;stroke:#1B293C;stroke-width:0.6349;stroke-linecap:round;stroke-linejoin:round;stroke-miterlimit:10;}
	
		.st14{opacity:0.5;fill:none;stroke:#1B293C;stroke-width:0.6349;stroke-linecap:round;stroke-linejoin:round;stroke-miterlimit:10;}
</style>
<g id="Layer_1_1_">
	<rect x="-644" y="408" class="st0" width="150" height="63"/>
	<rect x="-644" y="470" class="st1" width="150" height="24"/>
	<path class="st2" d="M-544,485h-88c-1.7,0-3-1.3-3-3v-3c0-1.7,1.3-3,3-3h88c1.7,0,3,1.3,3,3v3C-541,483.7-542.3,485-544,485z"/>
	<path class="st3" d="M-506,485h-26c-1.7,0-3-1.3-3-3v-3c0-1.7,1.3-3,3-3h26c1.7,0,3,1.3,3,3v3C-503,483.7-504.3,485-506,485z"/>
	<path class="st4" d="M-496,410h-3v1h3V410L-496,410z M-502,410h-3v1h3V410L-502,410z M-508,410h-3v1h3V410L-508,410z M-514,410h-3
		v1h3V410L-514,410z M-520,410h-3v1h3V410L-520,410z M-526,410h-3v1h3V410L-526,410z M-532,410h-3v1h3V410L-532,410z M-538,410h-3v1
		h3V410L-538,410z M-544,410h-3v1h3V410L-544,410z M-550,410h-3v1h3V410L-550,410z M-556,410h-3v1h3V410L-556,410z M-562,410h-3v1h3
		V410L-562,410z M-568,410h-3v1h3V410L-568,410z M-574,410h-3v1h3V410L-574,410z M-580,410h-3v1h3V410L-580,410z M-586,410h-3v1h3
		V410L-586,410z M-592,410h-3v1h3V410L-592,410z M-598,410h-3v1h3V410L-598,410z M-604,410h-3v1h3V410L-604,410z M-610,410h-3v1h3
		V410L-610,410z M-616,410h-3v1h3V410L-616,410z M-622,410h-3v1h3V410L-622,410z M-628,410h-3v1h3V410L-628,410z M-634,410h-3v1h3
		V410L-634,410z M-640,410h-2v1h2V410L-640,410z M-641,414h-1v3h1V414L-641,414z M-641,420h-1v3h1V420L-641,420z M-641,426h-1v3h1
		V426L-641,426z M-641,432h-1v3h1V432L-641,432z M-641,438h-1v3h1V438L-641,438z M-641,444h-1v3h1V444L-641,444z M-641,450h-1v3h1
		V450L-641,450z M-641,456h-1v3h1V456L-641,456z M-641,462h-1v3h1V462L-641,462z M-641,468h-1v3h1V468L-641,468z M-641,474h-1v3h1
		V474L-641,474z M-641,480h-1v3h1V480L-641,480z M-641,486h-1v3h1V486L-641,486z M-639,491h-3v1h3V491L-639,491z M-633,491h-3v1h3
		V491L-633,491z M-627,491h-3v1h3V491L-627,491z M-621,491h-3v1h3V491L-621,491z M-615,491h-3v1h3V491L-615,491z M-609,491h-3v1h3
		V491L-609,491z M-603,491h-3v1h3V491L-603,491z M-597,491h-3v1h3V491L-597,491z M-591,491h-3v1h3V491L-591,491z M-585,491h-3v1h3
		V491L-585,491z M-579,491h-3v1h3V491L-579,491z M-573,491h-3v1h3V491L-573,491z M-567,491h-3v1h3V491L-567,491z M-561,491h-3v1h3
		V491L-561,491z M-555,491h-3v1h3V491L-555,491z M-549,491h-3v1h3V491L-549,491z M-543,491h-3v1h3V491L-543,491z M-537,491h-3v1h3
		V491L-537,491z M-531,491h-3v1h3V491L-531,491z M-525,491h-3v1h3V491L-525,491z M-519,491h-3v1h3V491L-519,491z M-513,491h-3v1h3
		V491L-513,491z M-507,491h-3v1h3V491L-507,491z M-501,491h-3v1h3V491L-501,491z M-496,491h-1l0,0h-1v1h2V491L-496,491z M-496,485
		h-1v3h1V485L-496,485z M-496,479h-1v3h1V479L-496,479z M-496,473h-1v3h1V473L-496,473z M-496,467h-1v3h1V467L-496,467z M-496,461
		h-1v3h1V461L-496,461z M-496,455h-1v3h1V455L-496,455z M-496,449h-1v3h1V449L-496,449z M-496,443h-1v3h1V443L-496,443z M-496,437
		h-1v3h1V437L-496,437z M-496,431h-1v3h1V431L-496,431z M-496,425h-1v3h1V425L-496,425z M-496,419h-1v3h1V419L-496,419z M-496,413
		h-1v3h1V413L-496,413z"/>
	<path class="st5" d="M-503.8,422h-77.7c-0.6,0-1-0.4-1-1l0,0c0-0.6,0.4-1,1-1h77.7c0.6,0,1,0.4,1,1l0,0
		C-502.8,421.6-503.3,422-503.8,422z"/>
	<path class="st6" d="M-503.8,431h-77.7c-0.6,0-1-0.4-1-1l0,0c0-0.6,0.4-1,1-1h77.7c0.6,0,1,0.4,1,1l0,0
		C-502.8,430.6-503.3,431-503.8,431z"/>
	<path class="st6" d="M-503.8,440h-77.7c-0.6,0-1-0.4-1-1l0,0c0-0.6,0.4-1,1-1h77.7c0.6,0,1,0.4,1,1l0,0
		C-502.8,439.6-503.3,440-503.8,440z"/>
	<path class="st6" d="M-503.8,449h-77.7c-0.6,0-1-0.4-1-1l0,0c0-0.6,0.4-1,1-1h77.7c0.6,0,1,0.4,1,1l0,0
		C-502.8,448.6-503.3,449-503.8,449z"/>
	<path class="st6" d="M-503.8,458h-77.7c-0.6,0-1-0.4-1-1l0,0c0-0.6,0.4-1,1-1h77.7c0.6,0,1,0.4,1,1l0,0
		C-502.8,457.6-503.3,458-503.8,458z"/>
</g>
<g id="Layer_2" class="st7">
</g>
<ellipse class="st8" cx="-616.5" cy="456.5" rx="12.8" ry="1.7"/>
<path class="st9" d="M-612,445.4h-18c-1,0-1.9-0.9-1.9-1.9v-17.8c0-1.1,0.9-1.9,1.9-1.9h25.4c1.1,0,1.9,0.9,1.9,1.9V442"/>
<path class="st10" d="M-631.2,426.1l11.3,12.9c1.2,1.3,4.7,1.1,5.7,0l10.9-12.4v-1.3h-27.9L-631.2,426.1z"/>
<path class="st9" d="M-630.5,424.8l10.6,11.3c1.6,1.7,4.2,1.7,5.8,0l10.6-11.3"/>
<line class="st11" x1="-620.9" y1="435.1" x2="-627.8" y2="441.4"/>
<line class="st11" x1="-613.1" y1="435.1" x2="-608.9" y2="439"/>
<circle class="st12" cx="-605" cy="441.4" r="8.5"/>
<circle class="st13" cx="-605" cy="441.4" r="6.8"/>
<path class="st14" d="M-590.1,446.9l-3-0.9c-0.4-0.1-1.2-0.1-1.6,0l-2.2,0.7c-0.4,0.1-1.2,0.1-1.6,0l-2.2-0.7
	c-0.4-0.1-1.2-0.1-1.6,0l-3,0.9"/>
<path class="st14" d="M-590.1,444.5l-3-0.9c-0.4-0.1-1.2-0.1-1.6,0l-2.2,0.7c-0.4,0.1-1.2,0.1-1.6,0l-2.2-0.7
	c-0.4-0.1-1.2-0.1-1.6,0l-3,0.9"/>
<path class="st14" d="M-590.1,442.1l-3-0.9c-0.4-0.1-1.2-0.1-1.6,0l-2.2,0.7c-0.4,0.1-1.2,0.1-1.6,0l-2.2-0.7
	c-0.4-0.1-1.2-0.1-1.6,0l-3,0.9"/>
<path class="st14" d="M-590.1,439.7l-3-0.9c-0.4-0.1-1.2-0.1-1.6,0l-2.2,0.7c-0.4,0.1-1.2,0.1-1.6,0l-2.2-0.7
	c-0.4-0.1-1.2-0.1-1.6,0l-3,0.9"/>
<path class="st14" d="M-590.1,437.2l-3-0.9c-0.4-0.1-1.2-0.1-1.6,0l-2.2,0.7c-0.4,0.1-1.2,0.1-1.6,0l-2.2-0.7
	c-0.4-0.1-1.2-0.1-1.6,0l-3,0.9"/>
</svg>
