<?xml version="1.0" encoding="utf-8"?>
<!-- Generator: Adobe Illustrator 19.1.0, SVG Export Plug-In . SVG Version: 6.00 Build 0)  -->
<svg version="1.1" id="Layer_1" xmlns="http://www.w3.org/2000/svg" xmlns:xlink="http://www.w3.org/1999/xlink" x="0px" y="0px"
	 viewBox="-320 264 150 86" style="enable-background:new -320 264 150 86;" xml:space="preserve">
<style type="text/css">
	.st0{display:none;}
	.st1{display:inline;fill:#F56D3B;}
	.st2{display:inline;fill:#F0F0F0;}
	.st3{display:inline;}
	.st4{fill:#6FD4E8;}
	.st5{fill:#4B5B7D;}
	.st6{fill:#2D3C5C;}
	.st7{opacity:5.000000e-02;}
	.st8{fill:#F0EBE6;}
	.st9{fill:#D3CFC9;}
	.st10{fill:#E57C58;}
	.st11{fill:#C2BEB9;}
	.st12{fill:#B7B3AE;}
	.st13{fill:#FFFFFF;}
	.st14{opacity:5.000000e-02;enable-background:new    ;}
	.st15{opacity:0.1;}
	.st16{fill:#FFFAF5;}
	.st17{fill:#FFAB4A;}
	.st18{opacity:0.1;enable-background:new    ;}
	.st19{fill:#74C7A5;}
	.st20{display:inline;opacity:0.25;enable-background:new    ;}
	.st21{display:inline;opacity:0.1;enable-background:new    ;}
	.st22{display:inline;opacity:0.2;enable-background:new    ;}
	.st23{display:inline;fill:#FFFFFF;}
	.st24{fill:#2C94F2;}
	.st25{fill:#F0F0F0;}
	.st26{opacity:0.2;enable-background:new    ;}
	.st27{opacity:0.25;enable-background:new    ;}
	.st28{opacity:0.2;fill:#333333;}
	.st29{fill:#FAFAFA;stroke:#1B293C;stroke-width:1.3401;stroke-linecap:round;stroke-linejoin:round;stroke-miterlimit:10;}
	.st30{fill:#495463;}
	.st31{fill:#1B293C;}
	.st32{fill:#FFFFFF;stroke:#1B293C;stroke-width:1.3401;stroke-linecap:round;stroke-linejoin:round;stroke-miterlimit:10;}
	.st33{fill:#FAFAFA;stroke:#000000;stroke-width:1.3401;stroke-linecap:round;stroke-linejoin:round;stroke-miterlimit:10;}
	.st34{opacity:0.5;}
	.st35{fill:none;stroke:#1B293C;stroke-width:2.6802;stroke-linecap:round;stroke-linejoin:round;stroke-miterlimit:10;}
	.st36{fill:none;stroke:#EC9D92;stroke-width:2.0102;stroke-linecap:round;stroke-linejoin:round;stroke-miterlimit:10;}
	.st37{fill:none;stroke:#A5E7C9;stroke-width:2.0102;stroke-linecap:round;stroke-linejoin:round;stroke-miterlimit:10;}
	.st38{fill:none;stroke:#FFEB99;stroke-width:2.0102;stroke-linecap:round;stroke-linejoin:round;stroke-miterlimit:10;}
	.st39{fill:none;stroke:#6B96F4;stroke-width:2.0102;stroke-linecap:round;stroke-linejoin:round;stroke-miterlimit:10;}
</style>
<g id="Layer_1_1_" class="st0">
	<rect x="-320" y="327" class="st1" width="150" height="23"/>
	<rect x="-320" y="264" class="st2" width="150" height="63"/>
	<g class="st3">
		<g>
			<path class="st4" d="M-308.5,308.2c-0.3,0-0.6-0.3-0.6-0.6V280c0-0.3,0.3-0.6,0.6-0.6h42.8c0.3,0,0.6,0.3,0.6,0.6v27.6
				c0,0.3-0.3,0.6-0.6,0.6C-265.7,308.2-308.5,308.2-308.5,308.2z"/>
			<path class="st5" d="M-266.9,281.2v25.3h-40.4v-25.3H-266.9 M-265.7,277.7h-42.8c-1.3,0-2.3,1-2.3,2.3v27.6c0,1.3,1,2.3,2.3,2.3
				h42.8c1.3,0,2.3-1,2.3-2.3V280C-263.5,278.8-264.5,277.7-265.7,277.7L-265.7,277.7z"/>
		</g>
		<g>
			<rect x="-292.5" y="310" class="st6" width="10.7" height="8.8"/>
			<path class="st5" d="M-275.8,318.8h-22.7v-0.2c0-1.5,1.2-2.7,2.7-2.7h17.4c1.5,0,2.7,1.2,2.7,2.7V318.8z"/>
		</g>
		<g>
			<g class="st7">
				<rect x="-305.4" y="285.3" width="1.9" height="21.2"/>
			</g>
			<path class="st8" d="M-303.6,283.1v20.8c0,1.4-1.1,2.5-2.5,2.5h20.2c1.4,0,2.5-1.1,2.5-2.5v-14.5l-6-6.3H-303.6z"/>
			<rect x="-292.5" y="290.4" class="st9" width="6.6" height="1.3"/>
			<rect x="-301" y="290.4" class="st10" width="7" height="6.9"/>
			<rect x="-292.5" y="293.2" class="st9" width="6.6" height="1.3"/>
			<rect x="-292.5" y="296" class="st9" width="6.6" height="1.3"/>
			<rect x="-301" y="298.9" class="st11" width="15.2" height="1.3"/>
			<rect x="-301" y="301.7" class="st11" width="15.2" height="1.3"/>
			<rect x="-301" y="304.6" class="st11" width="15.2" height="1.3"/>
			<rect x="-301" y="286.6" class="st12" width="15.2" height="2.2"/>
			<polygon class="st13" points="-289.4,289.4 -283.4,289.4 -289.4,283.1 			"/>
			<polygon class="st14" points="-283.4,289.4 -289.4,289.4 -283.4,294.8 			"/>
		</g>
		<g>
			<g class="st15">
				<rect x="-296.3" y="277.7" width="1.9" height="28.7"/>
			</g>
			<path class="st16" d="M-294.4,273.3v30.6c0,1.4-1.1,2.5-2.5,2.5h24c1.4,0,2.5-1.1,2.5-2.5v-24.3l-6-6.3H-294.4z"/>
			<rect x="-281.1" y="280.6" class="st9" width="8.2" height="1.3"/>
			<rect x="-291.9" y="280.6" class="st17" width="9.2" height="9.8"/>
			<rect x="-281.1" y="283.4" class="st9" width="8.2" height="1.3"/>
			<rect x="-281.1" y="286.3" class="st9" width="8.2" height="1.3"/>
			<rect x="-281.1" y="289.1" class="st9" width="8.2" height="1.3"/>
			<rect x="-291.9" y="291.9" class="st9" width="19" height="1.3"/>
			<rect x="-291.9" y="294.8" class="st9" width="19" height="1.3"/>
			<rect x="-291.9" y="297.6" class="st9" width="9.2" height="1.3"/>
			<rect x="-291.9" y="300.5" class="st9" width="9.2" height="1.3"/>
			<rect x="-291.9" y="303.3" class="st9" width="9.2" height="1.3"/>
			<rect x="-291.9" y="276.8" class="st12" width="19" height="2.2"/>
			<polygon class="st13" points="-276.4,279.6 -270.4,279.6 -276.4,273.3 			"/>
			<polygon class="st18" points="-270.4,279.6 -276.4,279.6 -270.4,285 			"/>
			<rect x="-281.1" y="297.6" class="st19" width="8.2" height="7"/>
		</g>
	</g>
	<path class="st20" d="M-180.3,275h-71.4c-0.7,0-1.3-0.4-1.3-1l0,0c0-0.6,0.6-1,1.3-1h71.4c0.7,0,1.3,0.4,1.3,1l0,0
		C-179,274.6-179.6,275-180.3,275z"/>
	<path class="st21" d="M-180.3,284h-71.4c-0.7,0-1.3-0.4-1.3-1l0,0c0-0.6,0.6-1,1.3-1h71.4c0.7,0,1.3,0.4,1.3,1l0,0
		C-179,283.6-179.6,284-180.3,284z"/>
	<path class="st21" d="M-180.3,293h-71.4c-0.7,0-1.3-0.4-1.3-1l0,0c0-0.6,0.6-1,1.3-1h71.4c0.7,0,1.3,0.4,1.3,1l0,0
		C-179,292.6-179.6,293-180.3,293z"/>
	<path class="st21" d="M-180.3,302h-71.4c-0.7,0-1.3-0.4-1.3-1l0,0c0-0.6,0.6-1,1.3-1h71.4c0.7,0,1.3,0.4,1.3,1l0,0
		C-179,301.6-179.6,302-180.3,302z"/>
	<path class="st21" d="M-180.3,311h-71.4c-0.7,0-1.3-0.4-1.3-1l0,0c0-0.6,0.6-1,1.3-1h71.4c0.7,0,1.3,0.4,1.3,1l0,0
		C-179,310.6-179.6,311-180.3,311z"/>
	<path class="st21" d="M-180.3,320h-71.4c-0.7,0-1.3-0.4-1.3-1l0,0c0-0.6,0.6-1,1.3-1h71.4c0.7,0,1.3,0.4,1.3,1l0,0
		C-179,319.6-179.6,320-180.3,320z"/>
	<path class="st22" d="M-218,343h-92c-0.6,0-1-0.4-1-1v-7c0-0.6,0.4-1,1-1h92c0.6,0,1,0.4,1,1v7C-217,342.6-217.4,343-218,343z"/>
	<path class="st23" d="M-180,343h-30c-0.6,0-1-0.4-1-1v-7c0-0.6,0.4-1,1-1h30c0.6,0,1,0.4,1,1v7C-179,342.6-179.4,343-180,343z"/>
</g>
<g id="Layer_2">
	<rect x="-320" y="327" class="st24" width="150" height="23"/>
	<rect x="-320" y="264" class="st25" width="150" height="63"/>
	<path class="st26" d="M-219,343h-90c-1.1,0-2-0.9-2-2v-5c0-1.1,0.9-2,2-2h90c1.1,0,2,0.9,2,2v5C-217,342.1-217.9,343-219,343z"/>
	<path class="st13" d="M-181,343h-28c-1.1,0-2-0.9-2-2v-5c0-1.1,0.9-2,2-2h28c1.1,0,2,0.9,2,2v5C-179,342.1-179.9,343-181,343z"/>
	<path class="st27" d="M-180.3,275h-71.4c-0.7,0-1.3-0.4-1.3-1l0,0c0-0.6,0.6-1,1.3-1h71.4c0.7,0,1.3,0.4,1.3,1l0,0
		C-179,274.6-179.6,275-180.3,275z"/>
	<path class="st18" d="M-180.3,284h-71.4c-0.7,0-1.3-0.4-1.3-1l0,0c0-0.6,0.6-1,1.3-1h71.4c0.7,0,1.3,0.4,1.3,1l0,0
		C-179,283.6-179.6,284-180.3,284z"/>
	<path class="st18" d="M-180.3,293h-71.4c-0.7,0-1.3-0.4-1.3-1l0,0c0-0.6,0.6-1,1.3-1h71.4c0.7,0,1.3,0.4,1.3,1l0,0
		C-179,292.6-179.6,293-180.3,293z"/>
	<path class="st18" d="M-180.3,302h-71.4c-0.7,0-1.3-0.4-1.3-1l0,0c0-0.6,0.6-1,1.3-1h71.4c0.7,0,1.3,0.4,1.3,1l0,0
		C-179,301.6-179.6,302-180.3,302z"/>
	<path class="st18" d="M-180.3,311h-71.4c-0.7,0-1.3-0.4-1.3-1l0,0c0-0.6,0.6-1,1.3-1h71.4c0.7,0,1.3,0.4,1.3,1l0,0
		C-179,310.6-179.6,311-180.3,311z"/>
	<path class="st18" d="M-180.3,320h-71.4c-0.7,0-1.3-0.4-1.3-1l0,0c0-0.6,0.6-1,1.3-1h71.4c0.7,0,1.3,0.4,1.3,1l0,0
		C-179,319.6-179.6,320-180.3,320z"/>
</g>
<ellipse class="st28" cx="-286.9" cy="316.8" rx="22.9" ry="1.8"/>
<path class="st29" d="M-262.5,307.1c0,1.1-0.9,2-2,2h-45.4c-1.1,0-2-0.9-2-2v-30.8c0-1.1,0.9-2,2-2h45.4c1.1,0,2,0.9,2,2V307.1z"/>
<g>
	<path class="st30" d="M-311.3,306c-0.2,0-0.3-0.1-0.3-0.3v-27.5c0-0.2,0.1-0.3,0.3-0.3h48.1c0.2,0,0.3,0.1,0.3,0.3v27.5
		c0,0.2-0.1,0.3-0.3,0.3H-311.3z"/>
	<g>
		<path class="st31" d="M-263.1,278.2v27.5h-48.1v-27.5H-263.1 M-263.1,277.5h-48.1c-0.4,0-0.7,0.3-0.7,0.7v27.5
			c0,0.4,0.3,0.7,0.7,0.7h48.1c0.4,0,0.7-0.3,0.7-0.7v-27.5C-262.5,277.8-262.8,277.5-263.1,277.5L-263.1,277.5z"/>
	</g>
</g>
<path class="st32" d="M-293.2,316.5c0-3.7,2.7-7.3,6.2-7.3s6.2,3.7,6.2,7.3H-293.2z"/>
<path class="st33" d="M-286.9,315.2"/>
<g class="st34">
	<line class="st35" x1="-294.7" y1="299.5" x2="-294.7" y2="295.7"/>
	<line class="st35" x1="-290.8" y1="299.5" x2="-290.8" y2="286.1"/>
	<line class="st35" x1="-287" y1="299.5" x2="-287" y2="291.8"/>
	<line class="st35" x1="-283.1" y1="299.5" x2="-283.1" y2="289.9"/>
	<line class="st35" x1="-279.3" y1="299.5" x2="-279.3" y2="284.1"/>
</g>
<g>
	<line class="st36" x1="-295.3" y1="298.8" x2="-295.3" y2="295"/>
	<line class="st37" x1="-291.5" y1="298.8" x2="-291.5" y2="285.4"/>
	<line class="st38" x1="-287.7" y1="298.8" x2="-287.7" y2="291.2"/>
	<line class="st39" x1="-283.8" y1="298.8" x2="-283.8" y2="289.2"/>
	<line class="st37" x1="-280" y1="298.8" x2="-280" y2="283.5"/>
</g>
</svg>
