<?xml version="1.0" encoding="utf-8"?>
<!-- Generator: Adobe Illustrator 19.1.0, SVG Export Plug-In . SVG Version: 6.00 Build 0)  -->
<svg version="1.1" id="Layer_1" xmlns="http://www.w3.org/2000/svg" xmlns:xlink="http://www.w3.org/1999/xlink" x="0px" y="0px"
	 viewBox="-320 264 150 86" style="enable-background:new -320 264 150 86;" xml:space="preserve">
<style type="text/css">
	.st0{fill:#DD4242;}
	.st1{opacity:0.6;fill:#FFFFFF;enable-background:new    ;}
	.st2{opacity:0.45;fill:#FFFFFF;enable-background:new    ;}
	.st3{fill:#F0F0F0;}
	.st4{fill:#3B3B3B;}
	.st5{opacity:0.2;enable-background:new    ;}
	.st6{display:none;}
	.st7{opacity:0.75;}
	.st8{fill:#FFF5CC;stroke:#1B293C;stroke-width:0.4543;stroke-linecap:round;stroke-linejoin:round;stroke-miterlimit:10;}
	.st9{opacity:0.35;fill:#293342;enable-background:new    ;}
	.st10{fill:none;stroke:#1B293C;stroke-width:0.4543;stroke-linecap:round;stroke-linejoin:round;stroke-miterlimit:10;}
	.st11{opacity:0.5;}
	.st12{fill:#FFF5CC;stroke:#1B293C;stroke-width:0.356;stroke-linecap:round;stroke-linejoin:round;stroke-miterlimit:10;}
	.st13{fill:none;stroke:#1B293C;stroke-width:0.356;stroke-linecap:round;stroke-linejoin:round;stroke-miterlimit:10;}
	.st14{opacity:0.2;}
	.st15{fill:#FFF5CC;stroke:#1B293C;stroke-width:0.2953;stroke-linecap:round;stroke-linejoin:round;stroke-miterlimit:10;}
	.st16{fill:none;stroke:#1B293C;stroke-width:0.2953;stroke-linecap:round;stroke-linejoin:round;stroke-miterlimit:10;}
	.st17{fill:#E05B49;stroke:#000000;stroke-width:1.1699;stroke-linecap:round;stroke-linejoin:round;stroke-miterlimit:10;}
	.st18{fill:none;stroke:#000000;stroke-width:0.585;stroke-linejoin:round;stroke-miterlimit:10;}
	.st19{fill:none;stroke:#FFCC01;stroke-width:0.585;stroke-linecap:round;stroke-linejoin:round;stroke-miterlimit:10;}
	.st20{fill:#FFFFFF;}
	.st21{fill:none;stroke:#EC9D92;stroke-width:0.9888;stroke-linecap:round;stroke-linejoin:round;stroke-miterlimit:10;}
</style>
<g id="Layer_1_1_">
	<rect x="-320" y="264" class="st0" width="150" height="86"/>
	<path class="st1" d="M-230,322.5h-80c-0.6,0-1-0.4-1-1l0,0c0-0.6,0.4-1,1-1h80c0.6,0,1,0.4,1,1l0,0
		C-229,322.1-229.4,322.5-230,322.5z"/>
	<path class="st2" d="M-230,331.5h-80c-0.6,0-1-0.4-1-1l0,0c0-0.6,0.4-1,1-1h80c0.6,0,1,0.4,1,1l0,0
		C-229,331.1-229.4,331.5-230,331.5z"/>
	<path class="st2" d="M-230,340.5h-80c-0.6,0-1-0.4-1-1l0,0c0-0.6,0.4-1,1-1h80c0.6,0,1,0.4,1,1l0,0
		C-229,340.1-229.4,340.5-230,340.5z"/>
	<rect x="-220" y="264" class="st3" width="50" height="86"/>
	<path class="st4" d="M-181,327h-28c-1.1,0-2-0.9-2-2v-5c0-1.1,0.9-2,2-2h28c1.1,0,2,0.9,2,2v5C-179,326.1-179.9,327-181,327z"/>
	<path class="st5" d="M-181,312h-28c-1.1,0-2-0.9-2-2v-5c0-1.1,0.9-2,2-2h28c1.1,0,2,0.9,2,2v5C-179,311.1-179.9,312-181,312z"/>
	<path class="st5" d="M-181,297h-28c-1.1,0-2-0.9-2-2v-5c0-1.1,0.9-2,2-2h28c1.1,0,2,0.9,2,2v5C-179,296.1-179.9,297-181,297z"/>
	
		<rect x="-222.8" y="304.2" transform="matrix(-0.7071 -0.7071 0.7071 -0.7071 -592.6458 368.5175)" class="st0" width="5.7" height="5.7"/>
</g>
<g id="Layer_2" class="st6">
</g>
<g class="st7">
	<path class="st8" d="M-279.9,289.5l-1.9-6.1c-0.1-0.4,0.1-0.7,0.4-0.9l8.7-2.7c0.4-0.1,0.7,0.1,0.9,0.4l1.9,6.1
		c0.1,0.4-0.1,0.7-0.4,0.9l-8.7,2.8C-279.4,290.1-279.8,289.9-279.9,289.5z"/>
	<path class="st9" d="M-272,280.5l-2.5,5.6c-0.3,0.6-1.5,0.9-2,0.6l-5-3.1l-0.1-0.4l9.5-3L-272,280.5z"/>
	<path class="st8" d="M-272.4,280.2l-2.4,5c-0.4,0.8-1.3,1.1-2,0.6l-4.8-2.7"/>
	<line class="st10" x1="-274.6" y1="284.7" x2="-271.5" y2="286.1"/>
	<line class="st10" x1="-277.2" y1="285.6" x2="-278.9" y2="288.5"/>
</g>
<g class="st7">
	<path class="st8" d="M-306.6,301.1l1-6.3c0.1-0.4,0.4-0.6,0.8-0.6l9,1.5c0.4,0.1,0.6,0.4,0.6,0.8l-1,6.3c-0.1,0.4-0.4,0.6-0.8,0.6
		l-9-1.4C-306.4,301.9-306.6,301.5-306.6,301.1z"/>
	<path class="st9" d="M-295.5,296.6l-4.7,3.9c-0.5,0.4-1.7,0.1-2-0.3l-3.1-5l0.1-0.4l9.9,1.6L-295.5,296.6z"/>
	<path class="st8" d="M-295.7,296.1l-4.4,3.4c-0.7,0.5-1.6,0.4-2.1-0.3l-3.1-4.6"/>
	<line class="st10" x1="-299.7" y1="299.2" x2="-297.6" y2="301.8"/>
	<line class="st10" x1="-302.4" y1="298.8" x2="-305.2" y2="300.6"/>
</g>
<g class="st11">
	<path class="st12" d="M-280.1,299.6l1.2-4.9c0.1-0.3,0.4-0.5,0.6-0.4l6.9,1.7c0.3,0.1,0.5,0.4,0.4,0.6l-1.2,4.8
		c-0.1,0.3-0.4,0.5-0.6,0.4l-6.9-1.6C-280,300.2-280.1,299.9-280.1,299.6z"/>
	<path class="st9" d="M-271.1,296.8l-3.9,2.8c-0.4,0.3-1.4,0-1.6-0.4l-2.2-4.1l0.1-0.3l7.6,1.8V296.8z"/>
	<path class="st12" d="M-271.3,296.3l-3.6,2.4c-0.6,0.4-1.3,0.2-1.6-0.4l-2.1-3.8"/>
	<line class="st13" x1="-274.6" y1="298.5" x2="-273.1" y2="300.7"/>
	<line class="st13" x1="-276.7" y1="298" x2="-278.9" y2="299.3"/>
</g>
<path class="st12" d="M-290.6,278.3l0.8,4.9c0,0.3-0.1,0.6-0.4,0.6l-7,1.2c-0.3,0-0.5-0.2-0.6-0.4l-0.8-4.9c0-0.3,0.1-0.6,0.4-0.6
	l7-1.2"/>
<path class="st9" d="M-290.7,278.4l-2.5,4.1c-0.3,0.4-1.2,0.5-1.6,0.3l-3.6-2.9l-0.1-0.3l7.7-1.3"/>
<path class="st12" d="M-291,278.1l-2.4,3.6c-0.4,0.6-1.1,0.7-1.6,0.3l-3.5-2.6"/>
<line class="st13" x1="-293.1" y1="281.4" x2="-290.9" y2="282.8"/>
<line class="st13" x1="-295.3" y1="281.7" x2="-296.9" y2="283.8"/>
<g class="st14">
	<path class="st15" d="M-293,292.2l0.4-4.1c0-0.2,0.2-0.4,0.5-0.4l5.9,0.6c0.2,0,0.4,0.2,0.4,0.5l-0.4,4.1c0,0.2-0.2,0.4-0.5,0.4
		l-5.9-0.5C-292.9,292.6-293.1,292.4-293,292.2z"/>
	<path class="st9" d="M-286,288.8l-2.9,2.7c-0.3,0.3-1.1,0.2-1.3-0.1l-2.2-3.1V288l6.5,0.6L-286,288.8z"/>
	<path class="st15" d="M-286.2,288.5l-2.7,2.4c-0.4,0.4-1,0.3-1.4-0.1l-2.2-2.8"/>
	<line class="st16" x1="-288.6" y1="290.6" x2="-287.2" y2="292.2"/>
	<line class="st16" x1="-290.4" y1="290.5" x2="-292.1" y2="291.8"/>
</g>
<g class="st14">
	<path class="st15" d="M-310.3,291.6l-1.5-3.9c-0.1-0.2,0-0.5,0.2-0.6l5.5-2.2c0.2-0.1,0.5,0,0.6,0.2l1.5,3.8c0.1,0.2,0,0.5-0.2,0.6
		l-5.5,2.2C-309.9,291.9-310.2,291.8-310.3,291.6z"/>
	<path class="st9" d="M-305.6,285.3l-1.3,3.8c-0.1,0.4-0.9,0.7-1.2,0.5l-3.4-1.7l-0.1-0.3l6-2.4V285.3z"/>
	<path class="st15" d="M-305.9,285.1l-1.3,3.3c-0.2,0.5-0.8,0.7-1.3,0.5l-3.3-1.5"/>
	<line class="st16" x1="-307.1" y1="288.2" x2="-305" y2="288.9"/>
	<line class="st16" x1="-308.8" y1="288.8" x2="-309.7" y2="290.8"/>
</g>
<path class="st17" d="M-249.4,300.8h8.9c5,0,9.4-3.9,9.6-8.9c0.3-5.4-4-9.8-9.3-9.8h-9.2c-0.3,0-0.6,0.3-0.6,0.6v3.5
	c0,0.3,0.3,0.6,0.6,0.6h9c2.6,0,4.9,2.1,4.9,4.8c0,2.5-2.1,4.6-4.6,4.6h-9.2c-0.3,0-0.6,0.3-0.6,0.6v3.5
	C-249.9,300.5-249.7,300.8-249.4,300.8z"/>
<line class="st18" x1="-246.4" y1="300.2" x2="-246.4" y2="296.7"/>
<line class="st18" x1="-246.4" y1="286.2" x2="-246.4" y2="282.6"/>
<line class="st19" x1="-252.3" y1="298.4" x2="-253.4" y2="298.4"/>
<line class="st19" x1="-255.8" y1="298.4" x2="-257" y2="298.4"/>
<line class="st19" x1="-252.3" y1="284.4" x2="-253.4" y2="284.4"/>
<line class="st19" x1="-255.8" y1="284.4" x2="-257" y2="284.4"/>
<line class="st19" x1="-259.2" y1="298.4" x2="-260.3" y2="298.4"/>
<line class="st19" x1="-262.7" y1="298.4" x2="-263.8" y2="298.4"/>
<line class="st19" x1="-259.2" y1="284.4" x2="-260.3" y2="284.4"/>
<line class="st19" x1="-262.7" y1="284.4" x2="-263.8" y2="284.4"/>
<rect x="-249.4" y="282.7" class="st20" width="2.7" height="3.5"/>
<rect x="-249.4" y="296.7" class="st20" width="2.7" height="3.5"/>
<path class="st21" d="M-245.5,299.3h5.2c4.2,0,7.9-3.3,8.1-7.6c0.2-4.6-3.4-8.3-7.9-8.3h-5.4"/>
</svg>
