<?xml version="1.0" encoding="utf-8"?>
<!-- Generator: Adobe Illustrator 19.1.0, SVG Export Plug-In . SVG Version: 6.00 Build 0)  -->
<svg version="1.1" id="Layer_1" xmlns="http://www.w3.org/2000/svg" xmlns:xlink="http://www.w3.org/1999/xlink" x="0px" y="0px"
	 viewBox="-320 264 150 86" style="enable-background:new -320 264 150 86;" xml:space="preserve">
<style type="text/css">
	.st0{fill:#F0F0F0;}
	.st1{fill:#D4D4D4;}
	.st2{fill:#A153E0;}
	.st3{fill:#FFFFFF;}
	.st4{opacity:0.1;enable-background:new    ;}
	.st5{display:none;}
	.st6{opacity:0.2;fill:#333333;}
	.st7{fill:#FAFAFA;stroke:#1B293C;stroke-width:1.0269;stroke-linecap:round;stroke-linejoin:round;stroke-miterlimit:10;}
	.st8{fill:none;stroke:#1B293C;stroke-width:0.5134;stroke-linecap:round;stroke-linejoin:round;stroke-miterlimit:10;}
	.st9{fill:#D2ECFB;}
	.st10{fill:#1B293C;}
	.st11{fill:#FFF5CC;stroke:#1B293C;stroke-width:0.6071;stroke-linecap:round;stroke-linejoin:round;stroke-miterlimit:10;}
	.st12{opacity:0.35;fill:#293342;}
	.st13{fill:none;stroke:#1B293C;stroke-width:0.6071;stroke-linecap:round;stroke-linejoin:round;stroke-miterlimit:10;}
	.st14{opacity:0.75;}
	.st15{fill:#FFF5CC;stroke:#1B293C;stroke-width:0.3987;stroke-linecap:round;stroke-linejoin:round;stroke-miterlimit:10;}
	.st16{fill:none;stroke:#1B293C;stroke-width:0.3987;stroke-linecap:round;stroke-linejoin:round;stroke-miterlimit:10;}
	.st17{opacity:0.5;}
	.st18{fill:#FFF5CC;stroke:#1B293C;stroke-width:0.3125;stroke-linecap:round;stroke-linejoin:round;stroke-miterlimit:10;}
	.st19{fill:none;stroke:#1B293C;stroke-width:0.3125;stroke-linecap:round;stroke-linejoin:round;stroke-miterlimit:10;}
	.st20{opacity:0.2;}
	.st21{fill:#FFF5CC;stroke:#1B293C;stroke-width:0.2591;stroke-linecap:round;stroke-linejoin:round;stroke-miterlimit:10;}
	.st22{fill:none;stroke:#1B293C;stroke-width:0.2591;stroke-linecap:round;stroke-linejoin:round;stroke-miterlimit:10;}
</style>
<g id="Layer_1_1_">
	<rect x="-320" y="264" class="st0" width="150" height="86"/>
	<rect x="-220" y="264" class="st1" width="50" height="86"/>
	<path class="st2" d="M-181,327h-28c-1.1,0-2-0.9-2-2v-5c0-1.1,0.9-2,2-2h28c1.1,0,2,0.9,2,2v5C-179,326.1-179.9,327-181,327z"/>
	<path class="st3" d="M-181,312h-28c-1.1,0-2-0.9-2-2v-5c0-1.1,0.9-2,2-2h28c1.1,0,2,0.9,2,2v5C-179,311.1-179.9,312-181,312z"/>
	<path class="st3" d="M-181,297h-28c-1.1,0-2-0.9-2-2v-5c0-1.1,0.9-2,2-2h28c1.1,0,2,0.9,2,2v5C-179,296.1-179.9,297-181,297z"/>
	<path class="st4" d="M-230,323h-80c-0.6,0-1-0.4-1-1l0,0c0-0.6,0.4-1,1-1h80c0.6,0,1,0.4,1,1l0,0C-229,322.6-229.4,323-230,323z"/>
	<path class="st4" d="M-230,332h-80c-0.6,0-1-0.4-1-1l0,0c0-0.6,0.4-1,1-1h80c0.6,0,1,0.4,1,1l0,0C-229,331.6-229.4,332-230,332z"/>
	<path class="st4" d="M-230,341h-80c-0.6,0-1-0.4-1-1l0,0c0-0.6,0.4-1,1-1h80c0.6,0,1,0.4,1,1l0,0C-229,340.6-229.4,341-230,341z"/>
</g>
<g id="Layer_2" class="st5">
</g>
<ellipse class="st6" cx="-270.6" cy="312.1" rx="8.6" ry="1.4"/>
<path class="st7" d="M-280.4,274c0-1.2,1-2.1,2.1-2.1h14.2c1.2,0,2.1,1,2.1,2.1v28.4c0,1.2-1,2.1-2.1,2.1h-14.2
	c-1.2,0-2.1-1-2.1-2.1V274z"/>
<line class="st8" x1="-269.8" y1="274.7" x2="-272.6" y2="274.7"/>
<g>
	<path class="st9" d="M-280,299.4c-0.1,0-0.3-0.1-0.3-0.3v-21c0-0.1,0.1-0.3,0.3-0.3h17.6c0.1,0,0.3,0.1,0.3,0.3v21
		c0,0.1-0.1,0.3-0.3,0.3H-280z"/>
	<g>
		<path class="st10" d="M-262.4,278.1v21H-280v-21H-262.4 M-262.4,277.6H-280c-0.3,0-0.5,0.2-0.5,0.5v21c0,0.3,0.2,0.5,0.5,0.5h17.6
			c0.3,0,0.5-0.2,0.5-0.5v-21C-261.9,277.8-262.1,277.6-262.4,277.6L-262.4,277.6z"/>
	</g>
</g>
<circle class="st8" cx="-271.2" cy="301.9" r="1.5"/>
<g>
	<path class="st11" d="M-264,292.1v-8.5c0-0.5-0.4-0.9-0.9-0.9H-277c-0.5,0-0.9,0.4-0.9,0.9v8.5c0,0.5,0.4,0.9,0.9,0.9l12.1,0
		C-264.4,293-264,292.6-264,292.1z"/>
	<path class="st12" d="M-277.6,283.8l5.4,6.2c0.6,0.6,2.2,0.5,2.7,0l5.2-5.9v-0.6h-13.3L-277.6,283.8z"/>
	<path class="st11" d="M-277.3,283.2l5.1,5.4c0.8,0.8,2,0.8,2.8,0l5.1-5.4"/>
	<line class="st13" x1="-272.7" y1="288.1" x2="-276" y2="291.1"/>
	<line class="st13" x1="-269" y1="288.1" x2="-265.7" y2="291.2"/>
</g>
<g class="st14">
	<path class="st15" d="M-250.2,286.3l1.7-5.3c0.1-0.3-0.1-0.7-0.4-0.8l-7.6-2.4c-0.3-0.1-0.7,0.1-0.8,0.4l-1.7,5.3
		c-0.1,0.3,0.1,0.7,0.4,0.8l7.6,2.4C-250.7,286.8-250.3,286.6-250.2,286.3z"/>
	<path class="st12" d="M-257.1,278.4l2.2,4.9c0.2,0.5,1.3,0.8,1.7,0.5l4.4-2.7l0.1-0.4l-8.4-2.6L-257.1,278.4z"/>
	<path class="st15" d="M-256.8,278.1l2.1,4.4c0.3,0.7,1.1,0.9,1.8,0.6l4.2-2.4"/>
	<line class="st16" x1="-254.9" y1="282.1" x2="-257.6" y2="283.3"/>
	<line class="st16" x1="-252.6" y1="282.8" x2="-251.1" y2="285.4"/>
</g>
<g class="st17">
	<path class="st18" d="M-250.1,295.2l-1-4.3c-0.1-0.3-0.3-0.4-0.6-0.3l-6.1,1.5c-0.3,0.1-0.4,0.3-0.3,0.6l1,4.3
		c0.1,0.3,0.3,0.4,0.6,0.3l6.1-1.4C-250.2,295.7-250,295.4-250.1,295.2z"/>
	<path class="st12" d="M-257.9,292.6l3.5,2.4c0.4,0.2,1.2,0,1.4-0.3l1.9-3.6l-0.1-0.3l-6.7,1.6L-257.9,292.6z"/>
	<path class="st18" d="M-257.8,292.3l3.2,2.1c0.5,0.3,1.1,0.2,1.4-0.3l1.9-3.3"/>
	<line class="st19" x1="-254.9" y1="294.2" x2="-256.2" y2="296.1"/>
	<line class="st19" x1="-253.1" y1="293.7" x2="-251.1" y2="294.9"/>
</g>
<g class="st20">
	<path class="st21" d="M-241.3,291.8l1.1-3.5c0.1-0.2,0-0.4-0.2-0.5l-4.9-1.6c-0.2-0.1-0.4,0-0.5,0.2l-1.1,3.4
		c-0.1,0.2,0,0.4,0.2,0.5l4.9,1.6C-241.6,292.1-241.4,292-241.3,291.8z"/>
	<path class="st12" d="M-245.8,286.6l1.4,3.2c0.1,0.3,0.8,0.5,1.1,0.4l2.9-1.7l0.1-0.2l-5.4-1.8L-245.8,286.6z"/>
	<path class="st21" d="M-245.6,286.4l1.3,2.9c0.2,0.4,0.7,0.6,1.1,0.4l2.8-1.5"/>
	<line class="st22" x1="-244.3" y1="289" x2="-246.1" y2="289.8"/>
	<line class="st22" x1="-242.8" y1="289.5" x2="-241.9" y2="291.2"/>
</g>
<g class="st14">
	<path class="st15" d="M-292.1,286.3l-1.7-5.3c-0.1-0.3,0.1-0.7,0.4-0.8l7.6-2.4c0.3-0.1,0.7,0.1,0.8,0.4l1.7,5.3
		c0.1,0.3-0.1,0.7-0.4,0.8l-7.6,2.4C-291.7,286.8-292,286.6-292.1,286.3z"/>
	<path class="st12" d="M-285.2,278.4l-2.2,4.9c-0.2,0.5-1.3,0.8-1.7,0.5l-4.4-2.7l-0.1-0.4l8.4-2.6L-285.2,278.4z"/>
	<path class="st15" d="M-285.5,278.1l-2.1,4.4c-0.3,0.7-1.1,0.9-1.8,0.6l-4.2-2.4"/>
	<line class="st16" x1="-287.4" y1="282.1" x2="-284.8" y2="283.3"/>
	<line class="st16" x1="-289.7" y1="282.8" x2="-291.2" y2="285.4"/>
</g>
<g class="st17">
	<path class="st18" d="M-292.2,295.2l1-4.3c0.1-0.3,0.3-0.4,0.6-0.3l6.1,1.5c0.3,0.1,0.4,0.3,0.3,0.6l-1,4.3
		c-0.1,0.3-0.3,0.4-0.6,0.3l-6.1-1.4C-292.1,295.7-292.3,295.4-292.2,295.2z"/>
	<path class="st12" d="M-284.4,292.6l-3.5,2.4c-0.4,0.2-1.2,0-1.4-0.3l-1.9-3.6l0.1-0.3l6.7,1.6L-284.4,292.6z"/>
	<path class="st18" d="M-284.5,292.3l-3.2,2.1c-0.5,0.3-1.1,0.2-1.4-0.3l-1.9-3.3"/>
	<line class="st19" x1="-287.4" y1="294.2" x2="-286.1" y2="296.1"/>
	<line class="st19" x1="-289.2" y1="293.7" x2="-291.2" y2="294.9"/>
</g>
<g class="st20">
	<path class="st21" d="M-301,291.8l-1.1-3.5c-0.1-0.2,0-0.4,0.2-0.5l4.9-1.6c0.2-0.1,0.4,0,0.5,0.2l1.1,3.4c0.1,0.2,0,0.4-0.2,0.5
		l-4.9,1.6C-300.7,292.1-300.9,292-301,291.8z"/>
	<path class="st12" d="M-296.5,286.6l-1.4,3.2c-0.1,0.3-0.8,0.5-1.1,0.4l-2.9-1.7l-0.1-0.2l5.4-1.8L-296.5,286.6z"/>
	<path class="st21" d="M-296.8,286.4l-1.3,2.9c-0.2,0.4-0.7,0.6-1.1,0.4l-2.8-1.5"/>
	<line class="st22" x1="-298" y1="289" x2="-296.2" y2="289.8"/>
	<line class="st22" x1="-299.5" y1="289.5" x2="-300.4" y2="291.2"/>
</g>
</svg>
