<?xml version="1.0" encoding="utf-8"?>
<!-- Generator: Adobe Illustrator 19.1.0, SVG Export Plug-In . SVG Version: 6.00 Build 0)  -->
<svg version="1.1" id="Layer_1" xmlns="http://www.w3.org/2000/svg" xmlns:xlink="http://www.w3.org/1999/xlink" x="0px" y="0px"
	 viewBox="-320 264 150 86" style="enable-background:new -320 264 150 86;" xml:space="preserve">
<style type="text/css">
	.st0{fill:#F2F2F2;}
	.st1{fill:#D4D4D4;}
	.st2{opacity:0.25;enable-background:new    ;}
	.st3{opacity:0.1;enable-background:new    ;}
	.st4{fill:#FFFFFF;}
	.st5{fill:#A153E0;}
	.st6{display:none;}
	.st7{fill:#FAFAFA;stroke:#1B293C;stroke-width:0.9859;stroke-linecap:round;stroke-linejoin:round;stroke-miterlimit:10;}
	.st8{fill:#D2ECFB;}
	.st9{fill:#1B293C;}
	.st10{fill:#FAFAFA;stroke:#000000;stroke-width:0.9859;stroke-linecap:round;stroke-linejoin:round;stroke-miterlimit:10;}
	.st11{fill:#F9DEDB;stroke:#000000;stroke-width:0.6859;stroke-linecap:round;stroke-linejoin:round;stroke-miterlimit:10;}
	.st12{fill:#FFFFFF;stroke:#000000;stroke-width:0.6859;stroke-linecap:round;stroke-linejoin:round;stroke-miterlimit:10;}
	.st13{fill:none;stroke:#999999;stroke-width:0.3429;stroke-linecap:round;stroke-linejoin:round;stroke-miterlimit:10;}
	.st14{fill:#E05B49;stroke:#000000;stroke-width:0.3429;stroke-linecap:round;stroke-linejoin:round;stroke-miterlimit:10;}
	.st15{opacity:0.35;fill:#293342;}
	.st16{opacity:0.75;}
	.st17{fill:#FFF5CC;stroke:#1B293C;stroke-width:0.3828;stroke-linecap:round;stroke-linejoin:round;stroke-miterlimit:10;}
	.st18{fill:none;stroke:#1B293C;stroke-width:0.3828;stroke-linecap:round;stroke-linejoin:round;stroke-miterlimit:10;}
	.st19{opacity:0.5;}
	.st20{fill:#FFF5CC;stroke:#1B293C;stroke-width:0.3;stroke-linecap:round;stroke-linejoin:round;stroke-miterlimit:10;}
	.st21{fill:none;stroke:#1B293C;stroke-width:0.3;stroke-linecap:round;stroke-linejoin:round;stroke-miterlimit:10;}
	.st22{opacity:0.2;}
	.st23{fill:#FFF5CC;stroke:#1B293C;stroke-width:0.2488;stroke-linecap:round;stroke-linejoin:round;stroke-miterlimit:10;}
	.st24{fill:none;stroke:#1B293C;stroke-width:0.2488;stroke-linecap:round;stroke-linejoin:round;stroke-miterlimit:10;}
</style>
<rect x="-320" y="264" class="st0" width="150" height="63"/>
<rect x="-320" y="327" class="st1" width="150" height="23"/>
<path class="st2" d="M-180,309h-130c-0.6,0-1-0.4-1-1l0,0c0-0.6,0.4-1,1-1h130c0.6,0,1,0.4,1,1l0,0C-179,308.6-179.4,309-180,309z"
	/>
<path class="st3" d="M-180,318h-130c-0.6,0-1-0.4-1-1l0,0c0-0.6,0.4-1,1-1h130c0.6,0,1,0.4,1,1l0,0C-179,317.6-179.4,318-180,318z"
	/>
<path class="st4" d="M-219,343h-90c-1.1,0-2-0.9-2-2v-5c0-1.1,0.9-2,2-2h90c1.1,0,2,0.9,2,2v5C-217,342.1-217.9,343-219,343z"/>
<path class="st5" d="M-181,343h-28c-1.1,0-2-0.9-2-2v-5c0-1.1,0.9-2,2-2h28c1.1,0,2,0.9,2,2v5C-179,342.1-179.9,343-181,343z"/>
<g id="Layer_2" class="st6">
</g>
<path class="st7" d="M-226.8,295.4c0,0.8-0.7,1.5-1.5,1.5h-33.4c-0.8,0-1.5-0.7-1.5-1.5v-22.6c0-0.8,0.7-1.5,1.5-1.5h33.4
	c0.8,0,1.5,0.7,1.5,1.5V295.4z"/>
<g>
	<path class="st8" d="M-262.6,294.5c-0.1,0-0.2-0.1-0.2-0.2v-20.2c0-0.1,0.1-0.2,0.2-0.2h35.4c0.1,0,0.2,0.1,0.2,0.2v20.2
		c0,0.1-0.1,0.2-0.2,0.2H-262.6z"/>
	<path class="st9" d="M-227.2,274.1v20.2h-35.4v-20.2H-227.2 M-227.2,273.6h-35.4c-0.3,0-0.5,0.2-0.5,0.5v20.2
		c0,0.3,0.2,0.5,0.5,0.5h35.4c0.3,0,0.5-0.2,0.5-0.5v-20.2C-226.7,273.8-227,273.6-227.2,273.6L-227.2,273.6z"/>
</g>
<path class="st7" d="M-249.3,302.2c0-2.7,2-5.4,4.6-5.4s4.6,2.7,4.6,5.4H-249.3z"/>
<path class="st10" d="M-244.7,301.3"/>
<path class="st11" d="M-252.8,289.9c0,1.4,1.7,2.4,3.1,1.1c0.2-0.2,0.3-0.5,0.3-0.7v-12.3h-3c-0.3,0-0.5,0.2-0.5,0.5V289.9z"/>
<path class="st12" d="M-251,291.8h13.6c0.3,0,0.5-0.2,0.5-0.5v-14.8c0-0.3-0.2-0.5-0.5-0.5h-11.4c-0.3,0-0.5,0.2-0.5,0.5v13.6
	C-249.3,290.1-249.5,291.8-251,291.8z"/>
<line class="st13" x1="-247.6" y1="280.8" x2="-244.2" y2="280.8"/>
<line class="st13" x1="-247.7" y1="278.8" x2="-238.7" y2="278.8"/>
<line class="st13" x1="-247.6" y1="282.9" x2="-245.6" y2="282.9"/>
<line class="st13" x1="-247.6" y1="284.9" x2="-244.2" y2="284.9"/>
<rect x="-242.5" y="280.8" class="st14" width="4.1" height="4.1"/>
<line class="st13" x1="-247.7" y1="287" x2="-238.7" y2="287"/>
<line class="st13" x1="-247.7" y1="289.1" x2="-240.9" y2="289.1"/>
<path class="st15" d="M-249.7,278.4l-0.4,0c-0.1,4.6-0.4,12.8-1.5,12.8c0,0,1.7,0.6,2-1C-249.1,288.4-249.7,278.4-249.7,278.4z"/>
<g class="st16">
	<path class="st17" d="M-212.9,282.3l1.6-5.1c0.1-0.3-0.1-0.6-0.4-0.7l-7.3-2.3c-0.3-0.1-0.6,0.1-0.7,0.4l-1.6,5.1
		c-0.1,0.3,0.1,0.6,0.4,0.7l7.3,2.3C-213.3,282.7-213,282.6-212.9,282.3z"/>
	<path class="st15" d="M-219.5,274.7l2.1,4.7c0.2,0.5,1.2,0.8,1.7,0.5l4.3-2.6l0.1-0.4l-8-2.5L-219.5,274.7z"/>
	<path class="st17" d="M-219.2,274.4l2,4.2c0.3,0.6,1.1,0.9,1.7,0.5l4.1-2.3"/>
	<line class="st18" x1="-217.4" y1="278.2" x2="-219.9" y2="279.4"/>
	<line class="st18" x1="-215.1" y1="278.9" x2="-213.8" y2="281.4"/>
</g>
<g class="st19">
	<path class="st20" d="M-212.7,290.8l-1-4.1c-0.1-0.2-0.3-0.4-0.5-0.3l-5.8,1.4c-0.2,0.1-0.4,0.3-0.3,0.5l1,4.1
		c0.1,0.2,0.3,0.4,0.5,0.3l5.8-1.4C-212.8,291.2-212.7,291-212.7,290.8z"/>
	<path class="st15" d="M-220.3,288.3l3.3,2.3c0.3,0.2,1.1,0,1.3-0.3l1.8-3.4l-0.1-0.3l-6.4,1.5L-220.3,288.3z"/>
	<path class="st20" d="M-220.2,288l3,2c0.5,0.3,1.1,0.2,1.3-0.3l1.8-3.2"/>
	<line class="st21" x1="-217.4" y1="289.8" x2="-218.6" y2="291.7"/>
	<line class="st21" x1="-215.6" y1="289.4" x2="-213.7" y2="290.5"/>
</g>
<g class="st19">
	<path class="st20" d="M-197.8,278.1l0.7-4.2c0-0.2-0.1-0.5-0.4-0.5l-5.9-1c-0.2,0-0.5,0.1-0.5,0.4l-0.7,4.1c0,0.2,0.1,0.5,0.4,0.5
		l5.9,1C-198.1,278.5-197.9,278.3-197.8,278.1z"/>
	<path class="st15" d="M-203.8,272.9l2.1,3.4c0.2,0.3,1,0.5,1.3,0.2l3-2.5l0-0.3l-6.5-1.1L-203.8,272.9z"/>
	<path class="st20" d="M-203.6,272.6l2,3.1c0.3,0.5,0.9,0.6,1.4,0.2l2.9-2.2"/>
	<line class="st21" x1="-201.7" y1="275.4" x2="-203.6" y2="276.6"/>
	<line class="st21" x1="-199.9" y1="275.7" x2="-198.6" y2="277.4"/>
</g>
<g class="st22">
	<path class="st23" d="M-202.7,286.9l0.5-3.5c0-0.2-0.1-0.4-0.3-0.4l-4.9-0.7c-0.2,0-0.4,0.1-0.4,0.3l-0.5,3.4
		c0,0.2,0.1,0.4,0.3,0.4l4.9,0.7C-202.9,287.2-202.8,287.1-202.7,286.9z"/>
	<path class="st15" d="M-207.8,282.7l1.8,2.8c0.2,0.3,0.9,0.4,1.1,0.2l2.5-2.1l0-0.2l-5.4-0.8L-207.8,282.7z"/>
	<path class="st23" d="M-207.6,282.5l1.7,2.5c0.3,0.4,0.8,0.5,1.1,0.2l2.4-1.9"/>
	<line class="st24" x1="-206" y1="284.7" x2="-207.5" y2="285.8"/>
	<line class="st24" x1="-204.5" y1="284.9" x2="-203.4" y2="286.4"/>
</g>
<g class="st22">
	<path class="st23" d="M-192.5,288.7l-0.9-3.4c-0.1-0.2-0.3-0.3-0.5-0.3l-4.8,1.2c-0.2,0.1-0.3,0.3-0.3,0.5l0.9,3.4
		c0.1,0.2,0.3,0.3,0.5,0.3l4.8-1.2C-192.6,289.1-192.4,288.9-192.5,288.7z"/>
	<path class="st15" d="M-198.8,286.7l2.8,1.9c0.3,0.2,0.9,0,1.1-0.3l1.5-2.9l-0.1-0.2l-5.3,1.4L-198.8,286.7z"/>
	<path class="st23" d="M-198.7,286.5l2.6,1.6c0.4,0.3,0.9,0.1,1.1-0.3l1.5-2.7"/>
	<line class="st24" x1="-196.4" y1="288" x2="-197.4" y2="289.5"/>
	<line class="st24" x1="-194.9" y1="287.6" x2="-193.3" y2="288.5"/>
</g>
<g class="st16">
	<path class="st17" d="M-278,282.3l-1.6-5.1c-0.1-0.3,0.1-0.6,0.4-0.7l7.3-2.3c0.3-0.1,0.6,0.1,0.7,0.4l1.6,5.1
		c0.1,0.3-0.1,0.6-0.4,0.7l-7.3,2.3C-277.6,282.7-278,282.6-278,282.3z"/>
	<path class="st15" d="M-271.4,274.7l-2.1,4.7c-0.2,0.5-1.2,0.8-1.7,0.5l-4.3-2.6l-0.1-0.4l8-2.5L-271.4,274.7z"/>
	<path class="st17" d="M-271.7,274.4l-2,4.2c-0.3,0.6-1.1,0.9-1.7,0.5l-4.1-2.3"/>
	<line class="st18" x1="-273.6" y1="278.2" x2="-271" y2="279.4"/>
	<line class="st18" x1="-275.8" y1="278.9" x2="-277.2" y2="281.4"/>
</g>
<g class="st19">
	<path class="st20" d="M-278.2,290.8l1-4.1c0.1-0.2,0.3-0.4,0.5-0.3l5.8,1.4c0.2,0.1,0.4,0.3,0.3,0.5l-1,4.1
		c-0.1,0.2-0.3,0.4-0.5,0.3l-5.8-1.4C-278.1,291.2-278.3,291-278.2,290.8z"/>
	<path class="st15" d="M-270.7,288.3l-3.3,2.3c-0.3,0.2-1.1,0-1.3-0.3l-1.8-3.4l0.1-0.3l6.4,1.5L-270.7,288.3z"/>
	<path class="st20" d="M-270.8,288l-3,2c-0.5,0.3-1.1,0.2-1.3-0.3l-1.8-3.2"/>
	<line class="st21" x1="-273.5" y1="289.8" x2="-272.3" y2="291.7"/>
	<line class="st21" x1="-275.3" y1="289.4" x2="-277.2" y2="290.5"/>
</g>
<g class="st19">
	<path class="st20" d="M-293.1,278.1l-0.7-4.2c0-0.2,0.1-0.5,0.4-0.5l5.9-1c0.2,0,0.5,0.1,0.5,0.4l0.7,4.1c0,0.2-0.1,0.5-0.4,0.5
		l-5.9,1C-292.9,278.5-293.1,278.3-293.1,278.1z"/>
	<path class="st15" d="M-287.2,272.9l-2.1,3.4c-0.2,0.3-1,0.5-1.3,0.2l-3-2.5l0-0.3l6.5-1.1L-287.2,272.9z"/>
	<path class="st20" d="M-287.4,272.6l-2,3.1c-0.3,0.5-0.9,0.6-1.4,0.2l-2.9-2.2"/>
	<line class="st21" x1="-289.2" y1="275.4" x2="-287.4" y2="276.6"/>
	<line class="st21" x1="-291" y1="275.7" x2="-292.3" y2="277.4"/>
</g>
<g class="st22">
	<path class="st23" d="M-288.2,286.9l-0.5-3.5c0-0.2,0.1-0.4,0.3-0.4l4.9-0.7c0.2,0,0.4,0.1,0.4,0.3l0.5,3.4c0,0.2-0.1,0.4-0.3,0.4
		l-4.9,0.7C-288,287.2-288.2,287.1-288.2,286.9z"/>
	<path class="st15" d="M-283.2,282.7l-1.8,2.8c-0.2,0.3-0.9,0.4-1.1,0.2l-2.5-2.1l0-0.2l5.4-0.8L-283.2,282.7z"/>
	<path class="st23" d="M-283.3,282.5l-1.7,2.5c-0.3,0.4-0.8,0.5-1.1,0.2l-2.4-1.9"/>
	<line class="st24" x1="-284.9" y1="284.7" x2="-283.4" y2="285.8"/>
	<line class="st24" x1="-286.4" y1="284.9" x2="-287.6" y2="286.4"/>
</g>
<g class="st22">
	<path class="st23" d="M-298.4,288.7l0.9-3.4c0.1-0.2,0.3-0.3,0.5-0.3l4.8,1.2c0.2,0.1,0.3,0.3,0.3,0.5l-0.9,3.4
		c-0.1,0.2-0.3,0.3-0.5,0.3l-4.8-1.2C-298.4,289.1-298.5,288.9-298.4,288.7z"/>
	<path class="st15" d="M-292.2,286.7l-2.8,1.9c-0.3,0.2-0.9,0-1.1-0.3l-1.5-2.9l0.1-0.2l5.3,1.4L-292.2,286.7z"/>
	<path class="st23" d="M-292.3,286.5l-2.6,1.6c-0.4,0.3-0.9,0.1-1.1-0.3l-1.5-2.7"/>
	<line class="st24" x1="-294.6" y1="288" x2="-293.6" y2="289.5"/>
	<line class="st24" x1="-296" y1="287.6" x2="-297.7" y2="288.5"/>
</g>
</svg>
