<?xml version="1.0" encoding="utf-8"?>
<!-- Generator: Adobe Illustrator 19.1.0, SVG Export Plug-In . SVG Version: 6.00 Build 0)  -->
<svg version="1.1" id="Layer_1" xmlns="http://www.w3.org/2000/svg" xmlns:xlink="http://www.w3.org/1999/xlink" x="0px" y="0px"
	 viewBox="-320 264 150 86" style="enable-background:new -320 264 150 86;" xml:space="preserve">
<style type="text/css">
	.st0{fill:#EFF2E9;}
	.st1{opacity:0.25;enable-background:new    ;}
	.st2{opacity:0.1;enable-background:new    ;}
	.st3{fill:#D3D4CD;}
	.st4{fill:#FFFFFF;}
	.st5{fill:#E85A34;}
	.st6{display:none;}
	.st7{opacity:0.2;fill:#333333;}
	.st8{fill:#FFF5CC;stroke:#1B293C;stroke-width:1.4824;stroke-linecap:round;stroke-linejoin:round;stroke-miterlimit:10;}
	.st9{opacity:0.35;fill:#293342;}
	.st10{fill:none;stroke:#1B293C;stroke-width:1.4824;stroke-linecap:round;stroke-linejoin:round;stroke-miterlimit:10;}
	.st11{fill:#6B96F4;stroke:#1B293C;stroke-width:0.7412;stroke-linecap:round;stroke-linejoin:round;stroke-miterlimit:10;}
	.st12{fill:#FFFFFF;stroke:#1B293C;stroke-width:0.7412;stroke-linecap:round;stroke-linejoin:round;stroke-miterlimit:10;}
	
		.st13{opacity:0.5;fill:none;stroke:#1B293C;stroke-width:0.7412;stroke-linecap:round;stroke-linejoin:round;stroke-miterlimit:10;}
</style>
<rect x="-320" y="264" class="st0" width="150" height="63"/>
<path class="st1" d="M-180.4,277h-77c-0.8,0-1.4-0.4-1.4-1l0,0c0-0.6,0.6-1,1.4-1h77c0.8,0,1.4,0.4,1.4,1l0,0
	C-179,276.6-179.6,277-180.4,277z"/>
<path class="st2" d="M-180.4,286h-77c-0.8,0-1.4-0.4-1.4-1l0,0c0-0.6,0.6-1,1.4-1h77c0.8,0,1.4,0.4,1.4,1l0,0
	C-179,285.6-179.6,286-180.4,286z"/>
<path class="st2" d="M-180.4,295h-77c-0.8,0-1.4-0.4-1.4-1l0,0c0-0.6,0.6-1,1.4-1h77c0.8,0,1.4,0.4,1.4,1l0,0
	C-179,294.6-179.6,295-180.4,295z"/>
<path class="st2" d="M-180.4,304h-77c-0.8,0-1.4-0.4-1.4-1l0,0c0-0.6,0.6-1,1.4-1h77c0.8,0,1.4,0.4,1.4,1l0,0
	C-179,303.6-179.6,304-180.4,304z"/>
<path class="st2" d="M-180.4,313h-77c-0.8,0-1.4-0.4-1.4-1l0,0c0-0.6,0.6-1,1.4-1h77c0.8,0,1.4,0.4,1.4,1l0,0
	C-179,312.6-179.6,313-180.4,313z"/>
<polygon class="st3" points="-320,350 -170,350 -170,323 -174,327 -177.9,323 -181.9,327 -185.8,323 -189.8,327 -193.7,323 
	-197.7,327 -201.6,323 -205.6,327 -209.5,323 -213.5,327 -217.4,323 -221.4,327 -225.3,323 -229.2,327 -233.2,323 -237.1,327 
	-241.1,323 -245,327 -249,323 -252.9,327 -256.9,323 -260.8,327 -264.8,323 -268.7,327 -272.7,323 -276.6,327 -280.6,323 
	-284.5,327 -288.4,323 -292.4,327 -296.3,323 -300.3,327 -304.2,323 -308.2,327 -312.1,323 -316.1,327 -320,323 "/>
<path class="st4" d="M-219,343h-90c-1.1,0-2-0.9-2-2v-5c0-1.1,0.9-2,2-2h90c1.1,0,2,0.9,2,2v5C-217,342.1-217.9,343-219,343z"/>
<path class="st5" d="M-181,343h-28c-1.1,0-2-0.9-2-2v-5c0-1.1,0.9-2,2-2h28c1.1,0,2,0.9,2,2v5C-179,342.1-179.9,343-181,343z"/>
<rect x="-320" y="264" class="st5" width="150" height="2"/>
<g id="Layer_2" class="st6">
</g>
<ellipse class="st7" cx="-294.2" cy="313.3" rx="14.9" ry="2"/>
<path class="st8" d="M-288.9,300.2h-21c-1.2,0-2.2-1-2.2-2.2v-20.8c0-1.2,1-2.2,2.2-2.2h29.6c1.2,0,2.2,1,2.2,2.2v19"/>
<path class="st9" d="M-311.4,277.7l13.2,15c1.4,1.5,5.5,1.3,6.7,0l12.7-14.5v-1.5h-32.6L-311.4,277.7z"/>
<path class="st8" d="M-310.6,276.2l12.3,13.2c1.9,2,4.9,2,6.8,0l12.3-13.2"/>
<line class="st10" x1="-299.3" y1="288.2" x2="-307.4" y2="295.6"/>
<line class="st10" x1="-290.3" y1="288.2" x2="-285.3" y2="292.8"/>
<circle class="st11" cx="-280.8" cy="295.6" r="9.9"/>
<circle class="st12" cx="-280.8" cy="295.6" r="7.9"/>
<path class="st13" d="M-263.5,302l-3.5-1.1c-0.5-0.2-1.4-0.2-1.9,0l-2.6,0.8c-0.5,0.2-1.4,0.2-1.9,0l-2.6-0.8
	c-0.5-0.2-1.4-0.2-1.9,0l-3.5,1.1"/>
<path class="st13" d="M-263.5,299.2l-3.5-1.1c-0.5-0.2-1.4-0.2-1.9,0l-2.6,0.8c-0.5,0.2-1.4,0.2-1.9,0l-2.6-0.8
	c-0.5-0.2-1.4-0.2-1.9,0l-3.5,1.1"/>
<path class="st13" d="M-263.5,296.4l-3.5-1.1c-0.5-0.2-1.4-0.2-1.9,0l-2.6,0.8c-0.5,0.2-1.4,0.2-1.9,0l-2.6-0.8
	c-0.5-0.2-1.4-0.2-1.9,0l-3.5,1.1"/>
<path class="st13" d="M-263.5,293.5l-3.5-1.1c-0.5-0.2-1.4-0.2-1.9,0l-2.6,0.8c-0.5,0.2-1.4,0.2-1.9,0l-2.6-0.8
	c-0.5-0.2-1.4-0.2-1.9,0l-3.5,1.1"/>
<path class="st13" d="M-263.5,290.7l-3.5-1.1c-0.5-0.2-1.4-0.2-1.9,0l-2.6,0.8c-0.5,0.2-1.4,0.2-1.9,0l-2.6-0.8
	c-0.5-0.2-1.4-0.2-1.9,0l-3.5,1.1"/>
</svg>
