<?xml version="1.0" encoding="utf-8"?>
<!-- Generator: Adobe Illustrator 19.1.0, SVG Export Plug-In . SVG Version: 6.00 Build 0)  -->
<svg version="1.1" id="Layer_1" xmlns="http://www.w3.org/2000/svg" xmlns:xlink="http://www.w3.org/1999/xlink" x="0px" y="0px"
	 viewBox="-320 264 150 86" style="enable-background:new -320 264 150 86;" xml:space="preserve">
<style type="text/css">
	.st0{fill:#F0F0F0;}
	.st1{fill:#5741BD;}
	.st2{fill:#FF8D14;}
	.st3{fill:#FFFFFF;}
	.st4{opacity:0.25;enable-background:new    ;}
	.st5{opacity:0.1;enable-background:new    ;}
	.st6{display:none;}
	.st7{opacity:0.2;fill:#333333;}
	.st8{fill:#FFF5CC;stroke:#1B293C;stroke-width:1.4824;stroke-linecap:round;stroke-linejoin:round;stroke-miterlimit:10;}
	.st9{opacity:0.35;fill:#293342;}
	.st10{fill:none;stroke:#1B293C;stroke-width:1.4824;stroke-linecap:round;stroke-linejoin:round;stroke-miterlimit:10;}
	.st11{fill:#6B96F4;stroke:#1B293C;stroke-width:0.7412;stroke-linecap:round;stroke-linejoin:round;stroke-miterlimit:10;}
	.st12{fill:#FFFFFF;stroke:#1B293C;stroke-width:0.7412;stroke-linecap:round;stroke-linejoin:round;stroke-miterlimit:10;}
	
		.st13{opacity:0.5;fill:none;stroke:#1B293C;stroke-width:0.7412;stroke-linecap:round;stroke-linejoin:round;stroke-miterlimit:10;}
</style>
<g id="Layer_1_1_">
	<rect x="-320" y="264" class="st0" width="150" height="86"/>
	<rect x="-221" y="264" class="st1" width="51" height="86"/>
	<path class="st2" d="M-181,332h-28c-1.1,0-2-0.9-2-2v-5c0-1.1,0.9-2,2-2h28c1.1,0,2,0.9,2,2v5C-179,331.1-179.9,332-181,332z"/>
	<path class="st3" d="M-181,317h-28c-1.1,0-2-0.9-2-2v-5c0-1.1,0.9-2,2-2h28c1.1,0,2,0.9,2,2v5C-179,316.1-179.9,317-181,317z"/>
	<path class="st3" d="M-181,302h-28c-1.1,0-2-0.9-2-2v-5c0-1.1,0.9-2,2-2h28c1.1,0,2,0.9,2,2v5C-179,301.1-179.9,302-181,302z"/>
	<path class="st3" d="M-181,287.3h-28c-1.1,0-2-0.9-2-2v-5c0-1.1,0.9-2,2-2h28c1.1,0,2,0.9,2,2v5C-179,286.4-179.9,287.3-181,287.3z
		"/>
	<path class="st4" d="M-230.9,321h-77.7c-0.6,0-1-0.4-1-1l0,0c0-0.6,0.4-1,1-1h77.7c0.6,0,1,0.4,1,1l0,0
		C-229.9,320.6-230.4,321-230.9,321z"/>
	<path class="st5" d="M-230.9,330h-77.7c-0.6,0-1-0.4-1-1l0,0c0-0.6,0.4-1,1-1h77.7c0.6,0,1,0.4,1,1l0,0
		C-229.9,329.6-230.4,330-230.9,330z"/>
	<path class="st5" d="M-230.9,339h-77.7c-0.6,0-1-0.4-1-1l0,0c0-0.6,0.4-1,1-1h77.7c0.6,0,1,0.4,1,1l0,0
		C-229.9,338.6-230.4,339-230.9,339z"/>
</g>
<g id="Layer_2" class="st6">
</g>
<ellipse class="st7" cx="-270.7" cy="310.8" rx="14.9" ry="2"/>
<path class="st8" d="M-265.4,297.7h-21c-1.2,0-2.2-1-2.2-2.2v-20.8c0-1.2,1-2.2,2.2-2.2h29.6c1.2,0,2.2,1,2.2,2.2v19"/>
<path class="st9" d="M-287.9,275.2l13.2,15c1.4,1.5,5.5,1.3,6.7,0l12.7-14.5v-1.5h-32.6L-287.9,275.2z"/>
<path class="st8" d="M-287.1,273.7l12.3,13.2c1.9,2,4.9,2,6.8,0l12.3-13.2"/>
<line class="st10" x1="-275.8" y1="285.7" x2="-283.9" y2="293.1"/>
<line class="st10" x1="-266.8" y1="285.7" x2="-261.8" y2="290.3"/>
<circle class="st11" cx="-257.3" cy="293.1" r="9.9"/>
<circle class="st12" cx="-257.3" cy="293.1" r="7.9"/>
<path class="st13" d="M-240,299.5l-3.5-1.1c-0.5-0.2-1.4-0.2-1.9,0l-2.6,0.8c-0.5,0.2-1.4,0.2-1.9,0l-2.6-0.8
	c-0.5-0.2-1.4-0.2-1.9,0l-3.5,1.1"/>
<path class="st13" d="M-240,296.7l-3.5-1.1c-0.5-0.2-1.4-0.2-1.9,0l-2.6,0.8c-0.5,0.2-1.4,0.2-1.9,0l-2.6-0.8
	c-0.5-0.2-1.4-0.2-1.9,0l-3.5,1.1"/>
<path class="st13" d="M-240,293.9l-3.5-1.1c-0.5-0.2-1.4-0.2-1.9,0l-2.6,0.8c-0.5,0.2-1.4,0.2-1.9,0l-2.6-0.8
	c-0.5-0.2-1.4-0.2-1.9,0l-3.5,1.1"/>
<path class="st13" d="M-240,291l-3.5-1.1c-0.5-0.2-1.4-0.2-1.9,0l-2.6,0.8c-0.5,0.2-1.4,0.2-1.9,0l-2.6-0.8c-0.5-0.2-1.4-0.2-1.9,0
	l-3.5,1.1"/>
<path class="st13" d="M-240,288.2l-3.5-1.1c-0.5-0.2-1.4-0.2-1.9,0l-2.6,0.8c-0.5,0.2-1.4,0.2-1.9,0l-2.6-0.8
	c-0.5-0.2-1.4-0.2-1.9,0l-3.5,1.1"/>
</svg>
