<?xml version="1.0" encoding="utf-8"?>
<!-- Generator: Adobe Illustrator 19.1.0, SVG Export Plug-In . SVG Version: 6.00 Build 0)  -->
<svg version="1.1" id="Layer_1" xmlns="http://www.w3.org/2000/svg" xmlns:xlink="http://www.w3.org/1999/xlink" x="0px" y="0px"
	 viewBox="-320 264 150 86" style="enable-background:new -320 264 150 86;" xml:space="preserve">
<style type="text/css">
	.st0{fill:#9C30FF;}
	.st1{opacity:0.6;fill:#FFFFFF;enable-background:new    ;}
	.st2{opacity:0.45;fill:#FFFFFF;enable-background:new    ;}
	.st3{fill:#3B3B3B;}
	.st4{fill:#FFFFFF;}
	.st5{fill:#FFB040;}
	.st6{display:none;}
	.st7{opacity:0.2;fill:#333333;}
	.st8{fill:#FFF5CC;stroke:#1B293C;stroke-width:1.0732;stroke-linecap:round;stroke-linejoin:round;stroke-miterlimit:10;}
	.st9{fill:none;stroke:#1B293C;stroke-width:1.0732;stroke-linecap:round;stroke-linejoin:round;stroke-miterlimit:10;}
	.st10{clip-path:url(#SVGID_2_);}
	.st11{fill:#FFFFFF;stroke:#000000;stroke-width:1.0732;stroke-linecap:round;stroke-linejoin:round;stroke-miterlimit:10;}
	.st12{fill:none;stroke:#999999;stroke-width:0.5366;stroke-linecap:round;stroke-linejoin:round;stroke-miterlimit:10;}
	.st13{fill:#E05B49;stroke:#000000;stroke-width:0.5366;stroke-linecap:round;stroke-linejoin:round;stroke-miterlimit:10;}
	.st14{opacity:0.35;fill:#293342;}
</style>
<g id="Layer_1_1_">
	<rect x="-320" y="264" class="st0" width="150" height="63"/>
	<path class="st1" d="M-183.3,278h-71.4c-0.7,0-1.3-0.4-1.3-1l0,0c0-0.6,0.6-1,1.3-1h71.4c0.7,0,1.3,0.4,1.3,1l0,0
		C-182,277.6-182.6,278-183.3,278z"/>
	<path class="st2" d="M-183.3,287h-71.4c-0.7,0-1.3-0.4-1.3-1l0,0c0-0.6,0.6-1,1.3-1h71.4c0.7,0,1.3,0.4,1.3,1l0,0
		C-182,286.6-182.6,287-183.3,287z"/>
	<path class="st2" d="M-183.3,296h-71.4c-0.7,0-1.3-0.4-1.3-1l0,0c0-0.6,0.6-1,1.3-1h71.4c0.7,0,1.3,0.4,1.3,1l0,0
		C-182,295.6-182.6,296-183.3,296z"/>
	<path class="st2" d="M-183.3,305h-71.4c-0.7,0-1.3-0.4-1.3-1l0,0c0-0.6,0.6-1,1.3-1h71.4c0.7,0,1.3,0.4,1.3,1l0,0
		C-182,304.6-182.6,305-183.3,305z"/>
	<path class="st2" d="M-183.3,314h-71.4c-0.7,0-1.3-0.4-1.3-1l0,0c0-0.6,0.6-1,1.3-1h71.4c0.7,0,1.3,0.4,1.3,1l0,0
		C-182,313.6-182.6,314-183.3,314z"/>
	<rect x="-320" y="325" class="st3" width="150" height="25"/>
	<path class="st4" d="M-218,341h-89c-1.1,0-2-0.9-2-2v-5c0-1.1,0.9-2,2-2h89c1.1,0,2,0.9,2,2v5C-216,340.1-216.9,341-218,341z"/>
	<path class="st5" d="M-183,341h-25c-1.1,0-2-0.9-2-2v-5c0-1.1,0.9-2,2-2h25c1.1,0,2,0.9,2,2v5C-181,340.1-181.9,341-183,341z"/>
	<g>
		<path class="st3" d="M-173,267v80h-144v-80H-173 M-170,264h-150v86h150V264L-170,264z"/>
	</g>
</g>
<g id="Layer_2" class="st6">
</g>
<ellipse class="st7" cx="-289.5" cy="319.4" rx="10.8" ry="1.4"/>
<path class="st8" d="M-300,290.7l-2.1,1.5v15.9c0,0.9,0.7,1.6,1.6,1.6h21.5c0.9,0,1.6-0.7,1.6-1.6v-15.9l-2.1-1.7"/>
<line class="st9" x1="-292" y1="301.2" x2="-301.8" y2="292.2"/>
<line class="st9" x1="-277.3" y1="292.4" x2="-286.9" y2="301.2"/>
<g>
	<defs>
		<path id="SVGID_1_" d="M-303.3,290.1l11.3,10.4l1.4-1.1c0.6-0.5,1.5-0.5,2.2,0l1.6,1.2l10.4-9.6l0.6-18.6h-28.4L-303.3,290.1z"/>
	</defs>
	<clipPath id="SVGID_2_">
		<use xlink:href="#SVGID_1_"  style="overflow:visible;"/>
	</clipPath>
	<g class="st10">
		<g>
			<path class="st11" d="M-281.4,302.2h-16.2c-1,0-1.7-0.8-1.7-1.7v-18.8l6-6.2h12c1,0,1.7,0.8,1.7,1.7v23.2
				C-279.6,301.4-280.4,302.2-281.4,302.2z"/>
			<path class="st11" d="M-298.8,282.5h4.1c1,0,1.7-0.8,1.7-1.7v-4.6"/>
		</g>
		<line class="st12" x1="-288.1" y1="280.5" x2="-282.6" y2="280.5"/>
		<line class="st12" x1="-296.8" y1="287.1" x2="-291.3" y2="287.1"/>
		<line class="st12" x1="-296.8" y1="290.3" x2="-291.3" y2="290.3"/>
		<rect x="-288.6" y="283.8" class="st13" width="6.6" height="6.6"/>
		<line class="st12" x1="-296.8" y1="293.6" x2="-291.3" y2="293.6"/>
		<line class="st12" x1="-288.1" y1="293.6" x2="-282.6" y2="293.6"/>
		<line class="st12" x1="-296.8" y1="296.9" x2="-291.3" y2="296.9"/>
		<line class="st12" x1="-288.1" y1="296.9" x2="-282.6" y2="296.9"/>
	</g>
</g>
<path class="st14" d="M-301.4,291.8c0,0,6.2,7,11.7,7c5,0,11.9-6.7,11.9-6.7l-9,8.5h-5.6L-301.4,291.8z"/>
<path class="st8" d="M-277.8,308.6l-10.6-8.7c-0.6-0.5-1.4-0.5-2,0l-10.7,8.8"/>
</svg>
