<?xml version="1.0" encoding="utf-8"?>
<!-- Generator: Adobe Illustrator 19.1.0, SVG Export Plug-In . SVG Version: 6.00 Build 0)  -->
<svg version="1.1" id="Layer_1" xmlns="http://www.w3.org/2000/svg" xmlns:xlink="http://www.w3.org/1999/xlink" x="0px" y="0px"
	 viewBox="-320 264 150 86" style="enable-background:new -320 264 150 86;" xml:space="preserve">
<style type="text/css">
	.st0{fill:#FFFFFF;}
	.st1{fill:none;}
	.st2{fill:#3BBC66;}
	.st3{fill:#E85A34;}
	.st4{opacity:0.1;enable-background:new    ;}
	.st5{fill:#A33112;}
	.st6{display:none;}
	.st7{fill:#3C735A;stroke:#000000;stroke-width:0.5;stroke-miterlimit:10;}
	.st8{fill:#1E392D;stroke:#000000;stroke-width:0.5;stroke-miterlimit:10;}
	.st9{fill:#79E5B5;stroke:#000000;stroke-width:0.5;stroke-miterlimit:10;}
	.st10{font-family:'OpenSans-Light';}
	.st11{font-size:10px;}
	.st12{letter-spacing:2;}
</style>
<rect x="-320" y="264" class="st0" width="150" height="86"/>
<polygon class="st1" points="-212.1,264 -298.1,350 -293.7,350 -207.7,264 "/>
<polygon class="st1" points="-204.9,264 -290.9,350 -286.4,350 -200.4,264 "/>
<polygon class="st1" points="-219.4,264 -305.4,350 -300.9,350 -214.9,264 "/>
<polygon class="st1" points="-197.6,264 -283.6,350 -279.1,350 -193.1,264 "/>
<polygon class="st1" points="-305.7,264 -320,278.3 -320,282.8 -301.2,264 "/>
<polygon class="st1" points="-298.4,264 -320,285.6 -320,289.1 -294.9,264 "/>
<polygon class="st1" points="-170,265.5 -254.5,350 -250,350 -170,270 "/>
<polygon class="st1" points="-175.8,264 -261.8,350 -257.3,350 -171.3,264 "/>
<polygon class="st1" points="-190.3,264 -276.3,350 -271.9,350 -185.9,264 "/>
<polygon class="st1" points="-183.1,264 -269.1,350 -264.6,350 -178.6,264 "/>
<polygon class="st1" points="-226.7,264 -312.7,350 -308.2,350 -222.2,264 "/>
<polygon class="st1" points="-284.9,264 -320,299.1 -320,303.6 -280.4,264 "/>
<polygon class="st1" points="-277.6,264 -320,306.4 -320,310.9 -273.1,264 "/>
<polygon class="st1" points="-170,272.8 -247.2,350 -242.8,350 -170,277.2 "/>
<polygon class="st1" points="-255.8,264 -320,328.2 -320,332.7 -251.3,264 "/>
<polygon class="st1" points="-270.3,264 -320,313.7 -320,318.2 -265.8,264 "/>
<polygon class="st1" points="-248.5,264 -320,335.5 -320,340 -244,264 "/>
<polygon class="st1" points="-234,264 -320,350 -315.5,350 -229.5,264 "/>
<polygon class="st1" points="-241.2,264 -320,342.8 -320,347.3 -236.7,264 "/>
<polygon class="st1" points="-313,264 -320,271 -320,275.5 -308.5,264 "/>
<polygon class="st1" points="-292.1,264 -320,291.9 -320,296.4 -287.6,264 "/>
<polygon class="st1" points="-263,264 -320,321 -320,325.4 -258.6,264 "/>
<polygon class="st1" points="-170,316.4 -203.6,350 -199.1,350 -170,320.9 "/>
<polygon class="st1" points="-170,323.6 -196.4,350 -191.9,350 -170,328.1 "/>
<polygon class="st1" points="-170,330.9 -189.1,350 -184.6,350 -170,335.4 "/>
<polygon class="st1" points="-170,309.1 -210.9,350 -206.4,350 -170,313.6 "/>
<polygon class="st1" points="-170,301.8 -218.2,350 -213.7,350 -170,306.3 "/>
<polygon class="st1" points="-174.5,350 -170,350 -170,345.5 "/>
<polygon class="st1" points="-320,264 -320,268.2 -315.8,264 "/>
<polygon class="st1" points="-170,338.2 -181.8,350 -177.3,350 -170,342.7 "/>
<polygon class="st1" points="-170,294.6 -225.4,350 -221,350 -170,299 "/>
<polygon class="st1" points="-170,280 -240,350 -235.5,350 -170,284.5 "/>
<polygon class="st1" points="-170,287.3 -232.7,350 -228.2,350 -170,291.8 "/>
<polygon class="st2" points="-170,335.4 -184.6,350 -181.8,350 -170,338.2 "/>
<polygon class="st3" points="-170,328.1 -191.9,350 -189.1,350 -170,330.9 "/>
<polygon class="st2" points="-170,320.9 -199.1,350 -196.4,350 -170,323.6 "/>
<polygon class="st3" points="-170,313.6 -206.4,350 -203.6,350 -170,316.4 "/>
<polygon class="st2" points="-170,306.3 -213.7,350 -210.9,350 -170,309.1 "/>
<polygon class="st3" points="-170,299 -221,350 -218.2,350 -170,301.8 "/>
<polygon class="st2" points="-170,291.8 -228.2,350 -225.4,350 -170,294.6 "/>
<polygon class="st3" points="-170,284.5 -235.5,350 -232.7,350 -170,287.3 "/>
<polygon class="st2" points="-170,277.2 -242.8,350 -240,350 -170,280 "/>
<polygon class="st3" points="-170,270 -250,350 -247.2,350 -170,272.8 "/>
<polygon class="st2" points="-170,264 -171.3,264 -257.3,350 -254.5,350 -170,265.5 "/>
<polygon class="st3" points="-178.6,264 -264.6,350 -261.8,350 -175.8,264 "/>
<polygon class="st2" points="-185.9,264 -271.9,350 -269.1,350 -183.1,264 "/>
<polygon class="st3" points="-193.1,264 -279.1,350 -276.3,350 -190.3,264 "/>
<polygon class="st2" points="-200.4,264 -286.4,350 -283.6,350 -197.6,264 "/>
<polygon class="st3" points="-207.7,264 -293.7,350 -290.9,350 -204.9,264 "/>
<polygon class="st3" points="-222.2,264 -308.2,350 -305.4,350 -219.4,264 "/>
<polygon class="st3" points="-236.7,264 -320,347.3 -320,350 -320,350 -234,264 "/>
<polygon class="st3" points="-251.3,264 -320,332.7 -320,335.5 -248.5,264 "/>
<polygon class="st2" points="-273.1,264 -320,310.9 -320,313.7 -270.3,264 "/>
<polygon class="st2" points="-214.9,264 -300.9,350 -298.1,350 -212.1,264 "/>
<polygon class="st2" points="-229.5,264 -315.5,350 -312.7,350 -226.7,264 "/>
<polygon class="st2" points="-244,264 -320,340 -320,342.8 -241.2,264 "/>
<polygon class="st2" points="-258.6,264 -320,325.4 -320,328.2 -255.8,264 "/>
<polygon class="st2" points="-287.6,264 -320,296.4 -320,299.1 -284.9,264 "/>
<polygon class="st3" points="-280.4,264 -320,303.6 -320,306.4 -277.6,264 "/>
<polygon class="st3" points="-265.8,264 -320,318.2 -320,321 -263,264 "/>
<polygon class="st3" points="-294.9,264 -320,289.1 -320,291.9 -292.1,264 "/>
<polygon class="st2" points="-315.8,264 -320,268.2 -320,271 -313,264 "/>
<polygon class="st2" points="-301.2,264 -320,282.8 -320,285.6 -298.4,264 "/>
<polygon class="st3" points="-308.5,264 -320,275.5 -320,278.3 -305.7,264 "/>
<polygon class="st3" points="-170,342.7 -177.3,350 -174.5,350 -170,345.5 "/>
<rect x="-318" y="266" class="st0" width="146" height="61"/>
<rect x="-320" y="325" class="st3" width="150" height="25"/>
<path class="st4" d="M-180,305h-129.6c-0.6,0-1-0.4-1-1l0,0c0-0.6,0.4-1,1-1H-180c0.6,0,1,0.4,1,1l0,0C-179,304.6-179.4,305-180,305
	z"/>
<path class="st4" d="M-180,314h-129.6c-0.6,0-1-0.4-1-1l0,0c0-0.6,0.4-1,1-1H-180c0.6,0,1,0.4,1,1l0,0C-179,313.6-179.4,314-180,314
	z"/>
<path class="st0" d="M-218,342h-92c-0.6,0-1-0.4-1-1v-7c0-0.6,0.4-1,1-1h92c0.6,0,1,0.4,1,1v7C-217,341.6-217.4,342-218,342z"/>
<path class="st5" d="M-180,342h-30c-0.6,0-1-0.4-1-1v-7c0-0.6,0.4-1,1-1h30c0.6,0,1,0.4,1,1v7C-179,341.6-179.4,342-180,342z"/>
<g id="Layer_2" class="st6">
</g>
<polygon class="st7" points="-180.9,276.1 -200.2,276.1 -200.2,293.8 -180.9,293.8 -186.6,284.9 "/>
<polygon class="st8" points="-195.9,289 -200.2,293.5 -200.2,289 "/>
<polygon class="st7" points="-302.3,284.9 -308,293.8 -288.8,293.8 -288.8,276.1 -308,276.1 "/>
<polygon class="st8" points="-288.8,289 -288.8,293.5 -293,289 "/>
<path class="st9" d="M-200.7,290.4h-87.4c-4.3,0-7.8-3.5-7.8-7.8l0,0c0-4.3,3.5-7.8,7.8-7.8h87.4c4.3,0,7.8,3.5,7.8,7.8l0,0
	C-192.9,286.9-196.4,290.4-200.7,290.4z"/>
<text transform="matrix(1 0 0 1 -279.2462 285.9941)" class="st10 st11 st12">Newsletter</text>
</svg>
