<?xml version="1.0" encoding="utf-8"?>
<!-- Generator: Adobe Illustrator 19.1.0, SVG Export Plug-In . SVG Version: 6.00 Build 0)  -->
<svg version="1.1" id="Layer_1" xmlns="http://www.w3.org/2000/svg" xmlns:xlink="http://www.w3.org/1999/xlink" x="0px" y="0px"
	 viewBox="-644 408 150 86" style="enable-background:new -644 408 150 86;" xml:space="preserve">
<style type="text/css">
	.st0{fill:#4B5B7D;}
	.st1{fill:#6083AB;}
	.st2{opacity:0.5;fill:#FFFFFF;enable-background:new    ;}
	.st3{opacity:0.3;fill:#FFFFFF;enable-background:new    ;}
	.st4{fill:#FFFFFF;}
	.st5{fill:#74C7A5;}
	.st6{display:none;}
	.st7{opacity:0.2;fill:#333333;enable-background:new    ;}
	.st8{fill:#FAFAFA;stroke:#1B293C;stroke-width:1.1793;stroke-linecap:round;stroke-linejoin:round;stroke-miterlimit:10;}
	.st9{fill:none;stroke:#1B293C;stroke-width:0.5897;stroke-linecap:round;stroke-linejoin:round;stroke-miterlimit:10;}
	.st10{fill:#D2F3E4;}
	.st11{fill:#1B293C;}
	.st12{fill:#F9DEDB;stroke:#000000;stroke-width:0.8717;stroke-linecap:round;stroke-linejoin:round;stroke-miterlimit:10;}
	.st13{fill:#FFFFFF;stroke:#000000;stroke-width:0.8717;stroke-linecap:round;stroke-linejoin:round;stroke-miterlimit:10;}
	.st14{fill:none;stroke:#999999;stroke-width:0.4358;stroke-linecap:round;stroke-linejoin:round;stroke-miterlimit:10;}
	.st15{fill:#E05B49;stroke:#000000;stroke-width:0.4358;stroke-linecap:round;stroke-linejoin:round;stroke-miterlimit:10;}
	.st16{opacity:0.35;fill:#293342;enable-background:new    ;}
</style>
<g id="Layer_1_1_">
	<rect x="-644" y="471" class="st0" width="150" height="23"/>
	<rect x="-644" y="408" class="st1" width="150" height="63"/>
	<path class="st2" d="M-504,421h-73c-0.6,0-1-0.4-1-1l0,0c0-0.6,0.4-1,1-1h73c0.6,0,1,0.4,1,1l0,0C-503,420.6-503.4,421-504,421z"/>
	<path class="st3" d="M-504,430h-73c-0.6,0-1-0.4-1-1l0,0c0-0.6,0.4-1,1-1h73c0.6,0,1,0.4,1,1l0,0C-503,429.6-503.4,430-504,430z"/>
	<path class="st3" d="M-504,439h-73c-0.6,0-1-0.4-1-1l0,0c0-0.6,0.4-1,1-1h73c0.6,0,1,0.4,1,1l0,0C-503,438.6-503.4,439-504,439z"/>
	<path class="st3" d="M-504,448h-73c-0.6,0-1-0.4-1-1l0,0c0-0.6,0.4-1,1-1h73c0.6,0,1,0.4,1,1l0,0C-503,447.6-503.4,448-504,448z"/>
	<path class="st3" d="M-504,457h-73c-0.6,0-1-0.4-1-1l0,0c0-0.6,0.4-1,1-1h73c0.6,0,1,0.4,1,1l0,0C-503,456.6-503.4,457-504,457z"/>
	<path class="st4" d="M-543,487h-90c-1.1,0-2-0.9-2-2v-5c0-1.1,0.9-2,2-2h90c1.1,0,2,0.9,2,2v5C-541,486.1-541.9,487-543,487z"/>
	<path class="st5" d="M-505,487h-28c-1.1,0-2-0.9-2-2v-5c0-1.1,0.9-2,2-2h28c1.1,0,2,0.9,2,2v5C-503,486.1-503.9,487-505,487z"/>
	<rect x="-644" y="408" class="st5" width="150" height="2"/>
</g>
<g id="Layer_2" class="st6">
</g>
<ellipse class="st7" cx="-616.3" cy="464.6" rx="9.9" ry="1.6"/>
<path class="st8" d="M-626.5,420.7c0-1.4,1.1-2.4,2.4-2.4h16.3c1.4,0,2.4,1.1,2.4,2.4v32.7c0,1.4-1.1,2.4-2.4,2.4H-624
	c-1.4,0-2.4-1.1-2.4-2.4L-626.5,420.7L-626.5,420.7z"/>
<line class="st9" x1="-614.2" y1="421.6" x2="-617.5" y2="421.6"/>
<g>
	<path class="st10" d="M-626,449.9c-0.2,0-0.3-0.1-0.3-0.3v-24.2c0-0.2,0.1-0.3,0.3-0.3h20.2c0.2,0,0.3,0.1,0.3,0.3v24.2
		c0,0.2-0.1,0.3-0.3,0.3H-626z"/>
	<path class="st11" d="M-605.7,425.5v24.2H-626v-24.2H-605.7 M-605.7,424.9H-626c-0.3,0-0.6,0.3-0.6,0.6v24.2c0,0.3,0.3,0.6,0.6,0.6
		h20.2c0.3,0,0.6-0.3,0.6-0.6v-24.2C-605.2,425.2-605.4,424.9-605.7,424.9L-605.7,424.9z"/>
</g>
<circle class="st9" cx="-615.9" cy="452.8" r="1.8"/>
<path class="st12" d="M-622.6,445.1c0,1.8,2.1,3,3.9,1.5c0.3-0.2,0.4-0.6,0.4-0.9v-15.6h-3.8c-0.3,0-0.6,0.3-0.6,0.6L-622.6,445.1
	L-622.6,445.1z"/>
<path class="st13" d="M-620.4,447.5h17.2c0.3,0,0.6-0.3,0.6-0.6v-18.8c0-0.3-0.3-0.6-0.6-0.6h-14.4c-0.3,0-0.6,0.3-0.6,0.6v17.2
	C-618.2,445.3-618.4,447.5-620.4,447.5z"/>
<line class="st14" x1="-616" y1="433.5" x2="-611.7" y2="433.5"/>
<line class="st14" x1="-616.2" y1="430.9" x2="-604.7" y2="430.9"/>
<line class="st14" x1="-616" y1="436.2" x2="-613.4" y2="436.2"/>
<line class="st14" x1="-616" y1="438.8" x2="-611.7" y2="438.8"/>
<rect x="-609.5" y="433.5" class="st15" width="5.2" height="5.2"/>
<line class="st14" x1="-616.2" y1="441.4" x2="-604.7" y2="441.4"/>
<line class="st14" x1="-616.2" y1="444" x2="-607.4" y2="444"/>
<path class="st16" d="M-618.6,430.5h-0.5c-0.2,5.8-0.5,16.2-1.9,16.2c0,0,2.1,0.7,2.6-1.3C-618,443.1-618.6,430.5-618.6,430.5z"/>
</svg>
