<?xml version="1.0" encoding="utf-8"?>
<!-- Generator: Adobe Illustrator 19.1.0, SVG Export Plug-In . SVG Version: 6.00 Build 0)  -->
<svg version="1.1" id="Layer_1" xmlns="http://www.w3.org/2000/svg" xmlns:xlink="http://www.w3.org/1999/xlink" x="0px" y="0px"
	 viewBox="-320 264 150 86" style="enable-background:new -320 264 150 86;" xml:space="preserve">
<style type="text/css">
	.st0{fill:#2C94F2;}
	.st1{opacity:0.6;fill:#FFFFFF;enable-background:new    ;}
	.st2{opacity:0.45;fill:#FFFFFF;enable-background:new    ;}
	.st3{fill:#F0F0F0;}
	.st4{opacity:0.2;enable-background:new    ;}
	.st5{fill:#3B3B3B;}
	.st6{fill:#1062AD;}
	.st7{display:none;}
	.st8{opacity:0.2;fill:#333333;enable-background:new    ;}
	.st9{fill:#FAFAFA;stroke:#1B293C;stroke-width:1.2203;stroke-linecap:round;stroke-linejoin:round;stroke-miterlimit:10;}
	.st10{fill:#D2F3E4;}
	.st11{fill:#1B293C;}
	.st12{fill:#FFFFFF;stroke:#1B293C;stroke-width:1.2203;stroke-linecap:round;stroke-linejoin:round;stroke-miterlimit:10;}
	.st13{fill:#FAFAFA;stroke:#000000;stroke-width:1.2203;stroke-linecap:round;stroke-linejoin:round;stroke-miterlimit:10;}
	.st14{fill:#FFF5CC;stroke:#1B293C;stroke-width:0.7288;stroke-linecap:round;stroke-linejoin:round;stroke-miterlimit:10;}
	.st15{opacity:0.35;fill:#293342;enable-background:new    ;}
	.st16{fill:none;stroke:#1B293C;stroke-width:0.7288;stroke-linecap:round;stroke-linejoin:round;stroke-miterlimit:10;}
	.st17{fill:#E05B49;}
	.st18{fill:#FFFFFF;}
	.st19{font-family:'Roboto-Regular';}
	.st20{font-size:4.3729px;}
</style>
<g id="Layer_1_1_">
	<rect x="-320" y="264" class="st0" width="150" height="63"/>
	<path class="st1" d="M-183.3,278h-71.4c-0.7,0-1.3-0.4-1.3-1l0,0c0-0.6,0.6-1,1.3-1h71.4c0.7,0,1.3,0.4,1.3,1l0,0
		C-182,277.6-182.6,278-183.3,278z"/>
	<path class="st2" d="M-183.3,287h-71.4c-0.7,0-1.3-0.4-1.3-1l0,0c0-0.6,0.6-1,1.3-1h71.4c0.7,0,1.3,0.4,1.3,1l0,0
		C-182,286.6-182.6,287-183.3,287z"/>
	<path class="st2" d="M-183.3,296h-71.4c-0.7,0-1.3-0.4-1.3-1l0,0c0-0.6,0.6-1,1.3-1h71.4c0.7,0,1.3,0.4,1.3,1l0,0
		C-182,295.6-182.6,296-183.3,296z"/>
	<path class="st2" d="M-183.3,305h-71.4c-0.7,0-1.3-0.4-1.3-1l0,0c0-0.6,0.6-1,1.3-1h71.4c0.7,0,1.3,0.4,1.3,1l0,0
		C-182,304.6-182.6,305-183.3,305z"/>
	<path class="st2" d="M-183.3,314h-71.4c-0.7,0-1.3-0.4-1.3-1l0,0c0-0.6,0.6-1,1.3-1h71.4c0.7,0,1.3,0.4,1.3,1l0,0
		C-182,313.6-182.6,314-183.3,314z"/>
	<rect x="-320" y="325" class="st3" width="150" height="25"/>
	<path class="st4" d="M-218,341h-89c-1.1,0-2-0.9-2-2v-5c0-1.1,0.9-2,2-2h89c1.1,0,2,0.9,2,2v5C-216,340.1-216.9,341-218,341z"/>
	<path class="st5" d="M-183,341h-25c-1.1,0-2-0.9-2-2v-5c0-1.1,0.9-2,2-2h25c1.1,0,2,0.9,2,2v5C-181,340.1-181.9,341-183,341z"/>
	<g>
		<path class="st6" d="M-173,267v80h-144v-80H-173 M-170,264h-150v86h150V264L-170,264z"/>
	</g>
</g>
<g id="Layer_2" class="st7">
</g>
<ellipse class="st8" cx="-288.4" cy="315" rx="20.9" ry="1.6"/>
<path class="st9" d="M-265.8,306.2c0,1-0.8,1.8-1.8,1.8h-41.3c-1,0-1.8-0.8-1.8-1.8v-28c0-1,0.8-1.8,1.8-1.8h41.3
	c1,0,1.8,0.8,1.8,1.8V306.2z"/>
<g>
	<path class="st10" d="M-310.1,305.1c-0.2,0-0.3-0.1-0.3-0.3v-25c0-0.2,0.1-0.3,0.3-0.3h43.8c0.2,0,0.3,0.1,0.3,0.3v25
		c0,0.2-0.1,0.3-0.3,0.3H-310.1z"/>
	<path class="st11" d="M-266.4,279.9v25h-43.8v-25H-266.4 M-266.4,279.2h-43.8c-0.3,0-0.6,0.3-0.6,0.6v25c0,0.3,0.3,0.6,0.6,0.6
		h43.8c0.3,0,0.6-0.3,0.6-0.6v-25C-265.8,279.5-266,279.2-266.4,279.2L-266.4,279.2z"/>
</g>
<path class="st12" d="M-293.6,314.8c0-3.3,2.5-6.7,5.7-6.7s5.7,3.3,5.7,6.7H-293.6z"/>
<path class="st13" d="M-288,313.6"/>
<path class="st14" d="M-284.9,298.5h-10.3c-0.6,0-1.1-0.5-1.1-1.1v-10.2c0-0.6,0.5-1.1,1.1-1.1h14.6c0.6,0,1.1,0.5,1.1,1.1v9.4"/>
<path class="st15" d="M-295.9,287.4l6.5,7.4c0.7,0.7,2.7,0.7,3.3,0l6.2-7.1v-0.7h-16V287.4z"/>
<path class="st14" d="M-295.5,286.6l6.1,6.5c0.9,1,2.4,1,3.4,0l6.1-6.5"/>
<line class="st16" x1="-290" y1="292.5" x2="-294" y2="296.1"/>
<line class="st16" x1="-285.5" y1="292.5" x2="-283" y2="294.8"/>
<circle class="st17" cx="-282.2" cy="297" r="3.5"/>
<text transform="matrix(1 0 0 1 -283.5039 298.5576)" class="st18 st19 st20">8</text>
</svg>
