<?xml version="1.0" encoding="utf-8"?>
<!-- Generator: Adobe Illustrator 19.1.0, SVG Export Plug-In . SVG Version: 6.00 Build 0)  -->
<svg version="1.1" id="Layer_1" xmlns="http://www.w3.org/2000/svg" xmlns:xlink="http://www.w3.org/1999/xlink" x="0px" y="0px"
	 viewBox="-320 264 150 86" style="enable-background:new -320 264 150 86;" xml:space="preserve">
<style type="text/css">
	.st0{fill:#273038;}
	.st1{fill:#313C46;}
	.st2{opacity:0.5;fill:#FFFFFF;enable-background:new    ;}
	.st3{opacity:0.3;fill:#FFFFFF;enable-background:new    ;}
	.st4{fill:#FFFFFF;}
	.st5{fill:#E46644;}
	.st6{fill:#EAAA6A;}
	.st7{display:none;}
	.st8{fill:#FAFAFA;stroke:#1B293C;stroke-width:1.139;stroke-linecap:round;stroke-linejoin:round;stroke-miterlimit:10;}
	.st9{fill:none;stroke:#1B293C;stroke-width:0.5695;stroke-linecap:round;stroke-linejoin:round;stroke-miterlimit:10;}
	.st10{fill:#D2ECFB;}
	.st11{fill:#1B293C;}
	.st12{fill:#FFF5CC;stroke:#1B293C;stroke-width:0.8384;stroke-linecap:round;stroke-linejoin:round;stroke-miterlimit:10;}
	.st13{opacity:0.35;fill:#293342;}
	.st14{fill:none;stroke:#1B293C;stroke-width:0.8384;stroke-linecap:round;stroke-linejoin:round;stroke-miterlimit:10;}
	.st15{fill:#E05B49;}
	.st16{font-family:'Roboto-Regular';}
	.st17{font-size:5.0307px;}
</style>
<g id="Layer_1_1_">
	<rect x="-320" y="327" class="st0" width="150" height="23"/>
	<rect x="-320" y="264" class="st1" width="150" height="63"/>
	<path class="st2" d="M-180,277h-72c-0.6,0-1-0.4-1-1l0,0c0-0.6,0.4-1,1-1h72c0.6,0,1,0.4,1,1l0,0C-179,276.6-179.4,277-180,277z"/>
	<path class="st3" d="M-180,286h-72c-0.6,0-1-0.4-1-1l0,0c0-0.6,0.4-1,1-1h72c0.6,0,1,0.4,1,1l0,0C-179,285.6-179.4,286-180,286z"/>
	<path class="st3" d="M-180,295h-72c-0.6,0-1-0.4-1-1l0,0c0-0.6,0.4-1,1-1h72c0.6,0,1,0.4,1,1l0,0C-179,294.6-179.4,295-180,295z"/>
	<path class="st3" d="M-180,304h-72c-0.6,0-1-0.4-1-1l0,0c0-0.6,0.4-1,1-1h72c0.6,0,1,0.4,1,1l0,0C-179,303.6-179.4,304-180,304z"/>
	<path class="st3" d="M-180,313h-72c-0.6,0-1-0.4-1-1l0,0c0-0.6,0.4-1,1-1h72c0.6,0,1,0.4,1,1l0,0C-179,312.6-179.4,313-180,313z"/>
	<path class="st4" d="M-219,343h-90c-1.1,0-2-0.9-2-2v-5c0-1.1,0.9-2,2-2h90c1.1,0,2,0.9,2,2v5C-217,342.1-217.9,343-219,343z"/>
	<path class="st5" d="M-181,343h-28c-1.1,0-2-0.9-2-2v-5c0-1.1,0.9-2,2-2h28c1.1,0,2,0.9,2,2v5C-179,342.1-179.9,343-181,343z"/>
	<rect x="-320" y="264" class="st6" width="150" height="2"/>
</g>
<g id="Layer_2" class="st7">
</g>
<ellipse cx="-291.3" cy="318.7" rx="9.5" ry="1.5"/>
<path class="st8" d="M-302.1,276.4c0-1.3,1.1-2.4,2.4-2.4h15.8c1.3,0,2.4,1.1,2.4,2.4v31.5c0,1.3-1.1,2.4-2.4,2.4h-15.8
	c-1.3,0-2.4-1.1-2.4-2.4V276.4z"/>
<line class="st9" x1="-290.3" y1="277.2" x2="-293.4" y2="277.2"/>
<g>
	<path class="st10" d="M-301.6,304.6c-0.2,0-0.3-0.1-0.3-0.3V281c0-0.2,0.1-0.3,0.3-0.3h19.5c0.2,0,0.3,0.1,0.3,0.3v23.3
		c0,0.2-0.1,0.3-0.3,0.3H-301.6z"/>
	<g>
		<path class="st11" d="M-282.1,281v23.3h-19.5V281H-282.1 M-282.1,280.4h-19.5c-0.3,0-0.6,0.3-0.6,0.6v23.3c0,0.3,0.3,0.6,0.6,0.6
			h19.5c0.3,0,0.6-0.3,0.6-0.6V281C-281.5,280.7-281.7,280.4-282.1,280.4L-282.1,280.4z"/>
	</g>
</g>
<circle class="st9" cx="-291.8" cy="307.4" r="1.7"/>
<g>
	<path class="st12" d="M-282.5,299.2h-11.9c-0.7,0-1.3-0.6-1.3-1.3v-11.7c0-0.7,0.6-1.3,1.3-1.3h16.8c0.7,0,1.3,0.6,1.3,1.3V297"/>
	<path class="st13" d="M-295.2,286.5l7.5,8.5c0.8,0.9,3.1,0.8,3.8,0l7.2-8.2V286h-18.4L-295.2,286.5z"/>
	<path class="st12" d="M-294.7,285.6l7,7.5c1.1,1.2,2.8,1.2,3.9,0l7-7.5"/>
	<line class="st14" x1="-288.3" y1="292.4" x2="-292.9" y2="296.6"/>
	<line class="st14" x1="-283.2" y1="292.4" x2="-280.4" y2="295"/>
	<circle class="st15" cx="-279.5" cy="297.7" r="4"/>
	<text transform="matrix(1 0 0 1 -280.9227 299.3344)" class="st4 st16 st17">8</text>
</g>
</svg>
