<?xml version="1.0" encoding="utf-8"?>
<!-- Generator: Adobe Illustrator 19.1.0, SVG Export Plug-In . SVG Version: 6.00 Build 0)  -->
<svg version="1.1" id="Layer_1" xmlns="http://www.w3.org/2000/svg" xmlns:xlink="http://www.w3.org/1999/xlink" x="0px" y="0px"
	 viewBox="-320 264 150 86" style="enable-background:new -320 264 150 86;" xml:space="preserve">
<style type="text/css">
	.st0{fill:#AFE2DE;}
	.st1{fill:#244654;}
	.st2{fill:#F1622E;}
	.st3{opacity:0.25;enable-background:new    ;}
	.st4{opacity:0.1;enable-background:new    ;}
	.st5{fill:#FFFFFF;}
	.st6{display:none;}
	.st7{opacity:0.2;fill:#333333;}
	.st8{fill:#FAFAFA;stroke:#1B293C;stroke-width:1.1902;stroke-linecap:round;stroke-linejoin:round;stroke-miterlimit:10;}
	.st9{fill:none;stroke:#1B293C;stroke-width:0.5951;stroke-linecap:round;stroke-linejoin:round;stroke-miterlimit:10;}
	.st10{fill:#D2ECFB;}
	.st11{fill:#1B293C;}
	.st12{fill:#FFF5CC;stroke:#1B293C;stroke-width:0.8761;stroke-linecap:round;stroke-linejoin:round;stroke-miterlimit:10;}
	.st13{opacity:0.35;fill:#293342;}
	.st14{fill:none;stroke:#1B293C;stroke-width:0.8761;stroke-linecap:round;stroke-linejoin:round;stroke-miterlimit:10;}
	.st15{fill:#E05B49;}
	.st16{font-family:'Roboto-Regular';}
	.st17{font-size:5.2567px;}
</style>
<g id="Layer_1_1_">
	<rect x="-320" y="264" class="st0" width="150" height="63"/>
	<rect x="-320" y="325" class="st1" width="150" height="25"/>
	<path class="st2" d="M-181,342h-28c-1.1,0-2-0.9-2-2v-5c0-1.1,0.9-2,2-2h28c1.1,0,2,0.9,2,2v5C-179,341.1-179.9,342-181,342z"/>
	<path class="st3" d="M-180,278h-77.7c-0.6,0-1-0.4-1-1l0,0c0-0.6,0.4-1,1-1h77.7c0.6,0,1,0.4,1,1l0,0C-179,277.6-179.4,278-180,278
		z"/>
	<path class="st4" d="M-180,287h-77.7c-0.6,0-1-0.4-1-1l0,0c0-0.6,0.4-1,1-1h77.7c0.6,0,1,0.4,1,1l0,0C-179,286.6-179.4,287-180,287
		z"/>
	<path class="st4" d="M-180,296h-77.7c-0.6,0-1-0.4-1-1l0,0c0-0.6,0.4-1,1-1h77.7c0.6,0,1,0.4,1,1l0,0C-179,295.6-179.4,296-180,296
		z"/>
	<path class="st4" d="M-180,305h-77.7c-0.6,0-1-0.4-1-1l0,0c0-0.6,0.4-1,1-1h77.7c0.6,0,1,0.4,1,1l0,0C-179,304.6-179.4,305-180,305
		z"/>
	<path class="st4" d="M-180,314h-77.7c-0.6,0-1-0.4-1-1l0,0c0-0.6,0.4-1,1-1h77.7c0.6,0,1,0.4,1,1l0,0C-179,313.6-179.4,314-180,314
		z"/>
	<path class="st5" d="M-220.5,342H-309c-1.1,0-2-0.9-2-2v-5c0-1.1,0.9-2,2-2h88.5c1.1,0,2,0.9,2,2v5
		C-218.5,341.1-219.4,342-220.5,342z"/>
</g>
<g id="Layer_2" class="st6">
</g>
<ellipse class="st7" cx="-291.6" cy="320.5" rx="10" ry="1.6"/>
<path class="st8" d="M-302.8,276.3c0-1.4,1.1-2.5,2.5-2.5h16.5c1.4,0,2.5,1.1,2.5,2.5v33c0,1.4-1.1,2.5-2.5,2.5h-16.5
	c-1.4,0-2.5-1.1-2.5-2.5V276.3z"/>
<line class="st9" x1="-290.5" y1="277.1" x2="-293.8" y2="277.1"/>
<g>
	<path class="st10" d="M-302.3,305.8c-0.2,0-0.3-0.1-0.3-0.3v-24.4c0-0.2,0.1-0.3,0.3-0.3h20.4c0.2,0,0.3,0.1,0.3,0.3v24.4
		c0,0.2-0.1,0.3-0.3,0.3H-302.3z"/>
	<g>
		<path class="st11" d="M-281.9,281.1v24.4h-20.4v-24.4H-281.9 M-281.9,280.5h-20.4c-0.3,0-0.6,0.3-0.6,0.6v24.4
			c0,0.3,0.3,0.6,0.6,0.6h20.4c0.3,0,0.6-0.3,0.6-0.6v-24.4C-281.3,280.8-281.6,280.5-281.9,280.5L-281.9,280.5z"/>
	</g>
</g>
<circle class="st9" cx="-292.1" cy="308.7" r="1.8"/>
<g>
	<path class="st12" d="M-282.3,300.1h-12.4c-0.7,0-1.3-0.6-1.3-1.3v-12.3c0-0.7,0.6-1.3,1.3-1.3h17.5c0.7,0,1.3,0.6,1.3,1.3v11.2"/>
	<path class="st13" d="M-295.6,286.9l7.8,8.9c0.8,0.9,3.2,0.8,4,0l7.5-8.5v-0.9h-19.3L-295.6,286.9z"/>
	<path class="st12" d="M-295.1,285.9l7.3,7.8c1.1,1.2,2.9,1.2,4,0l7.3-7.8"/>
	<line class="st14" x1="-288.5" y1="293.1" x2="-293.3" y2="297.4"/>
	<line class="st14" x1="-283.1" y1="293.1" x2="-280.2" y2="295.7"/>
	<circle class="st15" cx="-279.2" cy="298.5" r="4.2"/>
	<text transform="matrix(1 0 0 1 -280.7363 300.2744)" class="st5 st16 st17">8</text>
</g>
</svg>
