<?xml version="1.0" encoding="utf-8"?>
<!-- Generator: Adobe Illustrator 19.1.0, SVG Export Plug-In . SVG Version: 6.00 Build 0)  -->
<svg version="1.1" id="Layer_1" xmlns="http://www.w3.org/2000/svg" xmlns:xlink="http://www.w3.org/1999/xlink" x="0px" y="0px"
	 viewBox="-320 264 150 86" style="enable-background:new -320 264 150 86;" xml:space="preserve">
<style type="text/css">
	.st0{fill:#DD4242;}
	.st1{opacity:0.2;fill:#FFFFFF;enable-background:new    ;}
	.st2{fill:#3B3B3B;}
	.st3{fill:#2AD4C0;}
	.st4{fill:#FFFFFF;}
	.st5{display:none;}
	.st6{opacity:0.2;fill:#333333;enable-background:new    ;}
	.st7{fill:#FAFAFA;stroke:#1B293C;stroke-width:1.0269;stroke-linecap:round;stroke-linejoin:round;stroke-miterlimit:10;}
	.st8{fill:none;stroke:#1B293C;stroke-width:0.5134;stroke-linecap:round;stroke-linejoin:round;stroke-miterlimit:10;}
	.st9{fill:#D2ECFB;}
	.st10{fill:#1B293C;}
	.st11{fill:#FFF5CC;stroke:#1B293C;stroke-width:0.6071;stroke-linecap:round;stroke-linejoin:round;stroke-miterlimit:10;}
	.st12{opacity:0.35;fill:#293342;enable-background:new    ;}
	.st13{fill:none;stroke:#1B293C;stroke-width:0.6071;stroke-linecap:round;stroke-linejoin:round;stroke-miterlimit:10;}
	.st14{opacity:0.75;}
	.st15{fill:#FFF5CC;stroke:#1B293C;stroke-width:0.3987;stroke-linecap:round;stroke-linejoin:round;stroke-miterlimit:10;}
	.st16{fill:none;stroke:#1B293C;stroke-width:0.3987;stroke-linecap:round;stroke-linejoin:round;stroke-miterlimit:10;}
	.st17{opacity:0.5;}
	.st18{fill:#FFF5CC;stroke:#1B293C;stroke-width:0.3125;stroke-linecap:round;stroke-linejoin:round;stroke-miterlimit:10;}
	.st19{fill:none;stroke:#1B293C;stroke-width:0.3125;stroke-linecap:round;stroke-linejoin:round;stroke-miterlimit:10;}
	.st20{opacity:0.2;}
	.st21{fill:#FFF5CC;stroke:#1B293C;stroke-width:0.2591;stroke-linecap:round;stroke-linejoin:round;stroke-miterlimit:10;}
	.st22{fill:none;stroke:#1B293C;stroke-width:0.2591;stroke-linecap:round;stroke-linejoin:round;stroke-miterlimit:10;}
</style>
<g id="Layer_1_1_">
	<rect x="-320" y="264" class="st0" width="150" height="86"/>
	<path class="st1" d="M-230,324h-80c-0.6,0-1-0.4-1-1l0,0c0-0.6,0.4-1,1-1h80c0.6,0,1,0.4,1,1l0,0C-229,323.6-229.4,324-230,324z"/>
	<path class="st1" d="M-230,333h-80c-0.6,0-1-0.4-1-1l0,0c0-0.6,0.4-1,1-1h80c0.6,0,1,0.4,1,1l0,0C-229,332.6-229.4,333-230,333z"/>
	<path class="st1" d="M-230,342h-80c-0.6,0-1-0.4-1-1l0,0c0-0.6,0.4-1,1-1h80c0.6,0,1,0.4,1,1l0,0C-229,341.6-229.4,342-230,342z"/>
	<rect x="-220" y="264" class="st2" width="50" height="86"/>
	<path class="st3" d="M-181,327h-28c-1.1,0-2-0.9-2-2v-5c0-1.1,0.9-2,2-2h28c1.1,0,2,0.9,2,2v5C-179,326.1-179.9,327-181,327z"/>
	<path class="st4" d="M-181,312h-28c-1.1,0-2-0.9-2-2v-5c0-1.1,0.9-2,2-2h28c1.1,0,2,0.9,2,2v5C-179,311.1-179.9,312-181,312z"/>
	<path class="st4" d="M-181,297h-28c-1.1,0-2-0.9-2-2v-5c0-1.1,0.9-2,2-2h28c1.1,0,2,0.9,2,2v5C-179,296.1-179.9,297-181,297z"/>
</g>
<g id="Layer_2" class="st5">
</g>
<ellipse class="st6" cx="-271.6" cy="312.9" rx="8.6" ry="1.4"/>
<path class="st7" d="M-281.4,274.8c0-1.2,1-2.1,2.1-2.1h14.2c1.2,0,2.1,1,2.1,2.1v28.4c0,1.2-1,2.1-2.1,2.1h-14.2
	c-1.2,0-2.1-1-2.1-2.1V274.8z"/>
<line class="st8" x1="-270.8" y1="275.5" x2="-273.6" y2="275.5"/>
<g>
	<path class="st9" d="M-281,300.1c-0.1,0-0.3-0.1-0.3-0.3v-21c0-0.1,0.1-0.3,0.3-0.3h17.6c0.1,0,0.3,0.1,0.3,0.3v21
		c0,0.1-0.1,0.3-0.3,0.3H-281z"/>
	<g>
		<path class="st10" d="M-263.4,278.9v21H-281v-21H-263.4 M-263.4,278.4H-281c-0.3,0-0.5,0.2-0.5,0.5v21c0,0.3,0.2,0.5,0.5,0.5h17.6
			c0.3,0,0.5-0.2,0.5-0.5v-21C-262.9,278.5-263.1,278.4-263.4,278.4L-263.4,278.4z"/>
	</g>
</g>
<circle class="st8" cx="-272.2" cy="302.6" r="1.5"/>
<g>
	<path class="st11" d="M-265,292.9v-8.5c0-0.5-0.4-0.9-0.9-0.9H-278c-0.5,0-0.9,0.4-0.9,0.9v8.5c0,0.5,0.4,0.9,0.9,0.9h12.1
		C-265.4,293.8-265,293.4-265,292.9z"/>
	<path class="st12" d="M-278.6,284.5l5.4,6.2c0.6,0.6,2.2,0.5,2.7,0l5.2-5.9v-0.6h-13.3L-278.6,284.5z"/>
	<path class="st11" d="M-278.3,284l5.1,5.4c0.8,0.8,2,0.8,2.8,0l5.1-5.4"/>
	<line class="st13" x1="-273.7" y1="288.9" x2="-277" y2="291.9"/>
	<line class="st13" x1="-270" y1="288.9" x2="-266.7" y2="292"/>
</g>
<g class="st14">
	<path class="st15" d="M-251.2,287l1.7-5.3c0.1-0.3-0.1-0.7-0.4-0.8l-7.6-2.4c-0.3-0.1-0.7,0.1-0.8,0.4l-1.7,5.3
		c-0.1,0.3,0.1,0.7,0.4,0.8l7.6,2.4C-251.7,287.5-251.3,287.4-251.2,287z"/>
	<path class="st12" d="M-258.1,279.1l2.2,4.9c0.2,0.5,1.3,0.8,1.7,0.5l4.4-2.7l0.1-0.4l-8.4-2.6V279.1z"/>
	<path class="st15" d="M-257.8,278.9l2.1,4.4c0.3,0.7,1.1,0.9,1.8,0.6l4.2-2.4"/>
	<line class="st16" x1="-255.9" y1="282.9" x2="-258.6" y2="284"/>
	<line class="st16" x1="-253.6" y1="283.5" x2="-252.1" y2="286.1"/>
</g>
<g class="st17">
	<path class="st18" d="M-251.1,296l-1-4.3c-0.1-0.3-0.3-0.4-0.6-0.3l-6.1,1.5c-0.3,0.1-0.4,0.3-0.3,0.6l1,4.3
		c0.1,0.3,0.3,0.4,0.6,0.3l6.1-1.4C-251.2,296.5-251,296.1-251.1,296z"/>
	<path class="st12" d="M-258.9,293.4l3.5,2.4c0.4,0.2,1.2,0,1.4-0.3l1.9-3.6l-0.1-0.3l-6.7,1.6L-258.9,293.4z"/>
	<path class="st18" d="M-258.8,293l3.2,2.1c0.5,0.3,1.1,0.2,1.4-0.3l1.9-3.3"/>
	<line class="st19" x1="-255.9" y1="295" x2="-257.2" y2="296.9"/>
	<line class="st19" x1="-254.1" y1="294.5" x2="-252.1" y2="295.6"/>
</g>
<g class="st20">
	<path class="st21" d="M-242.3,292.5l1.1-3.5c0.1-0.2,0-0.4-0.2-0.5l-4.9-1.6c-0.2-0.1-0.4,0-0.5,0.2l-1.1,3.4
		c-0.1,0.2,0,0.4,0.2,0.5l4.9,1.6C-242.6,292.9-242.4,292.8-242.3,292.5z"/>
	<path class="st12" d="M-246.8,287.4l1.4,3.2c0.1,0.3,0.8,0.5,1.1,0.4l2.9-1.7l0.1-0.2l-5.4-1.8L-246.8,287.4z"/>
	<path class="st21" d="M-246.6,287.1l1.3,2.9c0.2,0.4,0.7,0.6,1.1,0.4l2.8-1.5"/>
	<line class="st22" x1="-245.3" y1="289.8" x2="-247.1" y2="290.5"/>
	<line class="st22" x1="-243.8" y1="290.2" x2="-242.9" y2="292"/>
</g>
<g class="st14">
	<path class="st15" d="M-293.1,287l-1.7-5.3c-0.1-0.3,0.1-0.7,0.4-0.8l7.6-2.4c0.3-0.1,0.7,0.1,0.8,0.4l1.7,5.3
		c0.1,0.3-0.1,0.7-0.4,0.8l-7.6,2.4C-292.7,287.5-293,287.4-293.1,287z"/>
	<path class="st12" d="M-286.2,279.1l-2.2,4.9c-0.2,0.5-1.3,0.8-1.7,0.5l-4.4-2.7l-0.1-0.4l8.4-2.6L-286.2,279.1z"/>
	<path class="st15" d="M-286.5,278.9l-2.1,4.4c-0.3,0.7-1.1,0.9-1.8,0.6l-4.2-2.4"/>
	<line class="st16" x1="-288.4" y1="282.9" x2="-285.8" y2="284"/>
	<line class="st16" x1="-290.7" y1="283.5" x2="-292.2" y2="286.1"/>
</g>
<g class="st17">
	<path class="st18" d="M-293.2,296l1-4.3c0.1-0.3,0.3-0.4,0.6-0.3l6.1,1.5c0.3,0.1,0.4,0.3,0.3,0.6l-1,4.3c-0.1,0.3-0.3,0.4-0.6,0.3
		l-6.1-1.4C-293.1,296.5-293.3,296.1-293.2,296z"/>
	<path class="st12" d="M-285.4,293.4l-3.5,2.4c-0.4,0.2-1.2,0-1.4-0.3l-1.9-3.6l0.1-0.3l6.7,1.6L-285.4,293.4z"/>
	<path class="st18" d="M-285.5,293l-3.2,2.1c-0.5,0.3-1.1,0.2-1.4-0.3l-1.9-3.3"/>
	<line class="st19" x1="-288.4" y1="295" x2="-287.1" y2="296.9"/>
	<line class="st19" x1="-290.2" y1="294.5" x2="-292.2" y2="295.6"/>
</g>
<g class="st20">
	<path class="st21" d="M-302,292.5l-1.1-3.5c-0.1-0.2,0-0.4,0.2-0.5l4.9-1.6c0.2-0.1,0.4,0,0.5,0.2l1.1,3.4c0.1,0.2,0,0.4-0.2,0.5
		l-4.9,1.6C-301.7,292.9-301.9,292.8-302,292.5z"/>
	<path class="st12" d="M-297.5,287.4l-1.4,3.2c-0.1,0.3-0.8,0.5-1.1,0.4l-2.9-1.7l-0.1-0.2l5.4-1.8L-297.5,287.4z"/>
	<path class="st21" d="M-297.8,287.1l-1.3,2.9c-0.2,0.4-0.7,0.6-1.1,0.4l-2.8-1.5"/>
	<line class="st22" x1="-299" y1="289.8" x2="-297.2" y2="290.5"/>
	<line class="st22" x1="-300.5" y1="290.2" x2="-301.4" y2="292"/>
</g>
</svg>
