<?xml version="1.0" encoding="utf-8"?>
<!-- Generator: Adobe Illustrator 19.1.0, SVG Export Plug-In . SVG Version: 6.00 Build 0)  -->
<svg version="1.1" id="Layer_1" xmlns="http://www.w3.org/2000/svg" xmlns:xlink="http://www.w3.org/1999/xlink" x="0px" y="0px"
	 viewBox="-320 264 150 86" style="enable-background:new -320 264 150 86;" xml:space="preserve">
<style type="text/css">
	.st0{fill:#F0F0F0;}
	.st1{fill:#349DE8;}
	.st2{opacity:0.25;enable-background:new    ;}
	.st3{opacity:0.1;enable-background:new    ;}
	.st4{fill:#FFFFFF;}
	.st5{fill:#164363;}
	.st6{fill:#A84437;stroke:#000000;stroke-width:0.5;stroke-miterlimit:10;}
	.st7{fill:#702E25;stroke:#000000;stroke-width:0.5;stroke-miterlimit:10;}
	.st8{fill:#E05B49;stroke:#000000;stroke-width:0.5;stroke-miterlimit:10;}
	.st9{display:none;}
	.st10{fill:#FDF4EE;}
	.st11{font-family:'OpenSans-Light';}
	.st12{font-size:10px;}
	.st13{letter-spacing:2;}
</style>
<rect x="-320" y="264" class="st0" width="150" height="63"/>
<polygon class="st1" points="-170,350 -320,350 -320,322 -245,327 -170,322 "/>
<path class="st2" d="M-180,305h-130c-0.6,0-1-0.4-1-1l0,0c0-0.6,0.4-1,1-1h130c0.6,0,1,0.4,1,1l0,0C-179,304.6-179.4,305-180,305z"
	/>
<path class="st3" d="M-180,314h-130c-0.6,0-1-0.4-1-1l0,0c0-0.6,0.4-1,1-1h130c0.6,0,1,0.4,1,1l0,0C-179,313.6-179.4,314-180,314z"
	/>
<path class="st4" d="M-218,343h-92c-0.6,0-1-0.4-1-1v-7c0-0.6,0.4-1,1-1h92c0.6,0,1,0.4,1,1v7C-217,342.6-217.4,343-218,343z"/>
<path class="st5" d="M-180,343h-30c-0.6,0-1-0.4-1-1v-7c0-0.6,0.4-1,1-1h30c0.6,0,1,0.4,1,1v7C-179,342.6-179.4,343-180,343z"/>
<path class="st1" d="M-172,266v82h-146v-82H-172 M-170,264h-150v86h150V264L-170,264z"/>
<polygon class="st6" points="-308,292.6 -288.8,292.6 -288.8,274.8 -308,274.8 -302.3,283.7 "/>
<polygon class="st7" points="-293,279.7 -288.8,275.1 -288.8,279.7 "/>
<polygon class="st6" points="-186.6,283.7 -180.9,274.8 -200.2,274.8 -200.2,292.6 -180.9,292.6 "/>
<polygon class="st7" points="-200.2,279.7 -200.2,275.1 -195.9,279.7 "/>
<path class="st8" d="M-288.2,278.2h87.4c4.3,0,7.8,3.5,7.8,7.8v0c0,4.3-3.5,7.8-7.8,7.8h-87.4c-4.3,0-7.8-3.5-7.8-7.8v0
	C-296,281.7-292.5,278.2-288.2,278.2z"/>
<g id="Layer_2" class="st9">
</g>
<text transform="matrix(1 0 0 1 -280.1507 289.529)" class="st10 st11 st12 st13">SUBSCRIBE!</text>
</svg>
