<?xml version="1.0" encoding="utf-8"?>
<!-- Generator: Adobe Illustrator 19.1.0, SVG Export Plug-In . SVG Version: 6.00 Build 0)  -->
<svg version="1.1" id="Layer_1" xmlns="http://www.w3.org/2000/svg" xmlns:xlink="http://www.w3.org/1999/xlink" x="0px" y="0px"
	 viewBox="-320 264 150 86" style="enable-background:new -320 264 150 86;" xml:space="preserve">
<style type="text/css">
	.st0{fill:#3B3B3B;}
	.st1{fill:#92C927;}
	.st2{opacity:0.8;fill:#FFFFFF;enable-background:new    ;}
	.st3{opacity:0.45;fill:#FFFFFF;enable-background:new    ;}
	.st4{fill:#FFFFFF;}
	.st5{fill:#3BB4F5;}
	.st6{display:none;}
	.st7{opacity:0.2;fill:#333333;enable-background:new    ;}
	.st8{fill:#F9DEDB;stroke:#000000;stroke-width:1.2058;stroke-linecap:round;stroke-linejoin:round;stroke-miterlimit:10;}
	.st9{fill:#FFFFFF;stroke:#000000;stroke-width:1.2058;stroke-linecap:round;stroke-linejoin:round;stroke-miterlimit:10;}
	.st10{fill:none;stroke:#999999;stroke-width:0.7482;stroke-linecap:round;stroke-linejoin:round;stroke-miterlimit:10;}
	.st11{fill:#E05B49;stroke:#000000;stroke-width:0.7482;stroke-linecap:round;stroke-linejoin:round;stroke-miterlimit:10;}
	.st12{opacity:0.35;fill:#293342;enable-background:new    ;}
</style>
<rect x="-320" y="327" class="st0" width="150" height="23"/>
<rect x="-320" y="264" class="st1" width="150" height="63"/>
<path class="st2" d="M-180.3,275h-71.4c-0.7,0-1.3-0.4-1.3-1l0,0c0-0.6,0.6-1,1.3-1h71.4c0.7,0,1.3,0.4,1.3,1l0,0
	C-179,274.6-179.6,275-180.3,275z"/>
<path class="st3" d="M-180.3,284h-71.4c-0.7,0-1.3-0.4-1.3-1l0,0c0-0.6,0.6-1,1.3-1h71.4c0.7,0,1.3,0.4,1.3,1l0,0
	C-179,283.6-179.6,284-180.3,284z"/>
<path class="st3" d="M-180.3,293h-71.4c-0.7,0-1.3-0.4-1.3-1l0,0c0-0.6,0.6-1,1.3-1h71.4c0.7,0,1.3,0.4,1.3,1l0,0
	C-179,292.6-179.6,293-180.3,293z"/>
<path class="st3" d="M-180.3,302h-71.4c-0.7,0-1.3-0.4-1.3-1l0,0c0-0.6,0.6-1,1.3-1h71.4c0.7,0,1.3,0.4,1.3,1l0,0
	C-179,301.6-179.6,302-180.3,302z"/>
<path class="st3" d="M-180.3,311h-71.4c-0.7,0-1.3-0.4-1.3-1l0,0c0-0.6,0.6-1,1.3-1h71.4c0.7,0,1.3,0.4,1.3,1l0,0
	C-179,310.6-179.6,311-180.3,311z"/>
<path class="st3" d="M-180.3,320h-71.4c-0.7,0-1.3-0.4-1.3-1l0,0c0-0.6,0.6-1,1.3-1h71.4c0.7,0,1.3,0.4,1.3,1l0,0
	C-179,319.6-179.6,320-180.3,320z"/>
<path class="st4" d="M-219,343h-90c-1.1,0-2-0.9-2-2v-5c0-1.1,0.9-2,2-2h90c1.1,0,2,0.9,2,2v5C-217,342.1-217.9,343-219,343z"/>
<path class="st5" d="M-181,343h-28c-1.1,0-2-0.9-2-2v-5c0-1.1,0.9-2,2-2h28c1.1,0,2,0.9,2,2v5C-179,342.1-179.9,343-181,343z"/>
<g id="Layer_2" class="st6">
</g>
<ellipse class="st7" cx="-289.4" cy="317.9" rx="12.1" ry="1.6"/>
<path class="st8" d="M-306.1,303.8c0,3,3.6,5.2,6.8,2.5c0.5-0.4,0.7-1,0.7-1.6V278h-6.4c-0.6,0-1,0.5-1,1v24.8H-306.1z"/>
<path class="st9" d="M-302.3,307.9h29.6c0.6,0,1.1-0.5,1.1-1.1v-32.3c0-0.6-0.5-1.1-1.1-1.1h-24.8c-0.6,0-1.1,0.5-1.1,1.1v29.6
	C-298.6,304.2-299,307.9-302.3,307.9z"/>
<line class="st10" x1="-294.9" y1="284" x2="-287.4" y2="284"/>
<line class="st10" x1="-295.1" y1="279.5" x2="-275.4" y2="279.5"/>
<line class="st10" x1="-294.9" y1="288.4" x2="-290.4" y2="288.4"/>
<line class="st10" x1="-294.9" y1="292.9" x2="-287.4" y2="292.9"/>
<rect x="-283.6" y="284" class="st11" width="9" height="9"/>
<line class="st10" x1="-295.1" y1="297.4" x2="-275.4" y2="297.4"/>
<line class="st10" x1="-295.1" y1="301.9" x2="-280.1" y2="301.9"/>
<path class="st12" d="M-299.4,278.7h-0.9c-0.3,10-0.9,27.9-3.2,27.9c0,0,3.6,1.2,4.4-2.2C-298.2,300.4-299.4,278.7-299.4,278.7z"/>
</svg>
