<?xml version="1.0" encoding="utf-8"?>
<!-- Generator: Adobe Illustrator 19.1.0, SVG Export Plug-In . SVG Version: 6.00 Build 0)  -->
<svg version="1.1" id="Layer_1" xmlns="http://www.w3.org/2000/svg" xmlns:xlink="http://www.w3.org/1999/xlink" x="0px" y="0px"
	 viewBox="-644 408 150 86" style="enable-background:new -644 408 150 86;" xml:space="preserve">
<style type="text/css">
	.st0{display:none;}
	.st1{display:inline;fill:#F0F0F0;}
	.st2{display:inline;fill:#FFB040;}
	.st3{display:inline;opacity:0.25;enable-background:new    ;}
	.st4{display:inline;opacity:0.1;enable-background:new    ;}
	.st5{display:inline;opacity:0.2;enable-background:new    ;}
	.st6{display:inline;fill:#FFFFFF;}
	.st7{display:inline;}
	.st8{fill:#31343B;}
	.st9{fill:#4F535E;}
	.st10{opacity:0.7;}
	.st11{fill:#D9D3CD;}
	.st12{fill:#EDE7DF;}
	.st13{fill:#EBE4DC;}
	.st14{opacity:0.6;}
	.st15{opacity:0.4;}
	.st16{fill:#FFC15E;}
	.st17{opacity:5.000000e-02;}
	.st18{fill:#DBD7D2;}
	.st19{fill:#D3CFC9;}
	.st20{fill:#E57C58;}
	.st21{fill:#C2BEB9;}
	.st22{fill:#B7B3AE;}
	.st23{fill:#FFFFFF;}
	.st24{opacity:5.000000e-02;enable-background:new    ;}
	.st25{fill:#639DC7;}
	.st26{opacity:0.1;}
	.st27{fill:#F5F0EB;}
	.st28{fill:#F59C36;}
	.st29{fill:#74C7A5;}
	.st30{opacity:0.15;enable-background:new    ;}
	.st31{fill:#F0F0F0;}
	.st32{fill:#9C30FF;}
	.st33{opacity:0.25;enable-background:new    ;}
	.st34{opacity:0.1;enable-background:new    ;}
	.st35{opacity:0.2;enable-background:new    ;}
	.st36{fill:#FAFAFA;stroke:#1B293C;stroke-width:0.9859;stroke-linecap:round;stroke-linejoin:round;stroke-miterlimit:10;}
	.st37{fill:#D2ECFB;}
	.st38{fill:#1B293C;}
	.st39{fill:#FAFAFA;stroke:#000000;stroke-width:0.9859;stroke-linecap:round;stroke-linejoin:round;stroke-miterlimit:10;}
	.st40{fill:#F9DEDB;stroke:#000000;stroke-width:0.6859;stroke-linecap:round;stroke-linejoin:round;stroke-miterlimit:10;}
	.st41{fill:#FFFFFF;stroke:#000000;stroke-width:0.6859;stroke-linecap:round;stroke-linejoin:round;stroke-miterlimit:10;}
	.st42{fill:none;stroke:#999999;stroke-width:0.3429;stroke-linecap:round;stroke-linejoin:round;stroke-miterlimit:10;}
	.st43{fill:#E05B49;stroke:#000000;stroke-width:0.3429;stroke-linecap:round;stroke-linejoin:round;stroke-miterlimit:10;}
	.st44{opacity:0.35;fill:#293342;enable-background:new    ;}
	.st45{opacity:0.75;}
	.st46{fill:#FFF5CC;stroke:#1B293C;stroke-width:0.3828;stroke-linecap:round;stroke-linejoin:round;stroke-miterlimit:10;}
	.st47{fill:none;stroke:#1B293C;stroke-width:0.3828;stroke-linecap:round;stroke-linejoin:round;stroke-miterlimit:10;}
	.st48{opacity:0.5;}
	.st49{fill:#FFF5CC;stroke:#1B293C;stroke-width:0.3;stroke-linecap:round;stroke-linejoin:round;stroke-miterlimit:10;}
	.st50{fill:none;stroke:#1B293C;stroke-width:0.3;stroke-linecap:round;stroke-linejoin:round;stroke-miterlimit:10;}
	.st51{opacity:0.2;}
	.st52{fill:#FFF5CC;stroke:#1B293C;stroke-width:0.2488;stroke-linecap:round;stroke-linejoin:round;stroke-miterlimit:10;}
	.st53{fill:none;stroke:#1B293C;stroke-width:0.2488;stroke-linecap:round;stroke-linejoin:round;stroke-miterlimit:10;}
</style>
<g id="Layer_1_1_" class="st0">
	<rect x="-1284" y="936" class="st1" width="150" height="63"/>
	<rect x="-1284" y="999" class="st2" width="150" height="23"/>
	<path class="st3" d="M-1144,982h-130c-0.6,0-1-0.4-1-1l0,0c0-0.6,0.4-1,1-1h130c0.6,0,1,0.4,1,1l0,0
		C-1143,981.6-1143.4,982-1144,982z"/>
	<path class="st4" d="M-1144,991h-130c-0.6,0-1-0.4-1-1l0,0c0-0.6,0.4-1,1-1h130c0.6,0,1,0.4,1,1l0,0
		C-1143,990.6-1143.4,991-1144,991z"/>
	<path class="st5" d="M-1182,1015h-92c-0.6,0-1-0.4-1-1v-7c0-0.6,0.4-1,1-1h92c0.6,0,1,0.4,1,1v7
		C-1181,1014.6-1181.4,1015-1182,1015z"/>
	<path class="st6" d="M-1144,1015h-30c-0.6,0-1-0.4-1-1v-7c0-0.6,0.4-1,1-1h30c0.6,0,1,0.4,1,1v7
		C-1143,1014.6-1143.4,1015-1144,1015z"/>
	<g class="st7">
		<g>
			<polygon class="st8" points="-1205,974.8 -1216,974.8 -1215,969 -1206,969 			"/>
			<path class="st9" d="M-1202.2,974.8h-16.7l0,0c0-1,0.8-1.8,1.8-1.8h13.1C-1203,973-1202.2,973.8-1202.2,974.8L-1202.2,974.8
				L-1202.2,974.8z"/>
		</g>
		<g class="st10">
			<path class="st11" d="M-1173.1,943.8l-0.4,0.3c-0.1,0.1-0.2,0.2-0.3,0.3l-3.8,4.8l6.9,2.2c0.2-0.1,0.3-0.2,0.2-0.4l-2.3-7.1
				C-1172.9,943.8-1173,943.8-1173.1,943.8z"/>
			<path class="st11" d="M-1184.5,947.5h0.5c0.1,0,0.3,0,0.4,0.1l6.1,1.6l-4.4,5.8c-0.2,0.1-0.3,0-0.4-0.2l-2.3-7.1
				C-1184.7,947.6-1184.6,947.5-1184.5,947.5z"/>
			<path class="st12" d="M-1182.3,954.9l4.7-5.6l7.1,1.8c0.1,0.1,0.1,0.3-0.1,0.3l-11.5,3.7C-1182.2,955.1-1182.3,955-1182.3,954.9z
				"/>
			<path class="st13" d="M-1172.8,944l-4.2,5.9c-0.1,0.2-0.4,0.3-0.6,0.2l-7-2.3c-0.1-0.1-0.1-0.3,0.1-0.3l11.5-3.7
				C-1173,943.8-1172.8,943.9-1172.8,944z"/>
		</g>
		<g class="st10">
			<path class="st11" d="M-1235.5,954.6l-0.5,0.1c-0.1,0-0.2,0.1-0.4,0.1l-5.7,2.4l5.1,5.2c0.2,0,0.3,0,0.3-0.3l1.3-7.3
				C-1235.3,954.6-1235.4,954.5-1235.5,954.6z"/>
			<path class="st11" d="M-1247.3,952.4l0.4,0.3c0.1,0.1,0.2,0.1,0.3,0.2l4.6,4.3l-6.7,3c-0.2,0-0.3-0.1-0.2-0.4l1.3-7.3
				C-1247.5,952.4-1247.4,952.3-1247.3,952.4z"/>
			<path class="st12" d="M-1248.8,959.9l6.8-2.7l5.4,5c0,0.1-0.1,0.3-0.2,0.3l-11.9-2.2C-1248.8,960.2-1248.9,960.1-1248.8,959.9z"
				/>
			<path class="st13" d="M-1235.4,954.8l-6.5,3.2c-0.2,0.1-0.5,0.1-0.6-0.1l-5-5.3c0-0.1,0.1-0.3,0.2-0.3l11.8,2.2
				C-1235.4,954.6-1235.3,954.7-1235.4,954.8z"/>
		</g>
		<g class="st14">
			<path class="st11" d="M-1162.9,958.8h-0.4c-0.1,0-0.2,0-0.3,0l-4.4,0.5l2.4,4.6c0.2,0.1,0.2,0,0.3-0.1l2.4-4.8
				C-1162.8,958.9-1162.8,958.8-1162.9,958.8z"/>
			<path class="st11" d="M-1170.5,954.9l0.2,0.3c0.1,0.1,0.1,0.1,0.1,0.2l2.3,3.9l-5.2,0.7c-0.2-0.1-0.2-0.1-0.1-0.3l2.4-4.8
				C-1170.7,954.9-1170.6,954.8-1170.5,954.9z"/>
			<path class="st12" d="M-1173.2,959.8l5.2-0.5l2.7,4.5c0,0.1-0.1,0.2-0.2,0.1L-1173.2,959.8
				C-1173.2,960-1173.2,959.8-1173.2,959.8z"/>
			<path class="st13" d="M-1162.9,959.1l-5.1,0.9c-0.2,0-0.3-0.1-0.4-0.2l-2.4-4.7c0-0.1,0.1-0.2,0.2-0.1l7.7,3.9
				C-1162.8,958.9-1162.8,959-1162.9,959.1z"/>
		</g>
		<g class="st14">
			<path class="st11" d="M-1248.9,945.2l-0.2,0.3c-0.1,0.1-0.1,0.1-0.2,0.2l-2.3,3.8l5.1,0.9c0.2-0.1,0.2-0.1,0.1-0.3l-2.3-4.8
				C-1248.7,945.1-1248.8,945.1-1248.9,945.2z"/>
			<path class="st11" d="M-1256.7,948.8h0.4c0.1,0,0.2,0,0.3,0l4.5,0.6l-2.7,4.6c-0.2,0.1-0.2,0-0.3-0.1l-2.3-4.8
				C-1256.8,948.9-1256.8,948.8-1256.7,948.8z"/>
			<path class="st12" d="M-1254.5,953.8l2.8-4.4l5.2,0.7c0.1,0.1,0.1,0.2,0,0.2l-7.9,3.7C-1254.4,954-1254.5,954-1254.5,953.8z"/>
			<path class="st13" d="M-1248.7,945.3l-2.5,4.6c-0.1,0.2-0.3,0.2-0.4,0.2l-5.2-1c-0.1-0.1-0.1-0.2,0-0.2l7.8-3.6
				C-1248.8,945.1-1248.7,945.2-1248.7,945.3z"/>
		</g>
		<g class="st14">
			<path class="st11" d="M-1186.5,957.8l-0.2,0.3c-0.1,0.1-0.1,0.1-0.1,0.2l-2,3.9l5.2,0.5c0.2-0.1,0.2-0.1,0.1-0.3l-2.7-4.6
				C-1186.3,957.7-1186.4,957.7-1186.5,957.8z"/>
			<path class="st11" d="M-1193.9,962h0.4c0.1,0,0.2,0,0.3,0l4.5,0.2l-2.3,4.8c-0.2,0.1-0.2,0.1-0.3-0.1l-2.7-4.6
				C-1194.1,962.1-1194,962-1193.9,962z"/>
			<path class="st12" d="M-1191.3,966.9l2.5-4.6l5.3,0.3c0.1,0.1,0.1,0.2,0,0.2l-7.5,4.3C-1191.2,967-1191.3,967-1191.3,966.9z"/>
			<path class="st13" d="M-1186.2,957.9l-2.1,4.8c-0.1,0.2-0.2,0.3-0.4,0.2l-5.2-0.6c-0.1-0.1-0.1-0.2,0-0.2l7.5-4.3
				C-1186.4,957.7-1186.2,957.8-1186.2,957.9z"/>
		</g>
		<g class="st14">
			<path class="st11" d="M-1159,948.9l-0.2,0.1l-0.1,0.1l-1.7,1.9l2.9,1c0.1,0,0.1-0.1,0.1-0.2l-0.9-3
				C-1158.9,948.9-1159,948.9-1159,948.9z"/>
			<path class="st11" d="M-1163.8,950.3h0.2c0.1,0,0.1,0,0.2,0l2.5,0.7l-1.9,2.4c-0.1,0-0.1,0-0.2-0.1L-1163.8,950.3
				C-1163.9,950.3-1163.9,950.3-1163.8,950.3z"/>
			<path class="st12" d="M-1163,953.4l2-2.3l2.9,0.9v0.1L-1163,953.4C-1163,953.5-1163,953.4-1163,953.4z"/>
			<path class="st13" d="M-1158.9,949l-1.8,2.4c-0.1,0.1-0.2,0.1-0.3,0.1l-2.9-1.1v-0.1L-1158.9,949
				C-1159,948.9-1158.9,948.9-1158.9,949z"/>
		</g>
		<g class="st15">
			<path class="st11" d="M-1148.5,958.3L-1148.5,958.3h-0.2l-1.6,0.4l1.2,1.6c0.1,0,0.1,0,0.1-0.1L-1148.5,958.3L-1148.5,958.3z"/>
			<path class="st11" d="M-1151.7,957.2L-1151.7,957.2c0.1,0.1,0.2,0.1,0.2,0.2l1.1,1.4l-2,0.6c-0.1,0-0.1,0,0-0.1L-1151.7,957.2
				L-1151.7,957.2z"/>
			<path class="st12" d="M-1152.4,959.2l2-0.5l1.3,1.6c0,0,0,0.1-0.1,0.1L-1152.4,959.2C-1152.4,959.3-1152.4,959.3-1152.4,959.2z"
				/>
			<path class="st13" d="M-1148.5,958.4l-1.9,0.6c-0.1,0-0.1,0-0.2-0.1l-1.2-1.7c0,0,0-0.1,0.1-0.1L-1148.5,958.4
				C-1148.5,958.3-1148.5,958.3-1148.5,958.4z"/>
		</g>
		<g class="st15">
			<path class="st11" d="M-1271.1,951.2L-1271.1,951.2c-0.1,0.1-0.1,0.2-0.2,0.2l-0.8,1.5l2,0.3c0.1,0,0.1-0.1,0-0.1L-1271.1,951.2
				C-1271,951.2-1271,951.2-1271.1,951.2z"/>
			<path class="st11" d="M-1274,952.7L-1274,952.7h0.2l1.7,0.2l-1,1.8c-0.1,0-0.1,0-0.1,0L-1274,952.7
				C-1274.1,952.7-1274.1,952.7-1274,952.7z"/>
			<path class="st12" d="M-1273.1,954.6l1-1.7l2,0.2v0.1L-1273.1,954.6C-1273,954.7-1273.1,954.7-1273.1,954.6z"/>
			<path class="st13" d="M-1271,951.2l-0.9,1.8c0,0.1-0.1,0.1-0.2,0.1l-2-0.3v-0.1L-1271,951.2L-1271,951.2z"/>
		</g>
		<g class="st14">
			<path class="st11" d="M-1259.2,955.5h-0.2c-0.1,0-0.1,0-0.2,0l-2.5,0.4l1.5,2.6c0.1,0,0.1,0,0.2-0.1L-1259.2,955.5
				C-1259.1,955.6-1259.2,955.5-1259.2,955.5z"/>
			<path class="st11" d="M-1263.7,953.4l0.1,0.2l0.1,0.1l1.4,2.2l-3,0.5c-0.1,0-0.1-0.1-0.1-0.2l1.3-2.8
				C-1263.8,953.4-1263.8,953.4-1263.7,953.4z"/>
			<path class="st12" d="M-1265.1,956.3l3-0.4l1.7,2.5c0,0.1-0.1,0.1-0.1,0.1L-1265.1,956.3
				C-1265.2,956.4-1265.2,956.4-1265.1,956.3z"/>
			<path class="st13" d="M-1259.2,955.6l-2.9,0.6c-0.1,0-0.2,0-0.2-0.1l-1.5-2.7c0-0.1,0.1-0.1,0.1-0.1l4.6,2.1
				C-1259.1,955.5-1259.1,955.6-1259.2,955.6z"/>
		</g>
		<g class="st14">
			<path class="st11" d="M-1229.6,960.4l-0.2,0.1l-0.1,0.1l-1.8,1.8l2.8,1.2c0.1,0,0.1-0.1,0.1-0.2L-1229.6,960.4
				C-1229.5,960.4-1229.5,960.3-1229.6,960.4z"/>
			<path class="st11" d="M-1234.5,961.4h0.2c0.1,0,0.1,0,0.2,0l2.5,0.9l-2.1,2.2c-0.1,0-0.1,0-0.1-0.1L-1234.5,961.4
				C-1234.5,961.5-1234.5,961.4-1234.5,961.4z"/>
			<path class="st12" d="M-1233.8,964.6l2.2-2.1l2.9,1v0.1l-4.9,1.1C-1233.8,964.7-1233.8,964.6-1233.8,964.6z"/>
			<path class="st13" d="M-1229.5,960.4l-2,2.3c-0.1,0.1-0.2,0.1-0.3,0.1l-2.8-1.2v-0.1l4.9-1.1
				C-1229.5,960.3-1229.5,960.4-1229.5,960.4z"/>
		</g>
		<g>
			<path class="st11" d="M-1176.2,952.8l-0.7,0.1c-0.2,0-0.3,0-0.5,0.1l-8.1,2.3l6,8c0.3,0.1,0.4,0,0.5-0.3l3.1-9.7
				C-1175.9,952.9-1176,952.8-1176.2,952.8z"/>
			<path class="st11" d="M-1191.8,947.7l0.5,0.5c0.1,0.1,0.3,0.2,0.4,0.4l5.5,6.7l-9.6,2.9c-0.3-0.1-0.3-0.2-0.2-0.6l3.1-9.7
				C-1192.1,947.7-1191.9,947.6-1191.8,947.7z"/>
			<path class="st12" d="M-1195.2,957.7l9.7-2.5l6.4,7.7c0,0.2-0.2,0.4-0.3,0.3l-15.7-5.1C-1195.3,958.1-1195.3,957.8-1195.2,957.7z
				"/>
			<path class="st13" d="M-1176,953.2l-9.4,3.2c-0.3,0.1-0.7,0-0.9-0.3l-5.9-8.1c0-0.2,0.2-0.4,0.3-0.3l15.7,5.1
				C-1175.9,952.8-1175.9,953-1176,953.2z"/>
		</g>
		<g>
			<path class="st11" d="M-1222.5,954.4l-0.7-0.1c-0.2,0-0.3-0.1-0.5,0h-8.4l3.6,9.3c0.3,0.2,0.4,0.1,0.6-0.2l5.6-8.6
				C-1222.3,954.6-1222.3,954.4-1222.5,954.4z"/>
			<path class="st11" d="M-1236.2,945.3l0.4,0.6c0.1,0.1,0.2,0.3,0.2,0.5l3.5,7.9l-10.1,0.2c-0.3-0.2-0.3-0.3-0.1-0.6l5.6-8.6
				C-1236.5,945.2-1236.3,945.2-1236.2,945.3z"/>
			<path class="st12" d="M-1242.2,954l10,0.2l4.1,9.2c0,0.2-0.2,0.3-0.4,0.2l-13.8-9.1C-1242.3,954.4-1242.3,954.1-1242.2,954z"/>
			<path class="st13" d="M-1222.5,954.8l-9.9,0.6c-0.3,0-0.6-0.2-0.8-0.5l-3.5-9.4c0-0.2,0.2-0.3,0.4-0.2l13.8,9.1
				C-1222.3,954.5-1222.3,954.7-1222.5,954.8z"/>
		</g>
		<g>
			<path class="st16" d="M-1229.1,968c-0.7,0-1.2-0.5-1.2-1.2v-22.9c0-0.7,0.5-1.2,1.2-1.2h37.2c0.7,0,1.2,0.5,1.2,1.2v22.9
				c0,0.7-0.5,1.2-1.2,1.2H-1229.1L-1229.1,968z"/>
			<path class="st9" d="M-1191.9,943.7c0.1,0,0.2,0.1,0.2,0.2v22.9c0,0.1-0.1,0.2-0.2,0.2h-37.2c-0.1,0-0.2-0.1-0.2-0.2v-22.9
				c0-0.1,0.1-0.2,0.2-0.2H-1191.9 M-1191.9,941.7h-37.2c-1.2,0-2.2,1-2.2,2.2v22.9c0,1.2,1,2.2,2.2,2.2h37.2c1.2,0,2.2-1,2.2-2.2
				v-22.9C-1189.7,942.7-1190.7,941.7-1191.9,941.7L-1191.9,941.7z"/>
		</g>
		<g>
			<g class="st17">
				<rect x="-1225.5" y="953.3" width="1.2" height="13.6"/>
			</g>
			<path class="st18" d="M-1224.3,951.9v13.4c0,0.9-0.7,1.6-1.6,1.6h13c0.9,0,1.6-0.7,1.6-1.6V956l-3.9-4.1H-1224.3z"/>
			<rect x="-1217.2" y="956.6" class="st19" width="4.3" height="0.8"/>
			<rect x="-1222.7" y="956.6" class="st20" width="4.5" height="4.5"/>
			<rect x="-1217.2" y="958.4" class="st19" width="4.3" height="0.8"/>
			<rect x="-1217.2" y="960.2" class="st19" width="4.3" height="0.8"/>
			<rect x="-1222.7" y="962.1" class="st21" width="9.8" height="0.8"/>
			<rect x="-1222.7" y="963.9" class="st21" width="9.8" height="0.8"/>
			<rect x="-1222.7" y="954.1" class="st22" width="9.8" height="1.4"/>
			<polygon class="st23" points="-1215.2,956 -1211.3,956 -1215.2,951.9 			"/>
			<polygon class="st24" points="-1211.3,956 -1215.2,956 -1211.3,959.4 			"/>
		</g>
		<g>
			<g class="st17">
				<rect x="-1209.7" y="953.3" width="1.2" height="13.6"/>
			</g>
			<path class="st18" d="M-1208.5,951.9v13.4c0,0.9-0.7,1.6-1.6,1.6h13c0.9,0,1.6-0.7,1.6-1.6V956l-3.9-4.1H-1208.5z"/>
			<rect x="-1206.8" y="956.6" class="st21" width="4.5" height="0.8"/>
			<rect x="-1206.8" y="958.4" class="st21" width="4.5" height="0.8"/>
			<rect x="-1206.8" y="960.2" class="st21" width="4.5" height="0.8"/>
			<rect x="-1206.8" y="962.1" class="st21" width="9.8" height="0.8"/>
			<rect x="-1206.8" y="963.9" class="st21" width="9.8" height="0.8"/>
			<rect x="-1206.8" y="954.1" class="st22" width="9.8" height="1.4"/>
			<polygon class="st23" points="-1199.3,956 -1195.4,956 -1199.3,951.9 			"/>
			<polygon class="st24" points="-1195.4,956 -1199.3,956 -1195.4,959.4 			"/>
			<rect x="-1201.5" y="956.6" class="st25" width="4.5" height="4.5"/>
		</g>
		<g>
			<g class="st26">
				<rect x="-1219" y="951.9" width="1.2" height="15.1"/>
			</g>
			<g class="st26">
				<rect x="-1204.2" y="951.9" width="2.8" height="15.1"/>
			</g>
			<path class="st27" d="M-1217.8,945.6v19.7c0,0.9-0.7,1.6-1.6,1.6h15.5c0.9,0,1.6-0.7,1.6-1.6v-15.7l-3.9-4.1L-1217.8,945.6
				L-1217.8,945.6z"/>
			<rect x="-1209.3" y="950.3" class="st19" width="5.3" height="0.8"/>
			<rect x="-1216.2" y="950.3" class="st28" width="5.9" height="6.3"/>
			<rect x="-1209.3" y="952.1" class="st19" width="5.3" height="0.8"/>
			<rect x="-1209.3" y="953.9" class="st19" width="5.3" height="0.8"/>
			<rect x="-1209.3" y="955.8" class="st19" width="5.3" height="0.8"/>
			<rect x="-1216.2" y="957.6" class="st19" width="12.2" height="0.8"/>
			<rect x="-1216.2" y="959.4" class="st19" width="12.2" height="0.8"/>
			<rect x="-1216.2" y="961.3" class="st19" width="5.9" height="0.8"/>
			<rect x="-1216.2" y="963.1" class="st19" width="5.9" height="0.8"/>
			<rect x="-1216.2" y="964.9" class="st19" width="5.9" height="0.8"/>
			<rect x="-1216.2" y="947.8" class="st22" width="12.2" height="1.4"/>
			<polygon class="st23" points="-1206.2,949.7 -1202.4,949.7 -1206.2,945.6 			"/>
			<polygon class="st24" points="-1202.4,949.7 -1206.2,949.7 -1202.4,953.1 			"/>
			<rect x="-1209.3" y="961.3" class="st29" width="5.3" height="4.5"/>
		</g>
		<polygon class="st30" points="-1215,969 -1206,969 -1205.6,971.2 		"/>
	</g>
</g>
<g id="Layer_2">
	<rect x="-644" y="408" class="st31" width="150" height="63"/>
	<rect x="-644" y="471" class="st32" width="150" height="23"/>
	<path class="st33" d="M-504,453h-130c-0.6,0-1-0.4-1-1l0,0c0-0.6,0.4-1,1-1h130c0.6,0,1,0.4,1,1l0,0C-503,452.6-503.4,453-504,453z
		"/>
	<path class="st34" d="M-504,462h-130c-0.6,0-1-0.4-1-1l0,0c0-0.6,0.4-1,1-1h130c0.6,0,1,0.4,1,1l0,0C-503,461.6-503.4,462-504,462z
		"/>
	<path class="st35" d="M-543,487h-90c-1.1,0-2-0.9-2-2v-5c0-1.1,0.9-2,2-2h90c1.1,0,2,0.9,2,2v5C-541,486.1-541.9,487-543,487z"/>
	<path class="st23" d="M-505,487h-28c-1.1,0-2-0.9-2-2v-5c0-1.1,0.9-2,2-2h28c1.1,0,2,0.9,2,2v5C-503,486.1-503.9,487-505,487z"/>
</g>
<path class="st36" d="M-550.8,440.4c0,0.8-0.7,1.5-1.5,1.5h-33.4c-0.8,0-1.5-0.7-1.5-1.5v-22.6c0-0.8,0.7-1.5,1.5-1.5h33.4
	c0.8,0,1.5,0.7,1.5,1.5V440.4L-550.8,440.4z"/>
<g>
	<path class="st37" d="M-586.6,439.5c-0.1,0-0.2-0.1-0.2-0.2v-20.2c0-0.1,0.1-0.2,0.2-0.2h35.4c0.1,0,0.2,0.1,0.2,0.2v20.2
		c0,0.1-0.1,0.2-0.2,0.2H-586.6z"/>
	<path class="st38" d="M-551.2,419.1v20.2h-35.4v-20.2H-551.2 M-551.2,418.6h-35.4c-0.3,0-0.5,0.2-0.5,0.5v20.2
		c0,0.3,0.2,0.5,0.5,0.5h35.4c0.3,0,0.5-0.2,0.5-0.5v-20.2C-550.7,418.8-551,418.6-551.2,418.6L-551.2,418.6z"/>
</g>
<path class="st36" d="M-573.3,447.2c0-2.7,2-5.4,4.6-5.4s4.6,2.7,4.6,5.4H-573.3z"/>
<path class="st39" d="M-568.7,446.3"/>
<path class="st40" d="M-576.8,434.9c0,1.4,1.7,2.4,3.1,1.1c0.2-0.2,0.3-0.5,0.3-0.7V423h-3c-0.3,0-0.5,0.2-0.5,0.5L-576.8,434.9
	L-576.8,434.9z"/>
<path class="st41" d="M-575,436.8h13.6c0.3,0,0.5-0.2,0.5-0.5v-14.8c0-0.3-0.2-0.5-0.5-0.5h-11.4c-0.3,0-0.5,0.2-0.5,0.5v13.6
	C-573.3,435.1-573.5,436.8-575,436.8z"/>
<line class="st42" x1="-571.6" y1="425.8" x2="-568.2" y2="425.8"/>
<line class="st42" x1="-571.7" y1="423.8" x2="-562.7" y2="423.8"/>
<line class="st42" x1="-571.6" y1="427.9" x2="-569.6" y2="427.9"/>
<line class="st42" x1="-571.6" y1="429.9" x2="-568.2" y2="429.9"/>
<rect x="-566.5" y="425.8" class="st43" width="4.1" height="4.1"/>
<line class="st42" x1="-571.7" y1="432" x2="-562.7" y2="432"/>
<line class="st42" x1="-571.7" y1="434.1" x2="-564.9" y2="434.1"/>
<path class="st44" d="M-573.7,423.4h-0.4c-0.1,4.6-0.4,12.8-1.5,12.8c0,0,1.7,0.6,2-1C-573.1,433.4-573.7,423.4-573.7,423.4z"/>
<g class="st45">
	<path class="st46" d="M-536.9,427.3l1.6-5.1c0.1-0.3-0.1-0.6-0.4-0.7l-7.3-2.3c-0.3-0.1-0.6,0.1-0.7,0.4l-1.6,5.1
		c-0.1,0.3,0.1,0.6,0.4,0.7l7.3,2.3C-537.3,427.7-537,427.6-536.9,427.3z"/>
	<path class="st44" d="M-543.5,419.7l2.1,4.7c0.2,0.5,1.2,0.8,1.7,0.5l4.3-2.6l0.1-0.4l-8-2.5L-543.5,419.7z"/>
	<path class="st46" d="M-543.2,419.4l2,4.2c0.3,0.6,1.1,0.9,1.7,0.5l4.1-2.3"/>
	<line class="st47" x1="-541.4" y1="423.2" x2="-543.9" y2="424.4"/>
	<line class="st47" x1="-539.1" y1="423.9" x2="-537.8" y2="426.4"/>
</g>
<g class="st48">
	<path class="st49" d="M-536.7,435.8l-1-4.1c-0.1-0.2-0.3-0.4-0.5-0.3l-5.8,1.4c-0.2,0.1-0.4,0.3-0.3,0.5l1,4.1
		c0.1,0.2,0.3,0.4,0.5,0.3l5.8-1.4C-536.8,436.2-536.7,436-536.7,435.8z"/>
	<path class="st44" d="M-544.3,433.3l3.3,2.3c0.3,0.2,1.1,0,1.3-0.3l1.8-3.4l-0.1-0.3l-6.4,1.5L-544.3,433.3z"/>
	<path class="st49" d="M-544.2,433l3,2c0.5,0.3,1.1,0.2,1.3-0.3l1.8-3.2"/>
	<line class="st50" x1="-541.4" y1="434.8" x2="-542.6" y2="436.7"/>
	<line class="st50" x1="-539.6" y1="434.4" x2="-537.7" y2="435.5"/>
</g>
<g class="st48">
	<path class="st49" d="M-521.8,423.1l0.7-4.2c0-0.2-0.1-0.5-0.4-0.5l-5.9-1c-0.2,0-0.5,0.1-0.5,0.4l-0.7,4.1c0,0.2,0.1,0.5,0.4,0.5
		l5.9,1C-522.1,423.5-521.9,423.3-521.8,423.1z"/>
	<path class="st44" d="M-527.8,417.9l2.1,3.4c0.2,0.3,1,0.5,1.3,0.2l3-2.5v-0.3l-6.5-1.1L-527.8,417.9z"/>
	<path class="st49" d="M-527.6,417.6l2,3.1c0.3,0.5,0.9,0.6,1.4,0.2l2.9-2.2"/>
	<line class="st50" x1="-525.7" y1="420.4" x2="-527.6" y2="421.6"/>
	<line class="st50" x1="-523.9" y1="420.7" x2="-522.6" y2="422.4"/>
</g>
<g class="st51">
	<path class="st52" d="M-526.7,431.9l0.5-3.5c0-0.2-0.1-0.4-0.3-0.4l-4.9-0.7c-0.2,0-0.4,0.1-0.4,0.3l-0.5,3.4
		c0,0.2,0.1,0.4,0.3,0.4l4.9,0.7C-526.9,432.2-526.8,432.1-526.7,431.9z"/>
	<path class="st44" d="M-531.8,427.7l1.8,2.8c0.2,0.3,0.9,0.4,1.1,0.2l2.5-2.1v-0.2L-531.8,427.7L-531.8,427.7L-531.8,427.7z"/>
	<path class="st52" d="M-531.6,427.5l1.7,2.5c0.3,0.4,0.8,0.5,1.1,0.2l2.4-1.9"/>
	<line class="st53" x1="-530" y1="429.7" x2="-531.5" y2="430.8"/>
	<line class="st53" x1="-528.5" y1="429.9" x2="-527.4" y2="431.4"/>
</g>
<g class="st51">
	<path class="st52" d="M-516.5,433.7l-0.9-3.4c-0.1-0.2-0.3-0.3-0.5-0.3l-4.8,1.2c-0.2,0.1-0.3,0.3-0.3,0.5l0.9,3.4
		c0.1,0.2,0.3,0.3,0.5,0.3l4.8-1.2C-516.6,434.1-516.4,433.9-516.5,433.7z"/>
	<path class="st44" d="M-522.8,431.7l2.8,1.9c0.3,0.2,0.9,0,1.1-0.3l1.5-2.9l-0.1-0.2L-522.8,431.7L-522.8,431.7z"/>
	<path class="st52" d="M-522.7,431.5l2.6,1.6c0.4,0.3,0.9,0.1,1.1-0.3l1.5-2.7"/>
	<line class="st53" x1="-520.4" y1="433" x2="-521.4" y2="434.5"/>
	<line class="st53" x1="-518.9" y1="432.6" x2="-517.3" y2="433.5"/>
</g>
<g class="st45">
	<path class="st46" d="M-602,427.3l-1.6-5.1c-0.1-0.3,0.1-0.6,0.4-0.7l7.3-2.3c0.3-0.1,0.6,0.1,0.7,0.4l1.6,5.1
		c0.1,0.3-0.1,0.6-0.4,0.7l-7.3,2.3C-601.6,427.7-602,427.6-602,427.3z"/>
	<path class="st44" d="M-595.4,419.7l-2.1,4.7c-0.2,0.5-1.2,0.8-1.7,0.5l-4.3-2.6l-0.1-0.4l8-2.5L-595.4,419.7z"/>
	<path class="st46" d="M-595.7,419.4l-2,4.2c-0.3,0.6-1.1,0.9-1.7,0.5l-4.1-2.3"/>
	<line class="st47" x1="-597.6" y1="423.2" x2="-595" y2="424.4"/>
	<line class="st47" x1="-599.8" y1="423.9" x2="-601.2" y2="426.4"/>
</g>
<g class="st48">
	<path class="st49" d="M-602.2,435.8l1-4.1c0.1-0.2,0.3-0.4,0.5-0.3l5.8,1.4c0.2,0.1,0.4,0.3,0.3,0.5l-1,4.1
		c-0.1,0.2-0.3,0.4-0.5,0.3l-5.8-1.4C-602.1,436.2-602.3,436-602.2,435.8z"/>
	<path class="st44" d="M-594.7,433.3l-3.3,2.3c-0.3,0.2-1.1,0-1.3-0.3l-1.8-3.4l0.1-0.3l6.4,1.5L-594.7,433.3z"/>
	<path class="st49" d="M-594.8,433l-3,2c-0.5,0.3-1.1,0.2-1.3-0.3l-1.8-3.2"/>
	<line class="st50" x1="-597.5" y1="434.8" x2="-596.3" y2="436.7"/>
	<line class="st50" x1="-599.3" y1="434.4" x2="-601.2" y2="435.5"/>
</g>
<g class="st48">
	<path class="st49" d="M-617.1,423.1l-0.7-4.2c0-0.2,0.1-0.5,0.4-0.5l5.9-1c0.2,0,0.5,0.1,0.5,0.4l0.7,4.1c0,0.2-0.1,0.5-0.4,0.5
		l-5.9,1C-616.9,423.5-617.1,423.3-617.1,423.1z"/>
	<path class="st44" d="M-611.2,417.9l-2.1,3.4c-0.2,0.3-1,0.5-1.3,0.2l-3-2.5v-0.3l6.5-1.1L-611.2,417.9z"/>
	<path class="st49" d="M-611.4,417.6l-2,3.1c-0.3,0.5-0.9,0.6-1.4,0.2l-2.9-2.2"/>
	<line class="st50" x1="-613.2" y1="420.4" x2="-611.4" y2="421.6"/>
	<line class="st50" x1="-615" y1="420.7" x2="-616.3" y2="422.4"/>
</g>
<g class="st51">
	<path class="st52" d="M-612.2,431.9l-0.5-3.5c0-0.2,0.1-0.4,0.3-0.4l4.9-0.7c0.2,0,0.4,0.1,0.4,0.3l0.5,3.4c0,0.2-0.1,0.4-0.3,0.4
		l-4.9,0.7C-612,432.2-612.2,432.1-612.2,431.9z"/>
	<path class="st44" d="M-607.2,427.7l-1.8,2.8c-0.2,0.3-0.9,0.4-1.1,0.2l-2.5-2.1v-0.2L-607.2,427.7L-607.2,427.7L-607.2,427.7z"/>
	<path class="st52" d="M-607.3,427.5l-1.7,2.5c-0.3,0.4-0.8,0.5-1.1,0.2l-2.4-1.9"/>
	<line class="st53" x1="-608.9" y1="429.7" x2="-607.4" y2="430.8"/>
	<line class="st53" x1="-610.4" y1="429.9" x2="-611.6" y2="431.4"/>
</g>
<g class="st51">
	<path class="st52" d="M-622.4,433.7l0.9-3.4c0.1-0.2,0.3-0.3,0.5-0.3l4.8,1.2c0.2,0.1,0.3,0.3,0.3,0.5l-0.9,3.4
		c-0.1,0.2-0.3,0.3-0.5,0.3l-4.8-1.2C-622.4,434.1-622.5,433.9-622.4,433.7z"/>
	<path class="st44" d="M-616.2,431.7l-2.8,1.9c-0.3,0.2-0.9,0-1.1-0.3l-1.5-2.9l0.1-0.2L-616.2,431.7L-616.2,431.7z"/>
	<path class="st52" d="M-616.3,431.5l-2.6,1.6c-0.4,0.3-0.9,0.1-1.1-0.3l-1.5-2.7"/>
	<line class="st53" x1="-618.6" y1="433" x2="-617.6" y2="434.5"/>
	<line class="st53" x1="-620" y1="432.6" x2="-621.7" y2="433.5"/>
</g>
</svg>
