<?xml version="1.0" encoding="utf-8"?>
<!-- Generator: Adobe Illustrator 19.1.0, SVG Export Plug-In . SVG Version: 6.00 Build 0)  -->
<svg version="1.1" id="Layer_1" xmlns="http://www.w3.org/2000/svg" xmlns:xlink="http://www.w3.org/1999/xlink" x="0px" y="0px"
	 viewBox="-320 264 150 86" style="enable-background:new -320 264 150 86;" xml:space="preserve">
<style type="text/css">
	.st0{fill:#F0F0F0;}
	.st1{fill:#F56D3B;}
	.st2{opacity:0.25;enable-background:new    ;}
	.st3{opacity:0.1;enable-background:new    ;}
	.st4{opacity:0.2;enable-background:new    ;}
	.st5{fill:#FFFFFF;}
	.st6{display:none;}
	.st7{display:inline;fill:#F0F0F0;}
	.st8{display:inline;fill:#2C94F2;}
	.st9{display:inline;opacity:0.25;enable-background:new    ;}
	.st10{display:inline;opacity:0.1;enable-background:new    ;}
	.st11{display:inline;opacity:0.2;enable-background:new    ;}
	.st12{display:inline;fill:#FFFFFF;}
	.st13{display:inline;}
	.st14{fill:#31343B;}
	.st15{fill:#4F535E;}
	.st16{opacity:0.7;}
	.st17{fill:#D9D3CD;}
	.st18{fill:#EDE7DF;}
	.st19{fill:#EBE4DC;}
	.st20{opacity:0.6;}
	.st21{opacity:0.4;}
	.st22{fill:#FFC15E;}
	.st23{opacity:5.000000e-02;}
	.st24{fill:#DBD7D2;}
	.st25{fill:#D3CFC9;}
	.st26{fill:#E57C58;}
	.st27{fill:#C2BEB9;}
	.st28{fill:#B7B3AE;}
	.st29{opacity:5.000000e-02;enable-background:new    ;}
	.st30{fill:#639DC7;}
	.st31{opacity:0.1;}
	.st32{fill:#F5F0EB;}
	.st33{fill:#F59C36;}
	.st34{fill:#74C7A5;}
	.st35{opacity:0.15;enable-background:new    ;}
	.st36{fill:#FAFAFA;stroke:#1B293C;stroke-width:0.9859;stroke-linecap:round;stroke-linejoin:round;stroke-miterlimit:10;}
	.st37{fill:#D2ECFB;}
	.st38{fill:#1B293C;}
	.st39{fill:#FAFAFA;stroke:#000000;stroke-width:0.9859;stroke-linecap:round;stroke-linejoin:round;stroke-miterlimit:10;}
	.st40{fill:#F9DEDB;stroke:#000000;stroke-width:0.6859;stroke-linecap:round;stroke-linejoin:round;stroke-miterlimit:10;}
	.st41{fill:#FFFFFF;stroke:#000000;stroke-width:0.6859;stroke-linecap:round;stroke-linejoin:round;stroke-miterlimit:10;}
	.st42{fill:none;stroke:#999999;stroke-width:0.3429;stroke-linecap:round;stroke-linejoin:round;stroke-miterlimit:10;}
	.st43{fill:#E05B49;stroke:#000000;stroke-width:0.3429;stroke-linecap:round;stroke-linejoin:round;stroke-miterlimit:10;}
	.st44{opacity:0.35;fill:#293342;enable-background:new    ;}
	.st45{opacity:0.75;}
	.st46{fill:#FFF5CC;stroke:#1B293C;stroke-width:0.3828;stroke-linecap:round;stroke-linejoin:round;stroke-miterlimit:10;}
	.st47{fill:none;stroke:#1B293C;stroke-width:0.3828;stroke-linecap:round;stroke-linejoin:round;stroke-miterlimit:10;}
	.st48{opacity:0.5;}
	.st49{fill:#FFF5CC;stroke:#1B293C;stroke-width:0.3;stroke-linecap:round;stroke-linejoin:round;stroke-miterlimit:10;}
	.st50{fill:none;stroke:#1B293C;stroke-width:0.3;stroke-linecap:round;stroke-linejoin:round;stroke-miterlimit:10;}
	.st51{opacity:0.2;}
	.st52{fill:#FFF5CC;stroke:#1B293C;stroke-width:0.2488;stroke-linecap:round;stroke-linejoin:round;stroke-miterlimit:10;}
	.st53{fill:none;stroke:#1B293C;stroke-width:0.2488;stroke-linecap:round;stroke-linejoin:round;stroke-miterlimit:10;}
</style>
<g id="Layer_1_1_">
	<rect x="-320" y="264" class="st0" width="150" height="63"/>
	<rect x="-320" y="327" class="st1" width="150" height="23"/>
	<path class="st2" d="M-180,310h-130c-0.6,0-1-0.4-1-1l0,0c0-0.6,0.4-1,1-1h130c0.6,0,1,0.4,1,1l0,0C-179,309.6-179.4,310-180,310z"
		/>
	<path class="st3" d="M-180,319h-130c-0.6,0-1-0.4-1-1l0,0c0-0.6,0.4-1,1-1h130c0.6,0,1,0.4,1,1l0,0C-179,318.6-179.4,319-180,319z"
		/>
	<path class="st4" d="M-219,343h-90c-1.1,0-2-0.9-2-2v-5c0-1.1,0.9-2,2-2h90c1.1,0,2,0.9,2,2v5C-217,342.1-217.9,343-219,343z"/>
	<path class="st5" d="M-181,343h-28c-1.1,0-2-0.9-2-2v-5c0-1.1,0.9-2,2-2h28c1.1,0,2,0.9,2,2v5C-179,342.1-179.9,343-181,343z"/>
</g>
<g id="Layer_2" class="st6">
	<rect x="-320" y="264" class="st7" width="150" height="63"/>
	<rect x="-320" y="327" class="st8" width="150" height="23"/>
	<path class="st9" d="M-180,310h-130c-0.6,0-1-0.4-1-1l0,0c0-0.6,0.4-1,1-1h130c0.6,0,1,0.4,1,1l0,0C-179,309.6-179.4,310-180,310z"
		/>
	<path class="st10" d="M-180,319h-130c-0.6,0-1-0.4-1-1l0,0c0-0.6,0.4-1,1-1h130c0.6,0,1,0.4,1,1l0,0C-179,318.6-179.4,319-180,319z
		"/>
	<path class="st11" d="M-218,343h-92c-0.6,0-1-0.4-1-1v-7c0-0.6,0.4-1,1-1h92c0.6,0,1,0.4,1,1v7C-217,342.6-217.4,343-218,343z"/>
	<path class="st12" d="M-180,343h-30c-0.6,0-1-0.4-1-1v-7c0-0.6,0.4-1,1-1h30c0.6,0,1,0.4,1,1v7C-179,342.6-179.4,343-180,343z"/>
	<g class="st13">
		<g>
			<polygon class="st14" points="-241.6,302.8 -251.6,302.8 -250.6,297.6 -242.5,297.6 			"/>
			<path class="st15" d="M-239,302.8h-15.1v0c0-0.9,0.7-1.6,1.6-1.6h11.9C-239.8,301.2-239,301.9-239,302.8L-239,302.8z"/>
		</g>
		<g class="st16">
			<path class="st17" d="M-212.7,274.8l-0.3,0.3c-0.1,0.1-0.2,0.2-0.2,0.3l-3.5,4.3l6.3,2c0.2-0.1,0.2-0.1,0.1-0.4l-2.1-6.4
				C-212.5,274.8-212.6,274.7-212.7,274.8z"/>
			<path class="st17" d="M-223,278.1l0.5,0c0.1,0,0.2,0,0.3,0.1l5.5,1.4l-4,5.3c-0.2,0.1-0.3,0-0.3-0.2l-2.1-6.4
				C-223.2,278.2-223.1,278.1-223,278.1z"/>
			<path class="st18" d="M-221,284.8l4.2-5.1l6.4,1.6c0.1,0.1,0.1,0.3-0.1,0.3l-10.4,3.3C-220.9,285-221,284.9-221,284.8z"/>
			<path class="st19" d="M-212.5,274.9l-3.8,5.3c-0.1,0.2-0.4,0.3-0.6,0.2l-6.3-2.1c-0.1-0.1-0.1-0.3,0.1-0.3l10.4-3.3
				C-212.6,274.7-212.5,274.8-212.5,274.9z"/>
		</g>
		<g class="st16">
			<path class="st17" d="M-269.2,284.5l-0.5,0.1c-0.1,0-0.2,0.1-0.3,0.1l-5.1,2.2l4.6,4.7c0.2,0,0.3,0,0.3-0.3l1.2-6.6
				C-269,284.6-269.1,284.5-269.2,284.5z"/>
			<path class="st17" d="M-279.9,282.5l0.4,0.3c0.1,0.1,0.2,0.1,0.3,0.2l4.2,3.9l-6,2.8c-0.2,0-0.2-0.1-0.2-0.4l1.2-6.6
				C-280.1,282.5-280,282.5-279.9,282.5z"/>
			<path class="st18" d="M-281.3,289.3l6.1-2.5l4.9,4.5c0,0.1-0.1,0.3-0.2,0.2l-10.7-2C-281.3,289.6-281.3,289.5-281.3,289.3z"/>
			<path class="st19" d="M-269.1,284.7l-5.9,2.9c-0.2,0.1-0.4,0.1-0.6-0.1l-4.6-4.8c0-0.1,0.1-0.3,0.2-0.2l10.7,2
				C-269.1,284.5-269,284.6-269.1,284.7z"/>
		</g>
		<g class="st20">
			<path class="st17" d="M-203.5,288.3l-0.3,0c-0.1,0-0.2,0-0.2,0l-4,0.4l2.2,4.2c0.1,0.1,0.2,0,0.3-0.1l2.2-4.3
				C-203.4,288.4-203.4,288.3-203.5,288.3z"/>
			<path class="st17" d="M-210.4,284.8l0.2,0.3c0.1,0.1,0.1,0.1,0.1,0.2l2.1,3.6l-4.7,0.6c-0.1-0.1-0.1-0.1-0.1-0.3l2.2-4.3
				C-210.6,284.8-210.5,284.7-210.4,284.8z"/>
			<path class="st18" d="M-212.8,289.2l4.7-0.4l2.4,4.1c0,0.1-0.1,0.2-0.2,0.1l-7-3.6C-212.8,289.4-212.8,289.3-212.8,289.2z"/>
			<path class="st19" d="M-203.4,288.5l-4.6,0.8c-0.2,0-0.3,0-0.4-0.2l-2.1-4.3c0-0.1,0.1-0.2,0.2-0.1l7,3.6
				C-203.4,288.4-203.4,288.5-203.4,288.5z"/>
		</g>
		<g class="st20">
			<path class="st17" d="M-281.3,276l-0.2,0.2c-0.1,0.1-0.1,0.1-0.1,0.2l-2.1,3.4l4.7,0.8c0.1-0.1,0.2-0.1,0.1-0.3l-2.1-4.4
				C-281.2,275.9-281.3,275.9-281.3,276z"/>
			<path class="st17" d="M-288.4,279.3l0.3,0c0.1,0,0.2,0,0.2,0l4.1,0.5l-2.4,4.1c-0.1,0.1-0.2,0-0.3-0.1l-2.1-4.4
				C-288.5,279.4-288.5,279.3-288.4,279.3z"/>
			<path class="st18" d="M-286.4,283.8l2.6-4l4.7,0.6c0.1,0.1,0.1,0.2,0,0.2l-7.1,3.3C-286.3,284-286.4,283.9-286.4,283.8z"/>
			<path class="st19" d="M-281.1,276.1l-2.2,4.1c-0.1,0.1-0.2,0.2-0.4,0.2l-4.7-0.9c-0.1-0.1-0.1-0.2,0-0.2l7.1-3.3
				C-281.2,275.9-281.1,276-281.1,276.1z"/>
		</g>
		<g class="st20">
			<path class="st17" d="M-224.8,287.4l-0.2,0.3c-0.1,0.1-0.1,0.1-0.1,0.2l-1.8,3.6l4.7,0.5c0.1-0.1,0.1-0.1,0-0.3l-2.4-4.2
				C-224.7,287.4-224.8,287.3-224.8,287.4z"/>
			<path class="st17" d="M-231.6,291.2l0.3,0c0.1,0,0.2,0,0.2,0l4.1,0.2l-2.1,4.3c-0.1,0.1-0.2,0.1-0.3-0.1l-2.4-4.2
				C-231.7,291.3-231.7,291.2-231.6,291.2z"/>
			<path class="st18" d="M-229.2,295.6l2.3-4.2l4.8,0.2c0.1,0.1,0.1,0.2,0,0.2l-6.8,3.9C-229.1,295.8-229.2,295.7-229.2,295.6z"/>
			<path class="st19" d="M-224.6,287.5l-1.9,4.3c-0.1,0.1-0.2,0.2-0.4,0.2l-4.7-0.6c-0.1-0.1-0.1-0.2,0-0.2l6.8-3.9
				C-224.7,287.3-224.6,287.4-224.6,287.5z"/>
		</g>
		<g class="st20">
			<path class="st17" d="M-200,279.4l-0.1,0.1c0,0-0.1,0.1-0.1,0.1l-1.5,1.8l2.6,0.9c0.1,0,0.1-0.1,0.1-0.2l-0.8-2.7
				C-199.9,279.4-199.9,279.3-200,279.4z"/>
			<path class="st17" d="M-204.3,280.6l0.2,0c0,0,0.1,0,0.1,0l2.3,0.7l-1.7,2.1c-0.1,0-0.1,0-0.1-0.1L-204.3,280.6
				C-204.4,280.6-204.4,280.6-204.3,280.6z"/>
			<path class="st18" d="M-203.6,283.4l1.8-2.1l2.7,0.8c0,0,0,0.1,0,0.1L-203.6,283.4C-203.5,283.5-203.6,283.5-203.6,283.4z"/>
			<path class="st19" d="M-199.9,279.4l-1.6,2.2c-0.1,0.1-0.2,0.1-0.2,0.1l-2.6-1c0,0,0-0.1,0-0.1L-199.9,279.4
				C-199.9,279.3-199.9,279.4-199.9,279.4z"/>
		</g>
		<g class="st21">
			<path class="st17" d="M-190.5,287.8l-0.1,0c0,0-0.1,0-0.1,0l-1.5,0.4l1.1,1.5c0.1,0,0.1,0,0.1-0.1L-190.5,287.8
				C-190.4,287.9-190.4,287.8-190.5,287.8z"/>
			<path class="st17" d="M-193.3,286.9L-193.3,286.9c0.1,0.1,0.1,0.1,0.2,0.2l1,1.2l-1.8,0.5c-0.1,0-0.1,0,0-0.1L-193.3,286.9
				C-193.4,286.9-193.4,286.9-193.3,286.9z"/>
			<path class="st18" d="M-194,288.7l1.8-0.4l1.2,1.4c0,0,0,0.1-0.1,0.1L-194,288.7C-194,288.8-194,288.7-194,288.7z"/>
			<path class="st19" d="M-190.5,287.9l-1.7,0.6c-0.1,0-0.1,0-0.2-0.1l-1.1-1.5c0,0,0-0.1,0.1-0.1L-190.5,287.9
				C-190.4,287.8-190.4,287.9-190.5,287.9z"/>
		</g>
		<g class="st21">
			<path class="st17" d="M-301.4,281.4L-301.4,281.4c-0.1,0.1-0.1,0.1-0.1,0.2l-0.8,1.3l1.8,0.3c0.1,0,0.1,0,0-0.1L-301.4,281.4
				C-301.3,281.4-301.4,281.4-301.4,281.4z"/>
			<path class="st17" d="M-304.1,282.8l0.1,0c0,0,0.1,0,0.1,0l1.6,0.1l-0.9,1.6c-0.1,0-0.1,0-0.1,0L-304.1,282.8
				C-304.1,282.8-304.1,282.8-304.1,282.8z"/>
			<path class="st18" d="M-303.2,284.5l0.9-1.6l1.8,0.2c0,0,0,0.1,0,0.1L-303.2,284.5C-303.2,284.6-303.2,284.6-303.2,284.5z"/>
			<path class="st19" d="M-301.3,281.5l-0.8,1.6c0,0.1-0.1,0.1-0.1,0.1l-1.8-0.3c0,0,0-0.1,0-0.1L-301.3,281.5
				C-301.4,281.4-301.3,281.4-301.3,281.5z"/>
		</g>
		<g class="st20">
			<path class="st17" d="M-290.7,285.3l-0.2,0c0,0-0.1,0-0.1,0l-2.3,0.4l1.4,2.4c0.1,0,0.1,0,0.2-0.1l1.1-2.6
				C-290.6,285.4-290.6,285.3-290.7,285.3z"/>
			<path class="st17" d="M-294.8,283.5l0.1,0.1c0,0,0.1,0.1,0.1,0.1l1.3,2l-2.7,0.5c-0.1,0-0.1-0.1,0-0.2l1.1-2.6
				C-294.9,283.5-294.8,283.4-294.8,283.5z"/>
			<path class="st18" d="M-296,286.1l2.7-0.4l1.5,2.3c0,0.1-0.1,0.1-0.1,0.1l-4.1-1.9C-296.1,286.2-296.1,286.1-296,286.1z"/>
			<path class="st19" d="M-290.6,285.5l-2.7,0.6c-0.1,0-0.2,0-0.2-0.1l-1.3-2.4c0-0.1,0.1-0.1,0.1-0.1l4.1,1.9
				C-290.6,285.4-290.6,285.4-290.6,285.5z"/>
		</g>
		<g class="st20">
			<path class="st17" d="M-263.9,289.7l-0.2,0.1c0,0-0.1,0.1-0.1,0.1l-1.6,1.7l2.5,1.1c0.1,0,0.1-0.1,0.1-0.2L-263.9,289.7
				C-263.8,289.7-263.8,289.7-263.9,289.7z"/>
			<path class="st17" d="M-268.3,290.7l0.2,0c0,0,0.1,0,0.1,0l2.2,0.8l-1.9,2c-0.1,0-0.1,0-0.1-0.1L-268.3,290.7
				C-268.3,290.7-268.3,290.7-268.3,290.7z"/>
			<path class="st18" d="M-267.7,293.5l2-1.9l2.6,0.9c0,0,0,0.1,0,0.1L-267.7,293.5C-267.7,293.6-267.7,293.6-267.7,293.5z"/>
			<path class="st19" d="M-263.8,289.8l-1.8,2.1c-0.1,0.1-0.2,0.1-0.2,0.1l-2.5-1.1c0,0,0-0.1,0-0.1L-263.8,289.8
				C-263.8,289.7-263.7,289.8-263.8,289.8z"/>
		</g>
		<g>
			<path class="st17" d="M-215.5,282.9l-0.6,0.1c-0.2,0-0.3,0-0.5,0.1l-7.4,2l5.4,7.2c0.3,0.1,0.4,0,0.5-0.3l2.8-8.8
				C-215.2,283-215.3,282.9-215.5,282.9z"/>
			<path class="st17" d="M-229.6,278.3l0.5,0.4c0.1,0.1,0.2,0.2,0.3,0.3l5,6.1l-8.7,2.6c-0.3-0.1-0.3-0.2-0.2-0.5l2.8-8.8
				C-229.9,278.3-229.7,278.2-229.6,278.3z"/>
			<path class="st18" d="M-232.7,287.3l8.8-2.2l5.8,7c0,0.2-0.1,0.3-0.3,0.3l-14.2-4.6C-232.8,287.7-232.8,287.4-232.7,287.3z"/>
			<path class="st19" d="M-215.4,283.2l-8.5,2.9c-0.3,0.1-0.6,0-0.8-0.2l-5.3-7.4c0-0.2,0.1-0.3,0.3-0.3l14.2,4.6
				C-215.3,282.9-215.2,283.1-215.4,283.2z"/>
		</g>
		<g>
			<path class="st17" d="M-257.4,284.3l-0.6-0.1c-0.1,0-0.3,0-0.5,0l-7.6,0l3.3,8.4c0.3,0.2,0.3,0.1,0.5-0.2l5-7.7
				C-257.2,284.5-257.3,284.4-257.4,284.3z"/>
			<path class="st17" d="M-269.8,276.1l0.3,0.5c0.1,0.1,0.2,0.3,0.2,0.4l3.2,7.2l-9.1,0.2c-0.3-0.2-0.2-0.3-0.1-0.6l5-7.7
				C-270.1,276-269.9,276-269.8,276.1z"/>
			<path class="st18" d="M-275.2,284l9.1,0.2l3.7,8.3c0,0.2-0.2,0.3-0.4,0.2l-12.5-8.3C-275.4,284.3-275.4,284.1-275.2,284z"/>
			<path class="st19" d="M-257.4,284.7l-9,0.5c-0.3,0-0.6-0.2-0.7-0.4l-3.2-8.5c0-0.2,0.2-0.3,0.4-0.2l12.5,8.3
				C-257.2,284.4-257.3,284.6-257.4,284.7z"/>
		</g>
		<g>
			<path class="st22" d="M-263.4,296.5c-0.5,0-1-0.4-1-1v-20.8c0-0.5,0.4-1,1-1h33.7c0.5,0,1,0.4,1,1v20.8c0,0.5-0.4,1-1,1H-263.4z"
				/>
			<path class="st15" d="M-229.8,274.8l0,20.7l-33.7,0l0-20.7H-229.8 M-229.8,272.8h-33.7c-1.1,0-2,0.9-2,2v20.8c0,1.1,0.9,2,2,2
				h33.7c1.1,0,2-0.9,2-2v-20.8C-227.8,273.7-228.7,272.8-229.8,272.8L-229.8,272.8z"/>
		</g>
		<g>
			<g class="st23">
				<rect x="-260.2" y="283.4" width="1.1" height="12.3"/>
			</g>
			<path class="st24" d="M-259.1,282.1v12.2c0,0.8-0.7,1.5-1.5,1.5h11.8c0.8,0,1.5-0.7,1.5-1.5v-8.5l-3.5-3.7H-259.1z"/>
			<rect x="-252.6" y="286.3" class="st25" width="3.9" height="0.7"/>
			<rect x="-257.6" y="286.3" class="st26" width="4.1" height="4.1"/>
			<rect x="-252.6" y="288" class="st25" width="3.9" height="0.7"/>
			<rect x="-252.6" y="289.6" class="st25" width="3.9" height="0.7"/>
			<rect x="-257.6" y="291.3" class="st27" width="8.8" height="0.7"/>
			<rect x="-257.6" y="292.9" class="st27" width="8.8" height="0.7"/>
			<rect x="-257.6" y="284.1" class="st28" width="8.8" height="1.3"/>
			<polygon class="st5" points="-250.8,285.8 -247.3,285.8 -250.8,282.1 			"/>
			<polygon class="st29" points="-247.3,285.8 -250.8,285.8 -247.3,288.9 			"/>
		</g>
		<g>
			<g class="st23">
				<rect x="-245.8" y="283.4" width="1.1" height="12.3"/>
			</g>
			<path class="st24" d="M-244.7,282.1v12.2c0,0.8-0.7,1.5-1.5,1.5h11.8c0.8,0,1.5-0.7,1.5-1.5v-8.5l-3.5-3.7H-244.7z"/>
			<rect x="-243.3" y="286.3" class="st27" width="4.1" height="0.7"/>
			<rect x="-243.3" y="288" class="st27" width="4.1" height="0.7"/>
			<rect x="-243.3" y="289.6" class="st27" width="4.1" height="0.7"/>
			<rect x="-243.3" y="291.3" class="st27" width="8.8" height="0.7"/>
			<rect x="-243.3" y="292.9" class="st27" width="8.8" height="0.7"/>
			<rect x="-243.3" y="284.1" class="st28" width="8.8" height="1.3"/>
			<polygon class="st5" points="-236.4,285.8 -232.9,285.8 -236.4,282.1 			"/>
			<polygon class="st29" points="-232.9,285.8 -236.4,285.8 -232.9,288.9 			"/>
			<rect x="-238.5" y="286.3" class="st30" width="4.1" height="4.1"/>
		</g>
		<g>
			<g class="st31">
				<rect x="-254.3" y="282.1" width="1.1" height="13.6"/>
			</g>
			<g class="st31">
				<rect x="-240.9" y="282.1" width="2.6" height="13.6"/>
			</g>
			<path class="st32" d="M-253.2,276.4v17.9c0,0.8-0.7,1.5-1.5,1.5h14c0.8,0,1.5-0.7,1.5-1.5V280l-3.5-3.7H-253.2z"/>
			<rect x="-245.5" y="280.6" class="st25" width="4.8" height="0.7"/>
			<rect x="-251.7" y="280.6" class="st33" width="5.3" height="5.7"/>
			<rect x="-245.5" y="282.3" class="st25" width="4.8" height="0.7"/>
			<rect x="-245.5" y="283.9" class="st25" width="4.8" height="0.7"/>
			<rect x="-245.5" y="285.6" class="st25" width="4.8" height="0.7"/>
			<rect x="-251.7" y="287.2" class="st25" width="11.1" height="0.7"/>
			<rect x="-251.7" y="288.9" class="st25" width="11.1" height="0.7"/>
			<rect x="-251.7" y="290.5" class="st25" width="5.3" height="0.7"/>
			<rect x="-251.7" y="292.2" class="st25" width="5.3" height="0.7"/>
			<rect x="-251.7" y="293.9" class="st25" width="5.3" height="0.7"/>
			<rect x="-251.7" y="278.4" class="st28" width="11.1" height="1.3"/>
			<polygon class="st5" points="-242.7,280 -239.2,280 -242.7,276.4 			"/>
			<polygon class="st29" points="-239.2,280 -242.7,280 -239.2,283.2 			"/>
			<rect x="-245.5" y="290.5" class="st34" width="4.8" height="4.1"/>
		</g>
		<polygon class="st35" points="-250.6,298 -242.5,298 -242.2,300 		"/>
	</g>
</g>
<path class="st36" d="M-226.8,296.4c0,0.8-0.7,1.5-1.5,1.5h-33.4c-0.8,0-1.5-0.7-1.5-1.5v-22.6c0-0.8,0.7-1.5,1.5-1.5h33.4
	c0.8,0,1.5,0.7,1.5,1.5L-226.8,296.4L-226.8,296.4z"/>
<g>
	<path class="st37" d="M-262.6,295.5c-0.1,0-0.2-0.1-0.2-0.2v-20.2c0-0.1,0.1-0.2,0.2-0.2h35.4c0.1,0,0.2,0.1,0.2,0.2v20.2
		c0,0.1-0.1,0.2-0.2,0.2H-262.6z"/>
	<path class="st38" d="M-227.2,275.1v20.2h-35.4v-20.2H-227.2 M-227.2,274.6h-35.4c-0.3,0-0.5,0.2-0.5,0.5v20.2
		c0,0.3,0.2,0.5,0.5,0.5h35.4c0.3,0,0.5-0.2,0.5-0.5v-20.2C-226.7,274.8-227,274.6-227.2,274.6L-227.2,274.6z"/>
</g>
<path class="st36" d="M-249.3,303.2c0-2.7,2-5.4,4.6-5.4s4.6,2.7,4.6,5.4H-249.3z"/>
<path class="st39" d="M-244.7,302.3"/>
<path class="st40" d="M-252.8,290.9c0,1.4,1.7,2.4,3.1,1.1c0.2-0.2,0.3-0.5,0.3-0.7V279h-3c-0.3,0-0.5,0.2-0.5,0.5L-252.8,290.9
	L-252.8,290.9z"/>
<path class="st41" d="M-251,292.8h13.6c0.3,0,0.5-0.2,0.5-0.5v-14.8c0-0.3-0.2-0.5-0.5-0.5h-11.4c-0.3,0-0.5,0.2-0.5,0.5v13.6
	C-249.3,291.1-249.5,292.8-251,292.8z"/>
<line class="st42" x1="-247.6" y1="281.8" x2="-244.2" y2="281.8"/>
<line class="st42" x1="-247.7" y1="279.8" x2="-238.7" y2="279.8"/>
<line class="st42" x1="-247.6" y1="283.9" x2="-245.6" y2="283.9"/>
<line class="st42" x1="-247.6" y1="285.9" x2="-244.2" y2="285.9"/>
<rect x="-242.5" y="281.8" class="st43" width="4.1" height="4.1"/>
<line class="st42" x1="-247.7" y1="288" x2="-238.7" y2="288"/>
<line class="st42" x1="-247.7" y1="290.1" x2="-240.9" y2="290.1"/>
<path class="st44" d="M-249.7,279.4h-0.4c-0.1,4.6-0.4,12.8-1.5,12.8c0,0,1.7,0.6,2-1C-249.1,289.4-249.7,279.4-249.7,279.4z"/>
<g class="st45">
	<path class="st46" d="M-212.9,283.3l1.6-5.1c0.1-0.3-0.1-0.6-0.4-0.7l-7.3-2.3c-0.3-0.1-0.6,0.1-0.7,0.4l-1.6,5.1
		c-0.1,0.3,0.1,0.6,0.4,0.7l7.3,2.3C-213.3,283.7-213,283.6-212.9,283.3z"/>
	<path class="st44" d="M-219.5,275.7l2.1,4.7c0.2,0.5,1.2,0.8,1.7,0.5l4.3-2.6l0.1-0.4l-8-2.5L-219.5,275.7z"/>
	<path class="st46" d="M-219.2,275.4l2,4.2c0.3,0.6,1.1,0.9,1.7,0.5l4.1-2.3"/>
	<line class="st47" x1="-217.4" y1="279.2" x2="-219.9" y2="280.4"/>
	<line class="st47" x1="-215.1" y1="279.9" x2="-213.8" y2="282.4"/>
</g>
<g class="st48">
	<path class="st49" d="M-212.7,291.8l-1-4.1c-0.1-0.2-0.3-0.4-0.5-0.3l-5.8,1.4c-0.2,0.1-0.4,0.3-0.3,0.5l1,4.1
		c0.1,0.2,0.3,0.4,0.5,0.3l5.8-1.4C-212.8,292.2-212.7,292-212.7,291.8z"/>
	<path class="st44" d="M-220.3,289.3l3.3,2.3c0.3,0.2,1.1,0,1.3-0.3l1.8-3.4l-0.1-0.3l-6.4,1.5L-220.3,289.3z"/>
	<path class="st49" d="M-220.2,289l3,2c0.5,0.3,1.1,0.2,1.3-0.3l1.8-3.2"/>
	<line class="st50" x1="-217.4" y1="290.8" x2="-218.6" y2="292.7"/>
	<line class="st50" x1="-215.6" y1="290.4" x2="-213.7" y2="291.5"/>
</g>
<g class="st48">
	<path class="st49" d="M-197.8,279.1l0.7-4.2c0-0.2-0.1-0.5-0.4-0.5l-5.9-1c-0.2,0-0.5,0.1-0.5,0.4l-0.7,4.1c0,0.2,0.1,0.5,0.4,0.5
		l5.9,1C-198.1,279.5-197.9,279.3-197.8,279.1z"/>
	<path class="st44" d="M-203.8,273.9l2.1,3.4c0.2,0.3,1,0.5,1.3,0.2l3-2.5v-0.3l-6.5-1.1L-203.8,273.9z"/>
	<path class="st49" d="M-203.6,273.6l2,3.1c0.3,0.5,0.9,0.6,1.4,0.2l2.9-2.2"/>
	<line class="st50" x1="-201.7" y1="276.4" x2="-203.6" y2="277.6"/>
	<line class="st50" x1="-199.9" y1="276.7" x2="-198.6" y2="278.4"/>
</g>
<g class="st51">
	<path class="st52" d="M-202.7,287.9l0.5-3.5c0-0.2-0.1-0.4-0.3-0.4l-4.9-0.7c-0.2,0-0.4,0.1-0.4,0.3l-0.5,3.4
		c0,0.2,0.1,0.4,0.3,0.4l4.9,0.7C-202.9,288.2-202.8,288.1-202.7,287.9z"/>
	<path class="st44" d="M-207.8,283.7l1.8,2.8c0.2,0.3,0.9,0.4,1.1,0.2l2.5-2.1v-0.2l-5.4-0.8L-207.8,283.7z"/>
	<path class="st52" d="M-207.6,283.5l1.7,2.5c0.3,0.4,0.8,0.5,1.1,0.2l2.4-1.9"/>
	<line class="st53" x1="-206" y1="285.7" x2="-207.5" y2="286.8"/>
	<line class="st53" x1="-204.5" y1="285.9" x2="-203.4" y2="287.4"/>
</g>
<g class="st51">
	<path class="st52" d="M-192.5,289.7l-0.9-3.4c-0.1-0.2-0.3-0.3-0.5-0.3l-4.8,1.2c-0.2,0.1-0.3,0.3-0.3,0.5l0.9,3.4
		c0.1,0.2,0.3,0.3,0.5,0.3l4.8-1.2C-192.6,290.1-192.4,289.9-192.5,289.7z"/>
	<path class="st44" d="M-198.8,287.7l2.8,1.9c0.3,0.2,0.9,0,1.1-0.3l1.5-2.9l-0.1-0.2l-5.3,1.4V287.7z"/>
	<path class="st52" d="M-198.7,287.5l2.6,1.6c0.4,0.3,0.9,0.1,1.1-0.3l1.5-2.7"/>
	<line class="st53" x1="-196.4" y1="289" x2="-197.4" y2="290.5"/>
	<line class="st53" x1="-194.9" y1="288.6" x2="-193.3" y2="289.5"/>
</g>
<g class="st45">
	<path class="st46" d="M-278,283.3l-1.6-5.1c-0.1-0.3,0.1-0.6,0.4-0.7l7.3-2.3c0.3-0.1,0.6,0.1,0.7,0.4l1.6,5.1
		c0.1,0.3-0.1,0.6-0.4,0.7l-7.3,2.3C-277.6,283.7-278,283.6-278,283.3z"/>
	<path class="st44" d="M-271.4,275.7l-2.1,4.7c-0.2,0.5-1.2,0.8-1.7,0.5l-4.3-2.6l-0.1-0.4l8-2.5L-271.4,275.7z"/>
	<path class="st46" d="M-271.7,275.4l-2,4.2c-0.3,0.6-1.1,0.9-1.7,0.5l-4.1-2.3"/>
	<line class="st47" x1="-273.6" y1="279.2" x2="-271" y2="280.4"/>
	<line class="st47" x1="-275.8" y1="279.9" x2="-277.2" y2="282.4"/>
</g>
<g class="st48">
	<path class="st49" d="M-278.2,291.8l1-4.1c0.1-0.2,0.3-0.4,0.5-0.3l5.8,1.4c0.2,0.1,0.4,0.3,0.3,0.5l-1,4.1
		c-0.1,0.2-0.3,0.4-0.5,0.3l-5.8-1.4C-278.1,292.2-278.3,292-278.2,291.8z"/>
	<path class="st44" d="M-270.7,289.3l-3.3,2.3c-0.3,0.2-1.1,0-1.3-0.3l-1.8-3.4l0.1-0.3l6.4,1.5L-270.7,289.3z"/>
	<path class="st49" d="M-270.8,289l-3,2c-0.5,0.3-1.1,0.2-1.3-0.3l-1.8-3.2"/>
	<line class="st50" x1="-273.5" y1="290.8" x2="-272.3" y2="292.7"/>
	<line class="st50" x1="-275.3" y1="290.4" x2="-277.2" y2="291.5"/>
</g>
<g class="st48">
	<path class="st49" d="M-293.1,279.1l-0.7-4.2c0-0.2,0.1-0.5,0.4-0.5l5.9-1c0.2,0,0.5,0.1,0.5,0.4l0.7,4.1c0,0.2-0.1,0.5-0.4,0.5
		l-5.9,1C-292.9,279.5-293.1,279.3-293.1,279.1z"/>
	<path class="st44" d="M-287.2,273.9l-2.1,3.4c-0.2,0.3-1,0.5-1.3,0.2l-3-2.5v-0.3l6.5-1.1L-287.2,273.9z"/>
	<path class="st49" d="M-287.4,273.6l-2,3.1c-0.3,0.5-0.9,0.6-1.4,0.2l-2.9-2.2"/>
	<line class="st50" x1="-289.2" y1="276.4" x2="-287.4" y2="277.6"/>
	<line class="st50" x1="-291" y1="276.7" x2="-292.3" y2="278.4"/>
</g>
<g class="st51">
	<path class="st52" d="M-288.2,287.9l-0.5-3.5c0-0.2,0.1-0.4,0.3-0.4l4.9-0.7c0.2,0,0.4,0.1,0.4,0.3l0.5,3.4c0,0.2-0.1,0.4-0.3,0.4
		l-4.9,0.7C-288,288.2-288.2,288.1-288.2,287.9z"/>
	<path class="st44" d="M-283.2,283.7l-1.8,2.8c-0.2,0.3-0.9,0.4-1.1,0.2l-2.5-2.1v-0.2l5.4-0.8V283.7z"/>
	<path class="st52" d="M-283.3,283.5l-1.7,2.5c-0.3,0.4-0.8,0.5-1.1,0.2l-2.4-1.9"/>
	<line class="st53" x1="-284.9" y1="285.7" x2="-283.4" y2="286.8"/>
	<line class="st53" x1="-286.4" y1="285.9" x2="-287.6" y2="287.4"/>
</g>
<g class="st51">
	<path class="st52" d="M-298.4,289.7l0.9-3.4c0.1-0.2,0.3-0.3,0.5-0.3l4.8,1.2c0.2,0.1,0.3,0.3,0.3,0.5l-0.9,3.4
		c-0.1,0.2-0.3,0.3-0.5,0.3l-4.8-1.2C-298.4,290.1-298.5,289.9-298.4,289.7z"/>
	<path class="st44" d="M-292.2,287.7l-2.8,1.9c-0.3,0.2-0.9,0-1.1-0.3l-1.5-2.9l0.1-0.2l5.3,1.4V287.7z"/>
	<path class="st52" d="M-292.3,287.5l-2.6,1.6c-0.4,0.3-0.9,0.1-1.1-0.3l-1.5-2.7"/>
	<line class="st53" x1="-294.6" y1="289" x2="-293.6" y2="290.5"/>
	<line class="st53" x1="-296" y1="288.6" x2="-297.7" y2="289.5"/>
</g>
</svg>
