<?xml version="1.0" encoding="utf-8"?>
<!-- Generator: Adobe Illustrator 19.1.0, SVG Export Plug-In . SVG Version: 6.00 Build 0)  -->
<svg version="1.1" id="Layer_1" xmlns="http://www.w3.org/2000/svg" xmlns:xlink="http://www.w3.org/1999/xlink" x="0px" y="0px"
	 viewBox="-320 264 150 86" style="enable-background:new -320 264 150 86;" xml:space="preserve">
<style type="text/css">
	.st0{fill:#F0F0F0;}
	.st1{opacity:0.25;enable-background:new    ;}
	.st2{opacity:0.1;enable-background:new    ;}
	.st3{opacity:0.15;fill:#222229;enable-background:new    ;}
	.st4{fill:#82D43B;}
	.st5{fill:#F5E7DD;}
	.st6{opacity:0.2;fill:#333333;}
	.st7{fill:#FFF5CC;stroke:#1B293C;stroke-width:1.1479;stroke-linecap:round;stroke-linejoin:round;stroke-miterlimit:10;}
	.st8{fill:none;stroke:#1B293C;stroke-width:1.1479;stroke-linecap:round;stroke-linejoin:round;stroke-miterlimit:10;}
	.st9{clip-path:url(#SVGID_2_);}
	.st10{fill:#FFFFFF;stroke:#000000;stroke-width:1.1479;stroke-linecap:round;stroke-linejoin:round;stroke-miterlimit:10;}
	.st11{fill:none;stroke:#999999;stroke-width:0.5739;stroke-linecap:round;stroke-linejoin:round;stroke-miterlimit:10;}
	.st12{fill:#E05B49;stroke:#000000;stroke-width:0.5739;stroke-linecap:round;stroke-linejoin:round;stroke-miterlimit:10;}
	.st13{opacity:0.35;fill:#293342;}
	.st14{display:none;}
</style>
<g id="Layer_1_1_">
	<rect x="-320" y="264" class="st0" width="150" height="63"/>
	<path class="st1" d="M-180,278h-77.7c-0.6,0-1-0.4-1-1l0,0c0-0.6,0.4-1,1-1h77.7c0.6,0,1,0.4,1,1l0,0C-179,277.6-179.4,278-180,278
		z"/>
	<path class="st2" d="M-180,287h-77.7c-0.6,0-1-0.4-1-1l0,0c0-0.6,0.4-1,1-1h77.7c0.6,0,1,0.4,1,1l0,0C-179,286.6-179.4,287-180,287
		z"/>
	<path class="st2" d="M-180,296h-77.7c-0.6,0-1-0.4-1-1l0,0c0-0.6,0.4-1,1-1h77.7c0.6,0,1,0.4,1,1l0,0C-179,295.6-179.4,296-180,296
		z"/>
	<path class="st2" d="M-180,305h-77.7c-0.6,0-1-0.4-1-1l0,0c0-0.6,0.4-1,1-1h77.7c0.6,0,1,0.4,1,1l0,0C-179,304.6-179.4,305-180,305
		z"/>
	<path class="st2" d="M-180,314h-77.7c-0.6,0-1-0.4-1-1l0,0c0-0.6,0.4-1,1-1h77.7c0.6,0,1,0.4,1,1l0,0C-179,313.6-179.4,314-180,314
		z"/>
	<rect x="-320" y="327" class="st0" width="150" height="23"/>
	<path class="st3" d="M-219,343h-90c-1.1,0-2-0.9-2-2v-5c0-1.1,0.9-2,2-2h90c1.1,0,2,0.9,2,2v5C-217,342.1-217.9,343-219,343z"/>
	<path class="st4" d="M-181,343h-28c-1.1,0-2-0.9-2-2v-5c0-1.1,0.9-2,2-2h28c1.1,0,2,0.9,2,2v5C-179,342.1-179.9,343-181,343z"/>
	<g>
		<g>
			<path class="st5" d="M-274.2,273.4"/>
		</g>
	</g>
	<ellipse class="st6" cx="-292" cy="319.1" rx="11.5" ry="1.5"/>
	<path class="st7" d="M-303.2,288.3l-2.2,1.6v17c0,0.9,0.8,1.7,1.7,1.7h23c1,0,1.7-0.8,1.7-1.7v-17l-2.2-1.8"/>
	<line class="st8" x1="-294.8" y1="299.6" x2="-305.2" y2="289.9"/>
	<line class="st8" x1="-279" y1="290.1" x2="-289.3" y2="299.6"/>
	<g>
		<defs>
			<path id="SVGID_1_" d="M-306.8,287.7l12.1,11.1l1.5-1.2c0.7-0.5,1.6-0.6,2.3,0l1.7,1.3l11.2-10.3l0.6-19.9h-30.4L-306.8,287.7z"
				/>
		</defs>
		<clipPath id="SVGID_2_">
			<use xlink:href="#SVGID_1_"  style="overflow:visible;"/>
		</clipPath>
		<g class="st9">
			<g>
				<path class="st10" d="M-283.3,300.7h-17.4c-1,0-1.9-0.8-1.9-1.9v-20.1l6.4-6.6h12.8c1,0,1.9,0.8,1.9,1.9v24.8
					C-281.5,299.8-282.3,300.7-283.3,300.7z"/>
				<path class="st10" d="M-301.9,279.6h4.3c1,0,1.9-0.8,1.9-1.9v-5"/>
			</g>
			<line class="st11" x1="-290.5" y1="277.4" x2="-284.6" y2="277.4"/>
			<line class="st11" x1="-299.9" y1="284.4" x2="-294" y2="284.4"/>
			<line class="st11" x1="-299.9" y1="288" x2="-294" y2="288"/>
			<rect x="-291.1" y="280.9" class="st12" width="7" height="7"/>
			<line class="st11" x1="-299.9" y1="291.5" x2="-294" y2="291.5"/>
			<line class="st11" x1="-290.5" y1="291.5" x2="-284.6" y2="291.5"/>
			<line class="st11" x1="-299.9" y1="295" x2="-294" y2="295"/>
			<line class="st11" x1="-290.5" y1="295" x2="-284.6" y2="295"/>
		</g>
	</g>
	<path class="st13" d="M-304.8,289.5c0,0,6.7,7.5,12.6,7.5c5.4,0,12.7-7.2,12.7-7.2l-9.6,9.1h-6L-304.8,289.5z"/>
	<path class="st7" d="M-279.6,307.6l-11.4-9.3c-0.6-0.5-1.6-0.5-2.2,0l-11.4,9.4"/>
</g>
<g id="Layer_2" class="st14">
</g>
</svg>
