<?xml version="1.0" encoding="utf-8"?>
<!-- Generator: Adobe Illustrator 19.1.0, SVG Export Plug-In . SVG Version: 6.00 Build 0)  -->
<svg version="1.1" id="Layer_1" xmlns="http://www.w3.org/2000/svg" xmlns:xlink="http://www.w3.org/1999/xlink" x="0px" y="0px"
	 viewBox="-320 264 150 86" style="enable-background:new -320 264 150 86;" xml:space="preserve">
<style type="text/css">
	.st0{fill:#ED9810;}
	.st1{opacity:0.6;fill:#FFFFFF;enable-background:new    ;}
	.st2{opacity:0.45;fill:#FFFFFF;enable-background:new    ;}
	.st3{fill:#FFB845;}
	.st4{fill:#FFFFFF;}
	.st5{opacity:0.2;enable-background:new    ;}
	.st6{display:none;}
	.st7{opacity:0.2;fill:#333333;}
	.st8{fill:#FAFAFA;stroke:#1B293C;stroke-width:1.0257;stroke-linecap:round;stroke-linejoin:round;stroke-miterlimit:10;}
	.st9{fill:none;stroke:#1B293C;stroke-width:0.5129;stroke-linecap:round;stroke-linejoin:round;stroke-miterlimit:10;}
	.st10{fill:#D2ECFB;}
	.st11{fill:#1B293C;}
	.st12{fill:#FFF5CC;stroke:#1B293C;stroke-width:0.6064;stroke-linecap:round;stroke-linejoin:round;stroke-miterlimit:10;}
	.st13{opacity:0.35;fill:#293342;}
	.st14{fill:none;stroke:#1B293C;stroke-width:0.6064;stroke-linecap:round;stroke-linejoin:round;stroke-miterlimit:10;}
	.st15{opacity:0.75;}
	.st16{fill:#FFF5CC;stroke:#1B293C;stroke-width:0.3983;stroke-linecap:round;stroke-linejoin:round;stroke-miterlimit:10;}
	.st17{fill:none;stroke:#1B293C;stroke-width:0.3983;stroke-linecap:round;stroke-linejoin:round;stroke-miterlimit:10;}
	.st18{opacity:0.5;}
	.st19{fill:#FFF5CC;stroke:#1B293C;stroke-width:0.3122;stroke-linecap:round;stroke-linejoin:round;stroke-miterlimit:10;}
	.st20{fill:none;stroke:#1B293C;stroke-width:0.3122;stroke-linecap:round;stroke-linejoin:round;stroke-miterlimit:10;}
	.st21{opacity:0.2;}
	.st22{fill:#FFF5CC;stroke:#1B293C;stroke-width:0.2589;stroke-linecap:round;stroke-linejoin:round;stroke-miterlimit:10;}
	.st23{fill:none;stroke:#1B293C;stroke-width:0.2589;stroke-linecap:round;stroke-linejoin:round;stroke-miterlimit:10;}
</style>
<g id="Layer_1_1_">
	<rect x="-320" y="264" class="st0" width="150" height="86"/>
	<path class="st1" d="M-230,322.5h-80c-0.6,0-1-0.4-1-1l0,0c0-0.6,0.4-1,1-1h80c0.6,0,1,0.4,1,1l0,0
		C-229,322.1-229.4,322.5-230,322.5z"/>
	<path class="st2" d="M-230,331.5h-80c-0.6,0-1-0.4-1-1l0,0c0-0.6,0.4-1,1-1h80c0.6,0,1,0.4,1,1l0,0
		C-229,331.1-229.4,331.5-230,331.5z"/>
	<path class="st2" d="M-230,340.5h-80c-0.6,0-1-0.4-1-1l0,0c0-0.6,0.4-1,1-1h80c0.6,0,1,0.4,1,1l0,0
		C-229,340.1-229.4,340.5-230,340.5z"/>
	<rect x="-221" y="264" class="st3" width="51" height="86"/>
	<path class="st4" d="M-181,327h-28c-1.1,0-2-0.9-2-2v-5c0-1.1,0.9-2,2-2h28c1.1,0,2,0.9,2,2v5C-179,326.1-179.9,327-181,327z"/>
	<path class="st5" d="M-181,312h-28c-1.1,0-2-0.9-2-2v-5c0-1.1,0.9-2,2-2h28c1.1,0,2,0.9,2,2v5C-179,311.1-179.9,312-181,312z"/>
	<path class="st5" d="M-181,297h-28c-1.1,0-2-0.9-2-2v-5c0-1.1,0.9-2,2-2h28c1.1,0,2,0.9,2,2v5C-179,296.1-179.9,297-181,297z"/>
	<polygon class="st0" points="-221,264 -225,307 -221,350 -217,307 	"/>
</g>
<g id="Layer_2" class="st6">
</g>
<ellipse class="st7" cx="-269.7" cy="311.2" rx="8.6" ry="1.4"/>
<path class="st8" d="M-279.5,273.1c0-1.2,1-2.1,2.1-2.1h14.2c1.2,0,2.1,1,2.1,2.1v28.4c0,1.2-1,2.1-2.1,2.1h-14.2
	c-1.2,0-2.1-1-2.1-2.1V273.1z"/>
<line class="st9" x1="-268.9" y1="273.8" x2="-271.7" y2="273.8"/>
<g>
	<path class="st10" d="M-279.1,298.5c-0.1,0-0.3-0.1-0.3-0.3v-21c0-0.1,0.1-0.3,0.3-0.3h17.6c0.1,0,0.3,0.1,0.3,0.3v21
		c0,0.1-0.1,0.3-0.3,0.3H-279.1z"/>
	<g>
		<path class="st11" d="M-261.5,277.2v21h-17.6v-21H-261.5 M-261.5,276.7h-17.6c-0.3,0-0.5,0.2-0.5,0.5v21c0,0.3,0.2,0.5,0.5,0.5
			h17.6c0.3,0,0.5-0.2,0.5-0.5v-21C-261,277-261.2,276.7-261.5,276.7L-261.5,276.7z"/>
	</g>
</g>
<circle class="st9" cx="-270.3" cy="301" r="1.5"/>
<g>
	<path class="st12" d="M-263.1,291.3v-8.5c0-0.5-0.4-0.9-0.9-0.9h-12.1c-0.5,0-0.9,0.4-0.9,0.9v8.5c0,0.5,0.4,0.9,0.9,0.9l12.1,0
		C-263.5,292.2-263.1,291.8-263.1,291.3z"/>
	<path class="st13" d="M-276.7,283l5.4,6.2c0.6,0.6,2.2,0.5,2.7,0l5.2-5.9v-0.6h-13.3L-276.7,283z"/>
	<path class="st12" d="M-276.4,282.3l5,5.4c0.8,0.8,2,0.8,2.8,0l5-5.4"/>
	<line class="st14" x1="-271.8" y1="287.2" x2="-275.1" y2="290.3"/>
	<line class="st14" x1="-268.1" y1="287.2" x2="-264.8" y2="290.3"/>
</g>
<g class="st15">
	<path class="st16" d="M-249.4,285.4l1.7-5.3c0.1-0.3-0.1-0.7-0.4-0.7l-7.6-2.4c-0.3-0.1-0.7,0.1-0.7,0.4l-1.7,5.3
		c-0.1,0.3,0.1,0.7,0.4,0.7l7.6,2.4C-249.8,285.9-249.5,285.8-249.4,285.4z"/>
	<path class="st13" d="M-256.3,277.5l2.2,4.9c0.2,0.5,1.3,0.8,1.7,0.5l4.4-2.7l0.1-0.4l-8.3-2.6L-256.3,277.5z"/>
	<path class="st16" d="M-255.9,277.2l2.1,4.4c0.3,0.7,1.1,0.9,1.7,0.6l4.2-2.4"/>
	<line class="st17" x1="-254" y1="281.2" x2="-256.7" y2="282.4"/>
	<line class="st17" x1="-251.7" y1="281.9" x2="-250.3" y2="284.5"/>
</g>
<g class="st18">
	<path class="st19" d="M-249.2,294.3l-1-4.3c-0.1-0.3-0.3-0.4-0.6-0.3l-6.1,1.5c-0.3,0.1-0.4,0.3-0.3,0.6l1,4.3
		c0.1,0.3,0.3,0.4,0.6,0.3l6.1-1.4C-249.3,294.8-249.2,294.5-249.2,294.3z"/>
	<path class="st13" d="M-257,291.8l3.5,2.4c0.4,0.2,1.2,0,1.4-0.3l1.9-3.6l-0.1-0.3l-6.7,1.6L-257,291.8z"/>
	<path class="st19" d="M-256.9,291.4l3.2,2.1c0.5,0.3,1.1,0.2,1.4-0.3l1.9-3.3"/>
	<line class="st20" x1="-254.1" y1="293.3" x2="-255.4" y2="295.2"/>
	<line class="st20" x1="-252.2" y1="292.9" x2="-250.2" y2="294"/>
</g>
<g class="st21">
	<path class="st22" d="M-240.5,290.9l1.1-3.5c0.1-0.2,0-0.4-0.2-0.5l-4.9-1.6c-0.2-0.1-0.4,0-0.5,0.2l-1.1,3.4
		c-0.1,0.2,0,0.4,0.2,0.5l4.9,1.6C-240.8,291.2-240.6,291.1-240.5,290.9z"/>
	<path class="st13" d="M-244.9,285.7l1.4,3.2c0.1,0.3,0.8,0.5,1.1,0.4l2.9-1.7l0.1-0.2l-5.4-1.8L-244.9,285.7z"/>
	<path class="st22" d="M-244.7,285.5l1.3,2.9c0.2,0.4,0.7,0.6,1.1,0.4l2.8-1.5"/>
	<line class="st23" x1="-243.5" y1="288.1" x2="-245.2" y2="288.9"/>
	<line class="st23" x1="-242" y1="288.6" x2="-241.1" y2="290.3"/>
</g>
<g class="st15">
	<path class="st16" d="M-291.2,285.4l-1.7-5.3c-0.1-0.3,0.1-0.7,0.4-0.7l7.6-2.4c0.3-0.1,0.7,0.1,0.7,0.4l1.7,5.3
		c0.1,0.3-0.1,0.7-0.4,0.7l-7.6,2.4C-290.8,285.9-291.1,285.8-291.2,285.4z"/>
	<path class="st13" d="M-284.3,277.5l-2.2,4.9c-0.2,0.5-1.3,0.8-1.7,0.5l-4.4-2.7l-0.1-0.4l8.3-2.6L-284.3,277.5z"/>
	<path class="st16" d="M-284.6,277.2l-2.1,4.4c-0.3,0.7-1.1,0.9-1.7,0.6l-4.2-2.4"/>
	<line class="st17" x1="-286.5" y1="281.2" x2="-283.9" y2="282.4"/>
	<line class="st17" x1="-288.9" y1="281.9" x2="-290.3" y2="284.5"/>
</g>
<g class="st18">
	<path class="st19" d="M-291.3,294.3l1-4.3c0.1-0.3,0.3-0.4,0.6-0.3l6.1,1.5c0.3,0.1,0.4,0.3,0.3,0.6l-1,4.3
		c-0.1,0.3-0.3,0.4-0.6,0.3l-6.1-1.4C-291.2,294.8-291.4,294.5-291.3,294.3z"/>
	<path class="st13" d="M-283.5,291.8l-3.5,2.4c-0.4,0.2-1.2,0-1.4-0.3l-1.9-3.6l0.1-0.3l6.7,1.6L-283.5,291.8z"/>
	<path class="st19" d="M-283.6,291.4l-3.2,2.1c-0.5,0.3-1.1,0.2-1.4-0.3l-1.9-3.3"/>
	<line class="st20" x1="-286.5" y1="293.3" x2="-285.2" y2="295.2"/>
	<line class="st20" x1="-288.4" y1="292.9" x2="-290.3" y2="294"/>
</g>
<g class="st21">
	<path class="st22" d="M-300.1,290.9l-1.1-3.5c-0.1-0.2,0-0.4,0.2-0.5l4.9-1.6c0.2-0.1,0.4,0,0.5,0.2l1.1,3.4c0.1,0.2,0,0.4-0.2,0.5
		l-4.9,1.6C-299.8,291.2-300,291.1-300.1,290.9z"/>
	<path class="st13" d="M-295.6,285.7l-1.4,3.2c-0.1,0.3-0.8,0.5-1.1,0.4l-2.9-1.7l-0.1-0.2l5.4-1.8L-295.6,285.7z"/>
	<path class="st22" d="M-295.9,285.5l-1.3,2.9c-0.2,0.4-0.7,0.6-1.1,0.4l-2.8-1.5"/>
	<line class="st23" x1="-297.1" y1="288.1" x2="-295.3" y2="288.9"/>
	<line class="st23" x1="-298.6" y1="288.6" x2="-299.5" y2="290.3"/>
</g>
</svg>
