<?xml version="1.0" encoding="utf-8"?>
<!-- Generator: Adobe Illustrator 19.1.0, SVG Export Plug-In . SVG Version: 6.00 Build 0)  -->
<svg version="1.1" id="Layer_1" xmlns="http://www.w3.org/2000/svg" xmlns:xlink="http://www.w3.org/1999/xlink" x="0px" y="0px"
	 viewBox="-644 408 150 86" style="enable-background:new -644 408 150 86;" xml:space="preserve">
<style type="text/css">
	.st0{fill:#F0F0F0;}
	.st1{opacity:0.25;enable-background:new    ;}
	.st2{opacity:0.1;enable-background:new    ;}
	.st3{display:none;}
	.st4{display:inline;fill:#9C30FF;}
	.st5{display:inline;fill:#F0F0F0;}
	.st6{display:inline;}
	.st7{fill:#6FD4E8;}
	.st8{fill:#4B5B7D;}
	.st9{fill:#2D3C5C;}
	.st10{opacity:5.000000e-02;}
	.st11{fill:#F0EBE6;}
	.st12{fill:#D3CFC9;}
	.st13{fill:#E57C58;}
	.st14{fill:#C2BEB9;}
	.st15{fill:#B7B3AE;}
	.st16{fill:#FFFFFF;}
	.st17{opacity:5.000000e-02;enable-background:new    ;}
	.st18{opacity:0.1;}
	.st19{fill:#FFFAF5;}
	.st20{fill:#FFAB4A;}
	.st21{fill:#74C7A5;}
	.st22{display:inline;opacity:0.2;enable-background:new    ;}
	.st23{display:inline;fill:#FFFFFF;}
	.st24{display:inline;opacity:0.25;enable-background:new    ;}
	.st25{display:inline;opacity:0.1;enable-background:new    ;}
	.st26{opacity:0.2;fill:#333333;enable-background:new    ;}
	.st27{fill:#FAFAFA;stroke:#1B293C;stroke-width:1.3401;stroke-linecap:round;stroke-linejoin:round;stroke-miterlimit:10;}
	.st28{fill:#495463;}
	.st29{fill:#1B293C;}
	.st30{fill:#FFFFFF;stroke:#1B293C;stroke-width:1.3401;stroke-linecap:round;stroke-linejoin:round;stroke-miterlimit:10;}
	.st31{fill:#FAFAFA;stroke:#000000;stroke-width:1.3401;stroke-linecap:round;stroke-linejoin:round;stroke-miterlimit:10;}
	.st32{opacity:0.5;}
	.st33{fill:none;stroke:#1B293C;stroke-width:2.6802;stroke-linecap:round;stroke-linejoin:round;stroke-miterlimit:10;}
	.st34{fill:none;stroke:#EC9D92;stroke-width:2.0102;stroke-linecap:round;stroke-linejoin:round;stroke-miterlimit:10;}
	.st35{fill:none;stroke:#A5E7C9;stroke-width:2.0102;stroke-linecap:round;stroke-linejoin:round;stroke-miterlimit:10;}
	.st36{fill:none;stroke:#FFEB99;stroke-width:2.0102;stroke-linecap:round;stroke-linejoin:round;stroke-miterlimit:10;}
	.st37{fill:none;stroke:#6B96F4;stroke-width:2.0102;stroke-linecap:round;stroke-linejoin:round;stroke-miterlimit:10;}
	.st38{fill:#F56D3B;}
	.st39{opacity:0.2;enable-background:new    ;}
</style>
<g id="Layer_1_1_">
	<rect x="-644" y="408" class="st0" width="150" height="63"/>
	<path class="st1" d="M-504.3,419h-71.4c-0.7,0-1.3-0.4-1.3-1l0,0c0-0.6,0.6-1,1.3-1h71.4c0.7,0,1.3,0.4,1.3,1l0,0
		C-503,418.6-503.6,419-504.3,419z"/>
	<path class="st2" d="M-504.3,428h-71.4c-0.7,0-1.3-0.4-1.3-1l0,0c0-0.6,0.6-1,1.3-1h71.4c0.7,0,1.3,0.4,1.3,1l0,0
		C-503,427.6-503.6,428-504.3,428z"/>
	<path class="st2" d="M-504.3,437h-71.4c-0.7,0-1.3-0.4-1.3-1l0,0c0-0.6,0.6-1,1.3-1h71.4c0.7,0,1.3,0.4,1.3,1l0,0
		C-503,436.6-503.6,437-504.3,437z"/>
	<path class="st2" d="M-504.3,446h-71.4c-0.7,0-1.3-0.4-1.3-1l0,0c0-0.6,0.6-1,1.3-1h71.4c0.7,0,1.3,0.4,1.3,1l0,0
		C-503,445.6-503.6,446-504.3,446z"/>
	<path class="st2" d="M-504.3,455h-71.4c-0.7,0-1.3-0.4-1.3-1l0,0c0-0.6,0.6-1,1.3-1h71.4c0.7,0,1.3,0.4,1.3,1l0,0
		C-503,454.6-503.6,455-504.3,455z"/>
	<path class="st2" d="M-504.3,464h-71.4c-0.7,0-1.3-0.4-1.3-1l0,0c0-0.6,0.6-1,1.3-1h71.4c0.7,0,1.3,0.4,1.3,1l0,0
		C-503,463.6-503.6,464-504.3,464z"/>
</g>
<g id="Layer_2" class="st3">
	<rect x="-964" y="735" class="st4" width="150" height="23"/>
	<rect x="-964" y="672" class="st5" width="150" height="63"/>
	<g class="st6">
		<g>
			<path class="st7" d="M-952.5,716.2c-0.3,0-0.6-0.3-0.6-0.6V688c0-0.3,0.3-0.6,0.6-0.6h42.8c0.3,0,0.6,0.3,0.6,0.6v27.6
				c0,0.3-0.3,0.6-0.6,0.6H-952.5z"/>
			<path class="st8" d="M-910.9,689.2v25.3h-40.4v-25.3H-910.9 M-909.7,685.7h-42.8c-1.3,0-2.3,1-2.3,2.3v27.6c0,1.3,1,2.3,2.3,2.3
				h42.8c1.3,0,2.3-1,2.3-2.3V688C-907.5,686.8-908.5,685.7-909.7,685.7L-909.7,685.7z"/>
		</g>
		<g>
			<rect x="-936.5" y="718" class="st9" width="10.7" height="8.8"/>
			<path class="st8" d="M-919.8,726.8h-22.7v-0.2c0-1.5,1.2-2.7,2.7-2.7h17.4c1.5,0,2.7,1.2,2.7,2.7v0.2H-919.8z"/>
		</g>
		<g>
			<g class="st10">
				<rect x="-949.4" y="693.3" width="1.9" height="21.2"/>
			</g>
			<path class="st11" d="M-947.6,691.1v20.8c0,1.4-1.1,2.5-2.5,2.5h20.2c1.4,0,2.5-1.1,2.5-2.5v-14.5l-6-6.3H-947.6z"/>
			<rect x="-936.5" y="698.4" class="st12" width="6.6" height="1.3"/>
			<rect x="-945" y="698.4" class="st13" width="7" height="6.9"/>
			<rect x="-936.5" y="701.2" class="st12" width="6.6" height="1.3"/>
			<rect x="-936.5" y="704" class="st12" width="6.6" height="1.3"/>
			<rect x="-945" y="706.9" class="st14" width="15.2" height="1.3"/>
			<rect x="-945" y="709.7" class="st14" width="15.2" height="1.3"/>
			<rect x="-945" y="712.6" class="st14" width="15.2" height="1.3"/>
			<rect x="-945" y="694.6" class="st15" width="15.2" height="2.2"/>
			<polygon class="st16" points="-933.4,697.4 -927.4,697.4 -933.4,691.1 			"/>
			<polygon class="st17" points="-927.4,697.4 -933.4,697.4 -927.4,702.8 			"/>
		</g>
		<g>
			<g class="st18">
				<rect x="-940.3" y="685.7" width="1.9" height="28.7"/>
			</g>
			<path class="st19" d="M-938.4,681.3v30.6c0,1.4-1.1,2.5-2.5,2.5h24c1.4,0,2.5-1.1,2.5-2.5v-24.3l-6-6.3L-938.4,681.3
				L-938.4,681.3z"/>
			<rect x="-925.1" y="688.6" class="st12" width="8.2" height="1.3"/>
			<rect x="-935.9" y="688.6" class="st20" width="9.2" height="9.8"/>
			<rect x="-925.1" y="691.4" class="st12" width="8.2" height="1.3"/>
			<rect x="-925.1" y="694.3" class="st12" width="8.2" height="1.3"/>
			<rect x="-925.1" y="697.1" class="st12" width="8.2" height="1.3"/>
			<rect x="-935.9" y="699.9" class="st12" width="19" height="1.3"/>
			<rect x="-935.9" y="702.8" class="st12" width="19" height="1.3"/>
			<rect x="-935.9" y="705.6" class="st12" width="9.2" height="1.3"/>
			<rect x="-935.9" y="708.5" class="st12" width="9.2" height="1.3"/>
			<rect x="-935.9" y="711.3" class="st12" width="9.2" height="1.3"/>
			<rect x="-935.9" y="684.8" class="st15" width="19" height="2.2"/>
			<polygon class="st16" points="-920.4,687.6 -914.4,687.6 -920.4,681.3 			"/>
			<polygon class="st2" points="-914.4,687.6 -920.4,687.6 -914.4,693 			"/>
			<rect x="-925.1" y="705.6" class="st21" width="8.2" height="7"/>
		</g>
	</g>
	<path class="st22" d="M-862,751h-92c-0.6,0-1-0.4-1-1v-7c0-0.6,0.4-1,1-1h92c0.6,0,1,0.4,1,1v7C-861,750.6-861.4,751-862,751z"/>
	<path class="st23" d="M-824,751h-30c-0.6,0-1-0.4-1-1v-7c0-0.6,0.4-1,1-1h30c0.6,0,1,0.4,1,1v7C-823,750.6-823.4,751-824,751z"/>
	<path class="st24" d="M-824.3,683h-71.4c-0.7,0-1.3-0.4-1.3-1l0,0c0-0.6,0.6-1,1.3-1h71.4c0.7,0,1.3,0.4,1.3,1l0,0
		C-823,682.6-823.6,683-824.3,683z"/>
	<path class="st25" d="M-824.3,692h-71.4c-0.7,0-1.3-0.4-1.3-1l0,0c0-0.6,0.6-1,1.3-1h71.4c0.7,0,1.3,0.4,1.3,1l0,0
		C-823,691.6-823.6,692-824.3,692z"/>
	<path class="st25" d="M-824.3,701h-71.4c-0.7,0-1.3-0.4-1.3-1l0,0c0-0.6,0.6-1,1.3-1h71.4c0.7,0,1.3,0.4,1.3,1l0,0
		C-823,700.6-823.6,701-824.3,701z"/>
	<path class="st25" d="M-824.3,710h-71.4c-0.7,0-1.3-0.4-1.3-1l0,0c0-0.6,0.6-1,1.3-1h71.4c0.7,0,1.3,0.4,1.3,1l0,0
		C-823,709.6-823.6,710-824.3,710z"/>
	<path class="st25" d="M-824.3,719h-71.4c-0.7,0-1.3-0.4-1.3-1l0,0c0-0.6,0.6-1,1.3-1h71.4c0.7,0,1.3,0.4,1.3,1l0,0
		C-823,718.6-823.6,719-824.3,719z"/>
	<path class="st25" d="M-824.3,728h-71.4c-0.7,0-1.3-0.4-1.3-1l0,0c0-0.6,0.6-1,1.3-1h71.4c0.7,0,1.3,0.4,1.3,1l0,0
		C-823,727.6-823.6,728-824.3,728z"/>
</g>
<ellipse class="st26" cx="-610.9" cy="460.8" rx="22.9" ry="1.8"/>
<path class="st27" d="M-586.5,451.1c0,1.1-0.9,2-2,2h-45.4c-1.1,0-2-0.9-2-2v-30.8c0-1.1,0.9-2,2-2h45.4c1.1,0,2,0.9,2,2V451.1z"/>
<g>
	<path class="st28" d="M-635.3,450c-0.2,0-0.3-0.1-0.3-0.3v-27.5c0-0.2,0.1-0.3,0.3-0.3h48.1c0.2,0,0.3,0.1,0.3,0.3v27.5
		c0,0.2-0.1,0.3-0.3,0.3H-635.3z"/>
	<g>
		<path class="st29" d="M-587.1,422.2v27.5h-48.1v-27.5H-587.1 M-587.1,421.5h-48.1c-0.4,0-0.7,0.3-0.7,0.7v27.5
			c0,0.4,0.3,0.7,0.7,0.7h48.1c0.4,0,0.7-0.3,0.7-0.7v-27.5C-586.5,421.8-586.8,421.5-587.1,421.5L-587.1,421.5z"/>
	</g>
</g>
<path class="st30" d="M-617.2,460.5c0-3.7,2.7-7.3,6.2-7.3s6.2,3.7,6.2,7.3H-617.2z"/>
<path class="st31" d="M-610.9,459.2"/>
<g class="st32">
	<line class="st33" x1="-618.7" y1="443.5" x2="-618.7" y2="439.7"/>
	<line class="st33" x1="-614.8" y1="443.5" x2="-614.8" y2="430.1"/>
	<line class="st33" x1="-611" y1="443.5" x2="-611" y2="435.8"/>
	<line class="st33" x1="-607.1" y1="443.5" x2="-607.1" y2="433.9"/>
	<line class="st33" x1="-603.3" y1="443.5" x2="-603.3" y2="428.1"/>
</g>
<g>
	<line class="st34" x1="-619.3" y1="442.8" x2="-619.3" y2="439"/>
	<line class="st35" x1="-615.5" y1="442.8" x2="-615.5" y2="429.4"/>
	<line class="st36" x1="-611.7" y1="442.8" x2="-611.7" y2="435.2"/>
	<line class="st37" x1="-607.8" y1="442.8" x2="-607.8" y2="433.2"/>
	<line class="st35" x1="-604" y1="442.8" x2="-604" y2="427.5"/>
</g>
<rect x="-644" y="471" class="st38" width="150" height="23"/>
<path class="st39" d="M-543,487h-90c-1.1,0-2-0.9-2-2v-5c0-1.1,0.9-2,2-2h90c1.1,0,2,0.9,2,2v5C-541,486.1-541.9,487-543,487z"/>
<path class="st16" d="M-505,487h-28c-1.1,0-2-0.9-2-2v-5c0-1.1,0.9-2,2-2h28c1.1,0,2,0.9,2,2v5C-503,486.1-503.9,487-505,487z"/>
</svg>
