<?xml version="1.0" encoding="utf-8"?>
<!-- Generator: Adobe Illustrator 19.1.0, SVG Export Plug-In . SVG Version: 6.00 Build 0)  -->
<svg version="1.1" id="Layer_1" xmlns="http://www.w3.org/2000/svg" xmlns:xlink="http://www.w3.org/1999/xlink" x="0px" y="0px"
	 viewBox="40 -8 150 86" style="enable-background:new 40 -8 150 86;" xml:space="preserve">
<style type="text/css">
	.st0{fill:#FFB040;}
	.st1{opacity:0.25;enable-background:new    ;}
	.st2{opacity:0.1;enable-background:new    ;}
	.st3{fill:#FFFFFF;enable-background:new    ;}
	.st4{fill:#FF664B;}
	.st5{fill:#F5E7DD;}
	.st6{opacity:0.2;fill:#333333;enable-background:new    ;}
	.st7{fill:#FFF5CC;stroke:#1B293C;stroke-width:1.1479;stroke-linecap:round;stroke-linejoin:round;stroke-miterlimit:10;}
	.st8{fill:none;stroke:#1B293C;stroke-width:1.1479;stroke-linecap:round;stroke-linejoin:round;stroke-miterlimit:10;}
	.st9{clip-path:url(#SVGID_2_);}
	.st10{fill:#FFFFFF;stroke:#000000;stroke-width:1.1479;stroke-linecap:round;stroke-linejoin:round;stroke-miterlimit:10;}
	.st11{fill:none;stroke:#999999;stroke-width:0.5739;stroke-linecap:round;stroke-linejoin:round;stroke-miterlimit:10;}
	.st12{fill:#E05B49;stroke:#000000;stroke-width:0.5739;stroke-linecap:round;stroke-linejoin:round;stroke-miterlimit:10;}
	.st13{opacity:0.35;fill:#293342;enable-background:new    ;}
	.st14{display:none;}
</style>
<g id="Layer_1_1_">
	<rect x="40" y="-8" class="st0" width="150" height="63"/>
	<path class="st1" d="M180,6h-77.7c-0.6,0-1-0.4-1-1l0,0c0-0.6,0.4-1,1-1H180c0.6,0,1,0.4,1,1l0,0C181,5.6,180.6,6,180,6z"/>
	<path class="st2" d="M180,15h-77.7c-0.6,0-1-0.4-1-1l0,0c0-0.6,0.4-1,1-1H180c0.6,0,1,0.4,1,1l0,0C181,14.6,180.6,15,180,15z"/>
	<path class="st2" d="M180,24h-77.7c-0.6,0-1-0.4-1-1l0,0c0-0.6,0.4-1,1-1H180c0.6,0,1,0.4,1,1l0,0C181,23.6,180.6,24,180,24z"/>
	<path class="st2" d="M180,33h-77.7c-0.6,0-1-0.4-1-1l0,0c0-0.6,0.4-1,1-1H180c0.6,0,1,0.4,1,1l0,0C181,32.6,180.6,33,180,33z"/>
	<path class="st2" d="M180,42h-77.7c-0.6,0-1-0.4-1-1l0,0c0-0.6,0.4-1,1-1H180c0.6,0,1,0.4,1,1l0,0C181,41.6,180.6,42,180,42z"/>
	<rect x="40" y="55" class="st0" width="150" height="23"/>
	<path class="st3" d="M141,71H51c-1.1,0-2-0.9-2-2v-5c0-1.1,0.9-2,2-2h90c1.1,0,2,0.9,2,2v5C143,70.1,142.1,71,141,71z"/>
	<path class="st4" d="M179,71h-28c-1.1,0-2-0.9-2-2v-5c0-1.1,0.9-2,2-2h28c1.1,0,2,0.9,2,2v5C181,70.1,180.1,71,179,71z"/>
	<g>
		<g>
			<path class="st5" d="M85.8,1.4"/>
		</g>
	</g>
	<ellipse class="st6" cx="68" cy="47.1" rx="11.5" ry="1.5"/>
	<path class="st7" d="M56.8,16.3l-2.2,1.6v17c0,0.9,0.8,1.7,1.7,1.7h23c1,0,1.7-0.8,1.7-1.7v-17l-2.2-1.8"/>
	<line class="st8" x1="65.2" y1="27.6" x2="54.8" y2="17.9"/>
	<line class="st8" x1="81" y1="18.1" x2="70.7" y2="27.6"/>
	<g>
		<g>
			<g>
				<defs>
					<path id="SVGID_1_" d="M53.2,15.7l12.1,11.1l1.5-1.2c0.7-0.5,1.6-0.6,2.3,0l1.7,1.3L82,16.6l0.6-19.9H52.2L53.2,15.7z"/>
				</defs>
				<clipPath id="SVGID_2_">
					<use xlink:href="#SVGID_1_"  style="overflow:visible;"/>
				</clipPath>
				<g class="st9">
					<g>
						<path class="st10" d="M76.7,28.7H59.3c-1,0-1.9-0.8-1.9-1.9V6.7l6.4-6.6h12.8c1,0,1.9,0.8,1.9,1.9v24.8
							C78.5,27.8,77.7,28.7,76.7,28.7z"/>
						<path class="st10" d="M58.1,7.6h4.3c1,0,1.9-0.8,1.9-1.9v-5"/>
					</g>
					<line class="st11" x1="69.5" y1="5.4" x2="75.4" y2="5.4"/>
					<line class="st11" x1="60.1" y1="12.4" x2="66" y2="12.4"/>
					<line class="st11" x1="60.1" y1="16" x2="66" y2="16"/>
					<rect x="68.9" y="8.9" class="st12" width="7" height="7"/>
					<line class="st11" x1="60.1" y1="19.5" x2="66" y2="19.5"/>
					<line class="st11" x1="69.5" y1="19.5" x2="75.4" y2="19.5"/>
					<line class="st11" x1="60.1" y1="23" x2="66" y2="23"/>
					<line class="st11" x1="69.5" y1="23" x2="75.4" y2="23"/>
				</g>
			</g>
		</g>
	</g>
	<path class="st13" d="M55.2,17.5c0,0,6.7,7.5,12.6,7.5c5.4,0,12.7-7.2,12.7-7.2l-9.6,9.1h-6L55.2,17.5z"/>
	<path class="st7" d="M80.4,35.6L69,26.3c-0.6-0.5-1.6-0.5-2.2,0l-11.4,9.4"/>
</g>
<g id="Layer_2" class="st14">
</g>
</svg>
